%TF.GenerationSoftware,KiCad,Pcbnew,9.0.7*%
%TF.CreationDate,2026-02-21T20:40:54+08:00*%
%TF.ProjectId,lqfp48_breakout,6c716670-3438-45f6-9272-65616b6f7574,rev?*%
%TF.SameCoordinates,Original*%
%TF.FileFunction,Paste,Top*%
%TF.FilePolarity,Positive*%
%FSLAX46Y46*%
G04 Gerber Fmt 4.6, Leading zero omitted, Abs format (unit mm)*
G04 Created by KiCad (PCBNEW 9.0.7) date 2026-02-21 20:40:54*
%MOMM*%
%LPD*%
G01*
G04 APERTURE LIST*
G04 Aperture macros list*
%AMRoundRect*
0 Rectangle with rounded corners*
0 $1 Rounding radius*
0 $2 $3 $4 $5 $6 $7 $8 $9 X,Y pos of 4 corners*
0 Add a 4 corners polygon primitive as box body*
4,1,4,$2,$3,$4,$5,$6,$7,$8,$9,$2,$3,0*
0 Add four circle primitives for the rounded corners*
1,1,$1+$1,$2,$3*
1,1,$1+$1,$4,$5*
1,1,$1+$1,$6,$7*
1,1,$1+$1,$8,$9*
0 Add four rect primitives between the rounded corners*
20,1,$1+$1,$2,$3,$4,$5,0*
20,1,$1+$1,$4,$5,$6,$7,0*
20,1,$1+$1,$6,$7,$8,$9,0*
20,1,$1+$1,$8,$9,$2,$3,0*%
G04 Aperture macros list end*
%ADD10RoundRect,0.075000X-0.521491X0.415425X0.415425X-0.521491X0.521491X-0.415425X-0.415425X0.521491X0*%
%ADD11RoundRect,0.075000X-0.521491X-0.415425X-0.415425X-0.521491X0.521491X0.415425X0.415425X0.521491X0*%
G04 APERTURE END LIST*
D10*
%TO.C,U1*%
X168926212Y-86077802D03*
X168572658Y-86431356D03*
X168219105Y-86784909D03*
X167865551Y-87138463D03*
X167511998Y-87492016D03*
X167158445Y-87845569D03*
X166804891Y-88199123D03*
X166451338Y-88552676D03*
X166097785Y-88906229D03*
X165744231Y-89259783D03*
X165390678Y-89613336D03*
X165037124Y-89966890D03*
D11*
X165037124Y-91964466D03*
X165390678Y-92318020D03*
X165744231Y-92671573D03*
X166097785Y-93025127D03*
X166451338Y-93378680D03*
X166804891Y-93732233D03*
X167158445Y-94085787D03*
X167511998Y-94439340D03*
X167865551Y-94792893D03*
X168219105Y-95146447D03*
X168572658Y-95500000D03*
X168926212Y-95853554D03*
D10*
X170923788Y-95853554D03*
X171277342Y-95500000D03*
X171630895Y-95146447D03*
X171984449Y-94792893D03*
X172338002Y-94439340D03*
X172691555Y-94085787D03*
X173045109Y-93732233D03*
X173398662Y-93378680D03*
X173752215Y-93025127D03*
X174105769Y-92671573D03*
X174459322Y-92318020D03*
X174812876Y-91964466D03*
D11*
X174812876Y-89966890D03*
X174459322Y-89613336D03*
X174105769Y-89259783D03*
X173752215Y-88906229D03*
X173398662Y-88552676D03*
X173045109Y-88199123D03*
X172691555Y-87845569D03*
X172338002Y-87492016D03*
X171984449Y-87138463D03*
X171630895Y-86784909D03*
X171277342Y-86431356D03*
X170923788Y-86077802D03*
%TD*%
M02*
