%TF.GenerationSoftware,KiCad,Pcbnew,9.0.7*%
%TF.CreationDate,2026-02-21T20:40:54+08:00*%
%TF.ProjectId,lqfp48_breakout,6c716670-3438-45f6-9272-65616b6f7574,rev?*%
%TF.SameCoordinates,Original*%
%TF.FileFunction,Copper,L2,Bot*%
%TF.FilePolarity,Positive*%
%FSLAX46Y46*%
G04 Gerber Fmt 4.6, Leading zero omitted, Abs format (unit mm)*
G04 Created by KiCad (PCBNEW 9.0.7) date 2026-02-21 20:40:54*
%MOMM*%
%LPD*%
G01*
G04 APERTURE LIST*
G04 Aperture macros list*
%AMRoundRect*
0 Rectangle with rounded corners*
0 $1 Rounding radius*
0 $2 $3 $4 $5 $6 $7 $8 $9 X,Y pos of 4 corners*
0 Add a 4 corners polygon primitive as box body*
4,1,4,$2,$3,$4,$5,$6,$7,$8,$9,$2,$3,0*
0 Add four circle primitives for the rounded corners*
1,1,$1+$1,$2,$3*
1,1,$1+$1,$4,$5*
1,1,$1+$1,$6,$7*
1,1,$1+$1,$8,$9*
0 Add four rect primitives between the rounded corners*
20,1,$1+$1,$2,$3,$4,$5,0*
20,1,$1+$1,$4,$5,$6,$7,0*
20,1,$1+$1,$6,$7,$8,$9,0*
20,1,$1+$1,$8,$9,$2,$3,0*%
G04 Aperture macros list end*
%TA.AperFunction,ComponentPad*%
%ADD10R,1.700000X1.700000*%
%TD*%
%TA.AperFunction,ComponentPad*%
%ADD11C,1.700000*%
%TD*%
%TA.AperFunction,SMDPad,CuDef*%
%ADD12RoundRect,0.250000X-0.250000X-0.475000X0.250000X-0.475000X0.250000X0.475000X-0.250000X0.475000X0*%
%TD*%
%TA.AperFunction,ViaPad*%
%ADD13C,0.600000*%
%TD*%
%TA.AperFunction,Conductor*%
%ADD14C,0.200000*%
%TD*%
G04 APERTURE END LIST*
D10*
%TO.P,J1,1,Pin_1*%
%TO.N,+3V3*%
X160900000Y-61765678D03*
D11*
%TO.P,J1,2,Pin_2*%
%TO.N,/PC13*%
X160900000Y-64305678D03*
%TO.P,J1,3,Pin_3*%
%TO.N,/PC14*%
X160900000Y-66845678D03*
%TO.P,J1,4,Pin_4*%
%TO.N,/PC15*%
X160900000Y-69385678D03*
%TO.P,J1,5,Pin_5*%
%TO.N,/PD0*%
X160900000Y-71925678D03*
%TO.P,J1,6,Pin_6*%
%TO.N,/PD1*%
X160900000Y-74465678D03*
%TO.P,J1,7,Pin_7*%
%TO.N,/NRST*%
X160900000Y-77005678D03*
%TO.P,J1,8,Pin_8*%
%TO.N,GND*%
X160900000Y-79545678D03*
%TO.P,J1,9,Pin_9*%
%TO.N,+3V3*%
X160900000Y-82085678D03*
%TO.P,J1,10,Pin_10*%
%TO.N,/PA0*%
X160900000Y-84625678D03*
%TO.P,J1,11,Pin_11*%
%TO.N,/PA1*%
X160900000Y-87165678D03*
%TO.P,J1,12,Pin_12*%
%TO.N,/PA2*%
X160900000Y-89705678D03*
%TO.P,J1,13,Pin_13*%
%TO.N,/PA3*%
X160900000Y-92245678D03*
%TO.P,J1,14,Pin_14*%
%TO.N,/PA4*%
X160900000Y-94785678D03*
%TO.P,J1,15,Pin_15*%
%TO.N,/PA5*%
X160900000Y-97325678D03*
%TO.P,J1,16,Pin_16*%
%TO.N,/PA6*%
X160900000Y-99865678D03*
%TO.P,J1,17,Pin_17*%
%TO.N,/PA7*%
X160900000Y-102405678D03*
%TO.P,J1,18,Pin_18*%
%TO.N,/PB0*%
X160900000Y-104945678D03*
%TO.P,J1,19,Pin_19*%
%TO.N,/PB1*%
X160900000Y-107485678D03*
%TO.P,J1,20,Pin_20*%
%TO.N,/PB2*%
X160900000Y-110025678D03*
%TO.P,J1,21,Pin_21*%
%TO.N,/PB10*%
X160900000Y-112565678D03*
%TO.P,J1,22,Pin_22*%
%TO.N,/PB11*%
X160900000Y-115105678D03*
%TO.P,J1,23,Pin_23*%
%TO.N,GND*%
X160900000Y-117645678D03*
%TO.P,J1,24,Pin_24*%
%TO.N,+3V3*%
X160900000Y-120185678D03*
%TD*%
D10*
%TO.P,J2,1,Pin_1*%
%TO.N,/PB12*%
X179000000Y-120165678D03*
D11*
%TO.P,J2,2,Pin_2*%
%TO.N,/PB13*%
X179000000Y-117625678D03*
%TO.P,J2,3,Pin_3*%
%TO.N,/PB14*%
X179000000Y-115085679D03*
%TO.P,J2,4,Pin_4*%
%TO.N,/PB15*%
X179000000Y-112545678D03*
%TO.P,J2,5,Pin_5*%
%TO.N,/PA8*%
X179000000Y-110005678D03*
%TO.P,J2,6,Pin_6*%
%TO.N,/PA9*%
X179000000Y-107465678D03*
%TO.P,J2,7,Pin_7*%
%TO.N,/PA10*%
X179000000Y-104925678D03*
%TO.P,J2,8,Pin_8*%
%TO.N,/PA11*%
X179000000Y-102385677D03*
%TO.P,J2,9,Pin_9*%
%TO.N,/PA12*%
X179000000Y-99845678D03*
%TO.P,J2,10,Pin_10*%
%TO.N,/PA13*%
X179000000Y-97305678D03*
%TO.P,J2,11,Pin_11*%
%TO.N,unconnected-(J2-Pin_11-Pad11)*%
X179000000Y-94765678D03*
%TO.P,J2,12,Pin_12*%
%TO.N,+3V3*%
X179000000Y-92225679D03*
%TO.P,J2,13,Pin_13*%
%TO.N,/PA14*%
X179000000Y-89685678D03*
%TO.P,J2,14,Pin_14*%
%TO.N,/PA15*%
X179000000Y-87145678D03*
%TO.P,J2,15,Pin_15*%
%TO.N,/PB3*%
X179000000Y-84605678D03*
%TO.P,J2,16,Pin_16*%
%TO.N,/PB4*%
X179000000Y-82065679D03*
%TO.P,J2,17,Pin_17*%
%TO.N,/PB5*%
X179000000Y-79525677D03*
%TO.P,J2,18,Pin_18*%
%TO.N,/PB6*%
X179000000Y-76985678D03*
%TO.P,J2,19,Pin_19*%
%TO.N,/PB7*%
X179000000Y-74445678D03*
%TO.P,J2,20,Pin_20*%
%TO.N,/BOOT0*%
X179000000Y-71905678D03*
%TO.P,J2,21,Pin_21*%
%TO.N,/PB8*%
X179000000Y-69365679D03*
%TO.P,J2,22,Pin_22*%
%TO.N,/PB9*%
X179000000Y-66825678D03*
%TO.P,J2,23,Pin_23*%
%TO.N,unconnected-(J2-Pin_23-Pad23)*%
X179000000Y-64285678D03*
%TO.P,J2,24,Pin_24*%
%TO.N,+3V3*%
X179000000Y-61745678D03*
%TD*%
D12*
%TO.P,C1,1*%
%TO.N,+3V3*%
X169050001Y-80500000D03*
%TO.P,C1,2*%
%TO.N,GND*%
X170949999Y-80500000D03*
%TD*%
D13*
%TO.N,+3V3*%
X169500000Y-82500000D03*
%TO.N,GND*%
X173000000Y-91500000D03*
X170500000Y-88000000D03*
X168500000Y-89000000D03*
X169500000Y-94000000D03*
%TD*%
D14*
%TO.N,+3V3*%
X169500000Y-82399998D02*
X169050001Y-81949999D01*
X169500000Y-82500000D02*
X169500000Y-82399998D01*
X165414322Y-82085678D02*
X160900000Y-82085678D01*
X169050001Y-80500000D02*
X167000000Y-80500000D01*
X169050001Y-81949999D02*
X169050001Y-80500000D01*
X167000000Y-80500000D02*
X165414322Y-82085678D01*
%TD*%
%TA.AperFunction,Conductor*%
%TO.N,GND*%
G36*
X181308363Y-57520185D02*
G01*
X181329005Y-57536819D01*
X182963181Y-59170995D01*
X182996666Y-59232318D01*
X182999500Y-59258676D01*
X182999500Y-121741324D01*
X182979815Y-121808363D01*
X182963181Y-121829005D01*
X181329005Y-123463181D01*
X181267682Y-123496666D01*
X181241324Y-123499500D01*
X158758676Y-123499500D01*
X158691637Y-123479815D01*
X158670995Y-123463181D01*
X157036819Y-121829005D01*
X157003334Y-121767682D01*
X157000500Y-121741324D01*
X157000500Y-60867813D01*
X159549500Y-60867813D01*
X159549500Y-62663548D01*
X159549501Y-62663554D01*
X159555908Y-62723161D01*
X159606202Y-62858006D01*
X159606206Y-62858013D01*
X159692452Y-62973222D01*
X159692455Y-62973225D01*
X159807664Y-63059471D01*
X159807671Y-63059475D01*
X159939082Y-63108488D01*
X159995016Y-63150359D01*
X160019433Y-63215823D01*
X160004582Y-63284096D01*
X159983431Y-63312351D01*
X159869889Y-63425893D01*
X159744951Y-63597857D01*
X159648444Y-63787263D01*
X159582753Y-63989438D01*
X159549500Y-64199391D01*
X159549500Y-64411964D01*
X159579585Y-64601917D01*
X159582754Y-64621921D01*
X159641945Y-64804092D01*
X159648444Y-64824092D01*
X159744951Y-65013498D01*
X159869890Y-65185464D01*
X160020213Y-65335787D01*
X160192182Y-65460728D01*
X160200946Y-65465194D01*
X160251742Y-65513169D01*
X160268536Y-65580990D01*
X160245998Y-65647125D01*
X160200946Y-65686162D01*
X160192182Y-65690627D01*
X160020213Y-65815568D01*
X159869890Y-65965891D01*
X159744951Y-66137857D01*
X159648444Y-66327263D01*
X159582753Y-66529438D01*
X159549500Y-66739391D01*
X159549500Y-66951964D01*
X159579585Y-67141917D01*
X159582754Y-67161921D01*
X159641945Y-67344092D01*
X159648444Y-67364092D01*
X159744951Y-67553498D01*
X159869890Y-67725464D01*
X160020213Y-67875787D01*
X160192182Y-68000728D01*
X160200946Y-68005194D01*
X160251742Y-68053169D01*
X160268536Y-68120990D01*
X160245998Y-68187125D01*
X160200946Y-68226162D01*
X160192182Y-68230627D01*
X160020213Y-68355568D01*
X159869890Y-68505891D01*
X159744951Y-68677857D01*
X159648444Y-68867263D01*
X159582753Y-69069438D01*
X159549500Y-69279391D01*
X159549500Y-69491964D01*
X159582753Y-69701917D01*
X159648444Y-69904092D01*
X159744951Y-70093498D01*
X159869890Y-70265464D01*
X160020213Y-70415787D01*
X160192182Y-70540728D01*
X160200946Y-70545194D01*
X160251742Y-70593169D01*
X160268536Y-70660990D01*
X160245998Y-70727125D01*
X160200946Y-70766162D01*
X160192182Y-70770627D01*
X160020213Y-70895568D01*
X159869890Y-71045891D01*
X159744951Y-71217857D01*
X159648444Y-71407263D01*
X159582753Y-71609438D01*
X159549500Y-71819391D01*
X159549500Y-72031964D01*
X159579585Y-72221917D01*
X159582754Y-72241921D01*
X159641945Y-72424092D01*
X159648444Y-72444092D01*
X159744951Y-72633498D01*
X159869890Y-72805464D01*
X160020213Y-72955787D01*
X160192182Y-73080728D01*
X160200946Y-73085194D01*
X160251742Y-73133169D01*
X160268536Y-73200990D01*
X160245998Y-73267125D01*
X160200946Y-73306162D01*
X160192182Y-73310627D01*
X160020213Y-73435568D01*
X159869890Y-73585891D01*
X159744951Y-73757857D01*
X159648444Y-73947263D01*
X159582753Y-74149438D01*
X159549500Y-74359391D01*
X159549500Y-74571964D01*
X159579585Y-74761917D01*
X159582754Y-74781921D01*
X159641945Y-74964092D01*
X159648444Y-74984092D01*
X159744951Y-75173498D01*
X159869890Y-75345464D01*
X160020213Y-75495787D01*
X160192182Y-75620728D01*
X160200946Y-75625194D01*
X160251742Y-75673169D01*
X160268536Y-75740990D01*
X160245998Y-75807125D01*
X160200946Y-75846162D01*
X160192182Y-75850627D01*
X160020213Y-75975568D01*
X159869890Y-76125891D01*
X159744951Y-76297857D01*
X159648444Y-76487263D01*
X159582753Y-76689438D01*
X159549500Y-76899391D01*
X159549500Y-77111964D01*
X159579585Y-77301917D01*
X159582754Y-77321921D01*
X159641945Y-77504092D01*
X159648444Y-77524092D01*
X159744951Y-77713498D01*
X159869890Y-77885464D01*
X160020213Y-78035787D01*
X160192179Y-78160726D01*
X160192181Y-78160727D01*
X160192184Y-78160729D01*
X160201493Y-78165472D01*
X160252290Y-78213444D01*
X160269087Y-78281265D01*
X160246552Y-78347400D01*
X160201505Y-78386438D01*
X160192446Y-78391054D01*
X160192440Y-78391058D01*
X160138282Y-78430405D01*
X160138282Y-78430406D01*
X160770591Y-79062715D01*
X160707007Y-79079753D01*
X160592993Y-79145579D01*
X160499901Y-79238671D01*
X160434075Y-79352685D01*
X160417037Y-79416269D01*
X159784728Y-78783960D01*
X159784727Y-78783960D01*
X159745380Y-78838117D01*
X159648904Y-79027460D01*
X159583242Y-79229547D01*
X159583242Y-79229550D01*
X159550000Y-79439431D01*
X159550000Y-79651924D01*
X159583242Y-79861805D01*
X159583242Y-79861808D01*
X159648904Y-80063895D01*
X159745375Y-80253228D01*
X159784728Y-80307394D01*
X160417037Y-79675086D01*
X160434075Y-79738671D01*
X160499901Y-79852685D01*
X160592993Y-79945777D01*
X160707007Y-80011603D01*
X160770590Y-80028640D01*
X160138282Y-80660947D01*
X160138282Y-80660948D01*
X160192452Y-80700304D01*
X160192451Y-80700304D01*
X160201495Y-80704912D01*
X160252292Y-80752886D01*
X160269087Y-80820707D01*
X160246550Y-80886842D01*
X160201499Y-80925880D01*
X160192182Y-80930627D01*
X160020213Y-81055568D01*
X159869890Y-81205891D01*
X159744951Y-81377857D01*
X159648444Y-81567263D01*
X159582753Y-81769438D01*
X159549500Y-81979391D01*
X159549500Y-82191964D01*
X159579585Y-82381918D01*
X159582754Y-82401921D01*
X159640239Y-82578842D01*
X159648444Y-82604092D01*
X159744951Y-82793498D01*
X159869890Y-82965464D01*
X160020213Y-83115787D01*
X160192182Y-83240728D01*
X160200946Y-83245194D01*
X160251742Y-83293169D01*
X160268536Y-83360990D01*
X160245998Y-83427125D01*
X160200946Y-83466162D01*
X160192182Y-83470627D01*
X160020213Y-83595568D01*
X159869890Y-83745891D01*
X159744951Y-83917857D01*
X159648444Y-84107263D01*
X159582753Y-84309438D01*
X159549500Y-84519391D01*
X159549500Y-84731964D01*
X159579585Y-84921917D01*
X159582754Y-84941921D01*
X159641945Y-85124092D01*
X159648444Y-85144092D01*
X159744951Y-85333498D01*
X159869890Y-85505464D01*
X160020213Y-85655787D01*
X160192182Y-85780728D01*
X160200946Y-85785194D01*
X160251742Y-85833169D01*
X160268536Y-85900990D01*
X160245998Y-85967125D01*
X160200946Y-86006162D01*
X160192182Y-86010627D01*
X160020213Y-86135568D01*
X159869890Y-86285891D01*
X159744951Y-86457857D01*
X159648444Y-86647263D01*
X159582753Y-86849438D01*
X159549500Y-87059391D01*
X159549500Y-87271964D01*
X159579585Y-87461917D01*
X159582754Y-87481921D01*
X159641945Y-87664092D01*
X159648444Y-87684092D01*
X159744951Y-87873498D01*
X159869890Y-88045464D01*
X160020213Y-88195787D01*
X160192182Y-88320728D01*
X160200946Y-88325194D01*
X160251742Y-88373169D01*
X160268536Y-88440990D01*
X160245998Y-88507125D01*
X160200946Y-88546162D01*
X160192182Y-88550627D01*
X160020213Y-88675568D01*
X159869890Y-88825891D01*
X159744951Y-88997857D01*
X159648444Y-89187263D01*
X159582753Y-89389438D01*
X159549500Y-89599391D01*
X159549500Y-89811964D01*
X159579585Y-90001917D01*
X159582754Y-90021921D01*
X159641945Y-90204092D01*
X159648444Y-90224092D01*
X159744951Y-90413498D01*
X159869890Y-90585464D01*
X160020213Y-90735787D01*
X160192182Y-90860728D01*
X160200946Y-90865194D01*
X160251742Y-90913169D01*
X160268536Y-90980990D01*
X160245998Y-91047125D01*
X160200946Y-91086162D01*
X160192182Y-91090627D01*
X160020213Y-91215568D01*
X159869890Y-91365891D01*
X159744951Y-91537857D01*
X159648444Y-91727263D01*
X159582753Y-91929438D01*
X159549500Y-92139391D01*
X159549500Y-92351964D01*
X159582753Y-92561917D01*
X159648444Y-92764092D01*
X159744951Y-92953498D01*
X159869890Y-93125464D01*
X160020213Y-93275787D01*
X160192182Y-93400728D01*
X160200946Y-93405194D01*
X160251742Y-93453169D01*
X160268536Y-93520990D01*
X160245998Y-93587125D01*
X160200946Y-93626162D01*
X160192182Y-93630627D01*
X160020213Y-93755568D01*
X159869890Y-93905891D01*
X159744951Y-94077857D01*
X159648444Y-94267263D01*
X159582753Y-94469438D01*
X159549500Y-94679391D01*
X159549500Y-94891964D01*
X159579585Y-95081917D01*
X159582754Y-95101921D01*
X159641945Y-95284092D01*
X159648444Y-95304092D01*
X159744951Y-95493498D01*
X159869890Y-95665464D01*
X160020213Y-95815787D01*
X160192182Y-95940728D01*
X160200946Y-95945194D01*
X160251742Y-95993169D01*
X160268536Y-96060990D01*
X160245998Y-96127125D01*
X160200946Y-96166162D01*
X160192182Y-96170627D01*
X160020213Y-96295568D01*
X159869890Y-96445891D01*
X159744951Y-96617857D01*
X159648444Y-96807263D01*
X159582753Y-97009438D01*
X159549500Y-97219391D01*
X159549500Y-97431964D01*
X159579585Y-97621917D01*
X159582754Y-97641921D01*
X159641945Y-97824092D01*
X159648444Y-97844092D01*
X159744951Y-98033498D01*
X159869890Y-98205464D01*
X160020213Y-98355787D01*
X160192182Y-98480728D01*
X160200946Y-98485194D01*
X160251742Y-98533169D01*
X160268536Y-98600990D01*
X160245998Y-98667125D01*
X160200946Y-98706162D01*
X160192182Y-98710627D01*
X160020213Y-98835568D01*
X159869890Y-98985891D01*
X159744951Y-99157857D01*
X159648444Y-99347263D01*
X159582753Y-99549438D01*
X159549500Y-99759391D01*
X159549500Y-99971964D01*
X159579585Y-100161917D01*
X159582754Y-100181921D01*
X159641945Y-100364092D01*
X159648444Y-100384092D01*
X159744951Y-100573498D01*
X159869890Y-100745464D01*
X160020213Y-100895787D01*
X160192182Y-101020728D01*
X160200946Y-101025194D01*
X160251742Y-101073169D01*
X160268536Y-101140990D01*
X160245998Y-101207125D01*
X160200946Y-101246162D01*
X160192182Y-101250627D01*
X160020213Y-101375568D01*
X159869890Y-101525891D01*
X159744951Y-101697857D01*
X159648444Y-101887263D01*
X159582753Y-102089438D01*
X159552668Y-102279390D01*
X159549500Y-102299391D01*
X159549500Y-102511965D01*
X159582754Y-102721921D01*
X159641944Y-102904089D01*
X159648444Y-102924092D01*
X159744951Y-103113498D01*
X159869890Y-103285464D01*
X160020213Y-103435787D01*
X160192182Y-103560728D01*
X160200946Y-103565194D01*
X160251742Y-103613169D01*
X160268536Y-103680990D01*
X160245998Y-103747125D01*
X160200946Y-103786162D01*
X160192182Y-103790627D01*
X160020213Y-103915568D01*
X159869890Y-104065891D01*
X159744951Y-104237857D01*
X159648444Y-104427263D01*
X159582753Y-104629438D01*
X159549500Y-104839391D01*
X159549500Y-105051964D01*
X159579585Y-105241917D01*
X159582754Y-105261921D01*
X159641945Y-105444092D01*
X159648444Y-105464092D01*
X159744951Y-105653498D01*
X159869890Y-105825464D01*
X160020213Y-105975787D01*
X160192182Y-106100728D01*
X160200946Y-106105194D01*
X160251742Y-106153169D01*
X160268536Y-106220990D01*
X160245998Y-106287125D01*
X160200946Y-106326162D01*
X160192182Y-106330627D01*
X160020213Y-106455568D01*
X159869890Y-106605891D01*
X159744951Y-106777857D01*
X159648444Y-106967263D01*
X159582753Y-107169438D01*
X159549500Y-107379391D01*
X159549500Y-107591964D01*
X159579585Y-107781917D01*
X159582754Y-107801921D01*
X159641945Y-107984092D01*
X159648444Y-108004092D01*
X159744951Y-108193498D01*
X159869890Y-108365464D01*
X160020213Y-108515787D01*
X160192182Y-108640728D01*
X160200946Y-108645194D01*
X160251742Y-108693169D01*
X160268536Y-108760990D01*
X160245998Y-108827125D01*
X160200946Y-108866162D01*
X160192182Y-108870627D01*
X160020213Y-108995568D01*
X159869890Y-109145891D01*
X159744951Y-109317857D01*
X159648444Y-109507263D01*
X159582753Y-109709438D01*
X159549500Y-109919391D01*
X159549500Y-110131964D01*
X159579585Y-110321917D01*
X159582754Y-110341921D01*
X159641945Y-110524092D01*
X159648444Y-110544092D01*
X159744951Y-110733498D01*
X159869890Y-110905464D01*
X160020213Y-111055787D01*
X160192182Y-111180728D01*
X160200946Y-111185194D01*
X160251742Y-111233169D01*
X160268536Y-111300990D01*
X160245998Y-111367125D01*
X160200946Y-111406162D01*
X160192182Y-111410627D01*
X160020213Y-111535568D01*
X159869890Y-111685891D01*
X159744951Y-111857857D01*
X159648444Y-112047263D01*
X159582753Y-112249438D01*
X159549500Y-112459391D01*
X159549500Y-112671964D01*
X159579585Y-112861917D01*
X159582754Y-112881921D01*
X159641945Y-113064092D01*
X159648444Y-113084092D01*
X159744951Y-113273498D01*
X159869890Y-113445464D01*
X160020213Y-113595787D01*
X160192182Y-113720728D01*
X160200946Y-113725194D01*
X160251742Y-113773169D01*
X160268536Y-113840990D01*
X160245998Y-113907125D01*
X160200946Y-113946162D01*
X160192182Y-113950627D01*
X160020213Y-114075568D01*
X159869890Y-114225891D01*
X159744951Y-114397857D01*
X159648444Y-114587263D01*
X159582753Y-114789438D01*
X159549500Y-114999391D01*
X159549500Y-115211964D01*
X159582753Y-115421917D01*
X159648444Y-115624092D01*
X159744951Y-115813498D01*
X159869890Y-115985464D01*
X160020213Y-116135787D01*
X160192179Y-116260726D01*
X160192181Y-116260727D01*
X160192184Y-116260729D01*
X160201493Y-116265472D01*
X160252290Y-116313444D01*
X160269087Y-116381265D01*
X160246552Y-116447400D01*
X160201505Y-116486438D01*
X160192446Y-116491054D01*
X160192440Y-116491058D01*
X160138282Y-116530405D01*
X160138282Y-116530406D01*
X160770591Y-117162715D01*
X160707007Y-117179753D01*
X160592993Y-117245579D01*
X160499901Y-117338671D01*
X160434075Y-117452685D01*
X160417037Y-117516269D01*
X159784728Y-116883960D01*
X159784727Y-116883960D01*
X159745380Y-116938117D01*
X159648904Y-117127460D01*
X159583242Y-117329547D01*
X159583242Y-117329550D01*
X159550000Y-117539431D01*
X159550000Y-117751924D01*
X159583242Y-117961805D01*
X159583242Y-117961808D01*
X159648904Y-118163895D01*
X159745375Y-118353228D01*
X159784728Y-118407394D01*
X160417037Y-117775086D01*
X160434075Y-117838671D01*
X160499901Y-117952685D01*
X160592993Y-118045777D01*
X160707007Y-118111603D01*
X160770590Y-118128640D01*
X160138282Y-118760947D01*
X160138282Y-118760948D01*
X160192452Y-118800304D01*
X160192451Y-118800304D01*
X160201495Y-118804912D01*
X160252292Y-118852886D01*
X160269087Y-118920707D01*
X160246550Y-118986842D01*
X160201499Y-119025880D01*
X160192182Y-119030627D01*
X160020213Y-119155568D01*
X159869890Y-119305891D01*
X159744951Y-119477857D01*
X159648444Y-119667263D01*
X159582753Y-119869438D01*
X159549500Y-120079391D01*
X159549500Y-120291964D01*
X159582753Y-120501917D01*
X159648444Y-120704092D01*
X159744951Y-120893498D01*
X159869890Y-121065464D01*
X160020213Y-121215787D01*
X160192179Y-121340726D01*
X160192181Y-121340727D01*
X160192184Y-121340729D01*
X160381588Y-121437235D01*
X160583757Y-121502924D01*
X160793713Y-121536178D01*
X160793714Y-121536178D01*
X161006286Y-121536178D01*
X161006287Y-121536178D01*
X161216243Y-121502924D01*
X161418412Y-121437235D01*
X161607816Y-121340729D01*
X161721666Y-121258013D01*
X161779786Y-121215787D01*
X161779788Y-121215784D01*
X161779792Y-121215782D01*
X161930104Y-121065470D01*
X161930106Y-121065466D01*
X161930109Y-121065464D01*
X162055048Y-120893498D01*
X162055047Y-120893498D01*
X162055051Y-120893494D01*
X162151557Y-120704090D01*
X162217246Y-120501921D01*
X162250500Y-120291965D01*
X162250500Y-120079391D01*
X162217246Y-119869435D01*
X162151557Y-119667266D01*
X162055051Y-119477862D01*
X162055049Y-119477859D01*
X162055048Y-119477857D01*
X161930109Y-119305891D01*
X161779786Y-119155568D01*
X161607817Y-119030627D01*
X161598504Y-119025882D01*
X161547707Y-118977908D01*
X161530912Y-118910087D01*
X161553449Y-118843952D01*
X161598507Y-118804910D01*
X161607555Y-118800300D01*
X161661716Y-118760948D01*
X161661717Y-118760948D01*
X161029408Y-118128640D01*
X161092993Y-118111603D01*
X161207007Y-118045777D01*
X161300099Y-117952685D01*
X161365925Y-117838671D01*
X161382962Y-117775086D01*
X162015270Y-118407395D01*
X162015270Y-118407394D01*
X162054622Y-118353232D01*
X162151095Y-118163895D01*
X162216757Y-117961808D01*
X162216757Y-117961805D01*
X162250000Y-117751924D01*
X162250000Y-117539431D01*
X162216757Y-117329550D01*
X162216757Y-117329547D01*
X162151095Y-117127460D01*
X162054624Y-116938127D01*
X162015270Y-116883960D01*
X162015269Y-116883960D01*
X161382962Y-117516268D01*
X161365925Y-117452685D01*
X161300099Y-117338671D01*
X161207007Y-117245579D01*
X161092993Y-117179753D01*
X161029409Y-117162715D01*
X161661716Y-116530406D01*
X161607547Y-116491051D01*
X161607547Y-116491050D01*
X161598500Y-116486441D01*
X161547706Y-116438466D01*
X161530912Y-116370644D01*
X161553451Y-116304510D01*
X161598508Y-116265471D01*
X161607816Y-116260729D01*
X161687007Y-116203193D01*
X161779786Y-116135787D01*
X161779788Y-116135784D01*
X161779792Y-116135782D01*
X161930104Y-115985470D01*
X161930106Y-115985466D01*
X161930109Y-115985464D01*
X162055048Y-115813498D01*
X162055047Y-115813498D01*
X162055051Y-115813494D01*
X162151557Y-115624090D01*
X162217246Y-115421921D01*
X162250500Y-115211965D01*
X162250500Y-114999391D01*
X162217246Y-114789435D01*
X162151557Y-114587266D01*
X162055051Y-114397862D01*
X162055049Y-114397859D01*
X162055048Y-114397857D01*
X161930109Y-114225891D01*
X161779786Y-114075568D01*
X161607820Y-113950629D01*
X161607115Y-113950269D01*
X161599054Y-113946163D01*
X161548259Y-113898190D01*
X161531463Y-113830370D01*
X161553999Y-113764234D01*
X161599054Y-113725193D01*
X161607816Y-113720729D01*
X161635348Y-113700726D01*
X161779786Y-113595787D01*
X161779788Y-113595784D01*
X161779792Y-113595782D01*
X161930104Y-113445470D01*
X161930106Y-113445466D01*
X161930109Y-113445464D01*
X162055048Y-113273498D01*
X162055047Y-113273498D01*
X162055051Y-113273494D01*
X162151557Y-113084090D01*
X162217246Y-112881921D01*
X162250500Y-112671965D01*
X162250500Y-112459391D01*
X162217246Y-112249435D01*
X162151557Y-112047266D01*
X162055051Y-111857862D01*
X162055049Y-111857859D01*
X162055048Y-111857857D01*
X161930109Y-111685891D01*
X161779786Y-111535568D01*
X161607820Y-111410629D01*
X161607115Y-111410269D01*
X161599054Y-111406163D01*
X161548259Y-111358190D01*
X161531463Y-111290370D01*
X161553999Y-111224234D01*
X161599054Y-111185193D01*
X161607816Y-111180729D01*
X161635348Y-111160726D01*
X161779786Y-111055787D01*
X161779788Y-111055784D01*
X161779792Y-111055782D01*
X161930104Y-110905470D01*
X161930106Y-110905466D01*
X161930109Y-110905464D01*
X162055048Y-110733498D01*
X162055047Y-110733498D01*
X162055051Y-110733494D01*
X162151557Y-110544090D01*
X162217246Y-110341921D01*
X162250500Y-110131965D01*
X162250500Y-109919391D01*
X162217246Y-109709435D01*
X162151557Y-109507266D01*
X162055051Y-109317862D01*
X162055049Y-109317859D01*
X162055048Y-109317857D01*
X161930109Y-109145891D01*
X161779786Y-108995568D01*
X161607820Y-108870629D01*
X161607115Y-108870269D01*
X161599054Y-108866163D01*
X161548259Y-108818190D01*
X161531463Y-108750370D01*
X161553999Y-108684234D01*
X161599054Y-108645193D01*
X161607816Y-108640729D01*
X161635348Y-108620726D01*
X161779786Y-108515787D01*
X161779788Y-108515784D01*
X161779792Y-108515782D01*
X161930104Y-108365470D01*
X161930106Y-108365466D01*
X161930109Y-108365464D01*
X162055048Y-108193498D01*
X162055047Y-108193498D01*
X162055051Y-108193494D01*
X162151557Y-108004090D01*
X162217246Y-107801921D01*
X162250500Y-107591965D01*
X162250500Y-107379391D01*
X162217246Y-107169435D01*
X162151557Y-106967266D01*
X162055051Y-106777862D01*
X162055049Y-106777859D01*
X162055048Y-106777857D01*
X161930109Y-106605891D01*
X161779786Y-106455568D01*
X161607820Y-106330629D01*
X161607115Y-106330269D01*
X161599054Y-106326163D01*
X161548259Y-106278190D01*
X161531463Y-106210370D01*
X161553999Y-106144234D01*
X161599054Y-106105193D01*
X161607816Y-106100729D01*
X161635348Y-106080726D01*
X161779786Y-105975787D01*
X161779788Y-105975784D01*
X161779792Y-105975782D01*
X161930104Y-105825470D01*
X161930106Y-105825466D01*
X161930109Y-105825464D01*
X162055048Y-105653498D01*
X162055047Y-105653498D01*
X162055051Y-105653494D01*
X162151557Y-105464090D01*
X162217246Y-105261921D01*
X162250500Y-105051965D01*
X162250500Y-104839391D01*
X162217246Y-104629435D01*
X162151557Y-104427266D01*
X162055051Y-104237862D01*
X162055049Y-104237859D01*
X162055048Y-104237857D01*
X161930109Y-104065891D01*
X161779786Y-103915568D01*
X161607820Y-103790629D01*
X161607115Y-103790269D01*
X161599054Y-103786163D01*
X161548259Y-103738190D01*
X161531463Y-103670370D01*
X161553999Y-103604234D01*
X161599054Y-103565193D01*
X161607816Y-103560729D01*
X161635349Y-103540725D01*
X161779786Y-103435787D01*
X161779788Y-103435784D01*
X161779792Y-103435782D01*
X161930104Y-103285470D01*
X161930106Y-103285466D01*
X161930109Y-103285464D01*
X162055048Y-103113498D01*
X162055047Y-103113498D01*
X162055051Y-103113494D01*
X162151557Y-102924090D01*
X162217246Y-102721921D01*
X162250500Y-102511965D01*
X162250500Y-102299391D01*
X162217246Y-102089435D01*
X162151557Y-101887266D01*
X162055051Y-101697862D01*
X162055049Y-101697859D01*
X162055048Y-101697857D01*
X161930109Y-101525891D01*
X161779786Y-101375568D01*
X161607820Y-101250629D01*
X161607115Y-101250269D01*
X161599054Y-101246163D01*
X161548259Y-101198190D01*
X161531463Y-101130370D01*
X161553999Y-101064234D01*
X161599054Y-101025193D01*
X161607816Y-101020729D01*
X161635348Y-101000726D01*
X161779786Y-100895787D01*
X161779788Y-100895784D01*
X161779792Y-100895782D01*
X161930104Y-100745470D01*
X161930106Y-100745466D01*
X161930109Y-100745464D01*
X162055048Y-100573498D01*
X162055047Y-100573498D01*
X162055051Y-100573494D01*
X162151557Y-100384090D01*
X162217246Y-100181921D01*
X162250500Y-99971965D01*
X162250500Y-99759391D01*
X162217246Y-99549435D01*
X162151557Y-99347266D01*
X162055051Y-99157862D01*
X162055049Y-99157859D01*
X162055048Y-99157857D01*
X161930109Y-98985891D01*
X161779786Y-98835568D01*
X161607820Y-98710629D01*
X161607115Y-98710269D01*
X161599054Y-98706163D01*
X161548259Y-98658190D01*
X161531463Y-98590370D01*
X161553999Y-98524234D01*
X161599054Y-98485193D01*
X161607816Y-98480729D01*
X161635348Y-98460726D01*
X161779786Y-98355787D01*
X161779788Y-98355784D01*
X161779792Y-98355782D01*
X161930104Y-98205470D01*
X161930106Y-98205466D01*
X161930109Y-98205464D01*
X162055048Y-98033498D01*
X162055047Y-98033498D01*
X162055051Y-98033494D01*
X162151557Y-97844090D01*
X162217246Y-97641921D01*
X162250500Y-97431965D01*
X162250500Y-97219391D01*
X162217246Y-97009435D01*
X162151557Y-96807266D01*
X162055051Y-96617862D01*
X162055049Y-96617859D01*
X162055048Y-96617857D01*
X161930109Y-96445891D01*
X161779786Y-96295568D01*
X161607820Y-96170629D01*
X161607115Y-96170269D01*
X161599054Y-96166163D01*
X161548259Y-96118190D01*
X161531463Y-96050370D01*
X161553999Y-95984234D01*
X161599054Y-95945193D01*
X161607816Y-95940729D01*
X161635348Y-95920726D01*
X161779786Y-95815787D01*
X161779788Y-95815784D01*
X161779792Y-95815782D01*
X161930104Y-95665470D01*
X161930106Y-95665466D01*
X161930109Y-95665464D01*
X162055048Y-95493498D01*
X162055047Y-95493498D01*
X162055051Y-95493494D01*
X162151557Y-95304090D01*
X162217246Y-95101921D01*
X162250500Y-94891965D01*
X162250500Y-94679391D01*
X162217246Y-94469435D01*
X162151557Y-94267266D01*
X162055051Y-94077862D01*
X162055049Y-94077859D01*
X162055048Y-94077857D01*
X161930109Y-93905891D01*
X161779786Y-93755568D01*
X161607820Y-93630629D01*
X161607115Y-93630269D01*
X161599054Y-93626163D01*
X161548259Y-93578190D01*
X161531463Y-93510370D01*
X161553999Y-93444234D01*
X161599054Y-93405193D01*
X161607816Y-93400729D01*
X161635347Y-93380727D01*
X161779786Y-93275787D01*
X161779788Y-93275784D01*
X161779792Y-93275782D01*
X161930104Y-93125470D01*
X161930106Y-93125466D01*
X161930109Y-93125464D01*
X162055048Y-92953498D01*
X162055047Y-92953498D01*
X162055051Y-92953494D01*
X162151557Y-92764090D01*
X162217246Y-92561921D01*
X162250500Y-92351965D01*
X162250500Y-92139391D01*
X162217246Y-91929435D01*
X162151557Y-91727266D01*
X162055051Y-91537862D01*
X162055049Y-91537859D01*
X162055048Y-91537857D01*
X161930109Y-91365891D01*
X161779786Y-91215568D01*
X161607820Y-91090629D01*
X161607115Y-91090269D01*
X161599054Y-91086163D01*
X161548259Y-91038190D01*
X161531463Y-90970370D01*
X161553999Y-90904234D01*
X161599054Y-90865193D01*
X161607816Y-90860729D01*
X161635348Y-90840726D01*
X161779786Y-90735787D01*
X161779788Y-90735784D01*
X161779792Y-90735782D01*
X161930104Y-90585470D01*
X161930106Y-90585466D01*
X161930109Y-90585464D01*
X162055048Y-90413498D01*
X162055047Y-90413498D01*
X162055051Y-90413494D01*
X162151557Y-90224090D01*
X162217246Y-90021921D01*
X162250500Y-89811965D01*
X162250500Y-89599391D01*
X162217246Y-89389435D01*
X162151557Y-89187266D01*
X162055051Y-88997862D01*
X162055049Y-88997859D01*
X162055048Y-88997857D01*
X161930109Y-88825891D01*
X161779786Y-88675568D01*
X161607820Y-88550629D01*
X161607115Y-88550269D01*
X161599054Y-88546163D01*
X161548259Y-88498190D01*
X161531463Y-88430370D01*
X161553999Y-88364234D01*
X161599054Y-88325193D01*
X161607816Y-88320729D01*
X161635348Y-88300726D01*
X161779786Y-88195787D01*
X161779788Y-88195784D01*
X161779792Y-88195782D01*
X161930104Y-88045470D01*
X161930106Y-88045466D01*
X161930109Y-88045464D01*
X162055048Y-87873498D01*
X162055047Y-87873498D01*
X162055051Y-87873494D01*
X162151557Y-87684090D01*
X162217246Y-87481921D01*
X162250500Y-87271965D01*
X162250500Y-87059391D01*
X162217246Y-86849435D01*
X162151557Y-86647266D01*
X162055051Y-86457862D01*
X162055049Y-86457859D01*
X162055048Y-86457857D01*
X161930109Y-86285891D01*
X161779786Y-86135568D01*
X161607820Y-86010629D01*
X161607115Y-86010269D01*
X161599054Y-86006163D01*
X161548259Y-85958190D01*
X161531463Y-85890370D01*
X161553999Y-85824234D01*
X161599054Y-85785193D01*
X161607816Y-85780729D01*
X161635348Y-85760726D01*
X161779786Y-85655787D01*
X161779788Y-85655784D01*
X161779792Y-85655782D01*
X161930104Y-85505470D01*
X161930106Y-85505466D01*
X161930109Y-85505464D01*
X162055048Y-85333498D01*
X162055047Y-85333498D01*
X162055051Y-85333494D01*
X162151557Y-85144090D01*
X162217246Y-84941921D01*
X162250500Y-84731965D01*
X162250500Y-84519391D01*
X162217246Y-84309435D01*
X162151557Y-84107266D01*
X162055051Y-83917862D01*
X162055049Y-83917859D01*
X162055048Y-83917857D01*
X161930109Y-83745891D01*
X161779786Y-83595568D01*
X161607820Y-83470629D01*
X161607115Y-83470269D01*
X161599054Y-83466163D01*
X161548259Y-83418190D01*
X161531463Y-83350370D01*
X161553999Y-83284234D01*
X161599054Y-83245193D01*
X161607816Y-83240729D01*
X161650951Y-83209390D01*
X161779786Y-83115787D01*
X161779788Y-83115784D01*
X161779792Y-83115782D01*
X161930104Y-82965470D01*
X161930106Y-82965466D01*
X161930109Y-82965464D01*
X161992803Y-82879172D01*
X162055051Y-82793494D01*
X162055349Y-82792908D01*
X162075235Y-82753883D01*
X162123209Y-82703087D01*
X162185719Y-82686178D01*
X165327653Y-82686178D01*
X165327669Y-82686179D01*
X165335265Y-82686179D01*
X165493376Y-82686179D01*
X165493379Y-82686179D01*
X165646107Y-82645255D01*
X165696226Y-82616317D01*
X165783038Y-82566198D01*
X165894842Y-82454394D01*
X165894842Y-82454392D01*
X165905050Y-82444185D01*
X165905051Y-82444182D01*
X167212416Y-81136819D01*
X167273739Y-81103334D01*
X167300097Y-81100500D01*
X167961416Y-81100500D01*
X168028455Y-81120185D01*
X168074210Y-81172989D01*
X168079119Y-81185489D01*
X168115187Y-81294334D01*
X168207289Y-81443656D01*
X168331345Y-81567712D01*
X168390597Y-81604258D01*
X168397421Y-81611844D01*
X168406704Y-81616084D01*
X168420390Y-81637380D01*
X168437322Y-81656204D01*
X168439966Y-81667842D01*
X168444478Y-81674862D01*
X168449501Y-81709797D01*
X168449501Y-81863329D01*
X168449500Y-81863347D01*
X168449500Y-82029053D01*
X168449499Y-82029053D01*
X168490424Y-82181784D01*
X168519359Y-82231899D01*
X168519360Y-82231903D01*
X168519361Y-82231903D01*
X168569480Y-82318713D01*
X168569482Y-82318716D01*
X168663181Y-82412415D01*
X168696666Y-82473738D01*
X168699500Y-82500096D01*
X168699500Y-82578846D01*
X168730261Y-82733489D01*
X168730264Y-82733501D01*
X168790602Y-82879172D01*
X168790609Y-82879185D01*
X168878210Y-83010288D01*
X168878213Y-83010292D01*
X168989707Y-83121786D01*
X168989711Y-83121789D01*
X169120814Y-83209390D01*
X169120827Y-83209397D01*
X169253210Y-83264231D01*
X169266503Y-83269737D01*
X169384303Y-83293169D01*
X169421153Y-83300499D01*
X169421156Y-83300500D01*
X169421158Y-83300500D01*
X169578844Y-83300500D01*
X169578845Y-83300499D01*
X169733497Y-83269737D01*
X169879179Y-83209394D01*
X170010289Y-83121789D01*
X170121789Y-83010289D01*
X170209394Y-82879179D01*
X170269737Y-82733497D01*
X170300500Y-82578842D01*
X170300500Y-82421158D01*
X170300500Y-82421155D01*
X170300499Y-82421153D01*
X170280123Y-82318716D01*
X170269737Y-82266503D01*
X170230579Y-82171966D01*
X170209397Y-82120827D01*
X170209390Y-82120814D01*
X170121789Y-81989711D01*
X170121786Y-81989707D01*
X170010292Y-81878213D01*
X170010288Y-81878210D01*
X169879185Y-81790609D01*
X169879175Y-81790604D01*
X169814870Y-81763968D01*
X169790310Y-81744176D01*
X169764658Y-81725811D01*
X169763309Y-81722417D01*
X169760467Y-81720127D01*
X169750504Y-81690195D01*
X169738855Y-81660880D01*
X169739554Y-81657297D01*
X169738402Y-81653833D01*
X169746203Y-81623265D01*
X169752252Y-81592307D01*
X169755097Y-81588421D01*
X169755681Y-81586133D01*
X169772798Y-81563610D01*
X169773695Y-81562673D01*
X169892713Y-81443656D01*
X169901663Y-81429145D01*
X169910768Y-81419645D01*
X169930112Y-81408542D01*
X169946696Y-81393624D01*
X169959827Y-81391486D01*
X169971365Y-81384864D01*
X169993643Y-81385981D01*
X170015658Y-81382398D01*
X170027858Y-81387698D01*
X170041147Y-81388365D01*
X170059284Y-81401350D01*
X170079741Y-81410237D01*
X170092889Y-81425409D01*
X170097958Y-81429038D01*
X170099587Y-81433137D01*
X170105828Y-81440339D01*
X170107680Y-81443341D01*
X170107682Y-81443344D01*
X170231653Y-81567315D01*
X170380874Y-81659356D01*
X170380879Y-81659358D01*
X170547301Y-81714505D01*
X170547308Y-81714506D01*
X170650018Y-81724999D01*
X171199999Y-81724999D01*
X171249971Y-81724999D01*
X171249985Y-81724998D01*
X171352696Y-81714505D01*
X171519118Y-81659358D01*
X171519123Y-81659356D01*
X171668344Y-81567315D01*
X171792314Y-81443345D01*
X171884355Y-81294124D01*
X171884357Y-81294119D01*
X171939504Y-81127697D01*
X171939505Y-81127690D01*
X171949998Y-81024986D01*
X171949999Y-81024973D01*
X171949999Y-80750000D01*
X171199999Y-80750000D01*
X171199999Y-81724999D01*
X170650018Y-81724999D01*
X170699998Y-81724998D01*
X170699999Y-81724998D01*
X170699999Y-80250000D01*
X171199999Y-80250000D01*
X171949998Y-80250000D01*
X171949998Y-79975028D01*
X171949997Y-79975013D01*
X171939504Y-79872302D01*
X171884357Y-79705880D01*
X171884355Y-79705875D01*
X171792314Y-79556654D01*
X171668344Y-79432684D01*
X171519123Y-79340643D01*
X171519118Y-79340641D01*
X171352696Y-79285494D01*
X171352689Y-79285493D01*
X171249985Y-79275000D01*
X171199999Y-79275000D01*
X171199999Y-80250000D01*
X170699999Y-80250000D01*
X170699999Y-79275000D01*
X170699998Y-79274999D01*
X170650028Y-79275000D01*
X170650010Y-79275001D01*
X170547301Y-79285494D01*
X170380879Y-79340641D01*
X170380874Y-79340643D01*
X170231653Y-79432684D01*
X170107678Y-79556659D01*
X170105825Y-79559665D01*
X170104017Y-79561290D01*
X170103201Y-79562323D01*
X170103024Y-79562183D01*
X170053872Y-79606384D01*
X169984908Y-79617599D01*
X169920829Y-79589749D01*
X169894754Y-79559653D01*
X169892713Y-79556344D01*
X169768658Y-79432289D01*
X169768657Y-79432288D01*
X169619335Y-79340186D01*
X169452798Y-79285001D01*
X169452796Y-79285000D01*
X169350011Y-79274500D01*
X168749999Y-79274500D01*
X168749981Y-79274501D01*
X168647204Y-79285000D01*
X168647201Y-79285001D01*
X168480669Y-79340185D01*
X168480664Y-79340187D01*
X168331343Y-79432289D01*
X168207290Y-79556342D01*
X168115188Y-79705663D01*
X168115186Y-79705668D01*
X168079122Y-79814504D01*
X168039349Y-79871949D01*
X167974834Y-79898772D01*
X167961416Y-79899500D01*
X166920940Y-79899500D01*
X166880019Y-79910464D01*
X166880019Y-79910465D01*
X166842751Y-79920451D01*
X166768214Y-79940423D01*
X166768209Y-79940426D01*
X166631290Y-80019475D01*
X166631282Y-80019481D01*
X166519480Y-80131284D01*
X166519478Y-80131286D01*
X165849775Y-80800990D01*
X165201906Y-81448859D01*
X165140583Y-81482344D01*
X165114225Y-81485178D01*
X162185719Y-81485178D01*
X162118680Y-81465493D01*
X162075235Y-81417473D01*
X162055052Y-81377863D01*
X162055051Y-81377862D01*
X161930109Y-81205891D01*
X161779786Y-81055568D01*
X161607817Y-80930627D01*
X161598504Y-80925882D01*
X161547707Y-80877908D01*
X161530912Y-80810087D01*
X161553449Y-80743952D01*
X161598507Y-80704910D01*
X161607555Y-80700300D01*
X161661716Y-80660948D01*
X161661717Y-80660948D01*
X161029408Y-80028640D01*
X161092993Y-80011603D01*
X161207007Y-79945777D01*
X161300099Y-79852685D01*
X161365925Y-79738671D01*
X161382962Y-79675086D01*
X162015270Y-80307395D01*
X162015270Y-80307394D01*
X162054622Y-80253232D01*
X162151095Y-80063895D01*
X162216757Y-79861808D01*
X162216757Y-79861805D01*
X162250000Y-79651924D01*
X162250000Y-79439431D01*
X162216757Y-79229550D01*
X162216757Y-79229547D01*
X162151095Y-79027460D01*
X162054624Y-78838127D01*
X162015270Y-78783960D01*
X162015269Y-78783960D01*
X161382962Y-79416268D01*
X161365925Y-79352685D01*
X161300099Y-79238671D01*
X161207007Y-79145579D01*
X161092993Y-79079753D01*
X161029409Y-79062715D01*
X161661716Y-78430406D01*
X161607547Y-78391051D01*
X161607547Y-78391050D01*
X161598500Y-78386441D01*
X161547706Y-78338466D01*
X161530912Y-78270644D01*
X161553451Y-78204510D01*
X161598508Y-78165471D01*
X161607816Y-78160729D01*
X161687007Y-78103193D01*
X161779786Y-78035787D01*
X161779788Y-78035784D01*
X161779792Y-78035782D01*
X161930104Y-77885470D01*
X161930106Y-77885466D01*
X161930109Y-77885464D01*
X162055048Y-77713498D01*
X162055047Y-77713498D01*
X162055051Y-77713494D01*
X162151557Y-77524090D01*
X162217246Y-77321921D01*
X162250500Y-77111965D01*
X162250500Y-76899391D01*
X162217246Y-76689435D01*
X162151557Y-76487266D01*
X162055051Y-76297862D01*
X162055049Y-76297859D01*
X162055048Y-76297857D01*
X161930109Y-76125891D01*
X161779786Y-75975568D01*
X161607820Y-75850629D01*
X161607115Y-75850269D01*
X161599054Y-75846163D01*
X161548259Y-75798190D01*
X161531463Y-75730370D01*
X161553999Y-75664234D01*
X161599054Y-75625193D01*
X161607816Y-75620729D01*
X161635348Y-75600726D01*
X161779786Y-75495787D01*
X161779788Y-75495784D01*
X161779792Y-75495782D01*
X161930104Y-75345470D01*
X161930106Y-75345466D01*
X161930109Y-75345464D01*
X162055048Y-75173498D01*
X162055047Y-75173498D01*
X162055051Y-75173494D01*
X162151557Y-74984090D01*
X162217246Y-74781921D01*
X162250500Y-74571965D01*
X162250500Y-74359391D01*
X162217246Y-74149435D01*
X162151557Y-73947266D01*
X162055051Y-73757862D01*
X162055049Y-73757859D01*
X162055048Y-73757857D01*
X161930109Y-73585891D01*
X161779786Y-73435568D01*
X161607820Y-73310629D01*
X161607115Y-73310269D01*
X161599054Y-73306163D01*
X161548259Y-73258190D01*
X161531463Y-73190370D01*
X161553999Y-73124234D01*
X161599054Y-73085193D01*
X161607816Y-73080729D01*
X161635348Y-73060726D01*
X161779786Y-72955787D01*
X161779788Y-72955784D01*
X161779792Y-72955782D01*
X161930104Y-72805470D01*
X161930106Y-72805466D01*
X161930109Y-72805464D01*
X162055048Y-72633498D01*
X162055047Y-72633498D01*
X162055051Y-72633494D01*
X162151557Y-72444090D01*
X162217246Y-72241921D01*
X162250500Y-72031965D01*
X162250500Y-71819391D01*
X162217246Y-71609435D01*
X162151557Y-71407266D01*
X162055051Y-71217862D01*
X162055049Y-71217859D01*
X162055048Y-71217857D01*
X161930109Y-71045891D01*
X161779786Y-70895568D01*
X161607820Y-70770629D01*
X161607115Y-70770269D01*
X161599054Y-70766163D01*
X161548259Y-70718190D01*
X161531463Y-70650370D01*
X161553999Y-70584234D01*
X161599054Y-70545193D01*
X161607816Y-70540729D01*
X161635347Y-70520727D01*
X161779786Y-70415787D01*
X161779788Y-70415784D01*
X161779792Y-70415782D01*
X161930104Y-70265470D01*
X161930106Y-70265466D01*
X161930109Y-70265464D01*
X162055048Y-70093498D01*
X162055047Y-70093498D01*
X162055051Y-70093494D01*
X162151557Y-69904090D01*
X162217246Y-69701921D01*
X162250500Y-69491965D01*
X162250500Y-69279391D01*
X162217246Y-69069435D01*
X162151557Y-68867266D01*
X162055051Y-68677862D01*
X162055049Y-68677859D01*
X162055048Y-68677857D01*
X161930109Y-68505891D01*
X161779786Y-68355568D01*
X161607820Y-68230629D01*
X161607115Y-68230269D01*
X161599054Y-68226163D01*
X161548259Y-68178190D01*
X161531463Y-68110370D01*
X161553999Y-68044234D01*
X161599054Y-68005193D01*
X161607816Y-68000729D01*
X161635348Y-67980726D01*
X161779786Y-67875787D01*
X161779788Y-67875784D01*
X161779792Y-67875782D01*
X161930104Y-67725470D01*
X161930106Y-67725466D01*
X161930109Y-67725464D01*
X162055048Y-67553498D01*
X162055047Y-67553498D01*
X162055051Y-67553494D01*
X162151557Y-67364090D01*
X162217246Y-67161921D01*
X162250500Y-66951965D01*
X162250500Y-66739391D01*
X162217246Y-66529435D01*
X162151557Y-66327266D01*
X162055051Y-66137862D01*
X162055049Y-66137859D01*
X162055048Y-66137857D01*
X161930109Y-65965891D01*
X161779786Y-65815568D01*
X161607820Y-65690629D01*
X161607115Y-65690269D01*
X161599054Y-65686163D01*
X161548259Y-65638190D01*
X161531463Y-65570370D01*
X161553999Y-65504234D01*
X161599054Y-65465193D01*
X161607816Y-65460729D01*
X161635348Y-65440726D01*
X161779786Y-65335787D01*
X161779788Y-65335784D01*
X161779792Y-65335782D01*
X161930104Y-65185470D01*
X161930106Y-65185466D01*
X161930109Y-65185464D01*
X162055048Y-65013498D01*
X162055047Y-65013498D01*
X162055051Y-65013494D01*
X162151557Y-64824090D01*
X162217246Y-64621921D01*
X162250500Y-64411965D01*
X162250500Y-64199391D01*
X162217246Y-63989435D01*
X162151557Y-63787266D01*
X162055051Y-63597862D01*
X162055049Y-63597859D01*
X162055048Y-63597857D01*
X161930109Y-63425891D01*
X161816569Y-63312351D01*
X161783084Y-63251028D01*
X161788068Y-63181336D01*
X161829940Y-63125403D01*
X161860915Y-63108488D01*
X161992331Y-63059474D01*
X162107546Y-62973224D01*
X162193796Y-62858009D01*
X162244091Y-62723161D01*
X162250500Y-62663551D01*
X162250499Y-61639391D01*
X177649500Y-61639391D01*
X177649500Y-61851964D01*
X177682753Y-62061917D01*
X177748444Y-62264092D01*
X177844951Y-62453498D01*
X177969890Y-62625464D01*
X178120213Y-62775787D01*
X178292182Y-62900728D01*
X178300946Y-62905194D01*
X178351742Y-62953169D01*
X178368536Y-63020990D01*
X178345998Y-63087125D01*
X178300946Y-63126162D01*
X178292182Y-63130627D01*
X178120213Y-63255568D01*
X177969890Y-63405891D01*
X177844951Y-63577857D01*
X177748444Y-63767263D01*
X177682753Y-63969438D01*
X177649500Y-64179391D01*
X177649500Y-64391965D01*
X177682754Y-64601921D01*
X177689252Y-64621921D01*
X177748444Y-64804092D01*
X177844951Y-64993498D01*
X177969890Y-65165464D01*
X178120213Y-65315787D01*
X178292182Y-65440728D01*
X178300946Y-65445194D01*
X178351742Y-65493169D01*
X178368536Y-65560990D01*
X178345998Y-65627125D01*
X178300946Y-65666162D01*
X178292182Y-65670627D01*
X178120213Y-65795568D01*
X177969890Y-65945891D01*
X177844951Y-66117857D01*
X177748444Y-66307263D01*
X177682753Y-66509438D01*
X177649500Y-66719391D01*
X177649500Y-66931965D01*
X177682754Y-67141921D01*
X177689252Y-67161921D01*
X177748444Y-67344092D01*
X177844951Y-67533498D01*
X177969890Y-67705464D01*
X178120213Y-67855787D01*
X178292179Y-67980726D01*
X178292181Y-67980727D01*
X178292184Y-67980729D01*
X178300945Y-67985192D01*
X178351741Y-68033166D01*
X178368537Y-68100986D01*
X178346001Y-68167122D01*
X178300950Y-68206160D01*
X178292187Y-68210625D01*
X178292184Y-68210627D01*
X178120213Y-68335569D01*
X177969890Y-68485892D01*
X177844951Y-68657858D01*
X177748444Y-68847264D01*
X177682753Y-69049439D01*
X177649500Y-69259392D01*
X177649500Y-69471966D01*
X177652668Y-69491965D01*
X177682753Y-69681918D01*
X177748444Y-69884093D01*
X177844951Y-70073499D01*
X177969890Y-70245465D01*
X178120213Y-70395788D01*
X178292179Y-70520727D01*
X178292181Y-70520728D01*
X178292184Y-70520730D01*
X178300942Y-70525192D01*
X178351739Y-70573166D01*
X178368535Y-70640986D01*
X178345999Y-70707122D01*
X178300949Y-70746160D01*
X178292183Y-70750626D01*
X178120213Y-70875568D01*
X177969890Y-71025891D01*
X177844951Y-71197857D01*
X177748444Y-71387263D01*
X177682753Y-71589438D01*
X177649500Y-71799391D01*
X177649500Y-72011965D01*
X177682754Y-72221921D01*
X177689252Y-72241921D01*
X177748444Y-72424092D01*
X177844951Y-72613498D01*
X177969890Y-72785464D01*
X178120213Y-72935787D01*
X178292182Y-73060728D01*
X178300946Y-73065194D01*
X178351742Y-73113169D01*
X178368536Y-73180990D01*
X178345998Y-73247125D01*
X178300946Y-73286162D01*
X178292182Y-73290627D01*
X178120213Y-73415568D01*
X177969890Y-73565891D01*
X177844951Y-73737857D01*
X177748444Y-73927263D01*
X177682753Y-74129438D01*
X177649500Y-74339391D01*
X177649500Y-74551965D01*
X177682754Y-74761921D01*
X177689252Y-74781921D01*
X177748444Y-74964092D01*
X177844951Y-75153498D01*
X177969890Y-75325464D01*
X178120213Y-75475787D01*
X178292182Y-75600728D01*
X178300946Y-75605194D01*
X178351742Y-75653169D01*
X178368536Y-75720990D01*
X178345998Y-75787125D01*
X178300946Y-75826162D01*
X178292182Y-75830627D01*
X178120213Y-75955568D01*
X177969890Y-76105891D01*
X177844951Y-76277857D01*
X177748444Y-76467263D01*
X177682753Y-76669438D01*
X177649500Y-76879391D01*
X177649500Y-77091965D01*
X177682754Y-77301921D01*
X177689252Y-77321921D01*
X177748444Y-77504092D01*
X177844951Y-77693498D01*
X177969890Y-77865464D01*
X178120213Y-78015787D01*
X178292179Y-78140726D01*
X178292181Y-78140727D01*
X178292184Y-78140729D01*
X178300942Y-78145191D01*
X178351739Y-78193165D01*
X178368535Y-78260985D01*
X178345999Y-78327121D01*
X178300949Y-78366159D01*
X178292183Y-78370625D01*
X178120213Y-78495567D01*
X177969890Y-78645890D01*
X177844951Y-78817856D01*
X177748444Y-79007262D01*
X177682753Y-79209437D01*
X177649500Y-79419390D01*
X177649500Y-79631963D01*
X177678411Y-79814504D01*
X177682754Y-79841920D01*
X177740447Y-80019481D01*
X177748444Y-80044091D01*
X177844951Y-80233497D01*
X177969890Y-80405463D01*
X178120213Y-80555786D01*
X178292182Y-80680727D01*
X178300948Y-80685194D01*
X178351743Y-80733169D01*
X178368538Y-80800990D01*
X178346000Y-80867125D01*
X178300948Y-80906162D01*
X178292182Y-80910628D01*
X178120213Y-81035569D01*
X177969890Y-81185892D01*
X177844951Y-81357858D01*
X177748444Y-81547264D01*
X177682753Y-81749439D01*
X177649500Y-81959392D01*
X177649500Y-82171966D01*
X177652668Y-82191965D01*
X177672742Y-82318713D01*
X177682754Y-82381922D01*
X177746737Y-82578842D01*
X177748444Y-82584093D01*
X177844951Y-82773499D01*
X177969890Y-82945465D01*
X178120213Y-83095788D01*
X178292179Y-83220727D01*
X178292181Y-83220728D01*
X178292184Y-83220730D01*
X178300942Y-83225192D01*
X178351739Y-83273166D01*
X178368535Y-83340986D01*
X178345999Y-83407122D01*
X178300949Y-83446160D01*
X178292183Y-83450626D01*
X178120213Y-83575568D01*
X177969890Y-83725891D01*
X177844951Y-83897857D01*
X177748444Y-84087263D01*
X177682753Y-84289438D01*
X177649500Y-84499391D01*
X177649500Y-84711965D01*
X177682754Y-84921921D01*
X177689252Y-84941921D01*
X177748444Y-85124092D01*
X177844951Y-85313498D01*
X177969890Y-85485464D01*
X178120213Y-85635787D01*
X178292182Y-85760728D01*
X178300946Y-85765194D01*
X178351742Y-85813169D01*
X178368536Y-85880990D01*
X178345998Y-85947125D01*
X178300946Y-85986162D01*
X178292182Y-85990627D01*
X178120213Y-86115568D01*
X177969890Y-86265891D01*
X177844951Y-86437857D01*
X177748444Y-86627263D01*
X177682753Y-86829438D01*
X177649500Y-87039391D01*
X177649500Y-87251965D01*
X177682754Y-87461921D01*
X177689252Y-87481921D01*
X177748444Y-87664092D01*
X177844951Y-87853498D01*
X177969890Y-88025464D01*
X178120213Y-88175787D01*
X178292182Y-88300728D01*
X178300946Y-88305194D01*
X178351742Y-88353169D01*
X178368536Y-88420990D01*
X178345998Y-88487125D01*
X178300946Y-88526162D01*
X178292182Y-88530627D01*
X178120213Y-88655568D01*
X177969890Y-88805891D01*
X177844951Y-88977857D01*
X177748444Y-89167263D01*
X177682753Y-89369438D01*
X177649500Y-89579391D01*
X177649500Y-89791965D01*
X177682754Y-90001921D01*
X177689252Y-90021921D01*
X177748444Y-90204092D01*
X177844951Y-90393498D01*
X177969890Y-90565464D01*
X178120213Y-90715787D01*
X178292179Y-90840726D01*
X178292181Y-90840727D01*
X178292184Y-90840729D01*
X178300945Y-90845192D01*
X178351741Y-90893166D01*
X178368537Y-90960986D01*
X178346001Y-91027122D01*
X178300950Y-91066160D01*
X178292187Y-91070625D01*
X178292184Y-91070627D01*
X178120213Y-91195569D01*
X177969890Y-91345892D01*
X177844951Y-91517858D01*
X177748444Y-91707264D01*
X177682753Y-91909439D01*
X177649500Y-92119392D01*
X177649500Y-92331966D01*
X177652668Y-92351965D01*
X177682753Y-92541918D01*
X177748444Y-92744093D01*
X177844951Y-92933499D01*
X177969890Y-93105465D01*
X178120213Y-93255788D01*
X178292179Y-93380727D01*
X178292181Y-93380728D01*
X178292184Y-93380730D01*
X178300942Y-93385192D01*
X178351739Y-93433166D01*
X178368535Y-93500986D01*
X178345999Y-93567122D01*
X178300949Y-93606160D01*
X178292183Y-93610626D01*
X178120213Y-93735568D01*
X177969890Y-93885891D01*
X177844951Y-94057857D01*
X177748444Y-94247263D01*
X177682753Y-94449438D01*
X177649500Y-94659391D01*
X177649500Y-94871965D01*
X177682754Y-95081921D01*
X177689252Y-95101921D01*
X177748444Y-95284092D01*
X177844951Y-95473498D01*
X177969890Y-95645464D01*
X178120213Y-95795787D01*
X178292182Y-95920728D01*
X178300946Y-95925194D01*
X178351742Y-95973169D01*
X178368536Y-96040990D01*
X178345998Y-96107125D01*
X178300946Y-96146162D01*
X178292182Y-96150627D01*
X178120213Y-96275568D01*
X177969890Y-96425891D01*
X177844951Y-96597857D01*
X177748444Y-96787263D01*
X177682753Y-96989438D01*
X177649500Y-97199391D01*
X177649500Y-97411965D01*
X177682754Y-97621921D01*
X177689252Y-97641921D01*
X177748444Y-97824092D01*
X177844951Y-98013498D01*
X177969890Y-98185464D01*
X178120213Y-98335787D01*
X178292182Y-98460728D01*
X178300946Y-98465194D01*
X178351742Y-98513169D01*
X178368536Y-98580990D01*
X178345998Y-98647125D01*
X178300946Y-98686162D01*
X178292182Y-98690627D01*
X178120213Y-98815568D01*
X177969890Y-98965891D01*
X177844951Y-99137857D01*
X177748444Y-99327263D01*
X177682753Y-99529438D01*
X177649500Y-99739391D01*
X177649500Y-99951965D01*
X177682754Y-100161921D01*
X177689252Y-100181921D01*
X177748444Y-100364092D01*
X177844951Y-100553498D01*
X177969890Y-100725464D01*
X178120213Y-100875787D01*
X178292179Y-101000726D01*
X178292181Y-101000727D01*
X178292184Y-101000729D01*
X178300942Y-101005191D01*
X178351739Y-101053165D01*
X178368535Y-101120985D01*
X178345999Y-101187121D01*
X178300949Y-101226159D01*
X178292183Y-101230625D01*
X178120213Y-101355567D01*
X177969890Y-101505890D01*
X177844951Y-101677856D01*
X177748444Y-101867262D01*
X177682753Y-102069437D01*
X177649500Y-102279390D01*
X177649500Y-102491964D01*
X177682754Y-102701920D01*
X177689251Y-102721917D01*
X177748444Y-102904091D01*
X177844951Y-103093497D01*
X177969890Y-103265463D01*
X178120213Y-103415786D01*
X178292179Y-103540725D01*
X178292181Y-103540726D01*
X178292184Y-103540728D01*
X178300945Y-103545191D01*
X178351741Y-103593165D01*
X178368537Y-103660985D01*
X178346001Y-103727121D01*
X178300950Y-103766159D01*
X178292187Y-103770624D01*
X178292184Y-103770626D01*
X178120213Y-103895568D01*
X177969890Y-104045891D01*
X177844951Y-104217857D01*
X177748444Y-104407263D01*
X177682753Y-104609438D01*
X177649500Y-104819391D01*
X177649500Y-105031965D01*
X177682754Y-105241921D01*
X177689252Y-105261921D01*
X177748444Y-105444092D01*
X177844951Y-105633498D01*
X177969890Y-105805464D01*
X178120213Y-105955787D01*
X178292182Y-106080728D01*
X178300946Y-106085194D01*
X178351742Y-106133169D01*
X178368536Y-106200990D01*
X178345998Y-106267125D01*
X178300946Y-106306162D01*
X178292182Y-106310627D01*
X178120213Y-106435568D01*
X177969890Y-106585891D01*
X177844951Y-106757857D01*
X177748444Y-106947263D01*
X177682753Y-107149438D01*
X177649500Y-107359391D01*
X177649500Y-107571965D01*
X177682754Y-107781921D01*
X177689252Y-107801921D01*
X177748444Y-107984092D01*
X177844951Y-108173498D01*
X177969890Y-108345464D01*
X178120213Y-108495787D01*
X178292182Y-108620728D01*
X178300946Y-108625194D01*
X178351742Y-108673169D01*
X178368536Y-108740990D01*
X178345998Y-108807125D01*
X178300946Y-108846162D01*
X178292182Y-108850627D01*
X178120213Y-108975568D01*
X177969890Y-109125891D01*
X177844951Y-109297857D01*
X177748444Y-109487263D01*
X177682753Y-109689438D01*
X177649500Y-109899391D01*
X177649500Y-110111965D01*
X177682754Y-110321921D01*
X177689252Y-110341921D01*
X177748444Y-110524092D01*
X177844951Y-110713498D01*
X177969890Y-110885464D01*
X178120213Y-111035787D01*
X178292182Y-111160728D01*
X178300946Y-111165194D01*
X178351742Y-111213169D01*
X178368536Y-111280990D01*
X178345998Y-111347125D01*
X178300946Y-111386162D01*
X178292182Y-111390627D01*
X178120213Y-111515568D01*
X177969890Y-111665891D01*
X177844951Y-111837857D01*
X177748444Y-112027263D01*
X177682753Y-112229438D01*
X177649500Y-112439391D01*
X177649500Y-112651965D01*
X177682754Y-112861921D01*
X177689252Y-112881921D01*
X177748444Y-113064092D01*
X177844951Y-113253498D01*
X177969890Y-113425464D01*
X178120213Y-113575787D01*
X178292179Y-113700726D01*
X178292181Y-113700727D01*
X178292184Y-113700729D01*
X178300945Y-113705192D01*
X178351741Y-113753166D01*
X178368537Y-113820986D01*
X178346001Y-113887122D01*
X178300950Y-113926160D01*
X178292187Y-113930625D01*
X178292184Y-113930627D01*
X178120213Y-114055569D01*
X177969890Y-114205892D01*
X177844951Y-114377858D01*
X177748444Y-114567264D01*
X177682753Y-114769439D01*
X177649500Y-114979392D01*
X177649500Y-115191966D01*
X177652668Y-115211965D01*
X177682753Y-115401918D01*
X177748444Y-115604093D01*
X177844951Y-115793499D01*
X177969890Y-115965465D01*
X178120213Y-116115788D01*
X178292179Y-116240727D01*
X178292181Y-116240728D01*
X178292184Y-116240730D01*
X178300942Y-116245192D01*
X178351739Y-116293166D01*
X178368535Y-116360986D01*
X178345999Y-116427122D01*
X178300949Y-116466160D01*
X178292183Y-116470626D01*
X178120213Y-116595568D01*
X177969890Y-116745891D01*
X177844951Y-116917857D01*
X177748444Y-117107263D01*
X177682753Y-117309438D01*
X177679568Y-117329550D01*
X177649500Y-117519391D01*
X177649500Y-117731965D01*
X177682754Y-117941921D01*
X177737887Y-118111603D01*
X177748444Y-118144092D01*
X177844951Y-118333498D01*
X177969890Y-118505464D01*
X178083430Y-118619004D01*
X178116915Y-118680327D01*
X178111931Y-118750019D01*
X178070059Y-118805952D01*
X178039083Y-118822867D01*
X177907669Y-118871881D01*
X177907664Y-118871884D01*
X177792455Y-118958130D01*
X177792452Y-118958133D01*
X177706206Y-119073342D01*
X177706202Y-119073349D01*
X177655908Y-119208195D01*
X177649501Y-119267794D01*
X177649501Y-119267801D01*
X177649500Y-119267813D01*
X177649500Y-121063548D01*
X177649501Y-121063554D01*
X177655908Y-121123161D01*
X177706202Y-121258006D01*
X177706206Y-121258013D01*
X177792452Y-121373222D01*
X177792455Y-121373225D01*
X177907664Y-121459471D01*
X177907671Y-121459475D01*
X178042517Y-121509769D01*
X178042516Y-121509769D01*
X178049444Y-121510513D01*
X178102127Y-121516178D01*
X179897872Y-121516177D01*
X179957483Y-121509769D01*
X180092331Y-121459474D01*
X180207546Y-121373224D01*
X180293796Y-121258009D01*
X180344091Y-121123161D01*
X180350500Y-121063551D01*
X180350499Y-119267806D01*
X180344091Y-119208195D01*
X180324462Y-119155568D01*
X180293797Y-119073349D01*
X180293793Y-119073342D01*
X180207547Y-118958133D01*
X180207544Y-118958130D01*
X180092335Y-118871884D01*
X180092328Y-118871880D01*
X179960917Y-118822867D01*
X179904983Y-118780996D01*
X179880566Y-118715531D01*
X179895418Y-118647258D01*
X179916563Y-118619010D01*
X180030104Y-118505470D01*
X180155051Y-118333494D01*
X180251557Y-118144090D01*
X180317246Y-117941921D01*
X180350500Y-117731965D01*
X180350500Y-117519391D01*
X180317246Y-117309435D01*
X180251557Y-117107266D01*
X180155051Y-116917862D01*
X180155049Y-116917859D01*
X180155048Y-116917857D01*
X180030109Y-116745891D01*
X179879786Y-116595568D01*
X179707817Y-116470627D01*
X179699054Y-116466162D01*
X179648258Y-116418187D01*
X179631464Y-116350366D01*
X179654002Y-116284231D01*
X179699058Y-116245192D01*
X179707816Y-116240730D01*
X179852266Y-116135782D01*
X179879786Y-116115788D01*
X179879788Y-116115785D01*
X179879792Y-116115783D01*
X180030104Y-115965471D01*
X180030106Y-115965467D01*
X180030109Y-115965465D01*
X180155048Y-115793499D01*
X180155047Y-115793499D01*
X180155051Y-115793495D01*
X180251557Y-115604091D01*
X180317246Y-115401922D01*
X180350500Y-115191966D01*
X180350500Y-114979392D01*
X180317246Y-114769436D01*
X180251557Y-114567267D01*
X180155051Y-114377863D01*
X180155049Y-114377860D01*
X180155048Y-114377858D01*
X180030109Y-114205892D01*
X179879786Y-114055569D01*
X179707817Y-113930628D01*
X179699052Y-113926162D01*
X179648257Y-113878187D01*
X179631462Y-113810366D01*
X179654000Y-113744231D01*
X179699056Y-113705192D01*
X179707816Y-113700729D01*
X179707818Y-113700727D01*
X179707821Y-113700726D01*
X179879786Y-113575787D01*
X179879788Y-113575784D01*
X179879792Y-113575782D01*
X180030104Y-113425470D01*
X180030106Y-113425466D01*
X180030109Y-113425464D01*
X180155048Y-113253498D01*
X180155047Y-113253498D01*
X180155051Y-113253494D01*
X180251557Y-113064090D01*
X180317246Y-112861921D01*
X180350500Y-112651965D01*
X180350500Y-112439391D01*
X180317246Y-112229435D01*
X180251557Y-112027266D01*
X180155051Y-111837862D01*
X180155049Y-111837859D01*
X180155048Y-111837857D01*
X180030109Y-111665891D01*
X179879786Y-111515568D01*
X179707820Y-111390629D01*
X179707115Y-111390269D01*
X179699054Y-111386163D01*
X179648259Y-111338190D01*
X179631463Y-111270370D01*
X179653999Y-111204234D01*
X179699054Y-111165193D01*
X179707816Y-111160729D01*
X179729789Y-111144764D01*
X179879786Y-111035787D01*
X179879788Y-111035784D01*
X179879792Y-111035782D01*
X180030104Y-110885470D01*
X180030106Y-110885466D01*
X180030109Y-110885464D01*
X180155048Y-110713498D01*
X180155047Y-110713498D01*
X180155051Y-110713494D01*
X180251557Y-110524090D01*
X180317246Y-110321921D01*
X180350500Y-110111965D01*
X180350500Y-109899391D01*
X180317246Y-109689435D01*
X180251557Y-109487266D01*
X180155051Y-109297862D01*
X180155049Y-109297859D01*
X180155048Y-109297857D01*
X180030109Y-109125891D01*
X179879786Y-108975568D01*
X179707820Y-108850629D01*
X179707115Y-108850269D01*
X179699054Y-108846163D01*
X179648259Y-108798190D01*
X179631463Y-108730370D01*
X179653999Y-108664234D01*
X179699054Y-108625193D01*
X179707816Y-108620729D01*
X179729789Y-108604764D01*
X179879786Y-108495787D01*
X179879788Y-108495784D01*
X179879792Y-108495782D01*
X180030104Y-108345470D01*
X180030106Y-108345466D01*
X180030109Y-108345464D01*
X180155048Y-108173498D01*
X180155047Y-108173498D01*
X180155051Y-108173494D01*
X180251557Y-107984090D01*
X180317246Y-107781921D01*
X180350500Y-107571965D01*
X180350500Y-107359391D01*
X180317246Y-107149435D01*
X180251557Y-106947266D01*
X180155051Y-106757862D01*
X180155049Y-106757859D01*
X180155048Y-106757857D01*
X180030109Y-106585891D01*
X179879786Y-106435568D01*
X179707820Y-106310629D01*
X179707115Y-106310269D01*
X179699054Y-106306163D01*
X179648259Y-106258190D01*
X179631463Y-106190370D01*
X179653999Y-106124234D01*
X179699054Y-106085193D01*
X179707816Y-106080729D01*
X179729789Y-106064764D01*
X179879786Y-105955787D01*
X179879788Y-105955784D01*
X179879792Y-105955782D01*
X180030104Y-105805470D01*
X180030106Y-105805466D01*
X180030109Y-105805464D01*
X180155048Y-105633498D01*
X180155047Y-105633498D01*
X180155051Y-105633494D01*
X180251557Y-105444090D01*
X180317246Y-105241921D01*
X180350500Y-105031965D01*
X180350500Y-104819391D01*
X180317246Y-104609435D01*
X180251557Y-104407266D01*
X180155051Y-104217862D01*
X180155049Y-104217859D01*
X180155048Y-104217857D01*
X180030109Y-104045891D01*
X179879786Y-103895568D01*
X179707817Y-103770627D01*
X179699052Y-103766161D01*
X179648257Y-103718186D01*
X179631462Y-103650365D01*
X179654000Y-103584230D01*
X179699056Y-103545191D01*
X179707816Y-103540728D01*
X179707818Y-103540726D01*
X179707821Y-103540725D01*
X179879786Y-103415786D01*
X179879788Y-103415783D01*
X179879792Y-103415781D01*
X180030104Y-103265469D01*
X180030106Y-103265465D01*
X180030109Y-103265463D01*
X180155048Y-103093497D01*
X180155047Y-103093497D01*
X180155051Y-103093493D01*
X180251557Y-102904089D01*
X180317246Y-102701920D01*
X180350500Y-102491964D01*
X180350500Y-102279390D01*
X180317246Y-102069434D01*
X180251557Y-101867265D01*
X180155051Y-101677861D01*
X180155049Y-101677858D01*
X180155048Y-101677856D01*
X180030109Y-101505890D01*
X179879786Y-101355567D01*
X179707817Y-101230626D01*
X179699054Y-101226161D01*
X179648258Y-101178186D01*
X179631464Y-101110365D01*
X179654002Y-101044230D01*
X179699058Y-101005191D01*
X179707816Y-101000729D01*
X179729789Y-100984764D01*
X179879786Y-100875787D01*
X179879788Y-100875784D01*
X179879792Y-100875782D01*
X180030104Y-100725470D01*
X180030106Y-100725466D01*
X180030109Y-100725464D01*
X180155048Y-100553498D01*
X180155047Y-100553498D01*
X180155051Y-100553494D01*
X180251557Y-100364090D01*
X180317246Y-100161921D01*
X180350500Y-99951965D01*
X180350500Y-99739391D01*
X180317246Y-99529435D01*
X180251557Y-99327266D01*
X180155051Y-99137862D01*
X180155049Y-99137859D01*
X180155048Y-99137857D01*
X180030109Y-98965891D01*
X179879786Y-98815568D01*
X179707820Y-98690629D01*
X179707115Y-98690269D01*
X179699054Y-98686163D01*
X179648259Y-98638190D01*
X179631463Y-98570370D01*
X179653999Y-98504234D01*
X179699054Y-98465193D01*
X179707816Y-98460729D01*
X179729789Y-98444764D01*
X179879786Y-98335787D01*
X179879788Y-98335784D01*
X179879792Y-98335782D01*
X180030104Y-98185470D01*
X180030106Y-98185466D01*
X180030109Y-98185464D01*
X180155048Y-98013498D01*
X180155047Y-98013498D01*
X180155051Y-98013494D01*
X180251557Y-97824090D01*
X180317246Y-97621921D01*
X180350500Y-97411965D01*
X180350500Y-97199391D01*
X180317246Y-96989435D01*
X180251557Y-96787266D01*
X180155051Y-96597862D01*
X180155049Y-96597859D01*
X180155048Y-96597857D01*
X180030109Y-96425891D01*
X179879786Y-96275568D01*
X179707820Y-96150629D01*
X179707115Y-96150269D01*
X179699054Y-96146163D01*
X179648259Y-96098190D01*
X179631463Y-96030370D01*
X179653999Y-95964234D01*
X179699054Y-95925193D01*
X179707816Y-95920729D01*
X179729789Y-95904764D01*
X179879786Y-95795787D01*
X179879788Y-95795784D01*
X179879792Y-95795782D01*
X180030104Y-95645470D01*
X180030106Y-95645466D01*
X180030109Y-95645464D01*
X180155048Y-95473498D01*
X180155047Y-95473498D01*
X180155051Y-95473494D01*
X180251557Y-95284090D01*
X180317246Y-95081921D01*
X180350500Y-94871965D01*
X180350500Y-94659391D01*
X180317246Y-94449435D01*
X180251557Y-94247266D01*
X180155051Y-94057862D01*
X180155049Y-94057859D01*
X180155048Y-94057857D01*
X180030109Y-93885891D01*
X179879786Y-93735568D01*
X179707817Y-93610627D01*
X179699054Y-93606162D01*
X179648258Y-93558187D01*
X179631464Y-93490366D01*
X179654002Y-93424231D01*
X179699058Y-93385192D01*
X179707816Y-93380730D01*
X179852266Y-93275782D01*
X179879786Y-93255788D01*
X179879788Y-93255785D01*
X179879792Y-93255783D01*
X180030104Y-93105471D01*
X180030106Y-93105467D01*
X180030109Y-93105465D01*
X180155048Y-92933499D01*
X180155047Y-92933499D01*
X180155051Y-92933495D01*
X180251557Y-92744091D01*
X180317246Y-92541922D01*
X180350500Y-92331966D01*
X180350500Y-92119392D01*
X180317246Y-91909436D01*
X180251557Y-91707267D01*
X180155051Y-91517863D01*
X180155049Y-91517860D01*
X180155048Y-91517858D01*
X180030109Y-91345892D01*
X179879786Y-91195569D01*
X179707817Y-91070628D01*
X179699052Y-91066162D01*
X179648257Y-91018187D01*
X179631462Y-90950366D01*
X179654000Y-90884231D01*
X179699056Y-90845192D01*
X179707816Y-90840729D01*
X179707818Y-90840727D01*
X179707821Y-90840726D01*
X179879786Y-90715787D01*
X179879788Y-90715784D01*
X179879792Y-90715782D01*
X180030104Y-90565470D01*
X180030106Y-90565466D01*
X180030109Y-90565464D01*
X180155048Y-90393498D01*
X180155047Y-90393498D01*
X180155051Y-90393494D01*
X180251557Y-90204090D01*
X180317246Y-90001921D01*
X180350500Y-89791965D01*
X180350500Y-89579391D01*
X180317246Y-89369435D01*
X180251557Y-89167266D01*
X180155051Y-88977862D01*
X180155049Y-88977859D01*
X180155048Y-88977857D01*
X180030109Y-88805891D01*
X179879786Y-88655568D01*
X179707820Y-88530629D01*
X179707115Y-88530269D01*
X179699054Y-88526163D01*
X179648259Y-88478190D01*
X179631463Y-88410370D01*
X179653999Y-88344234D01*
X179699054Y-88305193D01*
X179707816Y-88300729D01*
X179729789Y-88284764D01*
X179879786Y-88175787D01*
X179879788Y-88175784D01*
X179879792Y-88175782D01*
X180030104Y-88025470D01*
X180030106Y-88025466D01*
X180030109Y-88025464D01*
X180155048Y-87853498D01*
X180155047Y-87853498D01*
X180155051Y-87853494D01*
X180251557Y-87664090D01*
X180317246Y-87461921D01*
X180350500Y-87251965D01*
X180350500Y-87039391D01*
X180317246Y-86829435D01*
X180251557Y-86627266D01*
X180155051Y-86437862D01*
X180155049Y-86437859D01*
X180155048Y-86437857D01*
X180030109Y-86265891D01*
X179879786Y-86115568D01*
X179707820Y-85990629D01*
X179707115Y-85990269D01*
X179699054Y-85986163D01*
X179648259Y-85938190D01*
X179631463Y-85870370D01*
X179653999Y-85804234D01*
X179699054Y-85765193D01*
X179707816Y-85760729D01*
X179729789Y-85744764D01*
X179879786Y-85635787D01*
X179879788Y-85635784D01*
X179879792Y-85635782D01*
X180030104Y-85485470D01*
X180030106Y-85485466D01*
X180030109Y-85485464D01*
X180155048Y-85313498D01*
X180155047Y-85313498D01*
X180155051Y-85313494D01*
X180251557Y-85124090D01*
X180317246Y-84921921D01*
X180350500Y-84711965D01*
X180350500Y-84499391D01*
X180317246Y-84289435D01*
X180251557Y-84087266D01*
X180155051Y-83897862D01*
X180155049Y-83897859D01*
X180155048Y-83897857D01*
X180030109Y-83725891D01*
X179879786Y-83575568D01*
X179707817Y-83450627D01*
X179699054Y-83446162D01*
X179648258Y-83398187D01*
X179631464Y-83330366D01*
X179654002Y-83264231D01*
X179699058Y-83225192D01*
X179707816Y-83220730D01*
X179852266Y-83115782D01*
X179879786Y-83095788D01*
X179879788Y-83095785D01*
X179879792Y-83095783D01*
X180030104Y-82945471D01*
X180030106Y-82945467D01*
X180030109Y-82945465D01*
X180155048Y-82773499D01*
X180155047Y-82773499D01*
X180155051Y-82773495D01*
X180251557Y-82584091D01*
X180317246Y-82381922D01*
X180350500Y-82171966D01*
X180350500Y-81959392D01*
X180317246Y-81749436D01*
X180251557Y-81547267D01*
X180155051Y-81357863D01*
X180155049Y-81357860D01*
X180155048Y-81357858D01*
X180030109Y-81185892D01*
X179879786Y-81035569D01*
X179707820Y-80910630D01*
X179707142Y-80910284D01*
X179699052Y-80906163D01*
X179648257Y-80858191D01*
X179631461Y-80790370D01*
X179653997Y-80724235D01*
X179699052Y-80685193D01*
X179707816Y-80680728D01*
X179735042Y-80660947D01*
X179879786Y-80555786D01*
X179879788Y-80555783D01*
X179879792Y-80555781D01*
X180030104Y-80405469D01*
X180030106Y-80405465D01*
X180030109Y-80405463D01*
X180155048Y-80233497D01*
X180155047Y-80233497D01*
X180155051Y-80233493D01*
X180251557Y-80044089D01*
X180317246Y-79841920D01*
X180350500Y-79631964D01*
X180350500Y-79419390D01*
X180317246Y-79209434D01*
X180251557Y-79007265D01*
X180155051Y-78817861D01*
X180155049Y-78817858D01*
X180155048Y-78817856D01*
X180030109Y-78645890D01*
X179879786Y-78495567D01*
X179707817Y-78370626D01*
X179699054Y-78366161D01*
X179648258Y-78318186D01*
X179631464Y-78250365D01*
X179654002Y-78184230D01*
X179699058Y-78145191D01*
X179707816Y-78140729D01*
X179729789Y-78124764D01*
X179879786Y-78015787D01*
X179879788Y-78015784D01*
X179879792Y-78015782D01*
X180030104Y-77865470D01*
X180030106Y-77865466D01*
X180030109Y-77865464D01*
X180155048Y-77693498D01*
X180155047Y-77693498D01*
X180155051Y-77693494D01*
X180251557Y-77504090D01*
X180317246Y-77301921D01*
X180350500Y-77091965D01*
X180350500Y-76879391D01*
X180317246Y-76669435D01*
X180251557Y-76467266D01*
X180155051Y-76277862D01*
X180155049Y-76277859D01*
X180155048Y-76277857D01*
X180030109Y-76105891D01*
X179879786Y-75955568D01*
X179707820Y-75830629D01*
X179707115Y-75830269D01*
X179699054Y-75826163D01*
X179648259Y-75778190D01*
X179631463Y-75710370D01*
X179653999Y-75644234D01*
X179699054Y-75605193D01*
X179707816Y-75600729D01*
X179729789Y-75584764D01*
X179879786Y-75475787D01*
X179879788Y-75475784D01*
X179879792Y-75475782D01*
X180030104Y-75325470D01*
X180030106Y-75325466D01*
X180030109Y-75325464D01*
X180155048Y-75153498D01*
X180155047Y-75153498D01*
X180155051Y-75153494D01*
X180251557Y-74964090D01*
X180317246Y-74761921D01*
X180350500Y-74551965D01*
X180350500Y-74339391D01*
X180317246Y-74129435D01*
X180251557Y-73927266D01*
X180155051Y-73737862D01*
X180155049Y-73737859D01*
X180155048Y-73737857D01*
X180030109Y-73565891D01*
X179879786Y-73415568D01*
X179707820Y-73290629D01*
X179707115Y-73290269D01*
X179699054Y-73286163D01*
X179648259Y-73238190D01*
X179631463Y-73170370D01*
X179653999Y-73104234D01*
X179699054Y-73065193D01*
X179707816Y-73060729D01*
X179729789Y-73044764D01*
X179879786Y-72935787D01*
X179879788Y-72935784D01*
X179879792Y-72935782D01*
X180030104Y-72785470D01*
X180030106Y-72785466D01*
X180030109Y-72785464D01*
X180155048Y-72613498D01*
X180155047Y-72613498D01*
X180155051Y-72613494D01*
X180251557Y-72424090D01*
X180317246Y-72221921D01*
X180350500Y-72011965D01*
X180350500Y-71799391D01*
X180317246Y-71589435D01*
X180251557Y-71387266D01*
X180155051Y-71197862D01*
X180155049Y-71197859D01*
X180155048Y-71197857D01*
X180030109Y-71025891D01*
X179879786Y-70875568D01*
X179707817Y-70750627D01*
X179699054Y-70746162D01*
X179648258Y-70698187D01*
X179631464Y-70630366D01*
X179654002Y-70564231D01*
X179699058Y-70525192D01*
X179707816Y-70520730D01*
X179852266Y-70415782D01*
X179879786Y-70395788D01*
X179879788Y-70395785D01*
X179879792Y-70395783D01*
X180030104Y-70245471D01*
X180030106Y-70245467D01*
X180030109Y-70245465D01*
X180155048Y-70073499D01*
X180155047Y-70073499D01*
X180155051Y-70073495D01*
X180251557Y-69884091D01*
X180317246Y-69681922D01*
X180350500Y-69471966D01*
X180350500Y-69259392D01*
X180317246Y-69049436D01*
X180251557Y-68847267D01*
X180155051Y-68657863D01*
X180155049Y-68657860D01*
X180155048Y-68657858D01*
X180030109Y-68485892D01*
X179879786Y-68335569D01*
X179707817Y-68210628D01*
X179699052Y-68206162D01*
X179648257Y-68158187D01*
X179631462Y-68090366D01*
X179654000Y-68024231D01*
X179699056Y-67985192D01*
X179707816Y-67980729D01*
X179707818Y-67980727D01*
X179707821Y-67980726D01*
X179879786Y-67855787D01*
X179879788Y-67855784D01*
X179879792Y-67855782D01*
X180030104Y-67705470D01*
X180030106Y-67705466D01*
X180030109Y-67705464D01*
X180155048Y-67533498D01*
X180155047Y-67533498D01*
X180155051Y-67533494D01*
X180251557Y-67344090D01*
X180317246Y-67141921D01*
X180350500Y-66931965D01*
X180350500Y-66719391D01*
X180317246Y-66509435D01*
X180251557Y-66307266D01*
X180155051Y-66117862D01*
X180155049Y-66117859D01*
X180155048Y-66117857D01*
X180030109Y-65945891D01*
X179879786Y-65795568D01*
X179707820Y-65670629D01*
X179707115Y-65670269D01*
X179699054Y-65666163D01*
X179648259Y-65618190D01*
X179631463Y-65550370D01*
X179653999Y-65484234D01*
X179699054Y-65445193D01*
X179707816Y-65440729D01*
X179729789Y-65424764D01*
X179879786Y-65315787D01*
X179879788Y-65315784D01*
X179879792Y-65315782D01*
X180030104Y-65165470D01*
X180030106Y-65165466D01*
X180030109Y-65165464D01*
X180155048Y-64993498D01*
X180155047Y-64993498D01*
X180155051Y-64993494D01*
X180251557Y-64804090D01*
X180317246Y-64601921D01*
X180350500Y-64391965D01*
X180350500Y-64179391D01*
X180317246Y-63969435D01*
X180251557Y-63767266D01*
X180155051Y-63577862D01*
X180155049Y-63577859D01*
X180155048Y-63577857D01*
X180030109Y-63405891D01*
X179879786Y-63255568D01*
X179707820Y-63130629D01*
X179707115Y-63130269D01*
X179699054Y-63126163D01*
X179648259Y-63078190D01*
X179631463Y-63010370D01*
X179653999Y-62944234D01*
X179699054Y-62905193D01*
X179707816Y-62900729D01*
X179766610Y-62858013D01*
X179879786Y-62775787D01*
X179879788Y-62775784D01*
X179879792Y-62775782D01*
X180030104Y-62625470D01*
X180030106Y-62625466D01*
X180030109Y-62625464D01*
X180155048Y-62453498D01*
X180155047Y-62453498D01*
X180155051Y-62453494D01*
X180251557Y-62264090D01*
X180317246Y-62061921D01*
X180350500Y-61851965D01*
X180350500Y-61639391D01*
X180317246Y-61429435D01*
X180251557Y-61227266D01*
X180155051Y-61037862D01*
X180155049Y-61037859D01*
X180155048Y-61037857D01*
X180030109Y-60865891D01*
X179879786Y-60715568D01*
X179707820Y-60590629D01*
X179518414Y-60494122D01*
X179518413Y-60494121D01*
X179518412Y-60494121D01*
X179316243Y-60428432D01*
X179316241Y-60428431D01*
X179316240Y-60428431D01*
X179154957Y-60402886D01*
X179106287Y-60395178D01*
X178893713Y-60395178D01*
X178845042Y-60402886D01*
X178683760Y-60428431D01*
X178481585Y-60494122D01*
X178292179Y-60590629D01*
X178120213Y-60715568D01*
X177969890Y-60865891D01*
X177844951Y-61037857D01*
X177748444Y-61227263D01*
X177682753Y-61429438D01*
X177649500Y-61639391D01*
X162250499Y-61639391D01*
X162250499Y-60867806D01*
X162244091Y-60808195D01*
X162209543Y-60715568D01*
X162193797Y-60673349D01*
X162193793Y-60673342D01*
X162107547Y-60558133D01*
X162107544Y-60558130D01*
X161992335Y-60471884D01*
X161992328Y-60471880D01*
X161857482Y-60421586D01*
X161857483Y-60421586D01*
X161797883Y-60415179D01*
X161797881Y-60415178D01*
X161797873Y-60415178D01*
X161797864Y-60415178D01*
X160002129Y-60415178D01*
X160002123Y-60415179D01*
X159942516Y-60421586D01*
X159807671Y-60471880D01*
X159807664Y-60471884D01*
X159692455Y-60558130D01*
X159692452Y-60558133D01*
X159606206Y-60673342D01*
X159606202Y-60673349D01*
X159555908Y-60808195D01*
X159549706Y-60865886D01*
X159549501Y-60867801D01*
X159549500Y-60867813D01*
X157000500Y-60867813D01*
X157000500Y-59258676D01*
X157020185Y-59191637D01*
X157036819Y-59170995D01*
X158670995Y-57536819D01*
X158732318Y-57503334D01*
X158758676Y-57500500D01*
X181241324Y-57500500D01*
X181308363Y-57520185D01*
G37*
%TD.AperFunction*%
%TD*%
M02*
