M48
; DRILL file {KiCad 9.0.7} date 2026-02-21T20:40:56+0800
; FORMAT={-:-/ absolute / metric / decimal}
; #@! TF.CreationDate,2026-02-21T20:40:56+08:00
; #@! TF.GenerationSoftware,Kicad,Pcbnew,9.0.7
; #@! TF.FileFunction,Plated,1,2,PTH
FMAT,2
METRIC
; #@! TA.AperFunction,Plated,PTH,ViaDrill
T1C0.300
; #@! TA.AperFunction,Plated,PTH,ComponentDrill
T2C1.000
%
G90
G05
T1
X168.5Y-89.0
X169.5Y-82.5
X169.5Y-94.0
X170.5Y-88.0
X173.0Y-91.5
T2
X160.9Y-61.766
X160.9Y-64.306
X160.9Y-66.846
X160.9Y-69.386
X160.9Y-71.926
X160.9Y-74.466
X160.9Y-77.006
X160.9Y-79.546
X160.9Y-82.086
X160.9Y-84.626
X160.9Y-87.166
X160.9Y-89.706
X160.9Y-92.246
X160.9Y-94.786
X160.9Y-97.326
X160.9Y-99.866
X160.9Y-102.406
X160.9Y-104.946
X160.9Y-107.486
X160.9Y-110.026
X160.9Y-112.566
X160.9Y-115.106
X160.9Y-117.646
X160.9Y-120.186
X179.0Y-61.746
X179.0Y-64.286
X179.0Y-66.826
X179.0Y-69.366
X179.0Y-71.906
X179.0Y-74.446
X179.0Y-76.986
X179.0Y-79.526
X179.0Y-82.066
X179.0Y-84.606
X179.0Y-87.146
X179.0Y-89.686
X179.0Y-92.226
X179.0Y-94.766
X179.0Y-97.306
X179.0Y-99.846
X179.0Y-102.386
X179.0Y-104.926
X179.0Y-107.466
X179.0Y-110.006
X179.0Y-112.546
X179.0Y-115.086
X179.0Y-117.626
X179.0Y-120.166
M30
