%TF.GenerationSoftware,KiCad,Pcbnew,9.0.7*%
%TF.CreationDate,2026-02-21T20:40:54+08:00*%
%TF.ProjectId,lqfp48_breakout,6c716670-3438-45f6-9272-65616b6f7574,rev?*%
%TF.SameCoordinates,Original*%
%TF.FileFunction,Legend,Top*%
%TF.FilePolarity,Positive*%
%FSLAX46Y46*%
G04 Gerber Fmt 4.6, Leading zero omitted, Abs format (unit mm)*
G04 Created by KiCad (PCBNEW 9.0.7) date 2026-02-21 20:40:54*
%MOMM*%
%LPD*%
G01*
G04 APERTURE LIST*
%ADD10C,0.150000*%
%ADD11C,0.100000*%
%ADD12C,0.250000*%
%ADD13C,0.120000*%
G04 APERTURE END LIST*
D10*
X165419465Y-113157636D02*
X165419463Y-113157645D01*
X164725295Y-113756615D02*
X164941208Y-113469916D01*
X164588072Y-113760892D02*
X164725295Y-113756615D01*
X166030669Y-112508418D02*
X166418334Y-112720413D01*
X165824100Y-112897069D02*
X166030669Y-112508418D01*
X165880295Y-113017831D02*
X165824100Y-112897069D01*
X166293423Y-113704699D02*
X165880295Y-113017831D01*
X167160452Y-113510167D02*
X167160420Y-113510194D01*
X165919549Y-114434690D02*
X166293423Y-113704699D01*
X166041388Y-114540402D02*
X165919549Y-114434690D01*
X166443737Y-114978550D02*
X166041388Y-114540402D01*
X169897316Y-113964387D02*
X170102683Y-114035612D01*
X169830935Y-113988487D02*
X169897316Y-113964387D01*
X166613287Y-108813252D02*
X166708908Y-109367271D01*
X165030201Y-109794922D02*
X165030186Y-109794905D01*
X166634315Y-108617803D02*
X166613287Y-108813252D01*
X165427737Y-113819836D02*
G75*
G02*
X165586726Y-113773047I122400J-122400D01*
G01*
X165586731Y-113773025D02*
G75*
G02*
X165781597Y-113869836I-93394J-432511D01*
G01*
X165781586Y-113869849D02*
G75*
G02*
X165934661Y-114068096I-403249J-469587D01*
G01*
X165934649Y-114068102D02*
G75*
G02*
X165972090Y-114287349I-356112J-173634D01*
G01*
X165972103Y-114287350D02*
G75*
G02*
X165919568Y-114434702I-344866J39914D01*
G01*
X165919549Y-114434690D02*
G75*
G02*
X165813798Y-114512727I-154912J99254D01*
G01*
X165813793Y-114512709D02*
G75*
G02*
X165672823Y-114504844I-58856J212373D01*
G01*
X165672823Y-114504843D02*
G75*
G02*
X165523668Y-114411604I186214J463807D01*
G01*
X165523667Y-114411605D02*
G75*
G02*
X165435427Y-114287305I236370J261269D01*
G01*
X165435447Y-114287296D02*
G75*
G02*
X165383523Y-114106643I728090J307060D01*
G01*
X165383513Y-114106645D02*
G75*
G02*
X165376766Y-113929537I715194J115929D01*
G01*
X165376765Y-113929537D02*
G75*
G02*
X165427743Y-113819842I175572J-14899D01*
G01*
X164171143Y-113735303D02*
G75*
G02*
X164163591Y-113621731I1078694J128767D01*
G01*
X164163594Y-113621731D02*
G75*
G02*
X164181972Y-113569591I80043J1095D01*
G01*
X164181962Y-113569583D02*
G75*
G02*
X164227245Y-113547689I46575J-38553D01*
G01*
X164227245Y-113547704D02*
G75*
G02*
X164321636Y-113553439I12092J-580632D01*
G01*
X164321635Y-113553447D02*
G75*
G02*
X164469642Y-113618781I-42498J-296589D01*
G01*
X164469650Y-113618771D02*
G75*
G02*
X164588068Y-113760894I-316213J-383865D01*
G01*
X164588072Y-113760892D02*
G75*
G02*
X164639379Y-113924997I-369845J-205704D01*
G01*
X164639380Y-113924997D02*
G75*
G02*
X164599914Y-114053787I-173943J-17139D01*
G01*
X164599939Y-114053808D02*
G75*
G02*
X164489502Y-114100456I-100202J83172D01*
G01*
X164489500Y-114100483D02*
G75*
G02*
X164351209Y-114048623I20937J266147D01*
G01*
X164351193Y-114048645D02*
G75*
G02*
X164229315Y-113911321I267444J360109D01*
G01*
X164229324Y-113911316D02*
G75*
G02*
X164171139Y-113735304I404013J231180D01*
G01*
X166443737Y-114978550D02*
G75*
G02*
X166537889Y-114896863I82500J14D01*
G01*
X166537888Y-114896867D02*
G75*
G02*
X166824085Y-114974638I-169451J-1189069D01*
G01*
X166824083Y-114974642D02*
G75*
G02*
X167135144Y-115140280I-668546J-1630394D01*
G01*
X167135148Y-115140274D02*
G75*
G02*
X167293972Y-115327189I-249411J-372862D01*
G01*
X167293998Y-115327177D02*
G75*
G02*
X167337830Y-115577074I-459611J-209409D01*
G01*
X167337830Y-115577074D02*
G75*
G02*
X167247830Y-115794645I-382293J30738D01*
G01*
X167247821Y-115794637D02*
G75*
G02*
X167063163Y-115893864I-218884J185901D01*
G01*
X167063159Y-115893829D02*
G75*
G02*
X166854623Y-115844296I-36922J308293D01*
G01*
X166854608Y-115844319D02*
G75*
G02*
X166774924Y-115755398I131029J197583D01*
G01*
X166617203Y-115436403D02*
X166774924Y-115755398D01*
X166477087Y-115126687D02*
X166617203Y-115436403D01*
X166477087Y-115126687D02*
G75*
G02*
X166443723Y-114978550I312250J148151D01*
G01*
X169830935Y-113988487D02*
G75*
G02*
X169795015Y-114037582I-420198J269751D01*
G01*
X169844173Y-113952350D02*
G75*
G02*
X169830921Y-113988478I-87536J11614D01*
G01*
X169835735Y-113930659D02*
G75*
G02*
X169844139Y-113952345I-15498J-18477D01*
G01*
X169810364Y-113921436D02*
G75*
G02*
X169835723Y-113930674I-27J-39500D01*
G01*
X169743992Y-113941740D02*
G75*
G02*
X169810364Y-113921445I66345J-98296D01*
G01*
X169682705Y-114000325D02*
G75*
G02*
X169743992Y-113941740I202232J-150211D01*
G01*
X169650051Y-114068848D02*
G75*
G02*
X169682707Y-114000327I190586J-48788D01*
G01*
X169663748Y-114118847D02*
G75*
G02*
X169650049Y-114068847I36989J37011D01*
G01*
X169683969Y-114123995D02*
G75*
G02*
X169663786Y-114118809I-5732J19559D01*
G01*
X169716691Y-114109359D02*
G75*
G02*
X169683971Y-114124002I-70754J114223D01*
G01*
X169755545Y-114079552D02*
G75*
G02*
X169716693Y-114109362I-167908J178616D01*
G01*
X169795009Y-114037577D02*
G75*
G02*
X169755547Y-114079554I-358672J297641D01*
G01*
X169471384Y-113445186D02*
G75*
G02*
X169588514Y-113352810I328553J-296150D01*
G01*
X169588506Y-113352796D02*
G75*
G02*
X169717934Y-113317082I141231J-259440D01*
G01*
X169717934Y-113317091D02*
G75*
G02*
X169843149Y-113343211I10503J-262845D01*
G01*
X169843143Y-113343224D02*
G75*
G02*
X169948923Y-113426148I-138506J-285612D01*
G01*
X169948937Y-113426136D02*
G75*
G02*
X169995198Y-113488460I-550700J-457100D01*
G01*
X169995196Y-113488461D02*
G75*
G02*
X169996275Y-113519040I-24559J-16175D01*
G01*
X169996307Y-113519058D02*
G75*
G02*
X169969011Y-113536715I-30370J17022D01*
G01*
X169969010Y-113536702D02*
G75*
G02*
X169884748Y-113540437I-84273J948866D01*
G01*
X169767889Y-113577676D02*
G75*
G02*
X169884748Y-113540448I116848J-164760D01*
G01*
X169651133Y-113688782D02*
G75*
G02*
X169767894Y-113577684I442504J-348154D01*
G01*
X169580547Y-113816134D02*
G75*
G02*
X169651141Y-113688788I428690J-154402D01*
G01*
X169599863Y-113902562D02*
G75*
G02*
X169580562Y-113816139I58474J58426D01*
G01*
X169616628Y-113911885D02*
G75*
G02*
X169599846Y-113902579I7909J34049D01*
G01*
X169631132Y-113907716D02*
G75*
G02*
X169616624Y-113911900I-10995J10880D01*
G01*
X169641068Y-113889046D02*
G75*
G02*
X169631127Y-113907711I-36031J7210D01*
G01*
X169644137Y-113857936D02*
G75*
G02*
X169641068Y-113889046I-159200J0D01*
G01*
X169644137Y-113857936D02*
G75*
G02*
X169651522Y-113825529I74800J0D01*
G01*
X169651526Y-113825531D02*
G75*
G02*
X169672112Y-113800739I59911J-28805D01*
G01*
X169672117Y-113800746D02*
G75*
G02*
X169703036Y-113787600I43420J-59190D01*
G01*
X169703037Y-113787606D02*
G75*
G02*
X169739388Y-113788082I16900J-97730D01*
G01*
X169774237Y-113788001D02*
G75*
G02*
X169739390Y-113788072I-17600J85965D01*
G01*
X169801061Y-113773560D02*
G75*
G02*
X169774235Y-113787990I-37424J37424D01*
G01*
X169815502Y-113746736D02*
G75*
G02*
X169801069Y-113773568I-51865J10600D01*
G01*
X169815587Y-113711886D02*
G75*
G02*
X169815516Y-113746739I-86050J-17250D01*
G01*
X169815587Y-113711886D02*
G75*
G02*
X169817670Y-113675606I70550J14150D01*
G01*
X169817685Y-113675611D02*
G75*
G02*
X169837204Y-113644602I70652J-22825D01*
G01*
X169837217Y-113644616D02*
G75*
G02*
X169871788Y-113623819I64220J-67620D01*
G01*
X169871794Y-113623836D02*
G75*
G02*
X169915972Y-113616651I44143J-132000D01*
G01*
X169915972Y-113616636D02*
G75*
G02*
X169986973Y-113669650I-35J-74100D01*
G01*
X169986989Y-113669645D02*
G75*
G02*
X169985324Y-113791971I-197152J-58491D01*
G01*
X169985323Y-113791971D02*
G75*
G02*
X169897317Y-113964388I-590886J192935D01*
G01*
X169897316Y-113964387D02*
G75*
G02*
X169748029Y-114130985I-885779J643551D01*
G01*
X169748030Y-114130986D02*
G75*
G02*
X169604779Y-114248393I-1215893J1337450D01*
G01*
X169604778Y-114248392D02*
G75*
G02*
X169502106Y-114295746I-166241J225456D01*
G01*
X169502104Y-114295737D02*
G75*
G02*
X169458230Y-114270873I-8467J36201D01*
G01*
X169458301Y-114270850D02*
G75*
G02*
X169460422Y-114197975I104936J33414D01*
G01*
X169465947Y-114154383D02*
G75*
G02*
X169460397Y-114197965I-91810J-10453D01*
G01*
X169451484Y-114109900D02*
G75*
G02*
X169465934Y-114154385I-102047J-57736D01*
G01*
X169419121Y-114071332D02*
G75*
G02*
X169451467Y-114109910I-88084J-106704D01*
G01*
X169373734Y-114044859D02*
G75*
G02*
X169419125Y-114071327I-58497J-152477D01*
G01*
X169373734Y-114044859D02*
G75*
G02*
X169299739Y-113960822I43303J112723D01*
G01*
X169299707Y-113960830D02*
G75*
G02*
X169293552Y-113804294I381630J93394D01*
G01*
X169293553Y-113804294D02*
G75*
G02*
X169354641Y-113615963I644384J-104942D01*
G01*
X169354636Y-113615961D02*
G75*
G02*
X169471381Y-113445183I692601J-348175D01*
G01*
X165796576Y-112853763D02*
G75*
G02*
X165819708Y-112824954I128361J-79373D01*
G01*
X165819703Y-112824949D02*
G75*
G02*
X165850520Y-112800566I134234J-137987D01*
G01*
X165850518Y-112800563D02*
G75*
G02*
X165883969Y-112783964I94419J-148273D01*
G01*
X165883968Y-112783961D02*
G75*
G02*
X165914834Y-112778436I30869J-83475D01*
G01*
X165914834Y-112778436D02*
G75*
G02*
X165971164Y-112787403I3J-181400D01*
G01*
X165971164Y-112787403D02*
G75*
G02*
X165982208Y-112812096I-5627J-17333D01*
G01*
X165982164Y-112812077D02*
G75*
G02*
X165949949Y-112846596I-65827J29141D01*
G01*
X165949959Y-112846614D02*
G75*
G02*
X165868280Y-112883713I-350122J662378D01*
G01*
X165868279Y-112883711D02*
G75*
G02*
X165824101Y-112897072I-113742J296375D01*
G01*
X165824100Y-112897069D02*
G75*
G02*
X165796979Y-112894712I-9863J43733D01*
G01*
X165796987Y-112894693D02*
G75*
G02*
X165787899Y-112879473I5750J13757D01*
G01*
X165787892Y-112879472D02*
G75*
G02*
X165796565Y-112853756I59845J-5864D01*
G01*
X165555753Y-113579081D02*
G75*
G02*
X165921257Y-113622481I127334J-488415D01*
G01*
X165292836Y-113800079D02*
G75*
G02*
X165555745Y-113579050I363801J-165857D01*
G01*
X165269408Y-114186350D02*
G75*
G02*
X165292838Y-113800080I513729J162684D01*
G01*
X165507364Y-114530107D02*
G75*
G02*
X165269409Y-114186350I439073J558171D01*
G01*
X165727612Y-114658019D02*
G75*
G02*
X165507371Y-114530099I342525J843283D01*
G01*
X165905676Y-114660256D02*
G75*
G02*
X165727622Y-114657995I-86139J228520D01*
G01*
X166041388Y-114540402D02*
G75*
G02*
X165905675Y-114660253I-225751J118866D01*
G01*
X166131942Y-114294533D02*
G75*
G02*
X166041399Y-114540408I-973005J218697D01*
G01*
X166163733Y-114101440D02*
G75*
G02*
X166131943Y-114294533I-1679296J177304D01*
G01*
X166158274Y-113958486D02*
G75*
G02*
X166163732Y-114101440I-492407J-90380D01*
G01*
X166118367Y-113890878D02*
G75*
G02*
X166158274Y-113958486I-72130J-88158D01*
G01*
X166057102Y-113886819D02*
G75*
G02*
X166118399Y-113890839I27835J-44917D01*
G01*
X166057102Y-113886819D02*
G75*
G02*
X166034794Y-113893255I-22665J36683D01*
G01*
X166034794Y-113893258D02*
G75*
G02*
X166021116Y-113883856I-157J14422D01*
G01*
X166021170Y-113883836D02*
G75*
G02*
X166019354Y-113857492I44467J16300D01*
G01*
X166019333Y-113857487D02*
G75*
G02*
X166031424Y-113816940I269704J-58349D01*
G01*
X166037446Y-113766100D02*
G75*
G02*
X166031417Y-113816937I-103209J-13536D01*
G01*
X166019679Y-113713008D02*
G75*
G02*
X166037456Y-113766099I-127242J-72128D01*
G01*
X165979577Y-113663267D02*
G75*
G02*
X166019676Y-113713010I-131040J-146669D01*
G01*
X165921257Y-113622480D02*
G75*
G02*
X165979578Y-113663266I-141520J-264456D01*
G01*
X164565338Y-113364432D02*
G75*
G02*
X164768790Y-113553458I-228001J-449404D01*
G01*
X164334671Y-113336842D02*
G75*
G02*
X164565336Y-113364436I77566J-329494D01*
G01*
X164152149Y-113463556D02*
G75*
G02*
X164334663Y-113336810I251988J-168080D01*
G01*
X164081537Y-113696622D02*
G75*
G02*
X164152147Y-113463555I420000J-14D01*
G01*
X164116674Y-113874355D02*
G75*
G02*
X164081544Y-113696622I431963J177719D01*
G01*
X164219584Y-114050664D02*
G75*
G02*
X164116678Y-113874353I583453J458728D01*
G01*
X164358204Y-114182036D02*
G75*
G02*
X164219582Y-114050666I377633J537300D01*
G01*
X164497956Y-114226236D02*
G75*
G02*
X164358201Y-114182040I-19J243000D01*
G01*
X164604038Y-114184068D02*
G75*
G02*
X164497956Y-114226254I-106101J112332D01*
G01*
X164692349Y-114063573D02*
G75*
G02*
X164604048Y-114184078I-372212J180137D01*
G01*
X164739013Y-113905641D02*
G75*
G02*
X164692356Y-114063576I-501876J62405D01*
G01*
X164725295Y-113756615D02*
G75*
G02*
X164739012Y-113905641I-333498J-105841D01*
G01*
X164704172Y-113680836D02*
X164725295Y-113756615D01*
X164704172Y-113680836D02*
G75*
G02*
X164707683Y-113645084I43265J13800D01*
G01*
X164707687Y-113645086D02*
G75*
G02*
X164729507Y-113637035I15550J-8550D01*
G01*
X164729487Y-113637087D02*
G75*
G02*
X164778227Y-113660988I-102050J-269749D01*
G01*
X164815854Y-113676538D02*
G75*
G02*
X164778225Y-113660992I29783J125402D01*
G01*
X164828109Y-113665179D02*
G75*
G02*
X164815848Y-113676566I-9972J-1557D01*
G01*
X164813110Y-113623956D02*
G75*
G02*
X164828103Y-113665180I-98273J-59080D01*
G01*
X164768816Y-113553442D02*
X164813110Y-113623956D01*
X165433584Y-113159436D02*
G75*
G02*
X165419464Y-113157642I-147J55300D01*
G01*
X165352771Y-113140298D02*
X165419463Y-113157645D01*
X165274757Y-113119250D02*
X165352771Y-113140298D01*
X165185957Y-113094291D02*
X165274757Y-113119250D01*
X165083425Y-113073316D02*
G75*
G02*
X165185957Y-113094292I-85688J-679920D01*
G01*
X164976626Y-113067578D02*
G75*
G02*
X165083425Y-113073315I13411J-747258D01*
G01*
X164877082Y-113076890D02*
G75*
G02*
X164976626Y-113067577I111455J-654646D01*
G01*
X164796838Y-113101265D02*
G75*
G02*
X164877082Y-113076890I136099J-303771D01*
G01*
X164635830Y-113173402D02*
X164796838Y-113101265D01*
X164820769Y-113358341D02*
X164635830Y-113173402D01*
X164941208Y-113469916D02*
X164820769Y-113358341D01*
X165010887Y-113500928D02*
G75*
G02*
X164941193Y-113469933I17050J132192D01*
G01*
X165085969Y-113488514D02*
G75*
G02*
X165010885Y-113500943I-58232J118778D01*
G01*
X165229423Y-113411129D02*
X165154615Y-113451483D01*
X165348684Y-113329679D02*
G75*
G02*
X165154614Y-113451481I-678047J864843D01*
G01*
X165434509Y-113245273D02*
G75*
G02*
X165348685Y-113329681I-417272J338437D01*
G01*
X165458623Y-113187306D02*
G75*
G02*
X165434520Y-113245282I-110086J11770D01*
G01*
X165433584Y-113159436D02*
G75*
G02*
X165458596Y-113187303I-47J-25200D01*
G01*
X169893737Y-113007151D02*
G75*
G02*
X170141765Y-113185890I-132400J-445185D01*
G01*
X169564834Y-113002448D02*
G75*
G02*
X169893736Y-113007155I156103J-585688D01*
G01*
X169291796Y-113168796D02*
G75*
G02*
X169564830Y-113002433I418641J-379840D01*
G01*
X169186937Y-113440393D02*
G75*
G02*
X169291810Y-113168809I404200J-43D01*
G01*
X169186937Y-113440393D02*
G75*
G02*
X169161139Y-113635691I-751800J-43D01*
G01*
X169161131Y-113635689D02*
G75*
G02*
X169081191Y-113867751I-1718694J462253D01*
G01*
X169081187Y-113867749D02*
G75*
G02*
X168972978Y-114080980I-1600250J678013D01*
G01*
X168972976Y-114080979D02*
G75*
G02*
X168859312Y-114213640I-443239J264743D01*
G01*
X168859310Y-114213637D02*
G75*
G02*
X168789652Y-114266115I-596573J719401D01*
G01*
X168789653Y-114266117D02*
G75*
G02*
X168768013Y-114259284I-8116J11981D01*
G01*
X168767981Y-114259296D02*
G75*
G02*
X168765609Y-114220841I60956J23060D01*
G01*
X168806126Y-114073176D02*
X168765598Y-114220838D01*
X168875578Y-113831014D02*
X168806126Y-114073176D01*
X168670893Y-114035698D02*
X168875578Y-113831014D01*
X168670893Y-114035698D02*
G75*
G02*
X168474110Y-114206945I-1332456J1332462D01*
G01*
X168474109Y-114206944D02*
G75*
G02*
X168265285Y-114339515I-919172J1217108D01*
G01*
X168265286Y-114339517D02*
G75*
G02*
X168029373Y-114441237I-773749J1470081D01*
G01*
X168029372Y-114441234D02*
G75*
G02*
X167750825Y-114519927I-862035J2518998D01*
G01*
X167511180Y-114566230D02*
X167750824Y-114519924D01*
X167511180Y-114566230D02*
G75*
G02*
X167416146Y-114546510I-25743J114794D01*
G01*
X167416140Y-114546518D02*
G75*
G02*
X167411139Y-114488714I22697J31082D01*
G01*
X167411108Y-114488685D02*
G75*
G02*
X167543606Y-114368977I942529J-910051D01*
G01*
X167659288Y-114243810D02*
G75*
G02*
X167543597Y-114368966I-449951J299874D01*
G01*
X167789015Y-114025814D02*
G75*
G02*
X167659288Y-114243810I-2201478J1162478D01*
G01*
X167888510Y-113816576D02*
X167789015Y-114025814D01*
X167860408Y-113769036D02*
G75*
G02*
X167888434Y-113816534I29J-32000D01*
G01*
X167787520Y-113788925D02*
G75*
G02*
X167860408Y-113769044I72817J-123411D01*
G01*
X167123488Y-114180730D02*
X167787520Y-113788925D01*
X166527246Y-114537102D02*
X167123488Y-114180730D01*
X166302463Y-114691040D02*
G75*
G02*
X166527244Y-114537098I1276074J-1622196D01*
G01*
X166302463Y-114691040D02*
G75*
G02*
X166224269Y-114746458I-593326J754304D01*
G01*
X166224270Y-114746459D02*
G75*
G02*
X166141579Y-114793304I-498433J783423D01*
G01*
X166141578Y-114793302D02*
G75*
G02*
X166065964Y-114826291I-349641J698266D01*
G01*
X166065963Y-114826288D02*
G75*
G02*
X166013264Y-114835846I-52726J140652D01*
G01*
X165961062Y-114914130D02*
G75*
G02*
X166013264Y-114835885I52075J21794D01*
G01*
X166136439Y-115289838D02*
X165976771Y-114947784D01*
X166375083Y-115697149D02*
G75*
G02*
X165976763Y-114947787I3806954J2504113D01*
G01*
X166620652Y-116007764D02*
G75*
G02*
X166375089Y-115697145I1654585J1560428D01*
G01*
X166756771Y-116138469D02*
G75*
G02*
X166620653Y-116007763I1249366J1437333D01*
G01*
X166876204Y-116221945D02*
G75*
G02*
X166756777Y-116138463I334233J605309D01*
G01*
X166993181Y-116267969D02*
G75*
G02*
X166876204Y-116221946I118056J471733D01*
G01*
X167120315Y-116283636D02*
G75*
G02*
X166993183Y-116267962I22J523600D01*
G01*
X167352699Y-116249166D02*
G75*
G02*
X167120315Y-116283632I-232362J766030D01*
G01*
X167667978Y-116134961D02*
G75*
G02*
X167352700Y-116249169I-1233841J2913825D01*
G01*
X167964901Y-115990796D02*
G75*
G02*
X167667979Y-116134964I-1547864J2810060D01*
G01*
X168125588Y-115857968D02*
G75*
G02*
X167964896Y-115990787I-430751J357532D01*
G01*
X168125588Y-115857968D02*
G75*
G02*
X168165224Y-115816745I301649J-250368D01*
G01*
X168165223Y-115816744D02*
G75*
G02*
X168210308Y-115781887I258214J-287392D01*
G01*
X168210305Y-115781882D02*
G75*
G02*
X168254005Y-115757691I174832J-264254D01*
G01*
X168254006Y-115757693D02*
G75*
G02*
X168288431Y-115750234I34431J-75743D01*
G01*
X168402281Y-115707663D02*
G75*
G02*
X168288431Y-115750236I-113844J130927D01*
G01*
X168621479Y-115503249D02*
X168402281Y-115707663D01*
X168826172Y-115286337D02*
X168621479Y-115503249D01*
X168835502Y-115203026D02*
G75*
G02*
X168826173Y-115286338I-57765J-35710D01*
G01*
X168835502Y-115203026D02*
G75*
G02*
X168829971Y-115175272I34435J21290D01*
G01*
X168829970Y-115175272D02*
G75*
G02*
X168842652Y-115144814I69967J-11264D01*
G01*
X168842665Y-115144823D02*
G75*
G02*
X168872446Y-115116125I96472J-70313D01*
G01*
X168872448Y-115116128D02*
G75*
G02*
X168914971Y-115094015I118489J-175908D01*
G01*
X168957216Y-115071490D02*
G75*
G02*
X168914974Y-115094024I-111979J159054D01*
G01*
X168986314Y-115041650D02*
G75*
G02*
X168957217Y-115071492I-94377J62914D01*
G01*
X168997946Y-115009479D02*
G75*
G02*
X168986320Y-115041654I-71209J7543D01*
G01*
X168991170Y-114979713D02*
G75*
G02*
X168997967Y-115009481I-40133J-24823D01*
G01*
X168991170Y-114979713D02*
G75*
G02*
X168984443Y-114949936I39967J24677D01*
G01*
X168984428Y-114949934D02*
G75*
G02*
X168996169Y-114917737I71409J-7802D01*
G01*
X168996154Y-114917727D02*
G75*
G02*
X169025399Y-114887844I94783J-63509D01*
G01*
X169025391Y-114887832D02*
G75*
G02*
X169067806Y-114865244I112646J-160404D01*
G01*
X169113354Y-114837001D02*
G75*
G02*
X169067804Y-114865237I-96717J105165D01*
G01*
X169151943Y-114790587D02*
G75*
G02*
X169113343Y-114836989I-192106J120551D01*
G01*
X169178032Y-114733844D02*
G75*
G02*
X169151935Y-114790582I-231495J72108D01*
G01*
X169186937Y-114675283D02*
G75*
G02*
X169178018Y-114733840I-197000J47D01*
G01*
X169186937Y-114675283D02*
G75*
G02*
X169197660Y-114611245I196300J47D01*
G01*
X169197674Y-114611250D02*
G75*
G02*
X169228669Y-114566078I97363J-33586D01*
G01*
X169228667Y-114566076D02*
G75*
G02*
X169281795Y-114539540I81470J-96660D01*
G01*
X169281792Y-114539527D02*
G75*
G02*
X169358387Y-114530755I77145J-334809D01*
G01*
X169770117Y-114399247D02*
G75*
G02*
X169358387Y-114530730I-412880J582511D01*
G01*
X170102683Y-114035612D02*
G75*
G02*
X169770128Y-114399263I-1005546J585676D01*
G01*
X170247354Y-113578344D02*
G75*
G02*
X170102672Y-114035606I-1089817J93308D01*
G01*
X170141768Y-113185888D02*
G75*
G02*
X170247335Y-113578342I-487831J-341648D01*
G01*
X166711075Y-112987049D02*
X166788652Y-113021820D01*
X166643115Y-112957847D02*
X166711075Y-112987049D01*
X166584618Y-112933611D02*
X166643115Y-112957847D01*
X166573502Y-112931754D02*
G75*
G02*
X166584614Y-112933620I1535J-24882D01*
G01*
X166543075Y-112940823D02*
G75*
G02*
X166573503Y-112931763I34462J-60113D01*
G01*
X166212971Y-113130067D02*
X166543075Y-112940823D01*
X165891452Y-113315329D02*
X166212971Y-113130067D01*
X165848800Y-113348005D02*
G75*
G02*
X165891452Y-113315329I145337J-145531D01*
G01*
X165848994Y-113364086D02*
G75*
G02*
X165848785Y-113347990I7743J8150D01*
G01*
X165900994Y-113413487D02*
X165848994Y-113364086D01*
X165971331Y-113472470D02*
X165900994Y-113413487D01*
X166059393Y-113538055D02*
X165971331Y-113472470D01*
X166293423Y-113704699D02*
X166059393Y-113538055D01*
X166645625Y-113507850D02*
X166293423Y-113704699D01*
X166856186Y-113394673D02*
X166645625Y-113507850D01*
X166856186Y-113394673D02*
G75*
G02*
X166962160Y-113359234I146751J-262663D01*
G01*
X166962158Y-113359221D02*
G75*
G02*
X167031514Y-113375836I13379J-97215D01*
G01*
X167031505Y-113375849D02*
G75*
G02*
X167095738Y-113433195I-202968J-291987D01*
G01*
X167160420Y-113510194D02*
X167095745Y-113433189D01*
X167169864Y-113506441D02*
G75*
G02*
X167160452Y-113510167I-5327J-295D01*
G01*
X167161642Y-113473646D02*
G75*
G02*
X167169847Y-113506442I-77405J-36790D01*
G01*
X167103618Y-113351567D02*
X167161642Y-113473646D01*
X167043215Y-113249911D02*
G75*
G02*
X167103622Y-113351565I-488778J-359225D01*
G01*
X166962856Y-113154554D02*
G75*
G02*
X167043215Y-113249911I-674419J-649882D01*
G01*
X166873455Y-113073555D02*
G75*
G02*
X166962854Y-113154556I-552018J-699081D01*
G01*
X166788652Y-113021820D02*
G75*
G02*
X166873454Y-113073556I-171215J-376016D01*
G01*
X165907225Y-112665728D02*
G75*
G02*
X165991115Y-112751420I-346588J-423208D01*
G01*
X165839952Y-112618295D02*
G75*
G02*
X165907226Y-112665727I-295215J-490141D01*
G01*
X165774587Y-112585445D02*
G75*
G02*
X165839955Y-112618290I-181750J-443191D01*
G01*
X165722799Y-112575236D02*
G75*
G02*
X165774591Y-112585436I38J-136400D01*
G01*
X165623343Y-112608444D02*
G75*
G02*
X165722799Y-112575206I99494J-132292D01*
G01*
X165574688Y-112691953D02*
G75*
G02*
X165623337Y-112608437I123449J-15983D01*
G01*
X165593724Y-112808933D02*
G75*
G02*
X165574675Y-112691951I186413J90397D01*
G01*
X165677314Y-112926413D02*
G75*
G02*
X165593734Y-112808928I306723J306677D01*
G01*
X165760990Y-113000856D02*
G75*
G02*
X165677316Y-112926411I595547J753620D01*
G01*
X165820752Y-113026845D02*
G75*
G02*
X165760995Y-113000849I19285J126009D01*
G01*
X165880295Y-113017831D02*
G75*
G02*
X165820751Y-113026853I-44258J91095D01*
G01*
X165960324Y-112969667D02*
G75*
G02*
X165880296Y-113017832I-308087J421331D01*
G01*
X166040499Y-112904404D02*
G75*
G02*
X165960325Y-112969668I-668762J739668D01*
G01*
X166059970Y-112861909D02*
G75*
G02*
X166040505Y-112904411I-59133J1373D01*
G01*
X166044141Y-112814331D02*
G75*
G02*
X166059961Y-112861909I-58604J-45905D01*
G01*
X165991113Y-112751422D02*
X166044141Y-112814331D01*
X167189940Y-112536602D02*
X167413769Y-112634524D01*
X166990396Y-112486280D02*
G75*
G02*
X167189936Y-112536610I-22659J-510556D01*
G01*
X166839958Y-112509771D02*
G75*
G02*
X166990397Y-112486259I133379J-360365D01*
G01*
X166640565Y-112600087D02*
G75*
G02*
X166839959Y-112509773I734772J-1356949D01*
G01*
X166418334Y-112720413D02*
X166640565Y-112600087D01*
X166792986Y-112845067D02*
X166418334Y-112720413D01*
X166962996Y-112896951D02*
X166792986Y-112845067D01*
X167113235Y-112925975D02*
G75*
G02*
X166962994Y-112896957I35902J589339D01*
G01*
X167198867Y-112915244D02*
G75*
G02*
X167113234Y-112925992I-71430J222608D01*
G01*
X167268330Y-112874078D02*
G75*
G02*
X167198870Y-112915253I-124793J131342D01*
G01*
X167268330Y-112874078D02*
G75*
G02*
X167313487Y-112837603I249307J-262458D01*
G01*
X167313487Y-112837603D02*
G75*
G02*
X167365824Y-112807028I242450J-354933D01*
G01*
X167365825Y-112807029D02*
G75*
G02*
X167417236Y-112786242I166212J-337107D01*
G01*
X167417235Y-112786238D02*
G75*
G02*
X167458830Y-112780121I39202J-122098D01*
G01*
X167458830Y-112780130D02*
G75*
G02*
X167474294Y-112794662I-293J-15806D01*
G01*
X167474323Y-112794660D02*
G75*
G02*
X167466626Y-112824063I-45586J-3776D01*
G01*
X167466631Y-112824066D02*
G75*
G02*
X167426004Y-112871199I-221594J149930D01*
G01*
X167426013Y-112871208D02*
G75*
G02*
X167359273Y-112927317I-671076J730472D01*
G01*
X167231310Y-113049664D02*
G75*
G02*
X167359269Y-112927311I629227J-529972D01*
G01*
X167233762Y-113128522D02*
G75*
G02*
X167231321Y-113049674I42775J40786D01*
G01*
X167322831Y-113149041D02*
G75*
G02*
X167233729Y-113128554I-28994J77905D01*
G01*
X167492561Y-113066935D02*
G75*
G02*
X167322827Y-113149031I-516424J851199D01*
G01*
X167670504Y-112940926D02*
G75*
G02*
X167492559Y-113066931I-977367J1191590D01*
G01*
X167704327Y-112848791D02*
G75*
G02*
X167670512Y-112940936I-95190J-17345D01*
G01*
X167642041Y-112758441D02*
G75*
G02*
X167704334Y-112848790I-69104J-114295D01*
G01*
X167413769Y-112634524D02*
G75*
G02*
X167642042Y-112758439I-1216332J-2512912D01*
G01*
X166149823Y-111512343D02*
X166209946Y-111625261D01*
X166093571Y-111417182D02*
X166149823Y-111512343D01*
X166044611Y-111341891D02*
X166093571Y-111417182D01*
X166024845Y-111330636D02*
G75*
G02*
X166044654Y-111341865I-8J-23100D01*
G01*
X165951797Y-111371576D02*
G75*
G02*
X166024845Y-111330624I73040J-44660D01*
G01*
X165854343Y-111551954D02*
G75*
G02*
X165951796Y-111371575I1724694J-815282D01*
G01*
X165767506Y-111770540D02*
G75*
G02*
X165854339Y-111551952I1764231J-574296D01*
G01*
X165716143Y-111983667D02*
G75*
G02*
X165767499Y-111770538I1385794J-221169D01*
G01*
X165697476Y-112141733D02*
X165716143Y-111983667D01*
X165707348Y-112263542D02*
G75*
G02*
X165697487Y-112141735I243389J81006D01*
G01*
X165756278Y-112339310D02*
G75*
G02*
X165707356Y-112263539I122659J132874D01*
G01*
X165862009Y-112421827D02*
G75*
G02*
X165756273Y-112339315I445028J679291D01*
G01*
X166030669Y-112508418D02*
G75*
G02*
X165862004Y-112421834I323568J837882D01*
G01*
X166193366Y-112543739D02*
G75*
G02*
X166030665Y-112508429I31771J538903D01*
G01*
X166362806Y-112528259D02*
G75*
G02*
X166193366Y-112543731I-135869J552423D01*
G01*
X166551942Y-112462548D02*
G75*
G02*
X166362805Y-112528256I-446205J979312D01*
G01*
X166743451Y-112375291D02*
X166551942Y-112462548D01*
X166551852Y-112147589D02*
X166743451Y-112375291D01*
X166467623Y-112039219D02*
X166551852Y-112147589D01*
X166372382Y-111900227D02*
X166467623Y-112039219D01*
X166281406Y-111754644D02*
X166372382Y-111900227D01*
X166209946Y-111625261D02*
X166281406Y-111754644D01*
X167400736Y-109004833D02*
G75*
G02*
X168159023Y-109078135I260401J-1265003D01*
G01*
X166708908Y-109367271D02*
G75*
G02*
X167400737Y-109004835I977129J-1023665D01*
G01*
X166398698Y-109980662D02*
G75*
G02*
X166708905Y-109367267I1020939J-131174D01*
G01*
X166584810Y-110580802D02*
G75*
G02*
X166398708Y-109980663I563827J503766D01*
G01*
X166720633Y-110712756D02*
G75*
G02*
X166584811Y-110580801I864404J1025620D01*
G01*
X166843928Y-110787406D02*
G75*
G02*
X166720628Y-110712762I175809J429570D01*
G01*
X167000842Y-110829722D02*
G75*
G02*
X166843932Y-110787397I89895J645286D01*
G01*
X167136481Y-110844053D02*
X167000842Y-110829722D01*
X167813767Y-110814734D02*
G75*
G02*
X167136480Y-110844057I-418530J1830498D01*
G01*
X168291493Y-110609866D02*
G75*
G02*
X167813766Y-110814729I-800656J1207630D01*
G01*
X168613650Y-110280974D02*
G75*
G02*
X168291505Y-110609884I-931613J590238D01*
G01*
X168729167Y-109882836D02*
G75*
G02*
X168613645Y-110280971I-743830J0D01*
G01*
X168685231Y-109657360D02*
G75*
G02*
X168729167Y-109882836I-556594J-225476D01*
G01*
X168553873Y-109417292D02*
G75*
G02*
X168685233Y-109657359I-966536J-684844D01*
G01*
X168367421Y-109209124D02*
G75*
G02*
X168553881Y-109417287I-815884J-918412D01*
G01*
X168159016Y-109078151D02*
G75*
G02*
X168367430Y-109209114I-288279J-690085D01*
G01*
X167044016Y-108795689D02*
G75*
G02*
X166976369Y-108816218I-196979J527353D01*
G01*
X167087590Y-108770508D02*
G75*
G02*
X167044015Y-108795687I-96653J116972D01*
G01*
X167100130Y-108745621D02*
G75*
G02*
X167087564Y-108770476I-34593J1885D01*
G01*
X167088561Y-108723506D02*
G75*
G02*
X167100164Y-108745623I-12824J-20830D01*
G01*
X166957222Y-108704899D02*
G75*
G02*
X167088561Y-108723505I44415J-159337D01*
G01*
X166613287Y-108813252D02*
X166957222Y-108704899D01*
X166234085Y-108966026D02*
G75*
G02*
X166613286Y-108813250I1896352J-4159910D01*
G01*
X165887264Y-109146101D02*
G75*
G02*
X166234087Y-108966031I1930773J-3294735D01*
G01*
X165581710Y-109343646D02*
G75*
G02*
X165887263Y-109146099I2405827J-3386090D01*
G01*
X165282299Y-109574490D02*
X165581710Y-109343646D01*
X165030186Y-109794905D02*
X165282299Y-109574490D01*
X165027834Y-109863933D02*
G75*
G02*
X165030204Y-109794926I33403J33397D01*
G01*
X165055585Y-109867406D02*
G75*
G02*
X165027830Y-109863937I-11648J19570D01*
G01*
X165149497Y-109808314D02*
X165055585Y-109867406D01*
X165262697Y-109726648D02*
X165149497Y-109808314D01*
X165390026Y-109622611D02*
X165262697Y-109726648D01*
X165543592Y-109501743D02*
X165390026Y-109622611D01*
X165737963Y-109368164D02*
X165543592Y-109501743D01*
X165940061Y-109242854D02*
X165737963Y-109368164D01*
X166117864Y-109147268D02*
X165940061Y-109242854D01*
X166306483Y-109060307D02*
X166117864Y-109147268D01*
X166306483Y-109060307D02*
G75*
G02*
X166464315Y-109007065I283154J-578829D01*
G01*
X166464313Y-109007054D02*
G75*
G02*
X166556805Y-109007469I45224J-228282D01*
G01*
X166556806Y-109007466D02*
G75*
G02*
X166634529Y-109044883I-36269J-174770D01*
G01*
X166708333Y-109100500D02*
G75*
G02*
X166634531Y-109044880I555504J813864D01*
G01*
X166741204Y-109100921D02*
G75*
G02*
X166708303Y-109100545I-16167J24985D01*
G01*
X166762016Y-109068890D02*
G75*
G02*
X166741218Y-109100943I-46279J7254D01*
G01*
X166777113Y-108952814D02*
X166762016Y-109068890D01*
X166777113Y-108952814D02*
G75*
G02*
X166794262Y-108914411I67524J-7122D01*
G01*
X166794253Y-108914403D02*
G75*
G02*
X166839572Y-108874819I191084J-173033D01*
G01*
X166839573Y-108874820D02*
G75*
G02*
X166903065Y-108840137I202864J-295916D01*
G01*
X166903065Y-108840136D02*
G75*
G02*
X166976371Y-108816226I179372J-425600D01*
G01*
X166888006Y-108544439D02*
X166634315Y-108617803D01*
X166888006Y-108544439D02*
G75*
G02*
X167049329Y-108525572I129831J-410997D01*
G01*
X167049329Y-108525574D02*
G75*
G02*
X167152450Y-108563143I-14592J-200362D01*
G01*
X167152442Y-108563155D02*
G75*
G02*
X167261510Y-108663643I-368205J-509081D01*
G01*
X167444628Y-108777936D02*
G75*
G02*
X167261527Y-108663628I90209J348300D01*
G01*
X167737636Y-108815251D02*
G75*
G02*
X167444631Y-108777925I1J1168715D01*
G01*
X168097098Y-108777335D02*
G75*
G02*
X167737636Y-108815260I-359561J1685499D01*
G01*
X168482904Y-108663598D02*
G75*
G02*
X168097098Y-108777336I-934467J2458562D01*
G01*
X168482904Y-108663598D02*
G75*
G02*
X168897772Y-108553527I735433J-1935038D01*
G01*
X168897771Y-108553519D02*
G75*
G02*
X169380004Y-108513545I515166J-3286017D01*
G01*
X169380004Y-108513549D02*
G75*
G02*
X169844840Y-108543433I31133J-3145887D01*
G01*
X169844840Y-108543434D02*
G75*
G02*
X170199485Y-108644980I-181603J-1304302D01*
G01*
X170495321Y-108777936D02*
X170199489Y-108644971D01*
X170012579Y-108785896D02*
X170495321Y-108777936D01*
X169808200Y-108797250D02*
X170012579Y-108785896D01*
X169593299Y-108824779D02*
X169808200Y-108797250D01*
X169452154Y-108852489D02*
X169593299Y-108824779D01*
X169263235Y-108907044D02*
G75*
G02*
X169452155Y-108852494I319902J-753492D01*
G01*
X168996437Y-109020316D02*
X169263235Y-108907044D01*
X169453526Y-109151643D02*
X168996437Y-109020316D01*
X169453526Y-109151643D02*
G75*
G02*
X169672167Y-109228138I-563589J-1961593D01*
G01*
X169958353Y-109354915D02*
X169672167Y-109228139D01*
X170259333Y-109505481D02*
X169958353Y-109354915D01*
X170529793Y-109659095D02*
X170259333Y-109505481D01*
X170912753Y-109876497D02*
X170529793Y-109659095D01*
X171491019Y-110150635D02*
G75*
G02*
X170912751Y-109876500I1033518J2927099D01*
G01*
X171879092Y-110249622D02*
G75*
G02*
X171491020Y-110150633I356445J2207586D01*
G01*
X172316572Y-110289975D02*
G75*
G02*
X171879092Y-110249625I76965J3226239D01*
G01*
X172543304Y-110288456D02*
X172316572Y-110289975D01*
X172784965Y-110262442D02*
G75*
G02*
X172543304Y-110288467I-219728J905306D01*
G01*
X172944733Y-110203026D02*
G75*
G02*
X172784968Y-110262454I-330296J643490D01*
G01*
X173135726Y-110091305D02*
G75*
G02*
X173023455Y-110160377I-1106689J1673069D01*
G01*
X173208032Y-110046819D02*
X173023456Y-110160379D01*
X173208032Y-110046819D02*
G75*
G02*
X173360605Y-109965970I490905J-742017D01*
G01*
X173360604Y-109965967D02*
G75*
G02*
X173433210Y-109943481I161333J-392469D01*
G01*
X173433209Y-109943477D02*
G75*
G02*
X173454180Y-109960402I3628J-16959D01*
G01*
X173454137Y-109960402D02*
G75*
G02*
X173365124Y-110275756I-603000J-34D01*
G01*
X173365105Y-110275744D02*
G75*
G02*
X173073605Y-110666500I-2296568J1409108D01*
G01*
X173073605Y-110666500D02*
G75*
G02*
X172710253Y-111003783I-2028068J1820464D01*
G01*
X172710250Y-111003779D02*
G75*
G02*
X172384345Y-111152152I-480013J622243D01*
G01*
X172297914Y-111173626D02*
G75*
G02*
X172384346Y-111152161I276423J-928310D01*
G01*
X172225010Y-111200902D02*
G75*
G02*
X172297914Y-111173625I234927J-516834D01*
G01*
X172172344Y-111229705D02*
G75*
G02*
X172225013Y-111200908I220993J-341631D01*
G01*
X172158737Y-111254716D02*
G75*
G02*
X172172351Y-111229715I29800J-20D01*
G01*
X172207992Y-111331674D02*
G75*
G02*
X172158727Y-111254716I35445J76938D01*
G01*
X172433022Y-111421748D02*
G75*
G02*
X172207990Y-111331678I762915J2232212D01*
G01*
X172694252Y-111492849D02*
G75*
G02*
X172433020Y-111421753I427485J2086213D01*
G01*
X172928987Y-111517984D02*
G75*
G02*
X172694251Y-111492854I13850J1238248D01*
G01*
X172928987Y-111517984D02*
G75*
G02*
X173107525Y-111538161I-9950J-888052D01*
G01*
X173107524Y-111538163D02*
G75*
G02*
X173160326Y-111601984I-14287J-65573D01*
G01*
X173160336Y-111601984D02*
G75*
G02*
X173121257Y-111705499I-146699J-3752D01*
G01*
X173121255Y-111705497D02*
G75*
G02*
X172938435Y-111886121I-2152718J1996061D01*
G01*
X172852244Y-111977172D02*
G75*
G02*
X172938434Y-111886120I631393J-511364D01*
G01*
X172829207Y-112044789D02*
G75*
G02*
X172852265Y-111977189I103430J2453D01*
G01*
X172849212Y-112131944D02*
G75*
G02*
X172829221Y-112044789I203325J92508D01*
G01*
X172949420Y-112342514D02*
X172849212Y-112131944D01*
X172949420Y-112342514D02*
G75*
G02*
X173087720Y-112745074I-1470183J-730122D01*
G01*
X173087724Y-112745073D02*
G75*
G02*
X173144101Y-113232336I-2808687J-571863D01*
G01*
X173144095Y-113232336D02*
G75*
G02*
X173116578Y-113718832I-2834558J-83700D01*
G01*
X173116570Y-113718831D02*
G75*
G02*
X173001780Y-114118722I-1508133J216495D01*
G01*
X172838606Y-114487616D02*
X173001784Y-114118724D01*
X172702111Y-114279539D02*
X172838606Y-114487616D01*
X172577289Y-114115551D02*
G75*
G02*
X172702110Y-114279539I-1106452J-971685D01*
G01*
X172434734Y-113976632D02*
G75*
G02*
X172577290Y-114115550I-821097J-985204D01*
G01*
X172295443Y-113879271D02*
G75*
G02*
X172434733Y-113976633I-503306J-868365D01*
G01*
X172183929Y-113847659D02*
G75*
G02*
X172295445Y-113879267I-6392J-235077D01*
G01*
X172148023Y-113864398D02*
G75*
G02*
X172183929Y-113847642I34714J-27538D01*
G01*
X172131810Y-113907682D02*
G75*
G02*
X172148036Y-113864409I75027J-3454D01*
G01*
X172138514Y-113988424D02*
G75*
G02*
X172131798Y-113907681I309423J66388D01*
G01*
X172171380Y-114122511D02*
X172138514Y-113988424D01*
X172171380Y-114122511D02*
G75*
G02*
X172207386Y-114505364I-1061243J-292925D01*
G01*
X172207401Y-114505365D02*
G75*
G02*
X172119159Y-114931348I-1774364J145429D01*
G01*
X172119157Y-114931347D02*
G75*
G02*
X171937559Y-115303775I-1550020J525311D01*
G01*
X171937562Y-115303777D02*
G75*
G02*
X171696270Y-115524482I-553925J363341D01*
G01*
X171696259Y-115524461D02*
G75*
G02*
X171614171Y-115562187I-352222J658225D01*
G01*
X171614173Y-115562191D02*
G75*
G02*
X171582922Y-115552130I-9436J24255D01*
G01*
X171582920Y-115552131D02*
G75*
G02*
X171573456Y-115510141I51617J33695D01*
G01*
X171597811Y-115373529D02*
X171573493Y-115510146D01*
X171611613Y-115276556D02*
G75*
G02*
X171597812Y-115373529I-870476J74420D01*
G01*
X171615362Y-115174083D02*
G75*
G02*
X171611615Y-115276556I-1051725J-12853D01*
G01*
X171609540Y-115080916D02*
G75*
G02*
X171615359Y-115174083I-923103J-104420D01*
G01*
X171593463Y-115015083D02*
G75*
G02*
X171609550Y-115080915I-249926J-95953D01*
G01*
X171560148Y-114973510D02*
G75*
G02*
X171593461Y-115015084I-48411J-72926D01*
G01*
X171521840Y-114976246D02*
G75*
G02*
X171560126Y-114973543I20897J-23490D01*
G01*
X171470752Y-115040438D02*
G75*
G02*
X171521839Y-114976245I212385J-116598D01*
G01*
X171388487Y-115198088D02*
X171470752Y-115040438D01*
X171388487Y-115198088D02*
G75*
G02*
X171270280Y-115397766I-1386650J686052D01*
G01*
X171270278Y-115397765D02*
G75*
G02*
X171134073Y-115555213I-824741J575829D01*
G01*
X171134071Y-115555210D02*
G75*
G02*
X170973449Y-115676198I-636634J678074D01*
G01*
X170973453Y-115676204D02*
G75*
G02*
X170782444Y-115767082I-581516J976068D01*
G01*
X170782444Y-115767082D02*
G75*
G02*
X170725514Y-115777110I-56607J154746D01*
G01*
X170725514Y-115777120D02*
G75*
G02*
X170694043Y-115757744I23J35284D01*
G01*
X170694098Y-115757716D02*
G75*
G02*
X170683377Y-115704720I91439J46080D01*
G01*
X170695268Y-115593884D02*
X170683377Y-115704720D01*
X170697618Y-115484337D02*
G75*
G02*
X170695271Y-115593884I-438681J-45399D01*
G01*
X170661187Y-115463728D02*
G75*
G02*
X170697525Y-115484346I10850J-23208D01*
G01*
X170572829Y-115522407D02*
G75*
G02*
X170661186Y-115463726I240608J-266429D01*
G01*
X170283026Y-115786913D02*
X170572829Y-115522407D01*
X170106760Y-115962456D02*
X170283026Y-115786913D01*
X169944292Y-116150781D02*
X170106760Y-115962456D01*
X169838676Y-116293904D02*
X169944292Y-116150781D01*
X169753491Y-116449855D02*
G75*
G02*
X169838687Y-116293913I485646J-164081D01*
G01*
X169668052Y-116702736D02*
X169753491Y-116449855D01*
X169389481Y-116424692D02*
X169668052Y-116702736D01*
X169389481Y-116424692D02*
G75*
G02*
X169243945Y-116265712I1688656J1691956D01*
G01*
X169243947Y-116265710D02*
G75*
G02*
X169163478Y-116139517I448390J374674D01*
G01*
X169163471Y-116139520D02*
G75*
G02*
X169123568Y-116007002I428466J201284D01*
G01*
X169123555Y-116007004D02*
G75*
G02*
X169110733Y-115831636I1192882J175368D01*
G01*
X169110737Y-115516699D02*
X169110737Y-115831636D01*
X168707231Y-115821349D02*
X169110737Y-115516699D01*
X168707231Y-115821349D02*
G75*
G02*
X168113933Y-116199770I-2688894J3561413D01*
G01*
X168113931Y-116199767D02*
G75*
G02*
X167558464Y-116407787I-1070294J2012331D01*
G01*
X167558465Y-116407791D02*
G75*
G02*
X167072462Y-116438110I-333728J1439155D01*
G01*
X167072463Y-116438101D02*
G75*
G02*
X166682455Y-116290860I84274J813365D01*
G01*
X166682464Y-116290847D02*
G75*
G02*
X166498104Y-116121122I581573J816711D01*
G01*
X166498100Y-116121125D02*
G75*
G02*
X166278412Y-115836338I3099337J2617989D01*
G01*
X166059593Y-115494964D02*
X166271812Y-115826046D01*
X166271812Y-115826046D02*
G75*
G02*
X165872419Y-115138579I3768325J2649010D01*
G01*
X165807761Y-115026349D02*
G75*
G02*
X165872418Y-115138579I-644224J-445887D01*
G01*
X165717876Y-114911350D02*
G75*
G02*
X165807765Y-115026346I-944839J-831186D01*
G01*
X165618159Y-114810599D02*
G75*
G02*
X165717874Y-114911352I-805822J-897237D01*
G01*
X165523957Y-114742435D02*
G75*
G02*
X165618160Y-114810598I-275120J-479401D01*
G01*
X165523957Y-114742435D02*
G75*
G02*
X165429704Y-114674432I278480J485299D01*
G01*
X165429710Y-114674425D02*
G75*
G02*
X165329853Y-114574172I809327J905989D01*
G01*
X165329858Y-114574167D02*
G75*
G02*
X165239774Y-114459878I946679J838831D01*
G01*
X165239772Y-114459880D02*
G75*
G02*
X165174929Y-114348577I640265J447544D01*
G01*
X165047774Y-114081938D02*
X165174926Y-114348579D01*
X164859236Y-114230242D02*
X165047774Y-114081938D01*
X164859236Y-114230242D02*
G75*
G02*
X164604082Y-114357903I-438299J557206D01*
G01*
X164604084Y-114357912D02*
G75*
G02*
X164349249Y-114353586I-119847J448076D01*
G01*
X164349257Y-114353560D02*
G75*
G02*
X164126000Y-114213543I146580J481724D01*
G01*
X164125999Y-114213544D02*
G75*
G02*
X163961278Y-113957050I642738J593908D01*
G01*
X163961286Y-113957047D02*
G75*
G02*
X163902387Y-113723526I749941J313341D01*
G01*
X163902385Y-113723526D02*
G75*
G02*
X163926825Y-113512483I498652J49190D01*
G01*
X163926818Y-113512481D02*
G75*
G02*
X164034013Y-113340405I423919J-144655D01*
G01*
X164034020Y-113340412D02*
G75*
G02*
X164190496Y-113228934I410417J-410524D01*
G01*
X164306568Y-113175713D02*
X164190497Y-113228935D01*
X164412430Y-113122686D02*
X164306568Y-113175713D01*
X164514326Y-113068124D02*
X164412430Y-113122686D01*
X164594641Y-113020942D02*
X164544545Y-113050372D01*
X164690369Y-112954209D02*
G75*
G02*
X164544545Y-113050371I-691632J890173D01*
G01*
X164720458Y-112906259D02*
G75*
G02*
X164690374Y-112954216I-80721J17223D01*
G01*
X164712292Y-112850726D02*
G75*
G02*
X164720446Y-112906257I-70455J-38710D01*
G01*
X164651791Y-112753534D02*
G75*
G02*
X164712291Y-112850727I-865054J-605902D01*
G01*
X164651791Y-112753534D02*
G75*
G02*
X164569464Y-112555784I408546J286098D01*
G01*
X164569447Y-112555787D02*
G75*
G02*
X164542962Y-112263260I1647580J296631D01*
G01*
X164542963Y-112263260D02*
G75*
G02*
X164569183Y-111947242I1862974J4524D01*
G01*
X164569179Y-111947241D02*
G75*
G02*
X164633886Y-111709379I1247358J-211595D01*
G01*
X164717872Y-111498700D02*
X164633885Y-111709379D01*
X164720353Y-111441278D02*
G75*
G02*
X164717868Y-111498698I-83316J-25158D01*
G01*
X164686303Y-111413079D02*
G75*
G02*
X164720318Y-111441288I-4266J-39757D01*
G01*
X164569165Y-111406836D02*
G75*
G02*
X164686303Y-111413081I-28J-1102200D01*
G01*
X164569165Y-111406836D02*
G75*
G02*
X164389406Y-111379960I-28J614400D01*
G01*
X164389408Y-111379953D02*
G75*
G02*
X164168790Y-111295360I499629J1633017D01*
G01*
X164168790Y-111295361D02*
G75*
G02*
X163974767Y-111190879I793347J1705625D01*
G01*
X163974769Y-111190876D02*
G75*
G02*
X163929125Y-111109125I50368J81740D01*
G01*
X163929137Y-111109125D02*
G75*
G02*
X163946593Y-111079199I34400J-11D01*
G01*
X163946595Y-111079203D02*
G75*
G02*
X164027960Y-111038197I470642J-832633D01*
G01*
X164027960Y-111038196D02*
G75*
G02*
X164136797Y-110996359I455177J-1021640D01*
G01*
X164265552Y-110959217D02*
X164136797Y-110996359D01*
X164411535Y-110912381D02*
G75*
G02*
X164265551Y-110959213I-439498J1119045D01*
G01*
X164572272Y-110841227D02*
X164411535Y-110912381D01*
X164654511Y-110796080D02*
X164572272Y-110841227D01*
X164837331Y-110676464D02*
G75*
G02*
X164654511Y-110796080I-586594J697028D01*
G01*
X165072594Y-110478504D02*
X164837331Y-110676464D01*
X164914227Y-110256099D02*
X165072594Y-110478504D01*
X164755861Y-110033693D02*
X164914227Y-110256099D01*
X164908851Y-109786756D02*
X164755861Y-110033693D01*
X164908851Y-109786756D02*
G75*
G02*
X165179390Y-109465649I1231186J-762780D01*
G01*
X165179392Y-109465651D02*
G75*
G02*
X165617398Y-109125461I2837245J-3200985D01*
G01*
X165617400Y-109125464D02*
G75*
G02*
X166129126Y-108824085I2636537J-3891572D01*
G01*
X166129125Y-108824083D02*
G75*
G02*
X166634316Y-108617805I1517112J-2993753D01*
G01*
D11*
X180708646Y-120396895D02*
X180708646Y-119596895D01*
X180708646Y-119596895D02*
X180937217Y-119596895D01*
X180937217Y-119596895D02*
X180994360Y-119634990D01*
X180994360Y-119634990D02*
X181022931Y-119673085D01*
X181022931Y-119673085D02*
X181051503Y-119749276D01*
X181051503Y-119749276D02*
X181051503Y-119863561D01*
X181051503Y-119863561D02*
X181022931Y-119939752D01*
X181022931Y-119939752D02*
X180994360Y-119977847D01*
X180994360Y-119977847D02*
X180937217Y-120015942D01*
X180937217Y-120015942D02*
X180708646Y-120015942D01*
X181508646Y-119977847D02*
X181594360Y-120015942D01*
X181594360Y-120015942D02*
X181622931Y-120054038D01*
X181622931Y-120054038D02*
X181651503Y-120130228D01*
X181651503Y-120130228D02*
X181651503Y-120244514D01*
X181651503Y-120244514D02*
X181622931Y-120320704D01*
X181622931Y-120320704D02*
X181594360Y-120358800D01*
X181594360Y-120358800D02*
X181537217Y-120396895D01*
X181537217Y-120396895D02*
X181308646Y-120396895D01*
X181308646Y-120396895D02*
X181308646Y-119596895D01*
X181308646Y-119596895D02*
X181508646Y-119596895D01*
X181508646Y-119596895D02*
X181565789Y-119634990D01*
X181565789Y-119634990D02*
X181594360Y-119673085D01*
X181594360Y-119673085D02*
X181622931Y-119749276D01*
X181622931Y-119749276D02*
X181622931Y-119825466D01*
X181622931Y-119825466D02*
X181594360Y-119901657D01*
X181594360Y-119901657D02*
X181565789Y-119939752D01*
X181565789Y-119939752D02*
X181508646Y-119977847D01*
X181508646Y-119977847D02*
X181308646Y-119977847D01*
X182222931Y-120396895D02*
X181880074Y-120396895D01*
X182051503Y-120396895D02*
X182051503Y-119596895D01*
X182051503Y-119596895D02*
X181994360Y-119711180D01*
X181994360Y-119711180D02*
X181937217Y-119787371D01*
X181937217Y-119787371D02*
X181880074Y-119825466D01*
X182451503Y-119673085D02*
X182480075Y-119634990D01*
X182480075Y-119634990D02*
X182537218Y-119596895D01*
X182537218Y-119596895D02*
X182680075Y-119596895D01*
X182680075Y-119596895D02*
X182737218Y-119634990D01*
X182737218Y-119634990D02*
X182765789Y-119673085D01*
X182765789Y-119673085D02*
X182794360Y-119749276D01*
X182794360Y-119749276D02*
X182794360Y-119825466D01*
X182794360Y-119825466D02*
X182765789Y-119939752D01*
X182765789Y-119939752D02*
X182422932Y-120396895D01*
X182422932Y-120396895D02*
X182794360Y-120396895D01*
X180708646Y-117896895D02*
X180708646Y-117096895D01*
X180708646Y-117096895D02*
X180937217Y-117096895D01*
X180937217Y-117096895D02*
X180994360Y-117134990D01*
X180994360Y-117134990D02*
X181022931Y-117173085D01*
X181022931Y-117173085D02*
X181051503Y-117249276D01*
X181051503Y-117249276D02*
X181051503Y-117363561D01*
X181051503Y-117363561D02*
X181022931Y-117439752D01*
X181022931Y-117439752D02*
X180994360Y-117477847D01*
X180994360Y-117477847D02*
X180937217Y-117515942D01*
X180937217Y-117515942D02*
X180708646Y-117515942D01*
X181508646Y-117477847D02*
X181594360Y-117515942D01*
X181594360Y-117515942D02*
X181622931Y-117554038D01*
X181622931Y-117554038D02*
X181651503Y-117630228D01*
X181651503Y-117630228D02*
X181651503Y-117744514D01*
X181651503Y-117744514D02*
X181622931Y-117820704D01*
X181622931Y-117820704D02*
X181594360Y-117858800D01*
X181594360Y-117858800D02*
X181537217Y-117896895D01*
X181537217Y-117896895D02*
X181308646Y-117896895D01*
X181308646Y-117896895D02*
X181308646Y-117096895D01*
X181308646Y-117096895D02*
X181508646Y-117096895D01*
X181508646Y-117096895D02*
X181565789Y-117134990D01*
X181565789Y-117134990D02*
X181594360Y-117173085D01*
X181594360Y-117173085D02*
X181622931Y-117249276D01*
X181622931Y-117249276D02*
X181622931Y-117325466D01*
X181622931Y-117325466D02*
X181594360Y-117401657D01*
X181594360Y-117401657D02*
X181565789Y-117439752D01*
X181565789Y-117439752D02*
X181508646Y-117477847D01*
X181508646Y-117477847D02*
X181308646Y-117477847D01*
X182222931Y-117896895D02*
X181880074Y-117896895D01*
X182051503Y-117896895D02*
X182051503Y-117096895D01*
X182051503Y-117096895D02*
X181994360Y-117211180D01*
X181994360Y-117211180D02*
X181937217Y-117287371D01*
X181937217Y-117287371D02*
X181880074Y-117325466D01*
X182422932Y-117096895D02*
X182794360Y-117096895D01*
X182794360Y-117096895D02*
X182594360Y-117401657D01*
X182594360Y-117401657D02*
X182680075Y-117401657D01*
X182680075Y-117401657D02*
X182737218Y-117439752D01*
X182737218Y-117439752D02*
X182765789Y-117477847D01*
X182765789Y-117477847D02*
X182794360Y-117554038D01*
X182794360Y-117554038D02*
X182794360Y-117744514D01*
X182794360Y-117744514D02*
X182765789Y-117820704D01*
X182765789Y-117820704D02*
X182737218Y-117858800D01*
X182737218Y-117858800D02*
X182680075Y-117896895D01*
X182680075Y-117896895D02*
X182508646Y-117896895D01*
X182508646Y-117896895D02*
X182451503Y-117858800D01*
X182451503Y-117858800D02*
X182422932Y-117820704D01*
X180708646Y-115396895D02*
X180708646Y-114596895D01*
X180708646Y-114596895D02*
X180937217Y-114596895D01*
X180937217Y-114596895D02*
X180994360Y-114634990D01*
X180994360Y-114634990D02*
X181022931Y-114673085D01*
X181022931Y-114673085D02*
X181051503Y-114749276D01*
X181051503Y-114749276D02*
X181051503Y-114863561D01*
X181051503Y-114863561D02*
X181022931Y-114939752D01*
X181022931Y-114939752D02*
X180994360Y-114977847D01*
X180994360Y-114977847D02*
X180937217Y-115015942D01*
X180937217Y-115015942D02*
X180708646Y-115015942D01*
X181508646Y-114977847D02*
X181594360Y-115015942D01*
X181594360Y-115015942D02*
X181622931Y-115054038D01*
X181622931Y-115054038D02*
X181651503Y-115130228D01*
X181651503Y-115130228D02*
X181651503Y-115244514D01*
X181651503Y-115244514D02*
X181622931Y-115320704D01*
X181622931Y-115320704D02*
X181594360Y-115358800D01*
X181594360Y-115358800D02*
X181537217Y-115396895D01*
X181537217Y-115396895D02*
X181308646Y-115396895D01*
X181308646Y-115396895D02*
X181308646Y-114596895D01*
X181308646Y-114596895D02*
X181508646Y-114596895D01*
X181508646Y-114596895D02*
X181565789Y-114634990D01*
X181565789Y-114634990D02*
X181594360Y-114673085D01*
X181594360Y-114673085D02*
X181622931Y-114749276D01*
X181622931Y-114749276D02*
X181622931Y-114825466D01*
X181622931Y-114825466D02*
X181594360Y-114901657D01*
X181594360Y-114901657D02*
X181565789Y-114939752D01*
X181565789Y-114939752D02*
X181508646Y-114977847D01*
X181508646Y-114977847D02*
X181308646Y-114977847D01*
X182222931Y-115396895D02*
X181880074Y-115396895D01*
X182051503Y-115396895D02*
X182051503Y-114596895D01*
X182051503Y-114596895D02*
X181994360Y-114711180D01*
X181994360Y-114711180D02*
X181937217Y-114787371D01*
X181937217Y-114787371D02*
X181880074Y-114825466D01*
X182737218Y-114863561D02*
X182737218Y-115396895D01*
X182594360Y-114558800D02*
X182451503Y-115130228D01*
X182451503Y-115130228D02*
X182822932Y-115130228D01*
X180708646Y-112896895D02*
X180708646Y-112096895D01*
X180708646Y-112096895D02*
X180937217Y-112096895D01*
X180937217Y-112096895D02*
X180994360Y-112134990D01*
X180994360Y-112134990D02*
X181022931Y-112173085D01*
X181022931Y-112173085D02*
X181051503Y-112249276D01*
X181051503Y-112249276D02*
X181051503Y-112363561D01*
X181051503Y-112363561D02*
X181022931Y-112439752D01*
X181022931Y-112439752D02*
X180994360Y-112477847D01*
X180994360Y-112477847D02*
X180937217Y-112515942D01*
X180937217Y-112515942D02*
X180708646Y-112515942D01*
X181508646Y-112477847D02*
X181594360Y-112515942D01*
X181594360Y-112515942D02*
X181622931Y-112554038D01*
X181622931Y-112554038D02*
X181651503Y-112630228D01*
X181651503Y-112630228D02*
X181651503Y-112744514D01*
X181651503Y-112744514D02*
X181622931Y-112820704D01*
X181622931Y-112820704D02*
X181594360Y-112858800D01*
X181594360Y-112858800D02*
X181537217Y-112896895D01*
X181537217Y-112896895D02*
X181308646Y-112896895D01*
X181308646Y-112896895D02*
X181308646Y-112096895D01*
X181308646Y-112096895D02*
X181508646Y-112096895D01*
X181508646Y-112096895D02*
X181565789Y-112134990D01*
X181565789Y-112134990D02*
X181594360Y-112173085D01*
X181594360Y-112173085D02*
X181622931Y-112249276D01*
X181622931Y-112249276D02*
X181622931Y-112325466D01*
X181622931Y-112325466D02*
X181594360Y-112401657D01*
X181594360Y-112401657D02*
X181565789Y-112439752D01*
X181565789Y-112439752D02*
X181508646Y-112477847D01*
X181508646Y-112477847D02*
X181308646Y-112477847D01*
X182222931Y-112896895D02*
X181880074Y-112896895D01*
X182051503Y-112896895D02*
X182051503Y-112096895D01*
X182051503Y-112096895D02*
X181994360Y-112211180D01*
X181994360Y-112211180D02*
X181937217Y-112287371D01*
X181937217Y-112287371D02*
X181880074Y-112325466D01*
X182765789Y-112096895D02*
X182480075Y-112096895D01*
X182480075Y-112096895D02*
X182451503Y-112477847D01*
X182451503Y-112477847D02*
X182480075Y-112439752D01*
X182480075Y-112439752D02*
X182537218Y-112401657D01*
X182537218Y-112401657D02*
X182680075Y-112401657D01*
X182680075Y-112401657D02*
X182737218Y-112439752D01*
X182737218Y-112439752D02*
X182765789Y-112477847D01*
X182765789Y-112477847D02*
X182794360Y-112554038D01*
X182794360Y-112554038D02*
X182794360Y-112744514D01*
X182794360Y-112744514D02*
X182765789Y-112820704D01*
X182765789Y-112820704D02*
X182737218Y-112858800D01*
X182737218Y-112858800D02*
X182680075Y-112896895D01*
X182680075Y-112896895D02*
X182537218Y-112896895D01*
X182537218Y-112896895D02*
X182480075Y-112858800D01*
X182480075Y-112858800D02*
X182451503Y-112820704D01*
X180708646Y-110396895D02*
X180708646Y-109596895D01*
X180708646Y-109596895D02*
X180937217Y-109596895D01*
X180937217Y-109596895D02*
X180994360Y-109634990D01*
X180994360Y-109634990D02*
X181022931Y-109673085D01*
X181022931Y-109673085D02*
X181051503Y-109749276D01*
X181051503Y-109749276D02*
X181051503Y-109863561D01*
X181051503Y-109863561D02*
X181022931Y-109939752D01*
X181022931Y-109939752D02*
X180994360Y-109977847D01*
X180994360Y-109977847D02*
X180937217Y-110015942D01*
X180937217Y-110015942D02*
X180708646Y-110015942D01*
X181280074Y-110168323D02*
X181565789Y-110168323D01*
X181222931Y-110396895D02*
X181422931Y-109596895D01*
X181422931Y-109596895D02*
X181622931Y-110396895D01*
X181908646Y-109939752D02*
X181851503Y-109901657D01*
X181851503Y-109901657D02*
X181822932Y-109863561D01*
X181822932Y-109863561D02*
X181794360Y-109787371D01*
X181794360Y-109787371D02*
X181794360Y-109749276D01*
X181794360Y-109749276D02*
X181822932Y-109673085D01*
X181822932Y-109673085D02*
X181851503Y-109634990D01*
X181851503Y-109634990D02*
X181908646Y-109596895D01*
X181908646Y-109596895D02*
X182022932Y-109596895D01*
X182022932Y-109596895D02*
X182080075Y-109634990D01*
X182080075Y-109634990D02*
X182108646Y-109673085D01*
X182108646Y-109673085D02*
X182137217Y-109749276D01*
X182137217Y-109749276D02*
X182137217Y-109787371D01*
X182137217Y-109787371D02*
X182108646Y-109863561D01*
X182108646Y-109863561D02*
X182080075Y-109901657D01*
X182080075Y-109901657D02*
X182022932Y-109939752D01*
X182022932Y-109939752D02*
X181908646Y-109939752D01*
X181908646Y-109939752D02*
X181851503Y-109977847D01*
X181851503Y-109977847D02*
X181822932Y-110015942D01*
X181822932Y-110015942D02*
X181794360Y-110092133D01*
X181794360Y-110092133D02*
X181794360Y-110244514D01*
X181794360Y-110244514D02*
X181822932Y-110320704D01*
X181822932Y-110320704D02*
X181851503Y-110358800D01*
X181851503Y-110358800D02*
X181908646Y-110396895D01*
X181908646Y-110396895D02*
X182022932Y-110396895D01*
X182022932Y-110396895D02*
X182080075Y-110358800D01*
X182080075Y-110358800D02*
X182108646Y-110320704D01*
X182108646Y-110320704D02*
X182137217Y-110244514D01*
X182137217Y-110244514D02*
X182137217Y-110092133D01*
X182137217Y-110092133D02*
X182108646Y-110015942D01*
X182108646Y-110015942D02*
X182080075Y-109977847D01*
X182080075Y-109977847D02*
X182022932Y-109939752D01*
X180708646Y-107896895D02*
X180708646Y-107096895D01*
X180708646Y-107096895D02*
X180937217Y-107096895D01*
X180937217Y-107096895D02*
X180994360Y-107134990D01*
X180994360Y-107134990D02*
X181022931Y-107173085D01*
X181022931Y-107173085D02*
X181051503Y-107249276D01*
X181051503Y-107249276D02*
X181051503Y-107363561D01*
X181051503Y-107363561D02*
X181022931Y-107439752D01*
X181022931Y-107439752D02*
X180994360Y-107477847D01*
X180994360Y-107477847D02*
X180937217Y-107515942D01*
X180937217Y-107515942D02*
X180708646Y-107515942D01*
X181280074Y-107668323D02*
X181565789Y-107668323D01*
X181222931Y-107896895D02*
X181422931Y-107096895D01*
X181422931Y-107096895D02*
X181622931Y-107896895D01*
X181851503Y-107896895D02*
X181965789Y-107896895D01*
X181965789Y-107896895D02*
X182022932Y-107858800D01*
X182022932Y-107858800D02*
X182051503Y-107820704D01*
X182051503Y-107820704D02*
X182108646Y-107706419D01*
X182108646Y-107706419D02*
X182137217Y-107554038D01*
X182137217Y-107554038D02*
X182137217Y-107249276D01*
X182137217Y-107249276D02*
X182108646Y-107173085D01*
X182108646Y-107173085D02*
X182080075Y-107134990D01*
X182080075Y-107134990D02*
X182022932Y-107096895D01*
X182022932Y-107096895D02*
X181908646Y-107096895D01*
X181908646Y-107096895D02*
X181851503Y-107134990D01*
X181851503Y-107134990D02*
X181822932Y-107173085D01*
X181822932Y-107173085D02*
X181794360Y-107249276D01*
X181794360Y-107249276D02*
X181794360Y-107439752D01*
X181794360Y-107439752D02*
X181822932Y-107515942D01*
X181822932Y-107515942D02*
X181851503Y-107554038D01*
X181851503Y-107554038D02*
X181908646Y-107592133D01*
X181908646Y-107592133D02*
X182022932Y-107592133D01*
X182022932Y-107592133D02*
X182080075Y-107554038D01*
X182080075Y-107554038D02*
X182108646Y-107515942D01*
X182108646Y-107515942D02*
X182137217Y-107439752D01*
X180708646Y-105396895D02*
X180708646Y-104596895D01*
X180708646Y-104596895D02*
X180937217Y-104596895D01*
X180937217Y-104596895D02*
X180994360Y-104634990D01*
X180994360Y-104634990D02*
X181022931Y-104673085D01*
X181022931Y-104673085D02*
X181051503Y-104749276D01*
X181051503Y-104749276D02*
X181051503Y-104863561D01*
X181051503Y-104863561D02*
X181022931Y-104939752D01*
X181022931Y-104939752D02*
X180994360Y-104977847D01*
X180994360Y-104977847D02*
X180937217Y-105015942D01*
X180937217Y-105015942D02*
X180708646Y-105015942D01*
X181280074Y-105168323D02*
X181565789Y-105168323D01*
X181222931Y-105396895D02*
X181422931Y-104596895D01*
X181422931Y-104596895D02*
X181622931Y-105396895D01*
X182137217Y-105396895D02*
X181794360Y-105396895D01*
X181965789Y-105396895D02*
X181965789Y-104596895D01*
X181965789Y-104596895D02*
X181908646Y-104711180D01*
X181908646Y-104711180D02*
X181851503Y-104787371D01*
X181851503Y-104787371D02*
X181794360Y-104825466D01*
X182508646Y-104596895D02*
X182565789Y-104596895D01*
X182565789Y-104596895D02*
X182622932Y-104634990D01*
X182622932Y-104634990D02*
X182651504Y-104673085D01*
X182651504Y-104673085D02*
X182680075Y-104749276D01*
X182680075Y-104749276D02*
X182708646Y-104901657D01*
X182708646Y-104901657D02*
X182708646Y-105092133D01*
X182708646Y-105092133D02*
X182680075Y-105244514D01*
X182680075Y-105244514D02*
X182651504Y-105320704D01*
X182651504Y-105320704D02*
X182622932Y-105358800D01*
X182622932Y-105358800D02*
X182565789Y-105396895D01*
X182565789Y-105396895D02*
X182508646Y-105396895D01*
X182508646Y-105396895D02*
X182451504Y-105358800D01*
X182451504Y-105358800D02*
X182422932Y-105320704D01*
X182422932Y-105320704D02*
X182394361Y-105244514D01*
X182394361Y-105244514D02*
X182365789Y-105092133D01*
X182365789Y-105092133D02*
X182365789Y-104901657D01*
X182365789Y-104901657D02*
X182394361Y-104749276D01*
X182394361Y-104749276D02*
X182422932Y-104673085D01*
X182422932Y-104673085D02*
X182451504Y-104634990D01*
X182451504Y-104634990D02*
X182508646Y-104596895D01*
X180708646Y-102896895D02*
X180708646Y-102096895D01*
X180708646Y-102096895D02*
X180937217Y-102096895D01*
X180937217Y-102096895D02*
X180994360Y-102134990D01*
X180994360Y-102134990D02*
X181022931Y-102173085D01*
X181022931Y-102173085D02*
X181051503Y-102249276D01*
X181051503Y-102249276D02*
X181051503Y-102363561D01*
X181051503Y-102363561D02*
X181022931Y-102439752D01*
X181022931Y-102439752D02*
X180994360Y-102477847D01*
X180994360Y-102477847D02*
X180937217Y-102515942D01*
X180937217Y-102515942D02*
X180708646Y-102515942D01*
X181280074Y-102668323D02*
X181565789Y-102668323D01*
X181222931Y-102896895D02*
X181422931Y-102096895D01*
X181422931Y-102096895D02*
X181622931Y-102896895D01*
X182137217Y-102896895D02*
X181794360Y-102896895D01*
X181965789Y-102896895D02*
X181965789Y-102096895D01*
X181965789Y-102096895D02*
X181908646Y-102211180D01*
X181908646Y-102211180D02*
X181851503Y-102287371D01*
X181851503Y-102287371D02*
X181794360Y-102325466D01*
X182708646Y-102896895D02*
X182365789Y-102896895D01*
X182537218Y-102896895D02*
X182537218Y-102096895D01*
X182537218Y-102096895D02*
X182480075Y-102211180D01*
X182480075Y-102211180D02*
X182422932Y-102287371D01*
X182422932Y-102287371D02*
X182365789Y-102325466D01*
X180708646Y-100396895D02*
X180708646Y-99596895D01*
X180708646Y-99596895D02*
X180937217Y-99596895D01*
X180937217Y-99596895D02*
X180994360Y-99634990D01*
X180994360Y-99634990D02*
X181022931Y-99673085D01*
X181022931Y-99673085D02*
X181051503Y-99749276D01*
X181051503Y-99749276D02*
X181051503Y-99863561D01*
X181051503Y-99863561D02*
X181022931Y-99939752D01*
X181022931Y-99939752D02*
X180994360Y-99977847D01*
X180994360Y-99977847D02*
X180937217Y-100015942D01*
X180937217Y-100015942D02*
X180708646Y-100015942D01*
X181280074Y-100168323D02*
X181565789Y-100168323D01*
X181222931Y-100396895D02*
X181422931Y-99596895D01*
X181422931Y-99596895D02*
X181622931Y-100396895D01*
X182137217Y-100396895D02*
X181794360Y-100396895D01*
X181965789Y-100396895D02*
X181965789Y-99596895D01*
X181965789Y-99596895D02*
X181908646Y-99711180D01*
X181908646Y-99711180D02*
X181851503Y-99787371D01*
X181851503Y-99787371D02*
X181794360Y-99825466D01*
X182365789Y-99673085D02*
X182394361Y-99634990D01*
X182394361Y-99634990D02*
X182451504Y-99596895D01*
X182451504Y-99596895D02*
X182594361Y-99596895D01*
X182594361Y-99596895D02*
X182651504Y-99634990D01*
X182651504Y-99634990D02*
X182680075Y-99673085D01*
X182680075Y-99673085D02*
X182708646Y-99749276D01*
X182708646Y-99749276D02*
X182708646Y-99825466D01*
X182708646Y-99825466D02*
X182680075Y-99939752D01*
X182680075Y-99939752D02*
X182337218Y-100396895D01*
X182337218Y-100396895D02*
X182708646Y-100396895D01*
X180708646Y-97396895D02*
X180708646Y-96596895D01*
X180708646Y-96596895D02*
X180937217Y-96596895D01*
X180937217Y-96596895D02*
X180994360Y-96634990D01*
X180994360Y-96634990D02*
X181022931Y-96673085D01*
X181022931Y-96673085D02*
X181051503Y-96749276D01*
X181051503Y-96749276D02*
X181051503Y-96863561D01*
X181051503Y-96863561D02*
X181022931Y-96939752D01*
X181022931Y-96939752D02*
X180994360Y-96977847D01*
X180994360Y-96977847D02*
X180937217Y-97015942D01*
X180937217Y-97015942D02*
X180708646Y-97015942D01*
X181280074Y-97168323D02*
X181565789Y-97168323D01*
X181222931Y-97396895D02*
X181422931Y-96596895D01*
X181422931Y-96596895D02*
X181622931Y-97396895D01*
X182137217Y-97396895D02*
X181794360Y-97396895D01*
X181965789Y-97396895D02*
X181965789Y-96596895D01*
X181965789Y-96596895D02*
X181908646Y-96711180D01*
X181908646Y-96711180D02*
X181851503Y-96787371D01*
X181851503Y-96787371D02*
X181794360Y-96825466D01*
X182337218Y-96596895D02*
X182708646Y-96596895D01*
X182708646Y-96596895D02*
X182508646Y-96901657D01*
X182508646Y-96901657D02*
X182594361Y-96901657D01*
X182594361Y-96901657D02*
X182651504Y-96939752D01*
X182651504Y-96939752D02*
X182680075Y-96977847D01*
X182680075Y-96977847D02*
X182708646Y-97054038D01*
X182708646Y-97054038D02*
X182708646Y-97244514D01*
X182708646Y-97244514D02*
X182680075Y-97320704D01*
X182680075Y-97320704D02*
X182651504Y-97358800D01*
X182651504Y-97358800D02*
X182594361Y-97396895D01*
X182594361Y-97396895D02*
X182422932Y-97396895D01*
X182422932Y-97396895D02*
X182365789Y-97358800D01*
X182365789Y-97358800D02*
X182337218Y-97320704D01*
X180708646Y-92092133D02*
X181165789Y-92092133D01*
X180937217Y-92396895D02*
X180937217Y-91787371D01*
X181394360Y-91596895D02*
X181765788Y-91596895D01*
X181765788Y-91596895D02*
X181565788Y-91901657D01*
X181565788Y-91901657D02*
X181651503Y-91901657D01*
X181651503Y-91901657D02*
X181708646Y-91939752D01*
X181708646Y-91939752D02*
X181737217Y-91977847D01*
X181737217Y-91977847D02*
X181765788Y-92054038D01*
X181765788Y-92054038D02*
X181765788Y-92244514D01*
X181765788Y-92244514D02*
X181737217Y-92320704D01*
X181737217Y-92320704D02*
X181708646Y-92358800D01*
X181708646Y-92358800D02*
X181651503Y-92396895D01*
X181651503Y-92396895D02*
X181480074Y-92396895D01*
X181480074Y-92396895D02*
X181422931Y-92358800D01*
X181422931Y-92358800D02*
X181394360Y-92320704D01*
X181937217Y-91596895D02*
X182137217Y-92396895D01*
X182137217Y-92396895D02*
X182337217Y-91596895D01*
X182480075Y-91596895D02*
X182851503Y-91596895D01*
X182851503Y-91596895D02*
X182651503Y-91901657D01*
X182651503Y-91901657D02*
X182737218Y-91901657D01*
X182737218Y-91901657D02*
X182794361Y-91939752D01*
X182794361Y-91939752D02*
X182822932Y-91977847D01*
X182822932Y-91977847D02*
X182851503Y-92054038D01*
X182851503Y-92054038D02*
X182851503Y-92244514D01*
X182851503Y-92244514D02*
X182822932Y-92320704D01*
X182822932Y-92320704D02*
X182794361Y-92358800D01*
X182794361Y-92358800D02*
X182737218Y-92396895D01*
X182737218Y-92396895D02*
X182565789Y-92396895D01*
X182565789Y-92396895D02*
X182508646Y-92358800D01*
X182508646Y-92358800D02*
X182480075Y-92320704D01*
X180708646Y-89896895D02*
X180708646Y-89096895D01*
X180708646Y-89096895D02*
X180937217Y-89096895D01*
X180937217Y-89096895D02*
X180994360Y-89134990D01*
X180994360Y-89134990D02*
X181022931Y-89173085D01*
X181022931Y-89173085D02*
X181051503Y-89249276D01*
X181051503Y-89249276D02*
X181051503Y-89363561D01*
X181051503Y-89363561D02*
X181022931Y-89439752D01*
X181022931Y-89439752D02*
X180994360Y-89477847D01*
X180994360Y-89477847D02*
X180937217Y-89515942D01*
X180937217Y-89515942D02*
X180708646Y-89515942D01*
X181280074Y-89668323D02*
X181565789Y-89668323D01*
X181222931Y-89896895D02*
X181422931Y-89096895D01*
X181422931Y-89096895D02*
X181622931Y-89896895D01*
X182137217Y-89896895D02*
X181794360Y-89896895D01*
X181965789Y-89896895D02*
X181965789Y-89096895D01*
X181965789Y-89096895D02*
X181908646Y-89211180D01*
X181908646Y-89211180D02*
X181851503Y-89287371D01*
X181851503Y-89287371D02*
X181794360Y-89325466D01*
X182651504Y-89363561D02*
X182651504Y-89896895D01*
X182508646Y-89058800D02*
X182365789Y-89630228D01*
X182365789Y-89630228D02*
X182737218Y-89630228D01*
X180708646Y-87396895D02*
X180708646Y-86596895D01*
X180708646Y-86596895D02*
X180937217Y-86596895D01*
X180937217Y-86596895D02*
X180994360Y-86634990D01*
X180994360Y-86634990D02*
X181022931Y-86673085D01*
X181022931Y-86673085D02*
X181051503Y-86749276D01*
X181051503Y-86749276D02*
X181051503Y-86863561D01*
X181051503Y-86863561D02*
X181022931Y-86939752D01*
X181022931Y-86939752D02*
X180994360Y-86977847D01*
X180994360Y-86977847D02*
X180937217Y-87015942D01*
X180937217Y-87015942D02*
X180708646Y-87015942D01*
X181280074Y-87168323D02*
X181565789Y-87168323D01*
X181222931Y-87396895D02*
X181422931Y-86596895D01*
X181422931Y-86596895D02*
X181622931Y-87396895D01*
X182137217Y-87396895D02*
X181794360Y-87396895D01*
X181965789Y-87396895D02*
X181965789Y-86596895D01*
X181965789Y-86596895D02*
X181908646Y-86711180D01*
X181908646Y-86711180D02*
X181851503Y-86787371D01*
X181851503Y-86787371D02*
X181794360Y-86825466D01*
X182680075Y-86596895D02*
X182394361Y-86596895D01*
X182394361Y-86596895D02*
X182365789Y-86977847D01*
X182365789Y-86977847D02*
X182394361Y-86939752D01*
X182394361Y-86939752D02*
X182451504Y-86901657D01*
X182451504Y-86901657D02*
X182594361Y-86901657D01*
X182594361Y-86901657D02*
X182651504Y-86939752D01*
X182651504Y-86939752D02*
X182680075Y-86977847D01*
X182680075Y-86977847D02*
X182708646Y-87054038D01*
X182708646Y-87054038D02*
X182708646Y-87244514D01*
X182708646Y-87244514D02*
X182680075Y-87320704D01*
X182680075Y-87320704D02*
X182651504Y-87358800D01*
X182651504Y-87358800D02*
X182594361Y-87396895D01*
X182594361Y-87396895D02*
X182451504Y-87396895D01*
X182451504Y-87396895D02*
X182394361Y-87358800D01*
X182394361Y-87358800D02*
X182365789Y-87320704D01*
X180708646Y-84896895D02*
X180708646Y-84096895D01*
X180708646Y-84096895D02*
X180937217Y-84096895D01*
X180937217Y-84096895D02*
X180994360Y-84134990D01*
X180994360Y-84134990D02*
X181022931Y-84173085D01*
X181022931Y-84173085D02*
X181051503Y-84249276D01*
X181051503Y-84249276D02*
X181051503Y-84363561D01*
X181051503Y-84363561D02*
X181022931Y-84439752D01*
X181022931Y-84439752D02*
X180994360Y-84477847D01*
X180994360Y-84477847D02*
X180937217Y-84515942D01*
X180937217Y-84515942D02*
X180708646Y-84515942D01*
X181508646Y-84477847D02*
X181594360Y-84515942D01*
X181594360Y-84515942D02*
X181622931Y-84554038D01*
X181622931Y-84554038D02*
X181651503Y-84630228D01*
X181651503Y-84630228D02*
X181651503Y-84744514D01*
X181651503Y-84744514D02*
X181622931Y-84820704D01*
X181622931Y-84820704D02*
X181594360Y-84858800D01*
X181594360Y-84858800D02*
X181537217Y-84896895D01*
X181537217Y-84896895D02*
X181308646Y-84896895D01*
X181308646Y-84896895D02*
X181308646Y-84096895D01*
X181308646Y-84096895D02*
X181508646Y-84096895D01*
X181508646Y-84096895D02*
X181565789Y-84134990D01*
X181565789Y-84134990D02*
X181594360Y-84173085D01*
X181594360Y-84173085D02*
X181622931Y-84249276D01*
X181622931Y-84249276D02*
X181622931Y-84325466D01*
X181622931Y-84325466D02*
X181594360Y-84401657D01*
X181594360Y-84401657D02*
X181565789Y-84439752D01*
X181565789Y-84439752D02*
X181508646Y-84477847D01*
X181508646Y-84477847D02*
X181308646Y-84477847D01*
X181851503Y-84096895D02*
X182222931Y-84096895D01*
X182222931Y-84096895D02*
X182022931Y-84401657D01*
X182022931Y-84401657D02*
X182108646Y-84401657D01*
X182108646Y-84401657D02*
X182165789Y-84439752D01*
X182165789Y-84439752D02*
X182194360Y-84477847D01*
X182194360Y-84477847D02*
X182222931Y-84554038D01*
X182222931Y-84554038D02*
X182222931Y-84744514D01*
X182222931Y-84744514D02*
X182194360Y-84820704D01*
X182194360Y-84820704D02*
X182165789Y-84858800D01*
X182165789Y-84858800D02*
X182108646Y-84896895D01*
X182108646Y-84896895D02*
X181937217Y-84896895D01*
X181937217Y-84896895D02*
X181880074Y-84858800D01*
X181880074Y-84858800D02*
X181851503Y-84820704D01*
X180708646Y-82396895D02*
X180708646Y-81596895D01*
X180708646Y-81596895D02*
X180937217Y-81596895D01*
X180937217Y-81596895D02*
X180994360Y-81634990D01*
X180994360Y-81634990D02*
X181022931Y-81673085D01*
X181022931Y-81673085D02*
X181051503Y-81749276D01*
X181051503Y-81749276D02*
X181051503Y-81863561D01*
X181051503Y-81863561D02*
X181022931Y-81939752D01*
X181022931Y-81939752D02*
X180994360Y-81977847D01*
X180994360Y-81977847D02*
X180937217Y-82015942D01*
X180937217Y-82015942D02*
X180708646Y-82015942D01*
X181508646Y-81977847D02*
X181594360Y-82015942D01*
X181594360Y-82015942D02*
X181622931Y-82054038D01*
X181622931Y-82054038D02*
X181651503Y-82130228D01*
X181651503Y-82130228D02*
X181651503Y-82244514D01*
X181651503Y-82244514D02*
X181622931Y-82320704D01*
X181622931Y-82320704D02*
X181594360Y-82358800D01*
X181594360Y-82358800D02*
X181537217Y-82396895D01*
X181537217Y-82396895D02*
X181308646Y-82396895D01*
X181308646Y-82396895D02*
X181308646Y-81596895D01*
X181308646Y-81596895D02*
X181508646Y-81596895D01*
X181508646Y-81596895D02*
X181565789Y-81634990D01*
X181565789Y-81634990D02*
X181594360Y-81673085D01*
X181594360Y-81673085D02*
X181622931Y-81749276D01*
X181622931Y-81749276D02*
X181622931Y-81825466D01*
X181622931Y-81825466D02*
X181594360Y-81901657D01*
X181594360Y-81901657D02*
X181565789Y-81939752D01*
X181565789Y-81939752D02*
X181508646Y-81977847D01*
X181508646Y-81977847D02*
X181308646Y-81977847D01*
X182165789Y-81863561D02*
X182165789Y-82396895D01*
X182022931Y-81558800D02*
X181880074Y-82130228D01*
X181880074Y-82130228D02*
X182251503Y-82130228D01*
X180708646Y-79896895D02*
X180708646Y-79096895D01*
X180708646Y-79096895D02*
X180937217Y-79096895D01*
X180937217Y-79096895D02*
X180994360Y-79134990D01*
X180994360Y-79134990D02*
X181022931Y-79173085D01*
X181022931Y-79173085D02*
X181051503Y-79249276D01*
X181051503Y-79249276D02*
X181051503Y-79363561D01*
X181051503Y-79363561D02*
X181022931Y-79439752D01*
X181022931Y-79439752D02*
X180994360Y-79477847D01*
X180994360Y-79477847D02*
X180937217Y-79515942D01*
X180937217Y-79515942D02*
X180708646Y-79515942D01*
X181508646Y-79477847D02*
X181594360Y-79515942D01*
X181594360Y-79515942D02*
X181622931Y-79554038D01*
X181622931Y-79554038D02*
X181651503Y-79630228D01*
X181651503Y-79630228D02*
X181651503Y-79744514D01*
X181651503Y-79744514D02*
X181622931Y-79820704D01*
X181622931Y-79820704D02*
X181594360Y-79858800D01*
X181594360Y-79858800D02*
X181537217Y-79896895D01*
X181537217Y-79896895D02*
X181308646Y-79896895D01*
X181308646Y-79896895D02*
X181308646Y-79096895D01*
X181308646Y-79096895D02*
X181508646Y-79096895D01*
X181508646Y-79096895D02*
X181565789Y-79134990D01*
X181565789Y-79134990D02*
X181594360Y-79173085D01*
X181594360Y-79173085D02*
X181622931Y-79249276D01*
X181622931Y-79249276D02*
X181622931Y-79325466D01*
X181622931Y-79325466D02*
X181594360Y-79401657D01*
X181594360Y-79401657D02*
X181565789Y-79439752D01*
X181565789Y-79439752D02*
X181508646Y-79477847D01*
X181508646Y-79477847D02*
X181308646Y-79477847D01*
X182194360Y-79096895D02*
X181908646Y-79096895D01*
X181908646Y-79096895D02*
X181880074Y-79477847D01*
X181880074Y-79477847D02*
X181908646Y-79439752D01*
X181908646Y-79439752D02*
X181965789Y-79401657D01*
X181965789Y-79401657D02*
X182108646Y-79401657D01*
X182108646Y-79401657D02*
X182165789Y-79439752D01*
X182165789Y-79439752D02*
X182194360Y-79477847D01*
X182194360Y-79477847D02*
X182222931Y-79554038D01*
X182222931Y-79554038D02*
X182222931Y-79744514D01*
X182222931Y-79744514D02*
X182194360Y-79820704D01*
X182194360Y-79820704D02*
X182165789Y-79858800D01*
X182165789Y-79858800D02*
X182108646Y-79896895D01*
X182108646Y-79896895D02*
X181965789Y-79896895D01*
X181965789Y-79896895D02*
X181908646Y-79858800D01*
X181908646Y-79858800D02*
X181880074Y-79820704D01*
X180708646Y-77396895D02*
X180708646Y-76596895D01*
X180708646Y-76596895D02*
X180937217Y-76596895D01*
X180937217Y-76596895D02*
X180994360Y-76634990D01*
X180994360Y-76634990D02*
X181022931Y-76673085D01*
X181022931Y-76673085D02*
X181051503Y-76749276D01*
X181051503Y-76749276D02*
X181051503Y-76863561D01*
X181051503Y-76863561D02*
X181022931Y-76939752D01*
X181022931Y-76939752D02*
X180994360Y-76977847D01*
X180994360Y-76977847D02*
X180937217Y-77015942D01*
X180937217Y-77015942D02*
X180708646Y-77015942D01*
X181508646Y-76977847D02*
X181594360Y-77015942D01*
X181594360Y-77015942D02*
X181622931Y-77054038D01*
X181622931Y-77054038D02*
X181651503Y-77130228D01*
X181651503Y-77130228D02*
X181651503Y-77244514D01*
X181651503Y-77244514D02*
X181622931Y-77320704D01*
X181622931Y-77320704D02*
X181594360Y-77358800D01*
X181594360Y-77358800D02*
X181537217Y-77396895D01*
X181537217Y-77396895D02*
X181308646Y-77396895D01*
X181308646Y-77396895D02*
X181308646Y-76596895D01*
X181308646Y-76596895D02*
X181508646Y-76596895D01*
X181508646Y-76596895D02*
X181565789Y-76634990D01*
X181565789Y-76634990D02*
X181594360Y-76673085D01*
X181594360Y-76673085D02*
X181622931Y-76749276D01*
X181622931Y-76749276D02*
X181622931Y-76825466D01*
X181622931Y-76825466D02*
X181594360Y-76901657D01*
X181594360Y-76901657D02*
X181565789Y-76939752D01*
X181565789Y-76939752D02*
X181508646Y-76977847D01*
X181508646Y-76977847D02*
X181308646Y-76977847D01*
X182165789Y-76596895D02*
X182051503Y-76596895D01*
X182051503Y-76596895D02*
X181994360Y-76634990D01*
X181994360Y-76634990D02*
X181965789Y-76673085D01*
X181965789Y-76673085D02*
X181908646Y-76787371D01*
X181908646Y-76787371D02*
X181880074Y-76939752D01*
X181880074Y-76939752D02*
X181880074Y-77244514D01*
X181880074Y-77244514D02*
X181908646Y-77320704D01*
X181908646Y-77320704D02*
X181937217Y-77358800D01*
X181937217Y-77358800D02*
X181994360Y-77396895D01*
X181994360Y-77396895D02*
X182108646Y-77396895D01*
X182108646Y-77396895D02*
X182165789Y-77358800D01*
X182165789Y-77358800D02*
X182194360Y-77320704D01*
X182194360Y-77320704D02*
X182222931Y-77244514D01*
X182222931Y-77244514D02*
X182222931Y-77054038D01*
X182222931Y-77054038D02*
X182194360Y-76977847D01*
X182194360Y-76977847D02*
X182165789Y-76939752D01*
X182165789Y-76939752D02*
X182108646Y-76901657D01*
X182108646Y-76901657D02*
X181994360Y-76901657D01*
X181994360Y-76901657D02*
X181937217Y-76939752D01*
X181937217Y-76939752D02*
X181908646Y-76977847D01*
X181908646Y-76977847D02*
X181880074Y-77054038D01*
X180708646Y-74896895D02*
X180708646Y-74096895D01*
X180708646Y-74096895D02*
X180937217Y-74096895D01*
X180937217Y-74096895D02*
X180994360Y-74134990D01*
X180994360Y-74134990D02*
X181022931Y-74173085D01*
X181022931Y-74173085D02*
X181051503Y-74249276D01*
X181051503Y-74249276D02*
X181051503Y-74363561D01*
X181051503Y-74363561D02*
X181022931Y-74439752D01*
X181022931Y-74439752D02*
X180994360Y-74477847D01*
X180994360Y-74477847D02*
X180937217Y-74515942D01*
X180937217Y-74515942D02*
X180708646Y-74515942D01*
X181508646Y-74477847D02*
X181594360Y-74515942D01*
X181594360Y-74515942D02*
X181622931Y-74554038D01*
X181622931Y-74554038D02*
X181651503Y-74630228D01*
X181651503Y-74630228D02*
X181651503Y-74744514D01*
X181651503Y-74744514D02*
X181622931Y-74820704D01*
X181622931Y-74820704D02*
X181594360Y-74858800D01*
X181594360Y-74858800D02*
X181537217Y-74896895D01*
X181537217Y-74896895D02*
X181308646Y-74896895D01*
X181308646Y-74896895D02*
X181308646Y-74096895D01*
X181308646Y-74096895D02*
X181508646Y-74096895D01*
X181508646Y-74096895D02*
X181565789Y-74134990D01*
X181565789Y-74134990D02*
X181594360Y-74173085D01*
X181594360Y-74173085D02*
X181622931Y-74249276D01*
X181622931Y-74249276D02*
X181622931Y-74325466D01*
X181622931Y-74325466D02*
X181594360Y-74401657D01*
X181594360Y-74401657D02*
X181565789Y-74439752D01*
X181565789Y-74439752D02*
X181508646Y-74477847D01*
X181508646Y-74477847D02*
X181308646Y-74477847D01*
X181851503Y-74096895D02*
X182251503Y-74096895D01*
X182251503Y-74096895D02*
X181994360Y-74896895D01*
X180851503Y-71977847D02*
X180922931Y-72015942D01*
X180922931Y-72015942D02*
X180946741Y-72054038D01*
X180946741Y-72054038D02*
X180970550Y-72130228D01*
X180970550Y-72130228D02*
X180970550Y-72244514D01*
X180970550Y-72244514D02*
X180946741Y-72320704D01*
X180946741Y-72320704D02*
X180922931Y-72358800D01*
X180922931Y-72358800D02*
X180875312Y-72396895D01*
X180875312Y-72396895D02*
X180684836Y-72396895D01*
X180684836Y-72396895D02*
X180684836Y-71596895D01*
X180684836Y-71596895D02*
X180851503Y-71596895D01*
X180851503Y-71596895D02*
X180899122Y-71634990D01*
X180899122Y-71634990D02*
X180922931Y-71673085D01*
X180922931Y-71673085D02*
X180946741Y-71749276D01*
X180946741Y-71749276D02*
X180946741Y-71825466D01*
X180946741Y-71825466D02*
X180922931Y-71901657D01*
X180922931Y-71901657D02*
X180899122Y-71939752D01*
X180899122Y-71939752D02*
X180851503Y-71977847D01*
X180851503Y-71977847D02*
X180684836Y-71977847D01*
X181280074Y-71596895D02*
X181375312Y-71596895D01*
X181375312Y-71596895D02*
X181422931Y-71634990D01*
X181422931Y-71634990D02*
X181470550Y-71711180D01*
X181470550Y-71711180D02*
X181494360Y-71863561D01*
X181494360Y-71863561D02*
X181494360Y-72130228D01*
X181494360Y-72130228D02*
X181470550Y-72282609D01*
X181470550Y-72282609D02*
X181422931Y-72358800D01*
X181422931Y-72358800D02*
X181375312Y-72396895D01*
X181375312Y-72396895D02*
X181280074Y-72396895D01*
X181280074Y-72396895D02*
X181232455Y-72358800D01*
X181232455Y-72358800D02*
X181184836Y-72282609D01*
X181184836Y-72282609D02*
X181161027Y-72130228D01*
X181161027Y-72130228D02*
X181161027Y-71863561D01*
X181161027Y-71863561D02*
X181184836Y-71711180D01*
X181184836Y-71711180D02*
X181232455Y-71634990D01*
X181232455Y-71634990D02*
X181280074Y-71596895D01*
X181803884Y-71596895D02*
X181899122Y-71596895D01*
X181899122Y-71596895D02*
X181946741Y-71634990D01*
X181946741Y-71634990D02*
X181994360Y-71711180D01*
X181994360Y-71711180D02*
X182018170Y-71863561D01*
X182018170Y-71863561D02*
X182018170Y-72130228D01*
X182018170Y-72130228D02*
X181994360Y-72282609D01*
X181994360Y-72282609D02*
X181946741Y-72358800D01*
X181946741Y-72358800D02*
X181899122Y-72396895D01*
X181899122Y-72396895D02*
X181803884Y-72396895D01*
X181803884Y-72396895D02*
X181756265Y-72358800D01*
X181756265Y-72358800D02*
X181708646Y-72282609D01*
X181708646Y-72282609D02*
X181684837Y-72130228D01*
X181684837Y-72130228D02*
X181684837Y-71863561D01*
X181684837Y-71863561D02*
X181708646Y-71711180D01*
X181708646Y-71711180D02*
X181756265Y-71634990D01*
X181756265Y-71634990D02*
X181803884Y-71596895D01*
X182161028Y-71596895D02*
X182446742Y-71596895D01*
X182303885Y-72396895D02*
X182303885Y-71596895D01*
X182708646Y-71596895D02*
X182756265Y-71596895D01*
X182756265Y-71596895D02*
X182803884Y-71634990D01*
X182803884Y-71634990D02*
X182827694Y-71673085D01*
X182827694Y-71673085D02*
X182851503Y-71749276D01*
X182851503Y-71749276D02*
X182875313Y-71901657D01*
X182875313Y-71901657D02*
X182875313Y-72092133D01*
X182875313Y-72092133D02*
X182851503Y-72244514D01*
X182851503Y-72244514D02*
X182827694Y-72320704D01*
X182827694Y-72320704D02*
X182803884Y-72358800D01*
X182803884Y-72358800D02*
X182756265Y-72396895D01*
X182756265Y-72396895D02*
X182708646Y-72396895D01*
X182708646Y-72396895D02*
X182661027Y-72358800D01*
X182661027Y-72358800D02*
X182637218Y-72320704D01*
X182637218Y-72320704D02*
X182613408Y-72244514D01*
X182613408Y-72244514D02*
X182589599Y-72092133D01*
X182589599Y-72092133D02*
X182589599Y-71901657D01*
X182589599Y-71901657D02*
X182613408Y-71749276D01*
X182613408Y-71749276D02*
X182637218Y-71673085D01*
X182637218Y-71673085D02*
X182661027Y-71634990D01*
X182661027Y-71634990D02*
X182708646Y-71596895D01*
X180708646Y-69896895D02*
X180708646Y-69096895D01*
X180708646Y-69096895D02*
X180937217Y-69096895D01*
X180937217Y-69096895D02*
X180994360Y-69134990D01*
X180994360Y-69134990D02*
X181022931Y-69173085D01*
X181022931Y-69173085D02*
X181051503Y-69249276D01*
X181051503Y-69249276D02*
X181051503Y-69363561D01*
X181051503Y-69363561D02*
X181022931Y-69439752D01*
X181022931Y-69439752D02*
X180994360Y-69477847D01*
X180994360Y-69477847D02*
X180937217Y-69515942D01*
X180937217Y-69515942D02*
X180708646Y-69515942D01*
X181508646Y-69477847D02*
X181594360Y-69515942D01*
X181594360Y-69515942D02*
X181622931Y-69554038D01*
X181622931Y-69554038D02*
X181651503Y-69630228D01*
X181651503Y-69630228D02*
X181651503Y-69744514D01*
X181651503Y-69744514D02*
X181622931Y-69820704D01*
X181622931Y-69820704D02*
X181594360Y-69858800D01*
X181594360Y-69858800D02*
X181537217Y-69896895D01*
X181537217Y-69896895D02*
X181308646Y-69896895D01*
X181308646Y-69896895D02*
X181308646Y-69096895D01*
X181308646Y-69096895D02*
X181508646Y-69096895D01*
X181508646Y-69096895D02*
X181565789Y-69134990D01*
X181565789Y-69134990D02*
X181594360Y-69173085D01*
X181594360Y-69173085D02*
X181622931Y-69249276D01*
X181622931Y-69249276D02*
X181622931Y-69325466D01*
X181622931Y-69325466D02*
X181594360Y-69401657D01*
X181594360Y-69401657D02*
X181565789Y-69439752D01*
X181565789Y-69439752D02*
X181508646Y-69477847D01*
X181508646Y-69477847D02*
X181308646Y-69477847D01*
X181994360Y-69439752D02*
X181937217Y-69401657D01*
X181937217Y-69401657D02*
X181908646Y-69363561D01*
X181908646Y-69363561D02*
X181880074Y-69287371D01*
X181880074Y-69287371D02*
X181880074Y-69249276D01*
X181880074Y-69249276D02*
X181908646Y-69173085D01*
X181908646Y-69173085D02*
X181937217Y-69134990D01*
X181937217Y-69134990D02*
X181994360Y-69096895D01*
X181994360Y-69096895D02*
X182108646Y-69096895D01*
X182108646Y-69096895D02*
X182165789Y-69134990D01*
X182165789Y-69134990D02*
X182194360Y-69173085D01*
X182194360Y-69173085D02*
X182222931Y-69249276D01*
X182222931Y-69249276D02*
X182222931Y-69287371D01*
X182222931Y-69287371D02*
X182194360Y-69363561D01*
X182194360Y-69363561D02*
X182165789Y-69401657D01*
X182165789Y-69401657D02*
X182108646Y-69439752D01*
X182108646Y-69439752D02*
X181994360Y-69439752D01*
X181994360Y-69439752D02*
X181937217Y-69477847D01*
X181937217Y-69477847D02*
X181908646Y-69515942D01*
X181908646Y-69515942D02*
X181880074Y-69592133D01*
X181880074Y-69592133D02*
X181880074Y-69744514D01*
X181880074Y-69744514D02*
X181908646Y-69820704D01*
X181908646Y-69820704D02*
X181937217Y-69858800D01*
X181937217Y-69858800D02*
X181994360Y-69896895D01*
X181994360Y-69896895D02*
X182108646Y-69896895D01*
X182108646Y-69896895D02*
X182165789Y-69858800D01*
X182165789Y-69858800D02*
X182194360Y-69820704D01*
X182194360Y-69820704D02*
X182222931Y-69744514D01*
X182222931Y-69744514D02*
X182222931Y-69592133D01*
X182222931Y-69592133D02*
X182194360Y-69515942D01*
X182194360Y-69515942D02*
X182165789Y-69477847D01*
X182165789Y-69477847D02*
X182108646Y-69439752D01*
X180708646Y-67396895D02*
X180708646Y-66596895D01*
X180708646Y-66596895D02*
X180937217Y-66596895D01*
X180937217Y-66596895D02*
X180994360Y-66634990D01*
X180994360Y-66634990D02*
X181022931Y-66673085D01*
X181022931Y-66673085D02*
X181051503Y-66749276D01*
X181051503Y-66749276D02*
X181051503Y-66863561D01*
X181051503Y-66863561D02*
X181022931Y-66939752D01*
X181022931Y-66939752D02*
X180994360Y-66977847D01*
X180994360Y-66977847D02*
X180937217Y-67015942D01*
X180937217Y-67015942D02*
X180708646Y-67015942D01*
X181508646Y-66977847D02*
X181594360Y-67015942D01*
X181594360Y-67015942D02*
X181622931Y-67054038D01*
X181622931Y-67054038D02*
X181651503Y-67130228D01*
X181651503Y-67130228D02*
X181651503Y-67244514D01*
X181651503Y-67244514D02*
X181622931Y-67320704D01*
X181622931Y-67320704D02*
X181594360Y-67358800D01*
X181594360Y-67358800D02*
X181537217Y-67396895D01*
X181537217Y-67396895D02*
X181308646Y-67396895D01*
X181308646Y-67396895D02*
X181308646Y-66596895D01*
X181308646Y-66596895D02*
X181508646Y-66596895D01*
X181508646Y-66596895D02*
X181565789Y-66634990D01*
X181565789Y-66634990D02*
X181594360Y-66673085D01*
X181594360Y-66673085D02*
X181622931Y-66749276D01*
X181622931Y-66749276D02*
X181622931Y-66825466D01*
X181622931Y-66825466D02*
X181594360Y-66901657D01*
X181594360Y-66901657D02*
X181565789Y-66939752D01*
X181565789Y-66939752D02*
X181508646Y-66977847D01*
X181508646Y-66977847D02*
X181308646Y-66977847D01*
X181937217Y-67396895D02*
X182051503Y-67396895D01*
X182051503Y-67396895D02*
X182108646Y-67358800D01*
X182108646Y-67358800D02*
X182137217Y-67320704D01*
X182137217Y-67320704D02*
X182194360Y-67206419D01*
X182194360Y-67206419D02*
X182222931Y-67054038D01*
X182222931Y-67054038D02*
X182222931Y-66749276D01*
X182222931Y-66749276D02*
X182194360Y-66673085D01*
X182194360Y-66673085D02*
X182165789Y-66634990D01*
X182165789Y-66634990D02*
X182108646Y-66596895D01*
X182108646Y-66596895D02*
X181994360Y-66596895D01*
X181994360Y-66596895D02*
X181937217Y-66634990D01*
X181937217Y-66634990D02*
X181908646Y-66673085D01*
X181908646Y-66673085D02*
X181880074Y-66749276D01*
X181880074Y-66749276D02*
X181880074Y-66939752D01*
X181880074Y-66939752D02*
X181908646Y-67015942D01*
X181908646Y-67015942D02*
X181937217Y-67054038D01*
X181937217Y-67054038D02*
X181994360Y-67092133D01*
X181994360Y-67092133D02*
X182108646Y-67092133D01*
X182108646Y-67092133D02*
X182165789Y-67054038D01*
X182165789Y-67054038D02*
X182194360Y-67015942D01*
X182194360Y-67015942D02*
X182222931Y-66939752D01*
D12*
X171925809Y-78023809D02*
X171973428Y-77880952D01*
X171973428Y-77880952D02*
X172021047Y-77833333D01*
X172021047Y-77833333D02*
X172116285Y-77785714D01*
X172116285Y-77785714D02*
X172259142Y-77785714D01*
X172259142Y-77785714D02*
X172354380Y-77833333D01*
X172354380Y-77833333D02*
X172402000Y-77880952D01*
X172402000Y-77880952D02*
X172449619Y-77976190D01*
X172449619Y-77976190D02*
X172449619Y-78357142D01*
X172449619Y-78357142D02*
X171449619Y-78357142D01*
X171449619Y-78357142D02*
X171449619Y-78023809D01*
X171449619Y-78023809D02*
X171497238Y-77928571D01*
X171497238Y-77928571D02*
X171544857Y-77880952D01*
X171544857Y-77880952D02*
X171640095Y-77833333D01*
X171640095Y-77833333D02*
X171735333Y-77833333D01*
X171735333Y-77833333D02*
X171830571Y-77880952D01*
X171830571Y-77880952D02*
X171878190Y-77928571D01*
X171878190Y-77928571D02*
X171925809Y-78023809D01*
X171925809Y-78023809D02*
X171925809Y-78357142D01*
X172449619Y-76785714D02*
X171973428Y-77119047D01*
X172449619Y-77357142D02*
X171449619Y-77357142D01*
X171449619Y-77357142D02*
X171449619Y-76976190D01*
X171449619Y-76976190D02*
X171497238Y-76880952D01*
X171497238Y-76880952D02*
X171544857Y-76833333D01*
X171544857Y-76833333D02*
X171640095Y-76785714D01*
X171640095Y-76785714D02*
X171782952Y-76785714D01*
X171782952Y-76785714D02*
X171878190Y-76833333D01*
X171878190Y-76833333D02*
X171925809Y-76880952D01*
X171925809Y-76880952D02*
X171973428Y-76976190D01*
X171973428Y-76976190D02*
X171973428Y-77357142D01*
X171925809Y-76357142D02*
X171925809Y-76023809D01*
X172449619Y-75880952D02*
X172449619Y-76357142D01*
X172449619Y-76357142D02*
X171449619Y-76357142D01*
X171449619Y-76357142D02*
X171449619Y-75880952D01*
X172163904Y-75499999D02*
X172163904Y-75023809D01*
X172449619Y-75595237D02*
X171449619Y-75261904D01*
X171449619Y-75261904D02*
X172449619Y-74928571D01*
X172449619Y-74595237D02*
X171449619Y-74595237D01*
X172449619Y-74023809D02*
X171878190Y-74452380D01*
X171449619Y-74023809D02*
X172021047Y-74595237D01*
X171449619Y-73404761D02*
X171449619Y-73214285D01*
X171449619Y-73214285D02*
X171497238Y-73119047D01*
X171497238Y-73119047D02*
X171592476Y-73023809D01*
X171592476Y-73023809D02*
X171782952Y-72976190D01*
X171782952Y-72976190D02*
X172116285Y-72976190D01*
X172116285Y-72976190D02*
X172306761Y-73023809D01*
X172306761Y-73023809D02*
X172402000Y-73119047D01*
X172402000Y-73119047D02*
X172449619Y-73214285D01*
X172449619Y-73214285D02*
X172449619Y-73404761D01*
X172449619Y-73404761D02*
X172402000Y-73499999D01*
X172402000Y-73499999D02*
X172306761Y-73595237D01*
X172306761Y-73595237D02*
X172116285Y-73642856D01*
X172116285Y-73642856D02*
X171782952Y-73642856D01*
X171782952Y-73642856D02*
X171592476Y-73595237D01*
X171592476Y-73595237D02*
X171497238Y-73499999D01*
X171497238Y-73499999D02*
X171449619Y-73404761D01*
X171449619Y-72547618D02*
X172259142Y-72547618D01*
X172259142Y-72547618D02*
X172354380Y-72499999D01*
X172354380Y-72499999D02*
X172402000Y-72452380D01*
X172402000Y-72452380D02*
X172449619Y-72357142D01*
X172449619Y-72357142D02*
X172449619Y-72166666D01*
X172449619Y-72166666D02*
X172402000Y-72071428D01*
X172402000Y-72071428D02*
X172354380Y-72023809D01*
X172354380Y-72023809D02*
X172259142Y-71976190D01*
X172259142Y-71976190D02*
X171449619Y-71976190D01*
X171449619Y-71642856D02*
X171449619Y-71071428D01*
X172449619Y-71357142D02*
X171449619Y-71357142D01*
X171449619Y-70119046D02*
X172449619Y-69785713D01*
X172449619Y-69785713D02*
X171449619Y-69452380D01*
X172449619Y-68595237D02*
X172449619Y-69166665D01*
X172449619Y-68880951D02*
X171449619Y-68880951D01*
X171449619Y-68880951D02*
X171592476Y-68976189D01*
X171592476Y-68976189D02*
X171687714Y-69071427D01*
X171687714Y-69071427D02*
X171735333Y-69166665D01*
D11*
X180708646Y-61592133D02*
X181165789Y-61592133D01*
X180937217Y-61896895D02*
X180937217Y-61287371D01*
X181394360Y-61096895D02*
X181765788Y-61096895D01*
X181765788Y-61096895D02*
X181565788Y-61401657D01*
X181565788Y-61401657D02*
X181651503Y-61401657D01*
X181651503Y-61401657D02*
X181708646Y-61439752D01*
X181708646Y-61439752D02*
X181737217Y-61477847D01*
X181737217Y-61477847D02*
X181765788Y-61554038D01*
X181765788Y-61554038D02*
X181765788Y-61744514D01*
X181765788Y-61744514D02*
X181737217Y-61820704D01*
X181737217Y-61820704D02*
X181708646Y-61858800D01*
X181708646Y-61858800D02*
X181651503Y-61896895D01*
X181651503Y-61896895D02*
X181480074Y-61896895D01*
X181480074Y-61896895D02*
X181422931Y-61858800D01*
X181422931Y-61858800D02*
X181394360Y-61820704D01*
X181937217Y-61096895D02*
X182137217Y-61896895D01*
X182137217Y-61896895D02*
X182337217Y-61096895D01*
X182480075Y-61096895D02*
X182851503Y-61096895D01*
X182851503Y-61096895D02*
X182651503Y-61401657D01*
X182651503Y-61401657D02*
X182737218Y-61401657D01*
X182737218Y-61401657D02*
X182794361Y-61439752D01*
X182794361Y-61439752D02*
X182822932Y-61477847D01*
X182822932Y-61477847D02*
X182851503Y-61554038D01*
X182851503Y-61554038D02*
X182851503Y-61744514D01*
X182851503Y-61744514D02*
X182822932Y-61820704D01*
X182822932Y-61820704D02*
X182794361Y-61858800D01*
X182794361Y-61858800D02*
X182737218Y-61896895D01*
X182737218Y-61896895D02*
X182565789Y-61896895D01*
X182565789Y-61896895D02*
X182508646Y-61858800D01*
X182508646Y-61858800D02*
X182480075Y-61820704D01*
X157208646Y-120092133D02*
X157665789Y-120092133D01*
X157437217Y-120396895D02*
X157437217Y-119787371D01*
X157894360Y-119596895D02*
X158265788Y-119596895D01*
X158265788Y-119596895D02*
X158065788Y-119901657D01*
X158065788Y-119901657D02*
X158151503Y-119901657D01*
X158151503Y-119901657D02*
X158208646Y-119939752D01*
X158208646Y-119939752D02*
X158237217Y-119977847D01*
X158237217Y-119977847D02*
X158265788Y-120054038D01*
X158265788Y-120054038D02*
X158265788Y-120244514D01*
X158265788Y-120244514D02*
X158237217Y-120320704D01*
X158237217Y-120320704D02*
X158208646Y-120358800D01*
X158208646Y-120358800D02*
X158151503Y-120396895D01*
X158151503Y-120396895D02*
X157980074Y-120396895D01*
X157980074Y-120396895D02*
X157922931Y-120358800D01*
X157922931Y-120358800D02*
X157894360Y-120320704D01*
X158437217Y-119596895D02*
X158637217Y-120396895D01*
X158637217Y-120396895D02*
X158837217Y-119596895D01*
X158980075Y-119596895D02*
X159351503Y-119596895D01*
X159351503Y-119596895D02*
X159151503Y-119901657D01*
X159151503Y-119901657D02*
X159237218Y-119901657D01*
X159237218Y-119901657D02*
X159294361Y-119939752D01*
X159294361Y-119939752D02*
X159322932Y-119977847D01*
X159322932Y-119977847D02*
X159351503Y-120054038D01*
X159351503Y-120054038D02*
X159351503Y-120244514D01*
X159351503Y-120244514D02*
X159322932Y-120320704D01*
X159322932Y-120320704D02*
X159294361Y-120358800D01*
X159294361Y-120358800D02*
X159237218Y-120396895D01*
X159237218Y-120396895D02*
X159065789Y-120396895D01*
X159065789Y-120396895D02*
X159008646Y-120358800D01*
X159008646Y-120358800D02*
X158980075Y-120320704D01*
X158022931Y-117134990D02*
X157965789Y-117096895D01*
X157965789Y-117096895D02*
X157880074Y-117096895D01*
X157880074Y-117096895D02*
X157794360Y-117134990D01*
X157794360Y-117134990D02*
X157737217Y-117211180D01*
X157737217Y-117211180D02*
X157708646Y-117287371D01*
X157708646Y-117287371D02*
X157680074Y-117439752D01*
X157680074Y-117439752D02*
X157680074Y-117554038D01*
X157680074Y-117554038D02*
X157708646Y-117706419D01*
X157708646Y-117706419D02*
X157737217Y-117782609D01*
X157737217Y-117782609D02*
X157794360Y-117858800D01*
X157794360Y-117858800D02*
X157880074Y-117896895D01*
X157880074Y-117896895D02*
X157937217Y-117896895D01*
X157937217Y-117896895D02*
X158022931Y-117858800D01*
X158022931Y-117858800D02*
X158051503Y-117820704D01*
X158051503Y-117820704D02*
X158051503Y-117554038D01*
X158051503Y-117554038D02*
X157937217Y-117554038D01*
X158308646Y-117896895D02*
X158308646Y-117096895D01*
X158308646Y-117096895D02*
X158651503Y-117896895D01*
X158651503Y-117896895D02*
X158651503Y-117096895D01*
X158937217Y-117896895D02*
X158937217Y-117096895D01*
X158937217Y-117096895D02*
X159080074Y-117096895D01*
X159080074Y-117096895D02*
X159165788Y-117134990D01*
X159165788Y-117134990D02*
X159222931Y-117211180D01*
X159222931Y-117211180D02*
X159251502Y-117287371D01*
X159251502Y-117287371D02*
X159280074Y-117439752D01*
X159280074Y-117439752D02*
X159280074Y-117554038D01*
X159280074Y-117554038D02*
X159251502Y-117706419D01*
X159251502Y-117706419D02*
X159222931Y-117782609D01*
X159222931Y-117782609D02*
X159165788Y-117858800D01*
X159165788Y-117858800D02*
X159080074Y-117896895D01*
X159080074Y-117896895D02*
X158937217Y-117896895D01*
X157208646Y-115396895D02*
X157208646Y-114596895D01*
X157208646Y-114596895D02*
X157437217Y-114596895D01*
X157437217Y-114596895D02*
X157494360Y-114634990D01*
X157494360Y-114634990D02*
X157522931Y-114673085D01*
X157522931Y-114673085D02*
X157551503Y-114749276D01*
X157551503Y-114749276D02*
X157551503Y-114863561D01*
X157551503Y-114863561D02*
X157522931Y-114939752D01*
X157522931Y-114939752D02*
X157494360Y-114977847D01*
X157494360Y-114977847D02*
X157437217Y-115015942D01*
X157437217Y-115015942D02*
X157208646Y-115015942D01*
X158008646Y-114977847D02*
X158094360Y-115015942D01*
X158094360Y-115015942D02*
X158122931Y-115054038D01*
X158122931Y-115054038D02*
X158151503Y-115130228D01*
X158151503Y-115130228D02*
X158151503Y-115244514D01*
X158151503Y-115244514D02*
X158122931Y-115320704D01*
X158122931Y-115320704D02*
X158094360Y-115358800D01*
X158094360Y-115358800D02*
X158037217Y-115396895D01*
X158037217Y-115396895D02*
X157808646Y-115396895D01*
X157808646Y-115396895D02*
X157808646Y-114596895D01*
X157808646Y-114596895D02*
X158008646Y-114596895D01*
X158008646Y-114596895D02*
X158065789Y-114634990D01*
X158065789Y-114634990D02*
X158094360Y-114673085D01*
X158094360Y-114673085D02*
X158122931Y-114749276D01*
X158122931Y-114749276D02*
X158122931Y-114825466D01*
X158122931Y-114825466D02*
X158094360Y-114901657D01*
X158094360Y-114901657D02*
X158065789Y-114939752D01*
X158065789Y-114939752D02*
X158008646Y-114977847D01*
X158008646Y-114977847D02*
X157808646Y-114977847D01*
X158722931Y-115396895D02*
X158380074Y-115396895D01*
X158551503Y-115396895D02*
X158551503Y-114596895D01*
X158551503Y-114596895D02*
X158494360Y-114711180D01*
X158494360Y-114711180D02*
X158437217Y-114787371D01*
X158437217Y-114787371D02*
X158380074Y-114825466D01*
X159294360Y-115396895D02*
X158951503Y-115396895D01*
X159122932Y-115396895D02*
X159122932Y-114596895D01*
X159122932Y-114596895D02*
X159065789Y-114711180D01*
X159065789Y-114711180D02*
X159008646Y-114787371D01*
X159008646Y-114787371D02*
X158951503Y-114825466D01*
X157208646Y-112896895D02*
X157208646Y-112096895D01*
X157208646Y-112096895D02*
X157437217Y-112096895D01*
X157437217Y-112096895D02*
X157494360Y-112134990D01*
X157494360Y-112134990D02*
X157522931Y-112173085D01*
X157522931Y-112173085D02*
X157551503Y-112249276D01*
X157551503Y-112249276D02*
X157551503Y-112363561D01*
X157551503Y-112363561D02*
X157522931Y-112439752D01*
X157522931Y-112439752D02*
X157494360Y-112477847D01*
X157494360Y-112477847D02*
X157437217Y-112515942D01*
X157437217Y-112515942D02*
X157208646Y-112515942D01*
X158008646Y-112477847D02*
X158094360Y-112515942D01*
X158094360Y-112515942D02*
X158122931Y-112554038D01*
X158122931Y-112554038D02*
X158151503Y-112630228D01*
X158151503Y-112630228D02*
X158151503Y-112744514D01*
X158151503Y-112744514D02*
X158122931Y-112820704D01*
X158122931Y-112820704D02*
X158094360Y-112858800D01*
X158094360Y-112858800D02*
X158037217Y-112896895D01*
X158037217Y-112896895D02*
X157808646Y-112896895D01*
X157808646Y-112896895D02*
X157808646Y-112096895D01*
X157808646Y-112096895D02*
X158008646Y-112096895D01*
X158008646Y-112096895D02*
X158065789Y-112134990D01*
X158065789Y-112134990D02*
X158094360Y-112173085D01*
X158094360Y-112173085D02*
X158122931Y-112249276D01*
X158122931Y-112249276D02*
X158122931Y-112325466D01*
X158122931Y-112325466D02*
X158094360Y-112401657D01*
X158094360Y-112401657D02*
X158065789Y-112439752D01*
X158065789Y-112439752D02*
X158008646Y-112477847D01*
X158008646Y-112477847D02*
X157808646Y-112477847D01*
X158722931Y-112896895D02*
X158380074Y-112896895D01*
X158551503Y-112896895D02*
X158551503Y-112096895D01*
X158551503Y-112096895D02*
X158494360Y-112211180D01*
X158494360Y-112211180D02*
X158437217Y-112287371D01*
X158437217Y-112287371D02*
X158380074Y-112325466D01*
X159094360Y-112096895D02*
X159151503Y-112096895D01*
X159151503Y-112096895D02*
X159208646Y-112134990D01*
X159208646Y-112134990D02*
X159237218Y-112173085D01*
X159237218Y-112173085D02*
X159265789Y-112249276D01*
X159265789Y-112249276D02*
X159294360Y-112401657D01*
X159294360Y-112401657D02*
X159294360Y-112592133D01*
X159294360Y-112592133D02*
X159265789Y-112744514D01*
X159265789Y-112744514D02*
X159237218Y-112820704D01*
X159237218Y-112820704D02*
X159208646Y-112858800D01*
X159208646Y-112858800D02*
X159151503Y-112896895D01*
X159151503Y-112896895D02*
X159094360Y-112896895D01*
X159094360Y-112896895D02*
X159037218Y-112858800D01*
X159037218Y-112858800D02*
X159008646Y-112820704D01*
X159008646Y-112820704D02*
X158980075Y-112744514D01*
X158980075Y-112744514D02*
X158951503Y-112592133D01*
X158951503Y-112592133D02*
X158951503Y-112401657D01*
X158951503Y-112401657D02*
X158980075Y-112249276D01*
X158980075Y-112249276D02*
X159008646Y-112173085D01*
X159008646Y-112173085D02*
X159037218Y-112134990D01*
X159037218Y-112134990D02*
X159094360Y-112096895D01*
X157708646Y-110396895D02*
X157708646Y-109596895D01*
X157708646Y-109596895D02*
X157937217Y-109596895D01*
X157937217Y-109596895D02*
X157994360Y-109634990D01*
X157994360Y-109634990D02*
X158022931Y-109673085D01*
X158022931Y-109673085D02*
X158051503Y-109749276D01*
X158051503Y-109749276D02*
X158051503Y-109863561D01*
X158051503Y-109863561D02*
X158022931Y-109939752D01*
X158022931Y-109939752D02*
X157994360Y-109977847D01*
X157994360Y-109977847D02*
X157937217Y-110015942D01*
X157937217Y-110015942D02*
X157708646Y-110015942D01*
X158508646Y-109977847D02*
X158594360Y-110015942D01*
X158594360Y-110015942D02*
X158622931Y-110054038D01*
X158622931Y-110054038D02*
X158651503Y-110130228D01*
X158651503Y-110130228D02*
X158651503Y-110244514D01*
X158651503Y-110244514D02*
X158622931Y-110320704D01*
X158622931Y-110320704D02*
X158594360Y-110358800D01*
X158594360Y-110358800D02*
X158537217Y-110396895D01*
X158537217Y-110396895D02*
X158308646Y-110396895D01*
X158308646Y-110396895D02*
X158308646Y-109596895D01*
X158308646Y-109596895D02*
X158508646Y-109596895D01*
X158508646Y-109596895D02*
X158565789Y-109634990D01*
X158565789Y-109634990D02*
X158594360Y-109673085D01*
X158594360Y-109673085D02*
X158622931Y-109749276D01*
X158622931Y-109749276D02*
X158622931Y-109825466D01*
X158622931Y-109825466D02*
X158594360Y-109901657D01*
X158594360Y-109901657D02*
X158565789Y-109939752D01*
X158565789Y-109939752D02*
X158508646Y-109977847D01*
X158508646Y-109977847D02*
X158308646Y-109977847D01*
X158880074Y-109673085D02*
X158908646Y-109634990D01*
X158908646Y-109634990D02*
X158965789Y-109596895D01*
X158965789Y-109596895D02*
X159108646Y-109596895D01*
X159108646Y-109596895D02*
X159165789Y-109634990D01*
X159165789Y-109634990D02*
X159194360Y-109673085D01*
X159194360Y-109673085D02*
X159222931Y-109749276D01*
X159222931Y-109749276D02*
X159222931Y-109825466D01*
X159222931Y-109825466D02*
X159194360Y-109939752D01*
X159194360Y-109939752D02*
X158851503Y-110396895D01*
X158851503Y-110396895D02*
X159222931Y-110396895D01*
X157708646Y-107896895D02*
X157708646Y-107096895D01*
X157708646Y-107096895D02*
X157937217Y-107096895D01*
X157937217Y-107096895D02*
X157994360Y-107134990D01*
X157994360Y-107134990D02*
X158022931Y-107173085D01*
X158022931Y-107173085D02*
X158051503Y-107249276D01*
X158051503Y-107249276D02*
X158051503Y-107363561D01*
X158051503Y-107363561D02*
X158022931Y-107439752D01*
X158022931Y-107439752D02*
X157994360Y-107477847D01*
X157994360Y-107477847D02*
X157937217Y-107515942D01*
X157937217Y-107515942D02*
X157708646Y-107515942D01*
X158508646Y-107477847D02*
X158594360Y-107515942D01*
X158594360Y-107515942D02*
X158622931Y-107554038D01*
X158622931Y-107554038D02*
X158651503Y-107630228D01*
X158651503Y-107630228D02*
X158651503Y-107744514D01*
X158651503Y-107744514D02*
X158622931Y-107820704D01*
X158622931Y-107820704D02*
X158594360Y-107858800D01*
X158594360Y-107858800D02*
X158537217Y-107896895D01*
X158537217Y-107896895D02*
X158308646Y-107896895D01*
X158308646Y-107896895D02*
X158308646Y-107096895D01*
X158308646Y-107096895D02*
X158508646Y-107096895D01*
X158508646Y-107096895D02*
X158565789Y-107134990D01*
X158565789Y-107134990D02*
X158594360Y-107173085D01*
X158594360Y-107173085D02*
X158622931Y-107249276D01*
X158622931Y-107249276D02*
X158622931Y-107325466D01*
X158622931Y-107325466D02*
X158594360Y-107401657D01*
X158594360Y-107401657D02*
X158565789Y-107439752D01*
X158565789Y-107439752D02*
X158508646Y-107477847D01*
X158508646Y-107477847D02*
X158308646Y-107477847D01*
X159222931Y-107896895D02*
X158880074Y-107896895D01*
X159051503Y-107896895D02*
X159051503Y-107096895D01*
X159051503Y-107096895D02*
X158994360Y-107211180D01*
X158994360Y-107211180D02*
X158937217Y-107287371D01*
X158937217Y-107287371D02*
X158880074Y-107325466D01*
X157708646Y-105396895D02*
X157708646Y-104596895D01*
X157708646Y-104596895D02*
X157937217Y-104596895D01*
X157937217Y-104596895D02*
X157994360Y-104634990D01*
X157994360Y-104634990D02*
X158022931Y-104673085D01*
X158022931Y-104673085D02*
X158051503Y-104749276D01*
X158051503Y-104749276D02*
X158051503Y-104863561D01*
X158051503Y-104863561D02*
X158022931Y-104939752D01*
X158022931Y-104939752D02*
X157994360Y-104977847D01*
X157994360Y-104977847D02*
X157937217Y-105015942D01*
X157937217Y-105015942D02*
X157708646Y-105015942D01*
X158508646Y-104977847D02*
X158594360Y-105015942D01*
X158594360Y-105015942D02*
X158622931Y-105054038D01*
X158622931Y-105054038D02*
X158651503Y-105130228D01*
X158651503Y-105130228D02*
X158651503Y-105244514D01*
X158651503Y-105244514D02*
X158622931Y-105320704D01*
X158622931Y-105320704D02*
X158594360Y-105358800D01*
X158594360Y-105358800D02*
X158537217Y-105396895D01*
X158537217Y-105396895D02*
X158308646Y-105396895D01*
X158308646Y-105396895D02*
X158308646Y-104596895D01*
X158308646Y-104596895D02*
X158508646Y-104596895D01*
X158508646Y-104596895D02*
X158565789Y-104634990D01*
X158565789Y-104634990D02*
X158594360Y-104673085D01*
X158594360Y-104673085D02*
X158622931Y-104749276D01*
X158622931Y-104749276D02*
X158622931Y-104825466D01*
X158622931Y-104825466D02*
X158594360Y-104901657D01*
X158594360Y-104901657D02*
X158565789Y-104939752D01*
X158565789Y-104939752D02*
X158508646Y-104977847D01*
X158508646Y-104977847D02*
X158308646Y-104977847D01*
X159022931Y-104596895D02*
X159080074Y-104596895D01*
X159080074Y-104596895D02*
X159137217Y-104634990D01*
X159137217Y-104634990D02*
X159165789Y-104673085D01*
X159165789Y-104673085D02*
X159194360Y-104749276D01*
X159194360Y-104749276D02*
X159222931Y-104901657D01*
X159222931Y-104901657D02*
X159222931Y-105092133D01*
X159222931Y-105092133D02*
X159194360Y-105244514D01*
X159194360Y-105244514D02*
X159165789Y-105320704D01*
X159165789Y-105320704D02*
X159137217Y-105358800D01*
X159137217Y-105358800D02*
X159080074Y-105396895D01*
X159080074Y-105396895D02*
X159022931Y-105396895D01*
X159022931Y-105396895D02*
X158965789Y-105358800D01*
X158965789Y-105358800D02*
X158937217Y-105320704D01*
X158937217Y-105320704D02*
X158908646Y-105244514D01*
X158908646Y-105244514D02*
X158880074Y-105092133D01*
X158880074Y-105092133D02*
X158880074Y-104901657D01*
X158880074Y-104901657D02*
X158908646Y-104749276D01*
X158908646Y-104749276D02*
X158937217Y-104673085D01*
X158937217Y-104673085D02*
X158965789Y-104634990D01*
X158965789Y-104634990D02*
X159022931Y-104596895D01*
X157708646Y-102896895D02*
X157708646Y-102096895D01*
X157708646Y-102096895D02*
X157937217Y-102096895D01*
X157937217Y-102096895D02*
X157994360Y-102134990D01*
X157994360Y-102134990D02*
X158022931Y-102173085D01*
X158022931Y-102173085D02*
X158051503Y-102249276D01*
X158051503Y-102249276D02*
X158051503Y-102363561D01*
X158051503Y-102363561D02*
X158022931Y-102439752D01*
X158022931Y-102439752D02*
X157994360Y-102477847D01*
X157994360Y-102477847D02*
X157937217Y-102515942D01*
X157937217Y-102515942D02*
X157708646Y-102515942D01*
X158280074Y-102668323D02*
X158565789Y-102668323D01*
X158222931Y-102896895D02*
X158422931Y-102096895D01*
X158422931Y-102096895D02*
X158622931Y-102896895D01*
X159080075Y-102096895D02*
X158965789Y-102096895D01*
X158965789Y-102096895D02*
X158908646Y-102134990D01*
X158908646Y-102134990D02*
X158880075Y-102173085D01*
X158880075Y-102173085D02*
X158822932Y-102287371D01*
X158822932Y-102287371D02*
X158794360Y-102439752D01*
X158794360Y-102439752D02*
X158794360Y-102744514D01*
X158794360Y-102744514D02*
X158822932Y-102820704D01*
X158822932Y-102820704D02*
X158851503Y-102858800D01*
X158851503Y-102858800D02*
X158908646Y-102896895D01*
X158908646Y-102896895D02*
X159022932Y-102896895D01*
X159022932Y-102896895D02*
X159080075Y-102858800D01*
X159080075Y-102858800D02*
X159108646Y-102820704D01*
X159108646Y-102820704D02*
X159137217Y-102744514D01*
X159137217Y-102744514D02*
X159137217Y-102554038D01*
X159137217Y-102554038D02*
X159108646Y-102477847D01*
X159108646Y-102477847D02*
X159080075Y-102439752D01*
X159080075Y-102439752D02*
X159022932Y-102401657D01*
X159022932Y-102401657D02*
X158908646Y-102401657D01*
X158908646Y-102401657D02*
X158851503Y-102439752D01*
X158851503Y-102439752D02*
X158822932Y-102477847D01*
X158822932Y-102477847D02*
X158794360Y-102554038D01*
X157708646Y-100396895D02*
X157708646Y-99596895D01*
X157708646Y-99596895D02*
X157937217Y-99596895D01*
X157937217Y-99596895D02*
X157994360Y-99634990D01*
X157994360Y-99634990D02*
X158022931Y-99673085D01*
X158022931Y-99673085D02*
X158051503Y-99749276D01*
X158051503Y-99749276D02*
X158051503Y-99863561D01*
X158051503Y-99863561D02*
X158022931Y-99939752D01*
X158022931Y-99939752D02*
X157994360Y-99977847D01*
X157994360Y-99977847D02*
X157937217Y-100015942D01*
X157937217Y-100015942D02*
X157708646Y-100015942D01*
X158280074Y-100168323D02*
X158565789Y-100168323D01*
X158222931Y-100396895D02*
X158422931Y-99596895D01*
X158422931Y-99596895D02*
X158622931Y-100396895D01*
X159080075Y-99596895D02*
X158965789Y-99596895D01*
X158965789Y-99596895D02*
X158908646Y-99634990D01*
X158908646Y-99634990D02*
X158880075Y-99673085D01*
X158880075Y-99673085D02*
X158822932Y-99787371D01*
X158822932Y-99787371D02*
X158794360Y-99939752D01*
X158794360Y-99939752D02*
X158794360Y-100244514D01*
X158794360Y-100244514D02*
X158822932Y-100320704D01*
X158822932Y-100320704D02*
X158851503Y-100358800D01*
X158851503Y-100358800D02*
X158908646Y-100396895D01*
X158908646Y-100396895D02*
X159022932Y-100396895D01*
X159022932Y-100396895D02*
X159080075Y-100358800D01*
X159080075Y-100358800D02*
X159108646Y-100320704D01*
X159108646Y-100320704D02*
X159137217Y-100244514D01*
X159137217Y-100244514D02*
X159137217Y-100054038D01*
X159137217Y-100054038D02*
X159108646Y-99977847D01*
X159108646Y-99977847D02*
X159080075Y-99939752D01*
X159080075Y-99939752D02*
X159022932Y-99901657D01*
X159022932Y-99901657D02*
X158908646Y-99901657D01*
X158908646Y-99901657D02*
X158851503Y-99939752D01*
X158851503Y-99939752D02*
X158822932Y-99977847D01*
X158822932Y-99977847D02*
X158794360Y-100054038D01*
X157708646Y-97896895D02*
X157708646Y-97096895D01*
X157708646Y-97096895D02*
X157937217Y-97096895D01*
X157937217Y-97096895D02*
X157994360Y-97134990D01*
X157994360Y-97134990D02*
X158022931Y-97173085D01*
X158022931Y-97173085D02*
X158051503Y-97249276D01*
X158051503Y-97249276D02*
X158051503Y-97363561D01*
X158051503Y-97363561D02*
X158022931Y-97439752D01*
X158022931Y-97439752D02*
X157994360Y-97477847D01*
X157994360Y-97477847D02*
X157937217Y-97515942D01*
X157937217Y-97515942D02*
X157708646Y-97515942D01*
X158280074Y-97668323D02*
X158565789Y-97668323D01*
X158222931Y-97896895D02*
X158422931Y-97096895D01*
X158422931Y-97096895D02*
X158622931Y-97896895D01*
X159108646Y-97096895D02*
X158822932Y-97096895D01*
X158822932Y-97096895D02*
X158794360Y-97477847D01*
X158794360Y-97477847D02*
X158822932Y-97439752D01*
X158822932Y-97439752D02*
X158880075Y-97401657D01*
X158880075Y-97401657D02*
X159022932Y-97401657D01*
X159022932Y-97401657D02*
X159080075Y-97439752D01*
X159080075Y-97439752D02*
X159108646Y-97477847D01*
X159108646Y-97477847D02*
X159137217Y-97554038D01*
X159137217Y-97554038D02*
X159137217Y-97744514D01*
X159137217Y-97744514D02*
X159108646Y-97820704D01*
X159108646Y-97820704D02*
X159080075Y-97858800D01*
X159080075Y-97858800D02*
X159022932Y-97896895D01*
X159022932Y-97896895D02*
X158880075Y-97896895D01*
X158880075Y-97896895D02*
X158822932Y-97858800D01*
X158822932Y-97858800D02*
X158794360Y-97820704D01*
X157708646Y-95396895D02*
X157708646Y-94596895D01*
X157708646Y-94596895D02*
X157937217Y-94596895D01*
X157937217Y-94596895D02*
X157994360Y-94634990D01*
X157994360Y-94634990D02*
X158022931Y-94673085D01*
X158022931Y-94673085D02*
X158051503Y-94749276D01*
X158051503Y-94749276D02*
X158051503Y-94863561D01*
X158051503Y-94863561D02*
X158022931Y-94939752D01*
X158022931Y-94939752D02*
X157994360Y-94977847D01*
X157994360Y-94977847D02*
X157937217Y-95015942D01*
X157937217Y-95015942D02*
X157708646Y-95015942D01*
X158280074Y-95168323D02*
X158565789Y-95168323D01*
X158222931Y-95396895D02*
X158422931Y-94596895D01*
X158422931Y-94596895D02*
X158622931Y-95396895D01*
X159080075Y-94863561D02*
X159080075Y-95396895D01*
X158937217Y-94558800D02*
X158794360Y-95130228D01*
X158794360Y-95130228D02*
X159165789Y-95130228D01*
X157708646Y-92896895D02*
X157708646Y-92096895D01*
X157708646Y-92096895D02*
X157937217Y-92096895D01*
X157937217Y-92096895D02*
X157994360Y-92134990D01*
X157994360Y-92134990D02*
X158022931Y-92173085D01*
X158022931Y-92173085D02*
X158051503Y-92249276D01*
X158051503Y-92249276D02*
X158051503Y-92363561D01*
X158051503Y-92363561D02*
X158022931Y-92439752D01*
X158022931Y-92439752D02*
X157994360Y-92477847D01*
X157994360Y-92477847D02*
X157937217Y-92515942D01*
X157937217Y-92515942D02*
X157708646Y-92515942D01*
X158280074Y-92668323D02*
X158565789Y-92668323D01*
X158222931Y-92896895D02*
X158422931Y-92096895D01*
X158422931Y-92096895D02*
X158622931Y-92896895D01*
X158765789Y-92096895D02*
X159137217Y-92096895D01*
X159137217Y-92096895D02*
X158937217Y-92401657D01*
X158937217Y-92401657D02*
X159022932Y-92401657D01*
X159022932Y-92401657D02*
X159080075Y-92439752D01*
X159080075Y-92439752D02*
X159108646Y-92477847D01*
X159108646Y-92477847D02*
X159137217Y-92554038D01*
X159137217Y-92554038D02*
X159137217Y-92744514D01*
X159137217Y-92744514D02*
X159108646Y-92820704D01*
X159108646Y-92820704D02*
X159080075Y-92858800D01*
X159080075Y-92858800D02*
X159022932Y-92896895D01*
X159022932Y-92896895D02*
X158851503Y-92896895D01*
X158851503Y-92896895D02*
X158794360Y-92858800D01*
X158794360Y-92858800D02*
X158765789Y-92820704D01*
X157708646Y-90396895D02*
X157708646Y-89596895D01*
X157708646Y-89596895D02*
X157937217Y-89596895D01*
X157937217Y-89596895D02*
X157994360Y-89634990D01*
X157994360Y-89634990D02*
X158022931Y-89673085D01*
X158022931Y-89673085D02*
X158051503Y-89749276D01*
X158051503Y-89749276D02*
X158051503Y-89863561D01*
X158051503Y-89863561D02*
X158022931Y-89939752D01*
X158022931Y-89939752D02*
X157994360Y-89977847D01*
X157994360Y-89977847D02*
X157937217Y-90015942D01*
X157937217Y-90015942D02*
X157708646Y-90015942D01*
X158280074Y-90168323D02*
X158565789Y-90168323D01*
X158222931Y-90396895D02*
X158422931Y-89596895D01*
X158422931Y-89596895D02*
X158622931Y-90396895D01*
X158794360Y-89673085D02*
X158822932Y-89634990D01*
X158822932Y-89634990D02*
X158880075Y-89596895D01*
X158880075Y-89596895D02*
X159022932Y-89596895D01*
X159022932Y-89596895D02*
X159080075Y-89634990D01*
X159080075Y-89634990D02*
X159108646Y-89673085D01*
X159108646Y-89673085D02*
X159137217Y-89749276D01*
X159137217Y-89749276D02*
X159137217Y-89825466D01*
X159137217Y-89825466D02*
X159108646Y-89939752D01*
X159108646Y-89939752D02*
X158765789Y-90396895D01*
X158765789Y-90396895D02*
X159137217Y-90396895D01*
X157708646Y-87396895D02*
X157708646Y-86596895D01*
X157708646Y-86596895D02*
X157937217Y-86596895D01*
X157937217Y-86596895D02*
X157994360Y-86634990D01*
X157994360Y-86634990D02*
X158022931Y-86673085D01*
X158022931Y-86673085D02*
X158051503Y-86749276D01*
X158051503Y-86749276D02*
X158051503Y-86863561D01*
X158051503Y-86863561D02*
X158022931Y-86939752D01*
X158022931Y-86939752D02*
X157994360Y-86977847D01*
X157994360Y-86977847D02*
X157937217Y-87015942D01*
X157937217Y-87015942D02*
X157708646Y-87015942D01*
X158280074Y-87168323D02*
X158565789Y-87168323D01*
X158222931Y-87396895D02*
X158422931Y-86596895D01*
X158422931Y-86596895D02*
X158622931Y-87396895D01*
X159137217Y-87396895D02*
X158794360Y-87396895D01*
X158965789Y-87396895D02*
X158965789Y-86596895D01*
X158965789Y-86596895D02*
X158908646Y-86711180D01*
X158908646Y-86711180D02*
X158851503Y-86787371D01*
X158851503Y-86787371D02*
X158794360Y-86825466D01*
X157708646Y-84896895D02*
X157708646Y-84096895D01*
X157708646Y-84096895D02*
X157937217Y-84096895D01*
X157937217Y-84096895D02*
X157994360Y-84134990D01*
X157994360Y-84134990D02*
X158022931Y-84173085D01*
X158022931Y-84173085D02*
X158051503Y-84249276D01*
X158051503Y-84249276D02*
X158051503Y-84363561D01*
X158051503Y-84363561D02*
X158022931Y-84439752D01*
X158022931Y-84439752D02*
X157994360Y-84477847D01*
X157994360Y-84477847D02*
X157937217Y-84515942D01*
X157937217Y-84515942D02*
X157708646Y-84515942D01*
X158280074Y-84668323D02*
X158565789Y-84668323D01*
X158222931Y-84896895D02*
X158422931Y-84096895D01*
X158422931Y-84096895D02*
X158622931Y-84896895D01*
X158937217Y-84096895D02*
X158994360Y-84096895D01*
X158994360Y-84096895D02*
X159051503Y-84134990D01*
X159051503Y-84134990D02*
X159080075Y-84173085D01*
X159080075Y-84173085D02*
X159108646Y-84249276D01*
X159108646Y-84249276D02*
X159137217Y-84401657D01*
X159137217Y-84401657D02*
X159137217Y-84592133D01*
X159137217Y-84592133D02*
X159108646Y-84744514D01*
X159108646Y-84744514D02*
X159080075Y-84820704D01*
X159080075Y-84820704D02*
X159051503Y-84858800D01*
X159051503Y-84858800D02*
X158994360Y-84896895D01*
X158994360Y-84896895D02*
X158937217Y-84896895D01*
X158937217Y-84896895D02*
X158880075Y-84858800D01*
X158880075Y-84858800D02*
X158851503Y-84820704D01*
X158851503Y-84820704D02*
X158822932Y-84744514D01*
X158822932Y-84744514D02*
X158794360Y-84592133D01*
X158794360Y-84592133D02*
X158794360Y-84401657D01*
X158794360Y-84401657D02*
X158822932Y-84249276D01*
X158822932Y-84249276D02*
X158851503Y-84173085D01*
X158851503Y-84173085D02*
X158880075Y-84134990D01*
X158880075Y-84134990D02*
X158937217Y-84096895D01*
X157208646Y-82092133D02*
X157665789Y-82092133D01*
X157437217Y-82396895D02*
X157437217Y-81787371D01*
X157894360Y-81596895D02*
X158265788Y-81596895D01*
X158265788Y-81596895D02*
X158065788Y-81901657D01*
X158065788Y-81901657D02*
X158151503Y-81901657D01*
X158151503Y-81901657D02*
X158208646Y-81939752D01*
X158208646Y-81939752D02*
X158237217Y-81977847D01*
X158237217Y-81977847D02*
X158265788Y-82054038D01*
X158265788Y-82054038D02*
X158265788Y-82244514D01*
X158265788Y-82244514D02*
X158237217Y-82320704D01*
X158237217Y-82320704D02*
X158208646Y-82358800D01*
X158208646Y-82358800D02*
X158151503Y-82396895D01*
X158151503Y-82396895D02*
X157980074Y-82396895D01*
X157980074Y-82396895D02*
X157922931Y-82358800D01*
X157922931Y-82358800D02*
X157894360Y-82320704D01*
X158437217Y-81596895D02*
X158637217Y-82396895D01*
X158637217Y-82396895D02*
X158837217Y-81596895D01*
X158980075Y-81596895D02*
X159351503Y-81596895D01*
X159351503Y-81596895D02*
X159151503Y-81901657D01*
X159151503Y-81901657D02*
X159237218Y-81901657D01*
X159237218Y-81901657D02*
X159294361Y-81939752D01*
X159294361Y-81939752D02*
X159322932Y-81977847D01*
X159322932Y-81977847D02*
X159351503Y-82054038D01*
X159351503Y-82054038D02*
X159351503Y-82244514D01*
X159351503Y-82244514D02*
X159322932Y-82320704D01*
X159322932Y-82320704D02*
X159294361Y-82358800D01*
X159294361Y-82358800D02*
X159237218Y-82396895D01*
X159237218Y-82396895D02*
X159065789Y-82396895D01*
X159065789Y-82396895D02*
X159008646Y-82358800D01*
X159008646Y-82358800D02*
X158980075Y-82320704D01*
X158022931Y-79134990D02*
X157965789Y-79096895D01*
X157965789Y-79096895D02*
X157880074Y-79096895D01*
X157880074Y-79096895D02*
X157794360Y-79134990D01*
X157794360Y-79134990D02*
X157737217Y-79211180D01*
X157737217Y-79211180D02*
X157708646Y-79287371D01*
X157708646Y-79287371D02*
X157680074Y-79439752D01*
X157680074Y-79439752D02*
X157680074Y-79554038D01*
X157680074Y-79554038D02*
X157708646Y-79706419D01*
X157708646Y-79706419D02*
X157737217Y-79782609D01*
X157737217Y-79782609D02*
X157794360Y-79858800D01*
X157794360Y-79858800D02*
X157880074Y-79896895D01*
X157880074Y-79896895D02*
X157937217Y-79896895D01*
X157937217Y-79896895D02*
X158022931Y-79858800D01*
X158022931Y-79858800D02*
X158051503Y-79820704D01*
X158051503Y-79820704D02*
X158051503Y-79554038D01*
X158051503Y-79554038D02*
X157937217Y-79554038D01*
X158308646Y-79896895D02*
X158308646Y-79096895D01*
X158308646Y-79096895D02*
X158651503Y-79896895D01*
X158651503Y-79896895D02*
X158651503Y-79096895D01*
X158937217Y-79896895D02*
X158937217Y-79096895D01*
X158937217Y-79096895D02*
X159080074Y-79096895D01*
X159080074Y-79096895D02*
X159165788Y-79134990D01*
X159165788Y-79134990D02*
X159222931Y-79211180D01*
X159222931Y-79211180D02*
X159251502Y-79287371D01*
X159251502Y-79287371D02*
X159280074Y-79439752D01*
X159280074Y-79439752D02*
X159280074Y-79554038D01*
X159280074Y-79554038D02*
X159251502Y-79706419D01*
X159251502Y-79706419D02*
X159222931Y-79782609D01*
X159222931Y-79782609D02*
X159165788Y-79858800D01*
X159165788Y-79858800D02*
X159080074Y-79896895D01*
X159080074Y-79896895D02*
X158937217Y-79896895D01*
X157208646Y-77396895D02*
X157208646Y-76596895D01*
X157208646Y-76596895D02*
X157551503Y-77396895D01*
X157551503Y-77396895D02*
X157551503Y-76596895D01*
X158180074Y-77396895D02*
X157980074Y-77015942D01*
X157837217Y-77396895D02*
X157837217Y-76596895D01*
X157837217Y-76596895D02*
X158065788Y-76596895D01*
X158065788Y-76596895D02*
X158122931Y-76634990D01*
X158122931Y-76634990D02*
X158151502Y-76673085D01*
X158151502Y-76673085D02*
X158180074Y-76749276D01*
X158180074Y-76749276D02*
X158180074Y-76863561D01*
X158180074Y-76863561D02*
X158151502Y-76939752D01*
X158151502Y-76939752D02*
X158122931Y-76977847D01*
X158122931Y-76977847D02*
X158065788Y-77015942D01*
X158065788Y-77015942D02*
X157837217Y-77015942D01*
X158408645Y-77358800D02*
X158494360Y-77396895D01*
X158494360Y-77396895D02*
X158637217Y-77396895D01*
X158637217Y-77396895D02*
X158694360Y-77358800D01*
X158694360Y-77358800D02*
X158722931Y-77320704D01*
X158722931Y-77320704D02*
X158751502Y-77244514D01*
X158751502Y-77244514D02*
X158751502Y-77168323D01*
X158751502Y-77168323D02*
X158722931Y-77092133D01*
X158722931Y-77092133D02*
X158694360Y-77054038D01*
X158694360Y-77054038D02*
X158637217Y-77015942D01*
X158637217Y-77015942D02*
X158522931Y-76977847D01*
X158522931Y-76977847D02*
X158465788Y-76939752D01*
X158465788Y-76939752D02*
X158437217Y-76901657D01*
X158437217Y-76901657D02*
X158408645Y-76825466D01*
X158408645Y-76825466D02*
X158408645Y-76749276D01*
X158408645Y-76749276D02*
X158437217Y-76673085D01*
X158437217Y-76673085D02*
X158465788Y-76634990D01*
X158465788Y-76634990D02*
X158522931Y-76596895D01*
X158522931Y-76596895D02*
X158665788Y-76596895D01*
X158665788Y-76596895D02*
X158751502Y-76634990D01*
X158922931Y-76596895D02*
X159265789Y-76596895D01*
X159094360Y-77396895D02*
X159094360Y-76596895D01*
X157708646Y-74896895D02*
X157708646Y-74096895D01*
X157708646Y-74096895D02*
X157937217Y-74096895D01*
X157937217Y-74096895D02*
X157994360Y-74134990D01*
X157994360Y-74134990D02*
X158022931Y-74173085D01*
X158022931Y-74173085D02*
X158051503Y-74249276D01*
X158051503Y-74249276D02*
X158051503Y-74363561D01*
X158051503Y-74363561D02*
X158022931Y-74439752D01*
X158022931Y-74439752D02*
X157994360Y-74477847D01*
X157994360Y-74477847D02*
X157937217Y-74515942D01*
X157937217Y-74515942D02*
X157708646Y-74515942D01*
X158308646Y-74896895D02*
X158308646Y-74096895D01*
X158308646Y-74096895D02*
X158451503Y-74096895D01*
X158451503Y-74096895D02*
X158537217Y-74134990D01*
X158537217Y-74134990D02*
X158594360Y-74211180D01*
X158594360Y-74211180D02*
X158622931Y-74287371D01*
X158622931Y-74287371D02*
X158651503Y-74439752D01*
X158651503Y-74439752D02*
X158651503Y-74554038D01*
X158651503Y-74554038D02*
X158622931Y-74706419D01*
X158622931Y-74706419D02*
X158594360Y-74782609D01*
X158594360Y-74782609D02*
X158537217Y-74858800D01*
X158537217Y-74858800D02*
X158451503Y-74896895D01*
X158451503Y-74896895D02*
X158308646Y-74896895D01*
X159222931Y-74896895D02*
X158880074Y-74896895D01*
X159051503Y-74896895D02*
X159051503Y-74096895D01*
X159051503Y-74096895D02*
X158994360Y-74211180D01*
X158994360Y-74211180D02*
X158937217Y-74287371D01*
X158937217Y-74287371D02*
X158880074Y-74325466D01*
X157708646Y-72396895D02*
X157708646Y-71596895D01*
X157708646Y-71596895D02*
X157937217Y-71596895D01*
X157937217Y-71596895D02*
X157994360Y-71634990D01*
X157994360Y-71634990D02*
X158022931Y-71673085D01*
X158022931Y-71673085D02*
X158051503Y-71749276D01*
X158051503Y-71749276D02*
X158051503Y-71863561D01*
X158051503Y-71863561D02*
X158022931Y-71939752D01*
X158022931Y-71939752D02*
X157994360Y-71977847D01*
X157994360Y-71977847D02*
X157937217Y-72015942D01*
X157937217Y-72015942D02*
X157708646Y-72015942D01*
X158308646Y-72396895D02*
X158308646Y-71596895D01*
X158308646Y-71596895D02*
X158451503Y-71596895D01*
X158451503Y-71596895D02*
X158537217Y-71634990D01*
X158537217Y-71634990D02*
X158594360Y-71711180D01*
X158594360Y-71711180D02*
X158622931Y-71787371D01*
X158622931Y-71787371D02*
X158651503Y-71939752D01*
X158651503Y-71939752D02*
X158651503Y-72054038D01*
X158651503Y-72054038D02*
X158622931Y-72206419D01*
X158622931Y-72206419D02*
X158594360Y-72282609D01*
X158594360Y-72282609D02*
X158537217Y-72358800D01*
X158537217Y-72358800D02*
X158451503Y-72396895D01*
X158451503Y-72396895D02*
X158308646Y-72396895D01*
X159022931Y-71596895D02*
X159080074Y-71596895D01*
X159080074Y-71596895D02*
X159137217Y-71634990D01*
X159137217Y-71634990D02*
X159165789Y-71673085D01*
X159165789Y-71673085D02*
X159194360Y-71749276D01*
X159194360Y-71749276D02*
X159222931Y-71901657D01*
X159222931Y-71901657D02*
X159222931Y-72092133D01*
X159222931Y-72092133D02*
X159194360Y-72244514D01*
X159194360Y-72244514D02*
X159165789Y-72320704D01*
X159165789Y-72320704D02*
X159137217Y-72358800D01*
X159137217Y-72358800D02*
X159080074Y-72396895D01*
X159080074Y-72396895D02*
X159022931Y-72396895D01*
X159022931Y-72396895D02*
X158965789Y-72358800D01*
X158965789Y-72358800D02*
X158937217Y-72320704D01*
X158937217Y-72320704D02*
X158908646Y-72244514D01*
X158908646Y-72244514D02*
X158880074Y-72092133D01*
X158880074Y-72092133D02*
X158880074Y-71901657D01*
X158880074Y-71901657D02*
X158908646Y-71749276D01*
X158908646Y-71749276D02*
X158937217Y-71673085D01*
X158937217Y-71673085D02*
X158965789Y-71634990D01*
X158965789Y-71634990D02*
X159022931Y-71596895D01*
X157208646Y-69896895D02*
X157208646Y-69096895D01*
X157208646Y-69096895D02*
X157437217Y-69096895D01*
X157437217Y-69096895D02*
X157494360Y-69134990D01*
X157494360Y-69134990D02*
X157522931Y-69173085D01*
X157522931Y-69173085D02*
X157551503Y-69249276D01*
X157551503Y-69249276D02*
X157551503Y-69363561D01*
X157551503Y-69363561D02*
X157522931Y-69439752D01*
X157522931Y-69439752D02*
X157494360Y-69477847D01*
X157494360Y-69477847D02*
X157437217Y-69515942D01*
X157437217Y-69515942D02*
X157208646Y-69515942D01*
X158151503Y-69820704D02*
X158122931Y-69858800D01*
X158122931Y-69858800D02*
X158037217Y-69896895D01*
X158037217Y-69896895D02*
X157980074Y-69896895D01*
X157980074Y-69896895D02*
X157894360Y-69858800D01*
X157894360Y-69858800D02*
X157837217Y-69782609D01*
X157837217Y-69782609D02*
X157808646Y-69706419D01*
X157808646Y-69706419D02*
X157780074Y-69554038D01*
X157780074Y-69554038D02*
X157780074Y-69439752D01*
X157780074Y-69439752D02*
X157808646Y-69287371D01*
X157808646Y-69287371D02*
X157837217Y-69211180D01*
X157837217Y-69211180D02*
X157894360Y-69134990D01*
X157894360Y-69134990D02*
X157980074Y-69096895D01*
X157980074Y-69096895D02*
X158037217Y-69096895D01*
X158037217Y-69096895D02*
X158122931Y-69134990D01*
X158122931Y-69134990D02*
X158151503Y-69173085D01*
X158722931Y-69896895D02*
X158380074Y-69896895D01*
X158551503Y-69896895D02*
X158551503Y-69096895D01*
X158551503Y-69096895D02*
X158494360Y-69211180D01*
X158494360Y-69211180D02*
X158437217Y-69287371D01*
X158437217Y-69287371D02*
X158380074Y-69325466D01*
X159265789Y-69096895D02*
X158980075Y-69096895D01*
X158980075Y-69096895D02*
X158951503Y-69477847D01*
X158951503Y-69477847D02*
X158980075Y-69439752D01*
X158980075Y-69439752D02*
X159037218Y-69401657D01*
X159037218Y-69401657D02*
X159180075Y-69401657D01*
X159180075Y-69401657D02*
X159237218Y-69439752D01*
X159237218Y-69439752D02*
X159265789Y-69477847D01*
X159265789Y-69477847D02*
X159294360Y-69554038D01*
X159294360Y-69554038D02*
X159294360Y-69744514D01*
X159294360Y-69744514D02*
X159265789Y-69820704D01*
X159265789Y-69820704D02*
X159237218Y-69858800D01*
X159237218Y-69858800D02*
X159180075Y-69896895D01*
X159180075Y-69896895D02*
X159037218Y-69896895D01*
X159037218Y-69896895D02*
X158980075Y-69858800D01*
X158980075Y-69858800D02*
X158951503Y-69820704D01*
X157208646Y-67396895D02*
X157208646Y-66596895D01*
X157208646Y-66596895D02*
X157437217Y-66596895D01*
X157437217Y-66596895D02*
X157494360Y-66634990D01*
X157494360Y-66634990D02*
X157522931Y-66673085D01*
X157522931Y-66673085D02*
X157551503Y-66749276D01*
X157551503Y-66749276D02*
X157551503Y-66863561D01*
X157551503Y-66863561D02*
X157522931Y-66939752D01*
X157522931Y-66939752D02*
X157494360Y-66977847D01*
X157494360Y-66977847D02*
X157437217Y-67015942D01*
X157437217Y-67015942D02*
X157208646Y-67015942D01*
X158151503Y-67320704D02*
X158122931Y-67358800D01*
X158122931Y-67358800D02*
X158037217Y-67396895D01*
X158037217Y-67396895D02*
X157980074Y-67396895D01*
X157980074Y-67396895D02*
X157894360Y-67358800D01*
X157894360Y-67358800D02*
X157837217Y-67282609D01*
X157837217Y-67282609D02*
X157808646Y-67206419D01*
X157808646Y-67206419D02*
X157780074Y-67054038D01*
X157780074Y-67054038D02*
X157780074Y-66939752D01*
X157780074Y-66939752D02*
X157808646Y-66787371D01*
X157808646Y-66787371D02*
X157837217Y-66711180D01*
X157837217Y-66711180D02*
X157894360Y-66634990D01*
X157894360Y-66634990D02*
X157980074Y-66596895D01*
X157980074Y-66596895D02*
X158037217Y-66596895D01*
X158037217Y-66596895D02*
X158122931Y-66634990D01*
X158122931Y-66634990D02*
X158151503Y-66673085D01*
X158722931Y-67396895D02*
X158380074Y-67396895D01*
X158551503Y-67396895D02*
X158551503Y-66596895D01*
X158551503Y-66596895D02*
X158494360Y-66711180D01*
X158494360Y-66711180D02*
X158437217Y-66787371D01*
X158437217Y-66787371D02*
X158380074Y-66825466D01*
X159237218Y-66863561D02*
X159237218Y-67396895D01*
X159094360Y-66558800D02*
X158951503Y-67130228D01*
X158951503Y-67130228D02*
X159322932Y-67130228D01*
X157208646Y-64896895D02*
X157208646Y-64096895D01*
X157208646Y-64096895D02*
X157437217Y-64096895D01*
X157437217Y-64096895D02*
X157494360Y-64134990D01*
X157494360Y-64134990D02*
X157522931Y-64173085D01*
X157522931Y-64173085D02*
X157551503Y-64249276D01*
X157551503Y-64249276D02*
X157551503Y-64363561D01*
X157551503Y-64363561D02*
X157522931Y-64439752D01*
X157522931Y-64439752D02*
X157494360Y-64477847D01*
X157494360Y-64477847D02*
X157437217Y-64515942D01*
X157437217Y-64515942D02*
X157208646Y-64515942D01*
X158151503Y-64820704D02*
X158122931Y-64858800D01*
X158122931Y-64858800D02*
X158037217Y-64896895D01*
X158037217Y-64896895D02*
X157980074Y-64896895D01*
X157980074Y-64896895D02*
X157894360Y-64858800D01*
X157894360Y-64858800D02*
X157837217Y-64782609D01*
X157837217Y-64782609D02*
X157808646Y-64706419D01*
X157808646Y-64706419D02*
X157780074Y-64554038D01*
X157780074Y-64554038D02*
X157780074Y-64439752D01*
X157780074Y-64439752D02*
X157808646Y-64287371D01*
X157808646Y-64287371D02*
X157837217Y-64211180D01*
X157837217Y-64211180D02*
X157894360Y-64134990D01*
X157894360Y-64134990D02*
X157980074Y-64096895D01*
X157980074Y-64096895D02*
X158037217Y-64096895D01*
X158037217Y-64096895D02*
X158122931Y-64134990D01*
X158122931Y-64134990D02*
X158151503Y-64173085D01*
X158722931Y-64896895D02*
X158380074Y-64896895D01*
X158551503Y-64896895D02*
X158551503Y-64096895D01*
X158551503Y-64096895D02*
X158494360Y-64211180D01*
X158494360Y-64211180D02*
X158437217Y-64287371D01*
X158437217Y-64287371D02*
X158380074Y-64325466D01*
X158922932Y-64096895D02*
X159294360Y-64096895D01*
X159294360Y-64096895D02*
X159094360Y-64401657D01*
X159094360Y-64401657D02*
X159180075Y-64401657D01*
X159180075Y-64401657D02*
X159237218Y-64439752D01*
X159237218Y-64439752D02*
X159265789Y-64477847D01*
X159265789Y-64477847D02*
X159294360Y-64554038D01*
X159294360Y-64554038D02*
X159294360Y-64744514D01*
X159294360Y-64744514D02*
X159265789Y-64820704D01*
X159265789Y-64820704D02*
X159237218Y-64858800D01*
X159237218Y-64858800D02*
X159180075Y-64896895D01*
X159180075Y-64896895D02*
X159008646Y-64896895D01*
X159008646Y-64896895D02*
X158951503Y-64858800D01*
X158951503Y-64858800D02*
X158922932Y-64820704D01*
X157208646Y-61592133D02*
X157665789Y-61592133D01*
X157437217Y-61896895D02*
X157437217Y-61287371D01*
X157894360Y-61096895D02*
X158265788Y-61096895D01*
X158265788Y-61096895D02*
X158065788Y-61401657D01*
X158065788Y-61401657D02*
X158151503Y-61401657D01*
X158151503Y-61401657D02*
X158208646Y-61439752D01*
X158208646Y-61439752D02*
X158237217Y-61477847D01*
X158237217Y-61477847D02*
X158265788Y-61554038D01*
X158265788Y-61554038D02*
X158265788Y-61744514D01*
X158265788Y-61744514D02*
X158237217Y-61820704D01*
X158237217Y-61820704D02*
X158208646Y-61858800D01*
X158208646Y-61858800D02*
X158151503Y-61896895D01*
X158151503Y-61896895D02*
X157980074Y-61896895D01*
X157980074Y-61896895D02*
X157922931Y-61858800D01*
X157922931Y-61858800D02*
X157894360Y-61820704D01*
X158437217Y-61096895D02*
X158637217Y-61896895D01*
X158637217Y-61896895D02*
X158837217Y-61096895D01*
X158980075Y-61096895D02*
X159351503Y-61096895D01*
X159351503Y-61096895D02*
X159151503Y-61401657D01*
X159151503Y-61401657D02*
X159237218Y-61401657D01*
X159237218Y-61401657D02*
X159294361Y-61439752D01*
X159294361Y-61439752D02*
X159322932Y-61477847D01*
X159322932Y-61477847D02*
X159351503Y-61554038D01*
X159351503Y-61554038D02*
X159351503Y-61744514D01*
X159351503Y-61744514D02*
X159322932Y-61820704D01*
X159322932Y-61820704D02*
X159294361Y-61858800D01*
X159294361Y-61858800D02*
X159237218Y-61896895D01*
X159237218Y-61896895D02*
X159065789Y-61896895D01*
X159065789Y-61896895D02*
X159008646Y-61858800D01*
X159008646Y-61858800D02*
X158980075Y-61820704D01*
D12*
X164902568Y-119754675D02*
X164902568Y-118754675D01*
X164902568Y-118754675D02*
X165140663Y-118754675D01*
X165140663Y-118754675D02*
X165283520Y-118802294D01*
X165283520Y-118802294D02*
X165378758Y-118897532D01*
X165378758Y-118897532D02*
X165426377Y-118992770D01*
X165426377Y-118992770D02*
X165473996Y-119183246D01*
X165473996Y-119183246D02*
X165473996Y-119326103D01*
X165473996Y-119326103D02*
X165426377Y-119516579D01*
X165426377Y-119516579D02*
X165378758Y-119611817D01*
X165378758Y-119611817D02*
X165283520Y-119707056D01*
X165283520Y-119707056D02*
X165140663Y-119754675D01*
X165140663Y-119754675D02*
X164902568Y-119754675D01*
X166283520Y-119707056D02*
X166188282Y-119754675D01*
X166188282Y-119754675D02*
X165997806Y-119754675D01*
X165997806Y-119754675D02*
X165902568Y-119707056D01*
X165902568Y-119707056D02*
X165854949Y-119611817D01*
X165854949Y-119611817D02*
X165854949Y-119230865D01*
X165854949Y-119230865D02*
X165902568Y-119135627D01*
X165902568Y-119135627D02*
X165997806Y-119088008D01*
X165997806Y-119088008D02*
X166188282Y-119088008D01*
X166188282Y-119088008D02*
X166283520Y-119135627D01*
X166283520Y-119135627D02*
X166331139Y-119230865D01*
X166331139Y-119230865D02*
X166331139Y-119326103D01*
X166331139Y-119326103D02*
X165854949Y-119421341D01*
X166712092Y-119707056D02*
X166807330Y-119754675D01*
X166807330Y-119754675D02*
X166997806Y-119754675D01*
X166997806Y-119754675D02*
X167093044Y-119707056D01*
X167093044Y-119707056D02*
X167140663Y-119611817D01*
X167140663Y-119611817D02*
X167140663Y-119564198D01*
X167140663Y-119564198D02*
X167093044Y-119468960D01*
X167093044Y-119468960D02*
X166997806Y-119421341D01*
X166997806Y-119421341D02*
X166854949Y-119421341D01*
X166854949Y-119421341D02*
X166759711Y-119373722D01*
X166759711Y-119373722D02*
X166712092Y-119278484D01*
X166712092Y-119278484D02*
X166712092Y-119230865D01*
X166712092Y-119230865D02*
X166759711Y-119135627D01*
X166759711Y-119135627D02*
X166854949Y-119088008D01*
X166854949Y-119088008D02*
X166997806Y-119088008D01*
X166997806Y-119088008D02*
X167093044Y-119135627D01*
X167569235Y-119754675D02*
X167569235Y-119088008D01*
X167569235Y-118754675D02*
X167521616Y-118802294D01*
X167521616Y-118802294D02*
X167569235Y-118849913D01*
X167569235Y-118849913D02*
X167616854Y-118802294D01*
X167616854Y-118802294D02*
X167569235Y-118754675D01*
X167569235Y-118754675D02*
X167569235Y-118849913D01*
X168473996Y-119088008D02*
X168473996Y-119897532D01*
X168473996Y-119897532D02*
X168426377Y-119992770D01*
X168426377Y-119992770D02*
X168378758Y-120040389D01*
X168378758Y-120040389D02*
X168283520Y-120088008D01*
X168283520Y-120088008D02*
X168140663Y-120088008D01*
X168140663Y-120088008D02*
X168045425Y-120040389D01*
X168473996Y-119707056D02*
X168378758Y-119754675D01*
X168378758Y-119754675D02*
X168188282Y-119754675D01*
X168188282Y-119754675D02*
X168093044Y-119707056D01*
X168093044Y-119707056D02*
X168045425Y-119659436D01*
X168045425Y-119659436D02*
X167997806Y-119564198D01*
X167997806Y-119564198D02*
X167997806Y-119278484D01*
X167997806Y-119278484D02*
X168045425Y-119183246D01*
X168045425Y-119183246D02*
X168093044Y-119135627D01*
X168093044Y-119135627D02*
X168188282Y-119088008D01*
X168188282Y-119088008D02*
X168378758Y-119088008D01*
X168378758Y-119088008D02*
X168473996Y-119135627D01*
X168950187Y-119088008D02*
X168950187Y-119754675D01*
X168950187Y-119183246D02*
X168997806Y-119135627D01*
X168997806Y-119135627D02*
X169093044Y-119088008D01*
X169093044Y-119088008D02*
X169235901Y-119088008D01*
X169235901Y-119088008D02*
X169331139Y-119135627D01*
X169331139Y-119135627D02*
X169378758Y-119230865D01*
X169378758Y-119230865D02*
X169378758Y-119754675D01*
X170950187Y-119230865D02*
X171093044Y-119278484D01*
X171093044Y-119278484D02*
X171140663Y-119326103D01*
X171140663Y-119326103D02*
X171188282Y-119421341D01*
X171188282Y-119421341D02*
X171188282Y-119564198D01*
X171188282Y-119564198D02*
X171140663Y-119659436D01*
X171140663Y-119659436D02*
X171093044Y-119707056D01*
X171093044Y-119707056D02*
X170997806Y-119754675D01*
X170997806Y-119754675D02*
X170616854Y-119754675D01*
X170616854Y-119754675D02*
X170616854Y-118754675D01*
X170616854Y-118754675D02*
X170950187Y-118754675D01*
X170950187Y-118754675D02*
X171045425Y-118802294D01*
X171045425Y-118802294D02*
X171093044Y-118849913D01*
X171093044Y-118849913D02*
X171140663Y-118945151D01*
X171140663Y-118945151D02*
X171140663Y-119040389D01*
X171140663Y-119040389D02*
X171093044Y-119135627D01*
X171093044Y-119135627D02*
X171045425Y-119183246D01*
X171045425Y-119183246D02*
X170950187Y-119230865D01*
X170950187Y-119230865D02*
X170616854Y-119230865D01*
X171521616Y-119088008D02*
X171759711Y-119754675D01*
X171997806Y-119088008D02*
X171759711Y-119754675D01*
X171759711Y-119754675D02*
X171664473Y-119992770D01*
X171664473Y-119992770D02*
X171616854Y-120040389D01*
X171616854Y-120040389D02*
X171521616Y-120088008D01*
X164854949Y-121317000D02*
X164997806Y-121364619D01*
X164997806Y-121364619D02*
X165235901Y-121364619D01*
X165235901Y-121364619D02*
X165331139Y-121317000D01*
X165331139Y-121317000D02*
X165378758Y-121269380D01*
X165378758Y-121269380D02*
X165426377Y-121174142D01*
X165426377Y-121174142D02*
X165426377Y-121078904D01*
X165426377Y-121078904D02*
X165378758Y-120983666D01*
X165378758Y-120983666D02*
X165331139Y-120936047D01*
X165331139Y-120936047D02*
X165235901Y-120888428D01*
X165235901Y-120888428D02*
X165045425Y-120840809D01*
X165045425Y-120840809D02*
X164950187Y-120793190D01*
X164950187Y-120793190D02*
X164902568Y-120745571D01*
X164902568Y-120745571D02*
X164854949Y-120650333D01*
X164854949Y-120650333D02*
X164854949Y-120555095D01*
X164854949Y-120555095D02*
X164902568Y-120459857D01*
X164902568Y-120459857D02*
X164950187Y-120412238D01*
X164950187Y-120412238D02*
X165045425Y-120364619D01*
X165045425Y-120364619D02*
X165283520Y-120364619D01*
X165283520Y-120364619D02*
X165426377Y-120412238D01*
X165854949Y-121269380D02*
X165902568Y-121317000D01*
X165902568Y-121317000D02*
X165854949Y-121364619D01*
X165854949Y-121364619D02*
X165807330Y-121317000D01*
X165807330Y-121317000D02*
X165854949Y-121269380D01*
X165854949Y-121269380D02*
X165854949Y-121364619D01*
X166283520Y-121317000D02*
X166426377Y-121364619D01*
X166426377Y-121364619D02*
X166664472Y-121364619D01*
X166664472Y-121364619D02*
X166759710Y-121317000D01*
X166759710Y-121317000D02*
X166807329Y-121269380D01*
X166807329Y-121269380D02*
X166854948Y-121174142D01*
X166854948Y-121174142D02*
X166854948Y-121078904D01*
X166854948Y-121078904D02*
X166807329Y-120983666D01*
X166807329Y-120983666D02*
X166759710Y-120936047D01*
X166759710Y-120936047D02*
X166664472Y-120888428D01*
X166664472Y-120888428D02*
X166473996Y-120840809D01*
X166473996Y-120840809D02*
X166378758Y-120793190D01*
X166378758Y-120793190D02*
X166331139Y-120745571D01*
X166331139Y-120745571D02*
X166283520Y-120650333D01*
X166283520Y-120650333D02*
X166283520Y-120555095D01*
X166283520Y-120555095D02*
X166331139Y-120459857D01*
X166331139Y-120459857D02*
X166378758Y-120412238D01*
X166378758Y-120412238D02*
X166473996Y-120364619D01*
X166473996Y-120364619D02*
X166712091Y-120364619D01*
X166712091Y-120364619D02*
X166854948Y-120412238D01*
X167712091Y-121364619D02*
X167712091Y-120840809D01*
X167712091Y-120840809D02*
X167664472Y-120745571D01*
X167664472Y-120745571D02*
X167569234Y-120697952D01*
X167569234Y-120697952D02*
X167378758Y-120697952D01*
X167378758Y-120697952D02*
X167283520Y-120745571D01*
X167712091Y-121317000D02*
X167616853Y-121364619D01*
X167616853Y-121364619D02*
X167378758Y-121364619D01*
X167378758Y-121364619D02*
X167283520Y-121317000D01*
X167283520Y-121317000D02*
X167235901Y-121221761D01*
X167235901Y-121221761D02*
X167235901Y-121126523D01*
X167235901Y-121126523D02*
X167283520Y-121031285D01*
X167283520Y-121031285D02*
X167378758Y-120983666D01*
X167378758Y-120983666D02*
X167616853Y-120983666D01*
X167616853Y-120983666D02*
X167712091Y-120936047D01*
X168331139Y-121364619D02*
X168235901Y-121317000D01*
X168235901Y-121317000D02*
X168188282Y-121221761D01*
X168188282Y-121221761D02*
X168188282Y-120364619D01*
X169140663Y-121364619D02*
X169140663Y-120840809D01*
X169140663Y-120840809D02*
X169093044Y-120745571D01*
X169093044Y-120745571D02*
X168997806Y-120697952D01*
X168997806Y-120697952D02*
X168807330Y-120697952D01*
X168807330Y-120697952D02*
X168712092Y-120745571D01*
X169140663Y-121317000D02*
X169045425Y-121364619D01*
X169045425Y-121364619D02*
X168807330Y-121364619D01*
X168807330Y-121364619D02*
X168712092Y-121317000D01*
X168712092Y-121317000D02*
X168664473Y-121221761D01*
X168664473Y-121221761D02*
X168664473Y-121126523D01*
X168664473Y-121126523D02*
X168712092Y-121031285D01*
X168712092Y-121031285D02*
X168807330Y-120983666D01*
X168807330Y-120983666D02*
X169045425Y-120983666D01*
X169045425Y-120983666D02*
X169140663Y-120936047D01*
X169616854Y-121364619D02*
X169616854Y-120697952D01*
X169616854Y-120793190D02*
X169664473Y-120745571D01*
X169664473Y-120745571D02*
X169759711Y-120697952D01*
X169759711Y-120697952D02*
X169902568Y-120697952D01*
X169902568Y-120697952D02*
X169997806Y-120745571D01*
X169997806Y-120745571D02*
X170045425Y-120840809D01*
X170045425Y-120840809D02*
X170045425Y-121364619D01*
X170045425Y-120840809D02*
X170093044Y-120745571D01*
X170093044Y-120745571D02*
X170188282Y-120697952D01*
X170188282Y-120697952D02*
X170331139Y-120697952D01*
X170331139Y-120697952D02*
X170426378Y-120745571D01*
X170426378Y-120745571D02*
X170473997Y-120840809D01*
X170473997Y-120840809D02*
X170473997Y-121364619D01*
X173912005Y-85901176D02*
X173339585Y-86473596D01*
X173339585Y-86473596D02*
X173305913Y-86574611D01*
X173305913Y-86574611D02*
X173305913Y-86641955D01*
X173305913Y-86641955D02*
X173339585Y-86742970D01*
X173339585Y-86742970D02*
X173474272Y-86877657D01*
X173474272Y-86877657D02*
X173575287Y-86911329D01*
X173575287Y-86911329D02*
X173642631Y-86911329D01*
X173642631Y-86911329D02*
X173743646Y-86877657D01*
X173743646Y-86877657D02*
X174316066Y-86305237D01*
X174316066Y-87719451D02*
X173912005Y-87315390D01*
X174114035Y-87517420D02*
X174821142Y-86810314D01*
X174821142Y-86810314D02*
X174652783Y-86843985D01*
X174652783Y-86843985D02*
X174518096Y-86843985D01*
X174518096Y-86843985D02*
X174417081Y-86810314D01*
X170402000Y-78380952D02*
X170449619Y-78238095D01*
X170449619Y-78238095D02*
X170449619Y-78000000D01*
X170449619Y-78000000D02*
X170402000Y-77904762D01*
X170402000Y-77904762D02*
X170354380Y-77857143D01*
X170354380Y-77857143D02*
X170259142Y-77809524D01*
X170259142Y-77809524D02*
X170163904Y-77809524D01*
X170163904Y-77809524D02*
X170068666Y-77857143D01*
X170068666Y-77857143D02*
X170021047Y-77904762D01*
X170021047Y-77904762D02*
X169973428Y-78000000D01*
X169973428Y-78000000D02*
X169925809Y-78190476D01*
X169925809Y-78190476D02*
X169878190Y-78285714D01*
X169878190Y-78285714D02*
X169830571Y-78333333D01*
X169830571Y-78333333D02*
X169735333Y-78380952D01*
X169735333Y-78380952D02*
X169640095Y-78380952D01*
X169640095Y-78380952D02*
X169544857Y-78333333D01*
X169544857Y-78333333D02*
X169497238Y-78285714D01*
X169497238Y-78285714D02*
X169449619Y-78190476D01*
X169449619Y-78190476D02*
X169449619Y-77952381D01*
X169449619Y-77952381D02*
X169497238Y-77809524D01*
X169449619Y-77523809D02*
X169449619Y-76952381D01*
X170449619Y-77238095D02*
X169449619Y-77238095D01*
X170449619Y-76619047D02*
X169449619Y-76619047D01*
X169449619Y-76619047D02*
X170163904Y-76285714D01*
X170163904Y-76285714D02*
X169449619Y-75952381D01*
X169449619Y-75952381D02*
X170449619Y-75952381D01*
X169449619Y-75571428D02*
X169449619Y-74952381D01*
X169449619Y-74952381D02*
X169830571Y-75285714D01*
X169830571Y-75285714D02*
X169830571Y-75142857D01*
X169830571Y-75142857D02*
X169878190Y-75047619D01*
X169878190Y-75047619D02*
X169925809Y-75000000D01*
X169925809Y-75000000D02*
X170021047Y-74952381D01*
X170021047Y-74952381D02*
X170259142Y-74952381D01*
X170259142Y-74952381D02*
X170354380Y-75000000D01*
X170354380Y-75000000D02*
X170402000Y-75047619D01*
X170402000Y-75047619D02*
X170449619Y-75142857D01*
X170449619Y-75142857D02*
X170449619Y-75428571D01*
X170449619Y-75428571D02*
X170402000Y-75523809D01*
X170402000Y-75523809D02*
X170354380Y-75571428D01*
X169544857Y-74571428D02*
X169497238Y-74523809D01*
X169497238Y-74523809D02*
X169449619Y-74428571D01*
X169449619Y-74428571D02*
X169449619Y-74190476D01*
X169449619Y-74190476D02*
X169497238Y-74095238D01*
X169497238Y-74095238D02*
X169544857Y-74047619D01*
X169544857Y-74047619D02*
X169640095Y-74000000D01*
X169640095Y-74000000D02*
X169735333Y-74000000D01*
X169735333Y-74000000D02*
X169878190Y-74047619D01*
X169878190Y-74047619D02*
X170449619Y-74619047D01*
X170449619Y-74619047D02*
X170449619Y-74000000D01*
X169925809Y-73238095D02*
X169925809Y-73571428D01*
X170449619Y-73571428D02*
X169449619Y-73571428D01*
X169449619Y-73571428D02*
X169449619Y-73095238D01*
X170449619Y-72190476D02*
X170449619Y-72761904D01*
X170449619Y-72476190D02*
X169449619Y-72476190D01*
X169449619Y-72476190D02*
X169592476Y-72571428D01*
X169592476Y-72571428D02*
X169687714Y-72666666D01*
X169687714Y-72666666D02*
X169735333Y-72761904D01*
X169449619Y-71571428D02*
X169449619Y-71476190D01*
X169449619Y-71476190D02*
X169497238Y-71380952D01*
X169497238Y-71380952D02*
X169544857Y-71333333D01*
X169544857Y-71333333D02*
X169640095Y-71285714D01*
X169640095Y-71285714D02*
X169830571Y-71238095D01*
X169830571Y-71238095D02*
X170068666Y-71238095D01*
X170068666Y-71238095D02*
X170259142Y-71285714D01*
X170259142Y-71285714D02*
X170354380Y-71333333D01*
X170354380Y-71333333D02*
X170402000Y-71380952D01*
X170402000Y-71380952D02*
X170449619Y-71476190D01*
X170449619Y-71476190D02*
X170449619Y-71571428D01*
X170449619Y-71571428D02*
X170402000Y-71666666D01*
X170402000Y-71666666D02*
X170354380Y-71714285D01*
X170354380Y-71714285D02*
X170259142Y-71761904D01*
X170259142Y-71761904D02*
X170068666Y-71809523D01*
X170068666Y-71809523D02*
X169830571Y-71809523D01*
X169830571Y-71809523D02*
X169640095Y-71761904D01*
X169640095Y-71761904D02*
X169544857Y-71714285D01*
X169544857Y-71714285D02*
X169497238Y-71666666D01*
X169497238Y-71666666D02*
X169449619Y-71571428D01*
X169449619Y-70904761D02*
X169449619Y-70285714D01*
X169449619Y-70285714D02*
X169830571Y-70619047D01*
X169830571Y-70619047D02*
X169830571Y-70476190D01*
X169830571Y-70476190D02*
X169878190Y-70380952D01*
X169878190Y-70380952D02*
X169925809Y-70333333D01*
X169925809Y-70333333D02*
X170021047Y-70285714D01*
X170021047Y-70285714D02*
X170259142Y-70285714D01*
X170259142Y-70285714D02*
X170354380Y-70333333D01*
X170354380Y-70333333D02*
X170402000Y-70380952D01*
X170402000Y-70380952D02*
X170449619Y-70476190D01*
X170449619Y-70476190D02*
X170449619Y-70761904D01*
X170449619Y-70761904D02*
X170402000Y-70857142D01*
X170402000Y-70857142D02*
X170354380Y-70904761D01*
X170354380Y-69285714D02*
X170402000Y-69333333D01*
X170402000Y-69333333D02*
X170449619Y-69476190D01*
X170449619Y-69476190D02*
X170449619Y-69571428D01*
X170449619Y-69571428D02*
X170402000Y-69714285D01*
X170402000Y-69714285D02*
X170306761Y-69809523D01*
X170306761Y-69809523D02*
X170211523Y-69857142D01*
X170211523Y-69857142D02*
X170021047Y-69904761D01*
X170021047Y-69904761D02*
X169878190Y-69904761D01*
X169878190Y-69904761D02*
X169687714Y-69857142D01*
X169687714Y-69857142D02*
X169592476Y-69809523D01*
X169592476Y-69809523D02*
X169497238Y-69714285D01*
X169497238Y-69714285D02*
X169449619Y-69571428D01*
X169449619Y-69571428D02*
X169449619Y-69476190D01*
X169449619Y-69476190D02*
X169497238Y-69333333D01*
X169497238Y-69333333D02*
X169544857Y-69285714D01*
X169878190Y-68714285D02*
X169830571Y-68809523D01*
X169830571Y-68809523D02*
X169782952Y-68857142D01*
X169782952Y-68857142D02*
X169687714Y-68904761D01*
X169687714Y-68904761D02*
X169640095Y-68904761D01*
X169640095Y-68904761D02*
X169544857Y-68857142D01*
X169544857Y-68857142D02*
X169497238Y-68809523D01*
X169497238Y-68809523D02*
X169449619Y-68714285D01*
X169449619Y-68714285D02*
X169449619Y-68523809D01*
X169449619Y-68523809D02*
X169497238Y-68428571D01*
X169497238Y-68428571D02*
X169544857Y-68380952D01*
X169544857Y-68380952D02*
X169640095Y-68333333D01*
X169640095Y-68333333D02*
X169687714Y-68333333D01*
X169687714Y-68333333D02*
X169782952Y-68380952D01*
X169782952Y-68380952D02*
X169830571Y-68428571D01*
X169830571Y-68428571D02*
X169878190Y-68523809D01*
X169878190Y-68523809D02*
X169878190Y-68714285D01*
X169878190Y-68714285D02*
X169925809Y-68809523D01*
X169925809Y-68809523D02*
X169973428Y-68857142D01*
X169973428Y-68857142D02*
X170068666Y-68904761D01*
X170068666Y-68904761D02*
X170259142Y-68904761D01*
X170259142Y-68904761D02*
X170354380Y-68857142D01*
X170354380Y-68857142D02*
X170402000Y-68809523D01*
X170402000Y-68809523D02*
X170449619Y-68714285D01*
X170449619Y-68714285D02*
X170449619Y-68523809D01*
X170449619Y-68523809D02*
X170402000Y-68428571D01*
X170402000Y-68428571D02*
X170354380Y-68380952D01*
X170354380Y-68380952D02*
X170259142Y-68333333D01*
X170259142Y-68333333D02*
X170068666Y-68333333D01*
X170068666Y-68333333D02*
X169973428Y-68380952D01*
X169973428Y-68380952D02*
X169925809Y-68428571D01*
X169925809Y-68428571D02*
X169878190Y-68523809D01*
X169449619Y-68047618D02*
X169449619Y-67476190D01*
X170449619Y-67761904D02*
X169449619Y-67761904D01*
X169878190Y-66999999D02*
X169830571Y-67095237D01*
X169830571Y-67095237D02*
X169782952Y-67142856D01*
X169782952Y-67142856D02*
X169687714Y-67190475D01*
X169687714Y-67190475D02*
X169640095Y-67190475D01*
X169640095Y-67190475D02*
X169544857Y-67142856D01*
X169544857Y-67142856D02*
X169497238Y-67095237D01*
X169497238Y-67095237D02*
X169449619Y-66999999D01*
X169449619Y-66999999D02*
X169449619Y-66809523D01*
X169449619Y-66809523D02*
X169497238Y-66714285D01*
X169497238Y-66714285D02*
X169544857Y-66666666D01*
X169544857Y-66666666D02*
X169640095Y-66619047D01*
X169640095Y-66619047D02*
X169687714Y-66619047D01*
X169687714Y-66619047D02*
X169782952Y-66666666D01*
X169782952Y-66666666D02*
X169830571Y-66714285D01*
X169830571Y-66714285D02*
X169878190Y-66809523D01*
X169878190Y-66809523D02*
X169878190Y-66999999D01*
X169878190Y-66999999D02*
X169925809Y-67095237D01*
X169925809Y-67095237D02*
X169973428Y-67142856D01*
X169973428Y-67142856D02*
X170068666Y-67190475D01*
X170068666Y-67190475D02*
X170259142Y-67190475D01*
X170259142Y-67190475D02*
X170354380Y-67142856D01*
X170354380Y-67142856D02*
X170402000Y-67095237D01*
X170402000Y-67095237D02*
X170449619Y-66999999D01*
X170449619Y-66999999D02*
X170449619Y-66809523D01*
X170449619Y-66809523D02*
X170402000Y-66714285D01*
X170402000Y-66714285D02*
X170354380Y-66666666D01*
X170354380Y-66666666D02*
X170259142Y-66619047D01*
X170259142Y-66619047D02*
X170068666Y-66619047D01*
X170068666Y-66619047D02*
X169973428Y-66666666D01*
X169973428Y-66666666D02*
X169925809Y-66714285D01*
X169925809Y-66714285D02*
X169878190Y-66809523D01*
X160566666Y-58445297D02*
X160566666Y-59159582D01*
X160566666Y-59159582D02*
X160519047Y-59302439D01*
X160519047Y-59302439D02*
X160423809Y-59397678D01*
X160423809Y-59397678D02*
X160280952Y-59445297D01*
X160280952Y-59445297D02*
X160185714Y-59445297D01*
X161566666Y-59445297D02*
X160995238Y-59445297D01*
X161280952Y-59445297D02*
X161280952Y-58445297D01*
X161280952Y-58445297D02*
X161185714Y-58588154D01*
X161185714Y-58588154D02*
X161090476Y-58683392D01*
X161090476Y-58683392D02*
X160995238Y-58731011D01*
X178666666Y-58449619D02*
X178666666Y-59163904D01*
X178666666Y-59163904D02*
X178619047Y-59306761D01*
X178619047Y-59306761D02*
X178523809Y-59402000D01*
X178523809Y-59402000D02*
X178380952Y-59449619D01*
X178380952Y-59449619D02*
X178285714Y-59449619D01*
X179095238Y-58544857D02*
X179142857Y-58497238D01*
X179142857Y-58497238D02*
X179238095Y-58449619D01*
X179238095Y-58449619D02*
X179476190Y-58449619D01*
X179476190Y-58449619D02*
X179571428Y-58497238D01*
X179571428Y-58497238D02*
X179619047Y-58544857D01*
X179619047Y-58544857D02*
X179666666Y-58640095D01*
X179666666Y-58640095D02*
X179666666Y-58735333D01*
X179666666Y-58735333D02*
X179619047Y-58878190D01*
X179619047Y-58878190D02*
X179047619Y-59449619D01*
X179047619Y-59449619D02*
X179666666Y-59449619D01*
D13*
%TO.C,U1*%
X164819689Y-90965678D02*
X165137887Y-90647480D01*
X165137887Y-91283876D02*
X164819689Y-90965678D01*
X169606802Y-86178565D02*
X169925000Y-85860367D01*
X169925000Y-85860367D02*
X170243198Y-86178565D01*
X169925000Y-96070989D02*
X169606802Y-95752791D01*
X170243198Y-95752791D02*
X169925000Y-96070989D01*
X174712113Y-90647480D02*
X175030311Y-90965678D01*
X175030311Y-90965678D02*
X174712113Y-91283876D01*
X169727010Y-85634093D02*
X169154254Y-85726017D01*
X169246177Y-85153260D01*
X169727010Y-85634093D01*
G36*
X169727010Y-85634093D02*
G01*
X169154254Y-85726017D01*
X169246177Y-85153260D01*
X169727010Y-85634093D01*
G37*
%TO.C,J1*%
X159570000Y-63035678D02*
X159570000Y-121515678D01*
X159570000Y-63035678D02*
X162230000Y-63035678D01*
X159570000Y-121515678D02*
X162230000Y-121515678D01*
X160900000Y-60435678D02*
X162230000Y-60435678D01*
X162230000Y-60435678D02*
X162230000Y-61765678D01*
X162230000Y-63035678D02*
X162230000Y-121515678D01*
%TO.C,J2*%
X177670000Y-118895677D02*
X177670000Y-60415678D01*
X177670000Y-121495678D02*
X177670000Y-120165678D01*
X179000000Y-121495678D02*
X177670000Y-121495678D01*
X180330000Y-60415678D02*
X177670000Y-60415678D01*
X180330000Y-118895677D02*
X177670000Y-118895677D01*
X180330000Y-118895677D02*
X180330000Y-60415678D01*
%TD*%
M02*
