%TF.GenerationSoftware,KiCad,Pcbnew,9.0.7*%
%TF.CreationDate,2026-02-21T20:40:54+08:00*%
%TF.ProjectId,lqfp48_breakout,6c716670-3438-45f6-9272-65616b6f7574,rev?*%
%TF.SameCoordinates,Original*%
%TF.FileFunction,Legend,Bot*%
%TF.FilePolarity,Positive*%
%FSLAX46Y46*%
G04 Gerber Fmt 4.6, Leading zero omitted, Abs format (unit mm)*
G04 Created by KiCad (PCBNEW 9.0.7) date 2026-02-21 20:40:54*
%MOMM*%
%LPD*%
G01*
G04 APERTURE LIST*
%ADD10C,0.250000*%
%ADD11C,0.120000*%
G04 APERTURE END LIST*
D10*
X170166666Y-82534379D02*
X170214285Y-82581999D01*
X170214285Y-82581999D02*
X170357142Y-82629618D01*
X170357142Y-82629618D02*
X170452380Y-82629618D01*
X170452380Y-82629618D02*
X170595237Y-82581999D01*
X170595237Y-82581999D02*
X170690475Y-82486760D01*
X170690475Y-82486760D02*
X170738094Y-82391522D01*
X170738094Y-82391522D02*
X170785713Y-82201046D01*
X170785713Y-82201046D02*
X170785713Y-82058189D01*
X170785713Y-82058189D02*
X170738094Y-81867713D01*
X170738094Y-81867713D02*
X170690475Y-81772475D01*
X170690475Y-81772475D02*
X170595237Y-81677237D01*
X170595237Y-81677237D02*
X170452380Y-81629618D01*
X170452380Y-81629618D02*
X170357142Y-81629618D01*
X170357142Y-81629618D02*
X170214285Y-81677237D01*
X170214285Y-81677237D02*
X170166666Y-81724856D01*
X169214285Y-82629618D02*
X169785713Y-82629618D01*
X169499999Y-82629618D02*
X169499999Y-81629618D01*
X169499999Y-81629618D02*
X169595237Y-81772475D01*
X169595237Y-81772475D02*
X169690475Y-81867713D01*
X169690475Y-81867713D02*
X169785713Y-81915332D01*
D11*
%TO.C,C1*%
X169738747Y-79765000D02*
X170261253Y-79765000D01*
X169738747Y-81235000D02*
X170261253Y-81235000D01*
%TD*%
M02*
