%TF.GenerationSoftware,KiCad,Pcbnew,9.0.7*%
%TF.CreationDate,2026-02-21T20:40:54+08:00*%
%TF.ProjectId,lqfp48_breakout,6c716670-3438-45f6-9272-65616b6f7574,rev?*%
%TF.SameCoordinates,Original*%
%TF.FileFunction,Copper,L1,Top*%
%TF.FilePolarity,Positive*%
%FSLAX46Y46*%
G04 Gerber Fmt 4.6, Leading zero omitted, Abs format (unit mm)*
G04 Created by KiCad (PCBNEW 9.0.7) date 2026-02-21 20:40:54*
%MOMM*%
%LPD*%
G01*
G04 APERTURE LIST*
G04 Aperture macros list*
%AMRoundRect*
0 Rectangle with rounded corners*
0 $1 Rounding radius*
0 $2 $3 $4 $5 $6 $7 $8 $9 X,Y pos of 4 corners*
0 Add a 4 corners polygon primitive as box body*
4,1,4,$2,$3,$4,$5,$6,$7,$8,$9,$2,$3,0*
0 Add four circle primitives for the rounded corners*
1,1,$1+$1,$2,$3*
1,1,$1+$1,$4,$5*
1,1,$1+$1,$6,$7*
1,1,$1+$1,$8,$9*
0 Add four rect primitives between the rounded corners*
20,1,$1+$1,$2,$3,$4,$5,0*
20,1,$1+$1,$4,$5,$6,$7,0*
20,1,$1+$1,$6,$7,$8,$9,0*
20,1,$1+$1,$8,$9,$2,$3,0*%
G04 Aperture macros list end*
%TA.AperFunction,SMDPad,CuDef*%
%ADD10RoundRect,0.075000X-0.521491X0.415425X0.415425X-0.521491X0.521491X-0.415425X-0.415425X0.521491X0*%
%TD*%
%TA.AperFunction,SMDPad,CuDef*%
%ADD11RoundRect,0.075000X-0.521491X-0.415425X-0.415425X-0.521491X0.521491X0.415425X0.415425X0.521491X0*%
%TD*%
%TA.AperFunction,ComponentPad*%
%ADD12R,1.700000X1.700000*%
%TD*%
%TA.AperFunction,ComponentPad*%
%ADD13C,1.700000*%
%TD*%
%TA.AperFunction,ViaPad*%
%ADD14C,0.600000*%
%TD*%
%TA.AperFunction,Conductor*%
%ADD15C,0.200000*%
%TD*%
G04 APERTURE END LIST*
D10*
%TO.P,U1,1,VBAT*%
%TO.N,+3V3*%
X168926212Y-86077802D03*
%TO.P,U1,2,PC13*%
%TO.N,/PC13*%
X168572658Y-86431356D03*
%TO.P,U1,3,PC14*%
%TO.N,/PC14*%
X168219105Y-86784909D03*
%TO.P,U1,4,PC15*%
%TO.N,/PC15*%
X167865551Y-87138463D03*
%TO.P,U1,5,PD0*%
%TO.N,/PD0*%
X167511998Y-87492016D03*
%TO.P,U1,6,PD1*%
%TO.N,/PD1*%
X167158445Y-87845569D03*
%TO.P,U1,7,NRST*%
%TO.N,/NRST*%
X166804891Y-88199123D03*
%TO.P,U1,8,VSSA*%
%TO.N,GND*%
X166451338Y-88552676D03*
%TO.P,U1,9,VDDA*%
%TO.N,+3V3*%
X166097785Y-88906229D03*
%TO.P,U1,10,PA0*%
%TO.N,/PA0*%
X165744231Y-89259783D03*
%TO.P,U1,11,PA1*%
%TO.N,/PA1*%
X165390678Y-89613336D03*
%TO.P,U1,12,PA2*%
%TO.N,/PA2*%
X165037124Y-89966890D03*
D11*
%TO.P,U1,13,PA3*%
%TO.N,/PA3*%
X165037124Y-91964466D03*
%TO.P,U1,14,PA4*%
%TO.N,/PA4*%
X165390678Y-92318020D03*
%TO.P,U1,15,PA5*%
%TO.N,/PA5*%
X165744231Y-92671573D03*
%TO.P,U1,16,PA6*%
%TO.N,/PA6*%
X166097785Y-93025127D03*
%TO.P,U1,17,PA7*%
%TO.N,/PA7*%
X166451338Y-93378680D03*
%TO.P,U1,18,PB0*%
%TO.N,/PB0*%
X166804891Y-93732233D03*
%TO.P,U1,19,PB1*%
%TO.N,/PB1*%
X167158445Y-94085787D03*
%TO.P,U1,20,PB2*%
%TO.N,/PB2*%
X167511998Y-94439340D03*
%TO.P,U1,21,PB10*%
%TO.N,/PB10*%
X167865551Y-94792893D03*
%TO.P,U1,22,PB11*%
%TO.N,/PB11*%
X168219105Y-95146447D03*
%TO.P,U1,23,VSS*%
%TO.N,GND*%
X168572658Y-95500000D03*
%TO.P,U1,24,VDD*%
%TO.N,+3V3*%
X168926212Y-95853554D03*
D10*
%TO.P,U1,25,PB12*%
%TO.N,/PB12*%
X170923788Y-95853554D03*
%TO.P,U1,26,PB13*%
%TO.N,/PB13*%
X171277342Y-95500000D03*
%TO.P,U1,27,PB14*%
%TO.N,/PB14*%
X171630895Y-95146447D03*
%TO.P,U1,28,PB15*%
%TO.N,/PB15*%
X171984449Y-94792893D03*
%TO.P,U1,29,PA8*%
%TO.N,/PA8*%
X172338002Y-94439340D03*
%TO.P,U1,30,PA9*%
%TO.N,/PA9*%
X172691555Y-94085787D03*
%TO.P,U1,31,PA10*%
%TO.N,/PA10*%
X173045109Y-93732233D03*
%TO.P,U1,32,PA11*%
%TO.N,/PA11*%
X173398662Y-93378680D03*
%TO.P,U1,33,PA12*%
%TO.N,/PA12*%
X173752215Y-93025127D03*
%TO.P,U1,34,PA13*%
%TO.N,/PA13*%
X174105769Y-92671573D03*
%TO.P,U1,35,VSS*%
%TO.N,GND*%
X174459322Y-92318020D03*
%TO.P,U1,36,VDD*%
%TO.N,+3V3*%
X174812876Y-91964466D03*
D11*
%TO.P,U1,37,PA14*%
%TO.N,/PA14*%
X174812876Y-89966890D03*
%TO.P,U1,38,PA15*%
%TO.N,/PA15*%
X174459322Y-89613336D03*
%TO.P,U1,39,PB3*%
%TO.N,/PB3*%
X174105769Y-89259783D03*
%TO.P,U1,40,PB4*%
%TO.N,/PB4*%
X173752215Y-88906229D03*
%TO.P,U1,41,PB5*%
%TO.N,/PB5*%
X173398662Y-88552676D03*
%TO.P,U1,42,PB6*%
%TO.N,/PB6*%
X173045109Y-88199123D03*
%TO.P,U1,43,PB7*%
%TO.N,/PB7*%
X172691555Y-87845569D03*
%TO.P,U1,44,BOOT0*%
%TO.N,/BOOT0*%
X172338002Y-87492016D03*
%TO.P,U1,45,PB8*%
%TO.N,/PB8*%
X171984449Y-87138463D03*
%TO.P,U1,46,PB9*%
%TO.N,/PB9*%
X171630895Y-86784909D03*
%TO.P,U1,47,VSS*%
%TO.N,GND*%
X171277342Y-86431356D03*
%TO.P,U1,48,VDD*%
%TO.N,+3V3*%
X170923788Y-86077802D03*
%TD*%
D12*
%TO.P,J1,1,Pin_1*%
%TO.N,+3V3*%
X160900000Y-61765678D03*
D13*
%TO.P,J1,2,Pin_2*%
%TO.N,/PC13*%
X160900000Y-64305678D03*
%TO.P,J1,3,Pin_3*%
%TO.N,/PC14*%
X160900000Y-66845678D03*
%TO.P,J1,4,Pin_4*%
%TO.N,/PC15*%
X160900000Y-69385678D03*
%TO.P,J1,5,Pin_5*%
%TO.N,/PD0*%
X160900000Y-71925678D03*
%TO.P,J1,6,Pin_6*%
%TO.N,/PD1*%
X160900000Y-74465678D03*
%TO.P,J1,7,Pin_7*%
%TO.N,/NRST*%
X160900000Y-77005678D03*
%TO.P,J1,8,Pin_8*%
%TO.N,GND*%
X160900000Y-79545678D03*
%TO.P,J1,9,Pin_9*%
%TO.N,+3V3*%
X160900000Y-82085678D03*
%TO.P,J1,10,Pin_10*%
%TO.N,/PA0*%
X160900000Y-84625678D03*
%TO.P,J1,11,Pin_11*%
%TO.N,/PA1*%
X160900000Y-87165678D03*
%TO.P,J1,12,Pin_12*%
%TO.N,/PA2*%
X160900000Y-89705678D03*
%TO.P,J1,13,Pin_13*%
%TO.N,/PA3*%
X160900000Y-92245678D03*
%TO.P,J1,14,Pin_14*%
%TO.N,/PA4*%
X160900000Y-94785678D03*
%TO.P,J1,15,Pin_15*%
%TO.N,/PA5*%
X160900000Y-97325678D03*
%TO.P,J1,16,Pin_16*%
%TO.N,/PA6*%
X160900000Y-99865678D03*
%TO.P,J1,17,Pin_17*%
%TO.N,/PA7*%
X160900000Y-102405678D03*
%TO.P,J1,18,Pin_18*%
%TO.N,/PB0*%
X160900000Y-104945678D03*
%TO.P,J1,19,Pin_19*%
%TO.N,/PB1*%
X160900000Y-107485678D03*
%TO.P,J1,20,Pin_20*%
%TO.N,/PB2*%
X160900000Y-110025678D03*
%TO.P,J1,21,Pin_21*%
%TO.N,/PB10*%
X160900000Y-112565678D03*
%TO.P,J1,22,Pin_22*%
%TO.N,/PB11*%
X160900000Y-115105678D03*
%TO.P,J1,23,Pin_23*%
%TO.N,GND*%
X160900000Y-117645678D03*
%TO.P,J1,24,Pin_24*%
%TO.N,+3V3*%
X160900000Y-120185678D03*
%TD*%
D12*
%TO.P,J2,1,Pin_1*%
%TO.N,/PB12*%
X179000000Y-120165678D03*
D13*
%TO.P,J2,2,Pin_2*%
%TO.N,/PB13*%
X179000000Y-117625678D03*
%TO.P,J2,3,Pin_3*%
%TO.N,/PB14*%
X179000000Y-115085679D03*
%TO.P,J2,4,Pin_4*%
%TO.N,/PB15*%
X179000000Y-112545678D03*
%TO.P,J2,5,Pin_5*%
%TO.N,/PA8*%
X179000000Y-110005678D03*
%TO.P,J2,6,Pin_6*%
%TO.N,/PA9*%
X179000000Y-107465678D03*
%TO.P,J2,7,Pin_7*%
%TO.N,/PA10*%
X179000000Y-104925678D03*
%TO.P,J2,8,Pin_8*%
%TO.N,/PA11*%
X179000000Y-102385677D03*
%TO.P,J2,9,Pin_9*%
%TO.N,/PA12*%
X179000000Y-99845678D03*
%TO.P,J2,10,Pin_10*%
%TO.N,/PA13*%
X179000000Y-97305678D03*
%TO.P,J2,11,Pin_11*%
%TO.N,unconnected-(J2-Pin_11-Pad11)*%
X179000000Y-94765678D03*
%TO.P,J2,12,Pin_12*%
%TO.N,+3V3*%
X179000000Y-92225679D03*
%TO.P,J2,13,Pin_13*%
%TO.N,/PA14*%
X179000000Y-89685678D03*
%TO.P,J2,14,Pin_14*%
%TO.N,/PA15*%
X179000000Y-87145678D03*
%TO.P,J2,15,Pin_15*%
%TO.N,/PB3*%
X179000000Y-84605678D03*
%TO.P,J2,16,Pin_16*%
%TO.N,/PB4*%
X179000000Y-82065679D03*
%TO.P,J2,17,Pin_17*%
%TO.N,/PB5*%
X179000000Y-79525677D03*
%TO.P,J2,18,Pin_18*%
%TO.N,/PB6*%
X179000000Y-76985678D03*
%TO.P,J2,19,Pin_19*%
%TO.N,/PB7*%
X179000000Y-74445678D03*
%TO.P,J2,20,Pin_20*%
%TO.N,/BOOT0*%
X179000000Y-71905678D03*
%TO.P,J2,21,Pin_21*%
%TO.N,/PB8*%
X179000000Y-69365679D03*
%TO.P,J2,22,Pin_22*%
%TO.N,/PB9*%
X179000000Y-66825678D03*
%TO.P,J2,23,Pin_23*%
%TO.N,unconnected-(J2-Pin_23-Pad23)*%
X179000000Y-64285678D03*
%TO.P,J2,24,Pin_24*%
%TO.N,+3V3*%
X179000000Y-61745678D03*
%TD*%
D14*
%TO.N,+3V3*%
X169500000Y-82500000D03*
%TO.N,GND*%
X173000000Y-91500000D03*
X170500000Y-88000000D03*
X168500000Y-89000000D03*
X169500000Y-94000000D03*
%TD*%
D15*
%TO.N,+3V3*%
X169500000Y-85504014D02*
X169500000Y-85500000D01*
X168926212Y-95853554D02*
X170500000Y-94279766D01*
X169500000Y-96427342D02*
X169500000Y-111585678D01*
X178980000Y-61765678D02*
X179000000Y-61745678D01*
X169500000Y-85500000D02*
X170345986Y-85500000D01*
X172403274Y-89903274D02*
X172000000Y-89500000D01*
X173348410Y-90500000D02*
X172403274Y-90500000D01*
X176500000Y-91000000D02*
X175777342Y-91000000D01*
X175777342Y-91000000D02*
X174812876Y-91964466D01*
X166097785Y-88906229D02*
X169594830Y-92403274D01*
X158000000Y-80500000D02*
X159585678Y-82085678D01*
X169500000Y-86651590D02*
X168926212Y-86077802D01*
X169500000Y-111585678D02*
X160900000Y-120185678D01*
X170500000Y-89500000D02*
X169500000Y-88500000D01*
X168926212Y-86077802D02*
X169500000Y-85504014D01*
X172403274Y-90500000D02*
X172403274Y-89903274D01*
X159234322Y-61765678D02*
X158000000Y-63000000D01*
X160900000Y-61765678D02*
X178980000Y-61765678D01*
X169500000Y-88500000D02*
X169500000Y-86651590D01*
X177725679Y-92225679D02*
X176500000Y-91000000D01*
X169500000Y-82500000D02*
X169500000Y-85500000D01*
X169594830Y-92403274D02*
X170500000Y-92403274D01*
X160900000Y-61765678D02*
X159234322Y-61765678D01*
X172000000Y-89500000D02*
X170500000Y-89500000D01*
X174812876Y-91964466D02*
X173348410Y-90500000D01*
X179000000Y-92225679D02*
X177725679Y-92225679D01*
X159585678Y-82085678D02*
X160900000Y-82085678D01*
X172403274Y-90500000D02*
X170500000Y-92403274D01*
X170345986Y-85500000D02*
X170923788Y-86077802D01*
X168926212Y-95853554D02*
X169500000Y-96427342D01*
X158000000Y-63000000D02*
X158000000Y-80500000D01*
X170500000Y-94279766D02*
X170500000Y-92403274D01*
%TO.N,GND*%
X166000000Y-112545678D02*
X160900000Y-117645678D01*
X168572658Y-95500000D02*
X166000000Y-98072658D01*
X164045678Y-79545678D02*
X164500000Y-80000000D01*
X167398662Y-89500000D02*
X168000000Y-89500000D01*
X166000000Y-98072658D02*
X166000000Y-112545678D01*
X168572658Y-95500000D02*
X169500000Y-94572658D01*
X164500000Y-80000000D02*
X164500000Y-86601338D01*
X169500000Y-94572658D02*
X169500000Y-94000000D01*
X173641302Y-91500000D02*
X173000000Y-91500000D01*
X174459322Y-92318020D02*
X173641302Y-91500000D01*
X170500000Y-87208698D02*
X170500000Y-88000000D01*
X164500000Y-86601338D02*
X166451338Y-88552676D01*
X171277342Y-86431356D02*
X170500000Y-87208698D01*
X160900000Y-79545678D02*
X164045678Y-79545678D01*
X168000000Y-89500000D02*
X168500000Y-89000000D01*
X166451338Y-88552676D02*
X167398662Y-89500000D01*
%TO.N,/PC15*%
X164385678Y-69385678D02*
X163885678Y-69385678D01*
X166500000Y-85772912D02*
X166500000Y-71500000D01*
X166500000Y-71500000D02*
X164385678Y-69385678D01*
X160900000Y-69385678D02*
X163885678Y-69385678D01*
X167865551Y-87138463D02*
X166500000Y-85772912D01*
%TO.N,/PA3*%
X162254322Y-92245678D02*
X163000000Y-91500000D01*
X160900000Y-92245678D02*
X162254322Y-92245678D01*
X164572658Y-91500000D02*
X165037124Y-91964466D01*
X163000000Y-91500000D02*
X164572658Y-91500000D01*
%TO.N,/PB0*%
X163401000Y-102444678D02*
X160900000Y-104945678D01*
X166804891Y-93732233D02*
X163401000Y-97136124D01*
X163401000Y-97136124D02*
X163401000Y-102444678D01*
%TO.N,/PA4*%
X162923020Y-94785678D02*
X160900000Y-94785678D01*
X165390678Y-92318020D02*
X162923020Y-94785678D01*
%TO.N,/PA6*%
X166097785Y-93025127D02*
X162500000Y-96622912D01*
X160900000Y-99865678D02*
X162500000Y-98265678D01*
X162500000Y-96622912D02*
X162500000Y-98265678D01*
%TO.N,/PB10*%
X167865551Y-94792893D02*
X164604000Y-98054444D01*
X164604000Y-108861678D02*
X160900000Y-112565678D01*
X164604000Y-98054444D02*
X164604000Y-108861678D01*
%TO.N,/PC14*%
X167000000Y-71000000D02*
X167000000Y-85565804D01*
X160900000Y-66845678D02*
X162845678Y-66845678D01*
X167000000Y-85565804D02*
X168219105Y-86784909D01*
X162845678Y-66845678D02*
X167000000Y-71000000D01*
%TO.N,/PD0*%
X166000000Y-73500000D02*
X166000000Y-86000000D01*
X166000000Y-86000000D02*
X166019982Y-86000000D01*
X164425678Y-71925678D02*
X166000000Y-73500000D01*
X160900000Y-71925678D02*
X164425678Y-71925678D01*
X166019982Y-86000000D02*
X167511998Y-87492016D01*
%TO.N,/PB11*%
X165005000Y-111000678D02*
X160900000Y-115105678D01*
X165005000Y-98360552D02*
X165005000Y-111000678D01*
X168219105Y-95146447D02*
X165005000Y-98360552D01*
%TO.N,/NRST*%
X165000000Y-86394232D02*
X166804891Y-88199123D01*
X165000000Y-77500000D02*
X165000000Y-86394232D01*
X164505678Y-77005678D02*
X165000000Y-77500000D01*
X160900000Y-77005678D02*
X164505678Y-77005678D01*
%TO.N,/PA2*%
X164504014Y-90500000D02*
X163000000Y-90500000D01*
X163000000Y-90500000D02*
X162205678Y-89705678D01*
X165037124Y-89966890D02*
X164504014Y-90500000D01*
X162205678Y-89705678D02*
X160900000Y-89705678D01*
%TO.N,/PA1*%
X165390678Y-89613336D02*
X162943020Y-87165678D01*
X162943020Y-87165678D02*
X160900000Y-87165678D01*
%TO.N,/PA0*%
X160900000Y-84625678D02*
X162625678Y-84625678D01*
X164000000Y-87515552D02*
X165744231Y-89259783D01*
X164000000Y-86000000D02*
X164000000Y-87515552D01*
X162625678Y-84625678D02*
X164000000Y-86000000D01*
%TO.N,/PD1*%
X164965678Y-74465678D02*
X160900000Y-74465678D01*
X167158445Y-87845569D02*
X165500000Y-86187124D01*
X165500000Y-75000000D02*
X164965678Y-74465678D01*
X165500000Y-86187124D02*
X165500000Y-75000000D01*
%TO.N,/PC13*%
X160900000Y-64305678D02*
X167500000Y-70905678D01*
X167500000Y-70905678D02*
X167500000Y-85358698D01*
X167500000Y-85358698D02*
X168572658Y-86431356D01*
%TO.N,/PA5*%
X160900000Y-97325678D02*
X161090126Y-97325678D01*
X161090126Y-97325678D02*
X165744231Y-92671573D01*
%TO.N,/PA7*%
X166451338Y-93378680D02*
X163000000Y-96830018D01*
X163000000Y-96830018D02*
X163000000Y-100305678D01*
X163000000Y-100305678D02*
X160900000Y-102405678D01*
%TO.N,/PB1*%
X163802000Y-104583678D02*
X160900000Y-107485678D01*
X163802000Y-97442232D02*
X163802000Y-104583678D01*
X167158445Y-94085787D02*
X163802000Y-97442232D01*
%TO.N,/PB2*%
X164203000Y-106722678D02*
X160900000Y-110025678D01*
X164203000Y-97748338D02*
X164203000Y-106722678D01*
X167511998Y-94439340D02*
X164203000Y-97748338D01*
%TO.N,/PB4*%
X177500000Y-83565679D02*
X179000000Y-82065679D01*
X173752215Y-88906229D02*
X177500000Y-85158444D01*
X177500000Y-85158444D02*
X177500000Y-83565679D01*
%TO.N,/PB5*%
X173398662Y-88552676D02*
X177000000Y-84951338D01*
X177000000Y-81525677D02*
X179000000Y-79525677D01*
X177000000Y-84951338D02*
X177000000Y-81525677D01*
%TO.N,/PB3*%
X174105769Y-89259783D02*
X178759874Y-84605678D01*
X178759874Y-84605678D02*
X179000000Y-84605678D01*
%TO.N,/PB13*%
X179000000Y-117625678D02*
X176625678Y-117625678D01*
X172500000Y-96722658D02*
X171277342Y-95500000D01*
X172500000Y-113500000D02*
X172500000Y-96722658D01*
X176625678Y-117625678D02*
X172500000Y-113500000D01*
%TO.N,/PB12*%
X170923788Y-95853554D02*
X172000000Y-96929766D01*
X172000000Y-96929766D02*
X172000000Y-115000000D01*
X177165678Y-120165678D02*
X179000000Y-120165678D01*
X172000000Y-115000000D02*
X177165678Y-120165678D01*
%TO.N,/PA9*%
X176534322Y-107465678D02*
X174500000Y-105431356D01*
X179000000Y-107465678D02*
X176534322Y-107465678D01*
X174500000Y-95894232D02*
X172691555Y-94085787D01*
X174500000Y-105431356D02*
X174500000Y-95894232D01*
%TO.N,/PA14*%
X175345986Y-90500000D02*
X176500000Y-90500000D01*
X174812876Y-89966890D02*
X175345986Y-90500000D01*
X177314322Y-89685678D02*
X179000000Y-89685678D01*
X176500000Y-90500000D02*
X177314322Y-89685678D01*
%TO.N,/PA15*%
X174459322Y-89613336D02*
X176926980Y-87145678D01*
X176926980Y-87145678D02*
X179000000Y-87145678D01*
%TO.N,/PB7*%
X176000000Y-77445678D02*
X179000000Y-74445678D01*
X172691555Y-87845569D02*
X176000000Y-84537124D01*
X176000000Y-84537124D02*
X176000000Y-77445678D01*
%TO.N,/BOOT0*%
X175500000Y-84330018D02*
X175500000Y-75405678D01*
X175500000Y-75405678D02*
X179000000Y-71905678D01*
X172338002Y-87492016D02*
X175500000Y-84330018D01*
%TO.N,/PA13*%
X177305678Y-97305678D02*
X176500000Y-96500000D01*
X179000000Y-97305678D02*
X177305678Y-97305678D01*
X176500000Y-95065804D02*
X174105769Y-92671573D01*
X176500000Y-96500000D02*
X176500000Y-95065804D01*
%TO.N,/PB14*%
X176585679Y-115085679D02*
X173000000Y-111500000D01*
X173000000Y-96515552D02*
X171630895Y-95146447D01*
X179000000Y-115085679D02*
X176585679Y-115085679D01*
X173000000Y-111500000D02*
X173000000Y-96515552D01*
%TO.N,/PA10*%
X179000000Y-104925678D02*
X177074322Y-104925678D01*
X175000000Y-95687124D02*
X173045109Y-93732233D01*
X175000000Y-102851356D02*
X175000000Y-95687124D01*
X177074322Y-104925678D02*
X175000000Y-102851356D01*
%TO.N,/PB9*%
X174500000Y-83915804D02*
X174500000Y-71325678D01*
X171630895Y-86784909D02*
X174500000Y-83915804D01*
X174500000Y-71325678D02*
X179000000Y-66825678D01*
%TO.N,/PA8*%
X176505678Y-110005678D02*
X179000000Y-110005678D01*
X174000000Y-96101338D02*
X174000000Y-107500000D01*
X172338002Y-94439340D02*
X174000000Y-96101338D01*
X174000000Y-107500000D02*
X176505678Y-110005678D01*
%TO.N,/PA11*%
X177385677Y-102385677D02*
X175500000Y-100500000D01*
X179000000Y-102385677D02*
X177385677Y-102385677D01*
X175500000Y-100500000D02*
X175500000Y-95480018D01*
X175500000Y-95480018D02*
X173398662Y-93378680D01*
%TO.N,/PA12*%
X173752215Y-93025127D02*
X176000000Y-95272912D01*
X176000000Y-95272912D02*
X176000000Y-98000000D01*
X177845678Y-99845678D02*
X179000000Y-99845678D01*
X176000000Y-98000000D02*
X177845678Y-99845678D01*
%TO.N,/PB6*%
X176500000Y-84744232D02*
X176500000Y-79485678D01*
X176500000Y-79485678D02*
X179000000Y-76985678D01*
X173045109Y-88199123D02*
X176500000Y-84744232D01*
%TO.N,/PB15*%
X176545678Y-112545678D02*
X173500000Y-109500000D01*
X179000000Y-112545678D02*
X176545678Y-112545678D01*
X173500000Y-96308444D02*
X171984449Y-94792893D01*
X173500000Y-109500000D02*
X173500000Y-96308444D01*
%TO.N,/PB8*%
X175000000Y-73365679D02*
X179000000Y-69365679D01*
X171984449Y-87138463D02*
X175000000Y-84122912D01*
X175000000Y-84122912D02*
X175000000Y-73365679D01*
%TD*%
%TA.AperFunction,Conductor*%
%TO.N,GND*%
G36*
X167787499Y-96493192D02*
G01*
X167821663Y-96495636D01*
X167822535Y-96496119D01*
X167823046Y-96496162D01*
X167853818Y-96513445D01*
X167873356Y-96528438D01*
X167895652Y-96553854D01*
X167897074Y-96552764D01*
X167971109Y-96649247D01*
X167971117Y-96649256D01*
X168130510Y-96808649D01*
X168130518Y-96808656D01*
X168130519Y-96808657D01*
X168157817Y-96829604D01*
X168220552Y-96877743D01*
X168220555Y-96877745D01*
X168275492Y-96900500D01*
X168360551Y-96935732D01*
X168435669Y-96945621D01*
X168510786Y-96955511D01*
X168510787Y-96955511D01*
X168661022Y-96935732D01*
X168728049Y-96907968D01*
X168797517Y-96900500D01*
X168859996Y-96931775D01*
X168895648Y-96991864D01*
X168899500Y-97022530D01*
X168899500Y-111285579D01*
X168879815Y-111352618D01*
X168863181Y-111373260D01*
X162461681Y-117774760D01*
X162400358Y-117808245D01*
X162330666Y-117803261D01*
X162274733Y-117761389D01*
X162250316Y-117695925D01*
X162250000Y-117687079D01*
X162250000Y-117539431D01*
X162216757Y-117329550D01*
X162216757Y-117329547D01*
X162151095Y-117127460D01*
X162054624Y-116938127D01*
X162015270Y-116883960D01*
X162015269Y-116883960D01*
X161382962Y-117516268D01*
X161365925Y-117452685D01*
X161300099Y-117338671D01*
X161207007Y-117245579D01*
X161092993Y-117179753D01*
X161029409Y-117162715D01*
X161661716Y-116530406D01*
X161607547Y-116491051D01*
X161607547Y-116491050D01*
X161598500Y-116486441D01*
X161547706Y-116438466D01*
X161530912Y-116370644D01*
X161553451Y-116304510D01*
X161598508Y-116265471D01*
X161607816Y-116260729D01*
X161687007Y-116203193D01*
X161779786Y-116135787D01*
X161779788Y-116135784D01*
X161779792Y-116135782D01*
X161930104Y-115985470D01*
X161930106Y-115985466D01*
X161930109Y-115985464D01*
X162055048Y-115813498D01*
X162055047Y-115813498D01*
X162055051Y-115813494D01*
X162151557Y-115624090D01*
X162217246Y-115421921D01*
X162250500Y-115211965D01*
X162250500Y-114999391D01*
X162217246Y-114789435D01*
X162203506Y-114747151D01*
X162201512Y-114677313D01*
X162233755Y-114621156D01*
X165485520Y-111369394D01*
X165564577Y-111232462D01*
X165605501Y-111079735D01*
X165605501Y-110921620D01*
X165605501Y-110914025D01*
X165605500Y-110914007D01*
X165605500Y-98660648D01*
X165625185Y-98593609D01*
X165641814Y-98572972D01*
X167690650Y-96524135D01*
X167691322Y-96523768D01*
X167691700Y-96523097D01*
X167721955Y-96507041D01*
X167751971Y-96490652D01*
X167752737Y-96490706D01*
X167753418Y-96490346D01*
X167787499Y-96493192D01*
G37*
%TD.AperFunction*%
%TA.AperFunction,Conductor*%
G36*
X166563063Y-90255456D02*
G01*
X166597037Y-90262422D01*
X166597219Y-90262556D01*
X166597336Y-90262581D01*
X166597591Y-90262832D01*
X166626597Y-90284276D01*
X169109969Y-92767648D01*
X169109979Y-92767659D01*
X169114309Y-92771989D01*
X169114310Y-92771990D01*
X169226114Y-92883794D01*
X169226116Y-92883795D01*
X169226120Y-92883798D01*
X169346839Y-92953494D01*
X169363046Y-92962851D01*
X169459352Y-92988656D01*
X169515772Y-93003774D01*
X169515773Y-93003774D01*
X169775500Y-93003774D01*
X169842539Y-93023459D01*
X169888294Y-93076263D01*
X169899500Y-93127774D01*
X169899500Y-93979668D01*
X169879815Y-94046707D01*
X169863181Y-94067349D01*
X169454667Y-94475862D01*
X169453993Y-94476229D01*
X169453618Y-94476899D01*
X169423370Y-94492951D01*
X169393344Y-94509347D01*
X169392578Y-94509292D01*
X169391901Y-94509652D01*
X169357808Y-94506805D01*
X169323652Y-94504363D01*
X169322782Y-94503881D01*
X169322274Y-94503839D01*
X169291500Y-94486557D01*
X169271963Y-94471566D01*
X169249674Y-94446140D01*
X169248244Y-94447238D01*
X169174207Y-94350753D01*
X169174200Y-94350745D01*
X169014807Y-94191352D01*
X169014798Y-94191344D01*
X168918315Y-94117309D01*
X168920181Y-94114876D01*
X168897131Y-94091810D01*
X168894690Y-94093684D01*
X168820653Y-93997199D01*
X168820646Y-93997191D01*
X168661253Y-93837798D01*
X168661244Y-93837790D01*
X168564761Y-93763755D01*
X168566627Y-93761322D01*
X168543577Y-93738256D01*
X168541136Y-93740130D01*
X168504787Y-93692760D01*
X168467101Y-93643647D01*
X168467100Y-93643646D01*
X168467093Y-93643638D01*
X168307700Y-93484245D01*
X168307691Y-93484237D01*
X168211208Y-93410202D01*
X168213074Y-93407769D01*
X168190024Y-93384703D01*
X168187583Y-93386577D01*
X168113547Y-93290093D01*
X168113540Y-93290085D01*
X167954147Y-93130692D01*
X167954138Y-93130684D01*
X167857655Y-93056649D01*
X167859521Y-93054216D01*
X167836471Y-93031150D01*
X167834030Y-93033024D01*
X167759993Y-92936539D01*
X167759986Y-92936531D01*
X167600593Y-92777138D01*
X167600584Y-92777130D01*
X167504101Y-92703095D01*
X167505967Y-92700662D01*
X167482917Y-92677596D01*
X167480476Y-92679470D01*
X167406440Y-92582986D01*
X167406433Y-92582978D01*
X167247040Y-92423585D01*
X167247031Y-92423577D01*
X167150548Y-92349542D01*
X167152414Y-92347109D01*
X167129364Y-92324043D01*
X167126923Y-92325917D01*
X167052887Y-92229433D01*
X167052880Y-92229425D01*
X166893487Y-92070032D01*
X166893478Y-92070024D01*
X166796995Y-91995989D01*
X166798861Y-91993556D01*
X166775811Y-91970490D01*
X166773370Y-91972364D01*
X166699333Y-91875879D01*
X166699326Y-91875871D01*
X166539933Y-91716478D01*
X166539924Y-91716470D01*
X166443441Y-91642435D01*
X166445307Y-91640002D01*
X166422257Y-91616936D01*
X166419816Y-91618810D01*
X166380079Y-91567024D01*
X166345781Y-91522327D01*
X166345780Y-91522326D01*
X166345773Y-91522318D01*
X166186380Y-91362925D01*
X166186371Y-91362917D01*
X166089888Y-91288882D01*
X166091754Y-91286449D01*
X166068704Y-91263383D01*
X166066263Y-91265257D01*
X166012793Y-91195575D01*
X165992227Y-91168773D01*
X165992226Y-91168772D01*
X165992219Y-91168764D01*
X165876814Y-91053359D01*
X165843329Y-90992036D01*
X165848313Y-90922344D01*
X165876814Y-90877997D01*
X165992219Y-90762592D01*
X165992222Y-90762587D01*
X165992227Y-90762583D01*
X166061314Y-90672548D01*
X166066263Y-90666099D01*
X166068708Y-90667975D01*
X166091763Y-90644920D01*
X166089887Y-90642475D01*
X166120153Y-90619250D01*
X166186371Y-90568439D01*
X166186375Y-90568434D01*
X166186380Y-90568431D01*
X166345773Y-90409038D01*
X166345776Y-90409033D01*
X166345781Y-90409029D01*
X166414868Y-90318994D01*
X166414868Y-90318991D01*
X166418463Y-90314308D01*
X166418512Y-90314175D01*
X166418685Y-90314019D01*
X166419817Y-90312545D01*
X166420094Y-90312757D01*
X166430662Y-90303291D01*
X166443238Y-90288989D01*
X166449719Y-90284043D01*
X166449889Y-90283973D01*
X166463694Y-90273379D01*
X166496198Y-90260913D01*
X166528591Y-90248388D01*
X166528763Y-90248423D01*
X166528929Y-90248360D01*
X166563063Y-90255456D01*
G37*
%TD.AperFunction*%
%TA.AperFunction,Conductor*%
G36*
X173115352Y-91120185D02*
G01*
X173135993Y-91136818D01*
X173435184Y-91436010D01*
X173435551Y-91436682D01*
X173436221Y-91437058D01*
X173452273Y-91467305D01*
X173468669Y-91497332D01*
X173468614Y-91498097D01*
X173468974Y-91498775D01*
X173466127Y-91532871D01*
X173463685Y-91567024D01*
X173463203Y-91567893D01*
X173463161Y-91568403D01*
X173445879Y-91599176D01*
X173430887Y-91618714D01*
X173405471Y-91641017D01*
X173406559Y-91642435D01*
X173310075Y-91716470D01*
X173150666Y-91875879D01*
X173076631Y-91972363D01*
X173074266Y-91970548D01*
X173051190Y-91993624D01*
X173053005Y-91995989D01*
X172956521Y-92070024D01*
X172797120Y-92229425D01*
X172797118Y-92229426D01*
X172723077Y-92325917D01*
X172720711Y-92324102D01*
X172697637Y-92347176D01*
X172699452Y-92349542D01*
X172602961Y-92423583D01*
X172602960Y-92423585D01*
X172443567Y-92582978D01*
X172443565Y-92582979D01*
X172369524Y-92679470D01*
X172367158Y-92677655D01*
X172344084Y-92700729D01*
X172345899Y-92703095D01*
X172249408Y-92777136D01*
X172249407Y-92777138D01*
X172090006Y-92936539D01*
X172015971Y-93033023D01*
X172013606Y-93031208D01*
X171990530Y-93054284D01*
X171992345Y-93056649D01*
X171895861Y-93130684D01*
X171736460Y-93290085D01*
X171736458Y-93290086D01*
X171662417Y-93386577D01*
X171660051Y-93384762D01*
X171636977Y-93407836D01*
X171638792Y-93410202D01*
X171542301Y-93484243D01*
X171542300Y-93484245D01*
X171382907Y-93643638D01*
X171382897Y-93643649D01*
X171322874Y-93721870D01*
X171266446Y-93763072D01*
X171196700Y-93767225D01*
X171135780Y-93733012D01*
X171103028Y-93671294D01*
X171100500Y-93646382D01*
X171100500Y-92703371D01*
X171120185Y-92636332D01*
X171136819Y-92615690D01*
X172615690Y-91136819D01*
X172677013Y-91103334D01*
X172703371Y-91100500D01*
X173048313Y-91100500D01*
X173115352Y-91120185D01*
G37*
%TD.AperFunction*%
%TA.AperFunction,Conductor*%
G36*
X168789767Y-88036412D02*
G01*
X168818834Y-88038491D01*
X168823801Y-88042209D01*
X168829919Y-88043252D01*
X168851441Y-88062901D01*
X168874767Y-88080363D01*
X168876935Y-88086176D01*
X168881519Y-88090361D01*
X168889001Y-88118526D01*
X168899184Y-88145827D01*
X168899500Y-88154673D01*
X168899500Y-88413330D01*
X168899499Y-88413348D01*
X168899499Y-88579054D01*
X168899498Y-88579054D01*
X168899499Y-88579057D01*
X168940423Y-88731785D01*
X168947260Y-88743627D01*
X169019477Y-88868712D01*
X169019481Y-88868717D01*
X169138349Y-88987585D01*
X169138354Y-88987589D01*
X170131284Y-89980520D01*
X170131286Y-89980521D01*
X170131290Y-89980524D01*
X170202986Y-90021917D01*
X170268216Y-90059577D01*
X170420943Y-90100501D01*
X170420945Y-90100501D01*
X170586654Y-90100501D01*
X170586670Y-90100500D01*
X171654177Y-90100500D01*
X171721216Y-90120185D01*
X171766971Y-90172989D01*
X171776915Y-90242147D01*
X171747890Y-90305703D01*
X171741858Y-90312181D01*
X170287584Y-91766455D01*
X170226261Y-91799940D01*
X170199903Y-91802774D01*
X169894927Y-91802774D01*
X169827888Y-91783089D01*
X169807246Y-91766455D01*
X167475476Y-89434685D01*
X167475108Y-89434011D01*
X167474439Y-89433636D01*
X167458386Y-89403388D01*
X167441991Y-89373362D01*
X167442045Y-89372596D01*
X167441686Y-89371919D01*
X167444532Y-89337826D01*
X167446975Y-89303670D01*
X167447456Y-89302800D01*
X167447499Y-89302292D01*
X167464781Y-89271518D01*
X167479772Y-89251981D01*
X167505197Y-89229692D01*
X167504100Y-89228262D01*
X167534366Y-89205037D01*
X167600584Y-89154226D01*
X167600588Y-89154221D01*
X167600593Y-89154218D01*
X167759986Y-88994825D01*
X167759989Y-88994820D01*
X167759994Y-88994816D01*
X167829081Y-88904781D01*
X167834030Y-88898332D01*
X167836475Y-88900208D01*
X167859530Y-88877153D01*
X167857654Y-88874708D01*
X167887920Y-88851483D01*
X167954138Y-88800672D01*
X167954142Y-88800667D01*
X167954147Y-88800664D01*
X168113540Y-88641271D01*
X168113543Y-88641266D01*
X168113548Y-88641262D01*
X168182635Y-88551227D01*
X168187584Y-88544778D01*
X168190006Y-88546636D01*
X168213065Y-88523577D01*
X168211207Y-88521155D01*
X168241473Y-88497930D01*
X168307691Y-88447119D01*
X168307695Y-88447114D01*
X168307700Y-88447111D01*
X168467093Y-88287718D01*
X168467096Y-88287713D01*
X168467101Y-88287709D01*
X168517912Y-88221491D01*
X168541137Y-88191225D01*
X168542528Y-88192292D01*
X168561036Y-88170459D01*
X168569843Y-88163218D01*
X168571209Y-88162653D01*
X168661244Y-88093566D01*
X168692084Y-88062725D01*
X168696755Y-88058886D01*
X168723566Y-88047472D01*
X168749142Y-88033507D01*
X168755332Y-88033949D01*
X168761042Y-88031519D01*
X168789767Y-88036412D01*
G37*
%TD.AperFunction*%
%TA.AperFunction,Conductor*%
G36*
X170379614Y-87166292D02*
G01*
X170399714Y-87165455D01*
X170432212Y-87169733D01*
X170496107Y-87198000D01*
X170534577Y-87256325D01*
X170538963Y-87276485D01*
X170543241Y-87308977D01*
X170532476Y-87378013D01*
X170511738Y-87407504D01*
X170511836Y-87408993D01*
X170578036Y-87459789D01*
X170600329Y-87485214D01*
X170601757Y-87484119D01*
X170675792Y-87580602D01*
X170675800Y-87580611D01*
X170835193Y-87740004D01*
X170835201Y-87740011D01*
X170835202Y-87740012D01*
X170861393Y-87760109D01*
X170931686Y-87814048D01*
X170929812Y-87816489D01*
X170952878Y-87839539D01*
X170955311Y-87837673D01*
X171029346Y-87934156D01*
X171029354Y-87934165D01*
X171188747Y-88093558D01*
X171188755Y-88093565D01*
X171285239Y-88167601D01*
X171283365Y-88170042D01*
X171306431Y-88193092D01*
X171308864Y-88191226D01*
X171382899Y-88287709D01*
X171382907Y-88287718D01*
X171542300Y-88447111D01*
X171542308Y-88447118D01*
X171638792Y-88521154D01*
X171637781Y-88522470D01*
X171658490Y-88539770D01*
X171666590Y-88549357D01*
X171667365Y-88551227D01*
X171736452Y-88641262D01*
X171786683Y-88691493D01*
X171790045Y-88695472D01*
X171802144Y-88722863D01*
X171816493Y-88749142D01*
X171816110Y-88754484D01*
X171818275Y-88759384D01*
X171813644Y-88788966D01*
X171811509Y-88818834D01*
X171808299Y-88823121D01*
X171807471Y-88828413D01*
X171787580Y-88850797D01*
X171769637Y-88874767D01*
X171764619Y-88876638D01*
X171761061Y-88880643D01*
X171732226Y-88888720D01*
X171704173Y-88899184D01*
X171695327Y-88899500D01*
X170800098Y-88899500D01*
X170733059Y-88879815D01*
X170712417Y-88863181D01*
X170136819Y-88287583D01*
X170103334Y-88226260D01*
X170100500Y-88199902D01*
X170100500Y-87302546D01*
X170120185Y-87235507D01*
X170172989Y-87189752D01*
X170213509Y-87179034D01*
X170372541Y-87164882D01*
X170379614Y-87166292D01*
G37*
%TD.AperFunction*%
%TA.AperFunction,Conductor*%
G36*
X164235021Y-77614822D02*
G01*
X164265008Y-77621346D01*
X164270023Y-77625100D01*
X164272620Y-77625863D01*
X164293262Y-77642497D01*
X164363181Y-77712416D01*
X164396666Y-77773739D01*
X164399500Y-77800097D01*
X164399500Y-85250903D01*
X164379815Y-85317942D01*
X164327011Y-85363697D01*
X164257853Y-85373641D01*
X164194297Y-85344616D01*
X164187819Y-85338584D01*
X163113268Y-84264033D01*
X163113266Y-84264030D01*
X162994395Y-84145159D01*
X162994394Y-84145158D01*
X162894121Y-84087266D01*
X162894120Y-84087265D01*
X162857461Y-84066100D01*
X162801559Y-84051121D01*
X162704735Y-84025177D01*
X162546621Y-84025177D01*
X162539025Y-84025177D01*
X162539009Y-84025178D01*
X162185719Y-84025178D01*
X162118680Y-84005493D01*
X162075235Y-83957473D01*
X162055052Y-83917863D01*
X162055051Y-83917862D01*
X161930109Y-83745891D01*
X161779786Y-83595568D01*
X161607820Y-83470629D01*
X161607115Y-83470269D01*
X161599054Y-83466163D01*
X161548259Y-83418190D01*
X161531463Y-83350370D01*
X161553999Y-83284234D01*
X161599054Y-83245193D01*
X161607816Y-83240729D01*
X161635347Y-83220727D01*
X161779786Y-83115787D01*
X161779788Y-83115784D01*
X161779792Y-83115782D01*
X161930104Y-82965470D01*
X161930106Y-82965466D01*
X161930109Y-82965464D01*
X162055048Y-82793498D01*
X162055047Y-82793498D01*
X162055051Y-82793494D01*
X162151557Y-82604090D01*
X162217246Y-82401921D01*
X162250500Y-82191965D01*
X162250500Y-81979391D01*
X162217246Y-81769435D01*
X162151557Y-81567266D01*
X162055051Y-81377862D01*
X162055049Y-81377859D01*
X162055048Y-81377857D01*
X161930109Y-81205891D01*
X161779786Y-81055568D01*
X161607817Y-80930627D01*
X161598504Y-80925882D01*
X161547707Y-80877908D01*
X161530912Y-80810087D01*
X161553449Y-80743952D01*
X161598507Y-80704910D01*
X161607555Y-80700300D01*
X161661716Y-80660948D01*
X161661717Y-80660948D01*
X161029408Y-80028640D01*
X161092993Y-80011603D01*
X161207007Y-79945777D01*
X161300099Y-79852685D01*
X161365925Y-79738671D01*
X161382962Y-79675086D01*
X162015270Y-80307395D01*
X162015270Y-80307394D01*
X162054622Y-80253232D01*
X162151095Y-80063895D01*
X162216757Y-79861808D01*
X162216757Y-79861805D01*
X162250000Y-79651924D01*
X162250000Y-79439431D01*
X162216757Y-79229550D01*
X162216757Y-79229547D01*
X162151095Y-79027460D01*
X162054624Y-78838127D01*
X162015270Y-78783960D01*
X162015269Y-78783960D01*
X161382962Y-79416268D01*
X161365925Y-79352685D01*
X161300099Y-79238671D01*
X161207007Y-79145579D01*
X161092993Y-79079753D01*
X161029409Y-79062715D01*
X161661716Y-78430406D01*
X161607547Y-78391051D01*
X161607547Y-78391050D01*
X161598500Y-78386441D01*
X161547706Y-78338466D01*
X161530912Y-78270644D01*
X161553451Y-78204510D01*
X161598508Y-78165471D01*
X161607816Y-78160729D01*
X161687007Y-78103193D01*
X161779786Y-78035787D01*
X161779788Y-78035784D01*
X161779792Y-78035782D01*
X161930104Y-77885470D01*
X161930106Y-77885466D01*
X161930109Y-77885464D01*
X162029447Y-77748735D01*
X162055051Y-77713494D01*
X162055600Y-77712416D01*
X162075235Y-77673883D01*
X162123209Y-77623087D01*
X162185719Y-77606178D01*
X164205581Y-77606178D01*
X164235021Y-77614822D01*
G37*
%TD.AperFunction*%
%TA.AperFunction,Conductor*%
G36*
X159468835Y-62482914D02*
G01*
X159524768Y-62524786D01*
X159549185Y-62590250D01*
X159549501Y-62599096D01*
X159549501Y-62663549D01*
X159555908Y-62723161D01*
X159606202Y-62858006D01*
X159606206Y-62858013D01*
X159692452Y-62973222D01*
X159692455Y-62973225D01*
X159807664Y-63059471D01*
X159807671Y-63059475D01*
X159939082Y-63108488D01*
X159995016Y-63150359D01*
X160019433Y-63215823D01*
X160004582Y-63284096D01*
X159983431Y-63312351D01*
X159869889Y-63425893D01*
X159744951Y-63597857D01*
X159648444Y-63787263D01*
X159582753Y-63989438D01*
X159549500Y-64199391D01*
X159549500Y-64411964D01*
X159582753Y-64621917D01*
X159582753Y-64621919D01*
X159582754Y-64621921D01*
X159641945Y-64804092D01*
X159648444Y-64824092D01*
X159744951Y-65013498D01*
X159869890Y-65185464D01*
X160020213Y-65335787D01*
X160192182Y-65460728D01*
X160200946Y-65465194D01*
X160251742Y-65513169D01*
X160268536Y-65580990D01*
X160245998Y-65647125D01*
X160200946Y-65686162D01*
X160192182Y-65690627D01*
X160020213Y-65815568D01*
X159869890Y-65965891D01*
X159744951Y-66137857D01*
X159648444Y-66327263D01*
X159582753Y-66529438D01*
X159549500Y-66739391D01*
X159549500Y-66951964D01*
X159579585Y-67141917D01*
X159582754Y-67161921D01*
X159641945Y-67344092D01*
X159648444Y-67364092D01*
X159744951Y-67553498D01*
X159869890Y-67725464D01*
X160020213Y-67875787D01*
X160192182Y-68000728D01*
X160200946Y-68005194D01*
X160251742Y-68053169D01*
X160268536Y-68120990D01*
X160245998Y-68187125D01*
X160200946Y-68226162D01*
X160192182Y-68230627D01*
X160020213Y-68355568D01*
X159869890Y-68505891D01*
X159744951Y-68677857D01*
X159648444Y-68867263D01*
X159582753Y-69069438D01*
X159549500Y-69279391D01*
X159549500Y-69491964D01*
X159579586Y-69681923D01*
X159582754Y-69701921D01*
X159630933Y-69850201D01*
X159648444Y-69904092D01*
X159744951Y-70093498D01*
X159869890Y-70265464D01*
X160020213Y-70415787D01*
X160192182Y-70540728D01*
X160200946Y-70545194D01*
X160251742Y-70593169D01*
X160268536Y-70660990D01*
X160245998Y-70727125D01*
X160200946Y-70766162D01*
X160192182Y-70770627D01*
X160020213Y-70895568D01*
X159869890Y-71045891D01*
X159744951Y-71217857D01*
X159648444Y-71407263D01*
X159582753Y-71609438D01*
X159549500Y-71819391D01*
X159549500Y-72031964D01*
X159581303Y-72232763D01*
X159582754Y-72241921D01*
X159641945Y-72424092D01*
X159648444Y-72444092D01*
X159744951Y-72633498D01*
X159869890Y-72805464D01*
X160020213Y-72955787D01*
X160192182Y-73080728D01*
X160200946Y-73085194D01*
X160251742Y-73133169D01*
X160268536Y-73200990D01*
X160245998Y-73267125D01*
X160200946Y-73306162D01*
X160192182Y-73310627D01*
X160020213Y-73435568D01*
X159869890Y-73585891D01*
X159744951Y-73757857D01*
X159648444Y-73947263D01*
X159582753Y-74149438D01*
X159549500Y-74359391D01*
X159549500Y-74571964D01*
X159579585Y-74761917D01*
X159582754Y-74781921D01*
X159641945Y-74964092D01*
X159648444Y-74984092D01*
X159744951Y-75173498D01*
X159869890Y-75345464D01*
X160020213Y-75495787D01*
X160192182Y-75620728D01*
X160200946Y-75625194D01*
X160251742Y-75673169D01*
X160268536Y-75740990D01*
X160245998Y-75807125D01*
X160200946Y-75846162D01*
X160192182Y-75850627D01*
X160020213Y-75975568D01*
X159869890Y-76125891D01*
X159744951Y-76297857D01*
X159648444Y-76487263D01*
X159582753Y-76689438D01*
X159549500Y-76899391D01*
X159549500Y-77111964D01*
X159579585Y-77301917D01*
X159582754Y-77321921D01*
X159641945Y-77504092D01*
X159648444Y-77524092D01*
X159744951Y-77713498D01*
X159869890Y-77885464D01*
X160020213Y-78035787D01*
X160192179Y-78160726D01*
X160192181Y-78160727D01*
X160192184Y-78160729D01*
X160201493Y-78165472D01*
X160252290Y-78213444D01*
X160269087Y-78281265D01*
X160246552Y-78347400D01*
X160201505Y-78386438D01*
X160192446Y-78391054D01*
X160192440Y-78391058D01*
X160138282Y-78430405D01*
X160138282Y-78430406D01*
X160770591Y-79062715D01*
X160707007Y-79079753D01*
X160592993Y-79145579D01*
X160499901Y-79238671D01*
X160434075Y-79352685D01*
X160417037Y-79416269D01*
X159784728Y-78783960D01*
X159784727Y-78783960D01*
X159745380Y-78838117D01*
X159648904Y-79027460D01*
X159583242Y-79229547D01*
X159583242Y-79229550D01*
X159550000Y-79439431D01*
X159550000Y-79651924D01*
X159583242Y-79861805D01*
X159583242Y-79861808D01*
X159648904Y-80063895D01*
X159745375Y-80253228D01*
X159784728Y-80307394D01*
X160417037Y-79675086D01*
X160434075Y-79738671D01*
X160499901Y-79852685D01*
X160592993Y-79945777D01*
X160707007Y-80011603D01*
X160770590Y-80028640D01*
X160138282Y-80660947D01*
X160138282Y-80660948D01*
X160192452Y-80700304D01*
X160192451Y-80700304D01*
X160201495Y-80704912D01*
X160252292Y-80752886D01*
X160269087Y-80820707D01*
X160246550Y-80886842D01*
X160201499Y-80925880D01*
X160192182Y-80930627D01*
X160020213Y-81055568D01*
X159869894Y-81205887D01*
X159822773Y-81270744D01*
X159767442Y-81313409D01*
X159697829Y-81319388D01*
X159636034Y-81286782D01*
X159634774Y-81285539D01*
X158636819Y-80287584D01*
X158603334Y-80226261D01*
X158600500Y-80199903D01*
X158600500Y-63300097D01*
X158620185Y-63233058D01*
X158636819Y-63212416D01*
X159337820Y-62511415D01*
X159399143Y-62477930D01*
X159468835Y-62482914D01*
G37*
%TD.AperFunction*%
%TA.AperFunction,Conductor*%
G36*
X181308363Y-57520185D02*
G01*
X181329005Y-57536819D01*
X182963181Y-59170995D01*
X182996666Y-59232318D01*
X182999500Y-59258676D01*
X182999500Y-121741324D01*
X182979815Y-121808363D01*
X182963181Y-121829005D01*
X181329005Y-123463181D01*
X181267682Y-123496666D01*
X181241324Y-123499500D01*
X158758676Y-123499500D01*
X158691637Y-123479815D01*
X158670995Y-123463181D01*
X157036819Y-121829005D01*
X157003334Y-121767682D01*
X157000500Y-121741324D01*
X157000500Y-80579054D01*
X157399498Y-80579054D01*
X157399499Y-80579057D01*
X157440423Y-80731785D01*
X157466663Y-80777234D01*
X157519477Y-80868712D01*
X157519481Y-80868717D01*
X157638349Y-80987585D01*
X157638355Y-80987590D01*
X159100817Y-82450052D01*
X159100827Y-82450063D01*
X159105157Y-82454393D01*
X159105158Y-82454394D01*
X159216962Y-82566198D01*
X159216964Y-82566199D01*
X159216968Y-82566202D01*
X159303125Y-82615944D01*
X159353894Y-82645255D01*
X159465697Y-82675212D01*
X159506620Y-82686178D01*
X159506621Y-82686178D01*
X159619486Y-82686178D01*
X159624671Y-82686614D01*
X159652598Y-82697429D01*
X159681320Y-82705863D01*
X159685065Y-82710002D01*
X159689825Y-82711846D01*
X159702678Y-82729470D01*
X159724765Y-82753883D01*
X159744947Y-82793492D01*
X159744948Y-82793493D01*
X159869890Y-82965464D01*
X160020213Y-83115787D01*
X160192182Y-83240728D01*
X160200946Y-83245194D01*
X160251742Y-83293169D01*
X160268536Y-83360990D01*
X160245998Y-83427125D01*
X160200946Y-83466162D01*
X160192182Y-83470627D01*
X160020213Y-83595568D01*
X159869890Y-83745891D01*
X159744951Y-83917857D01*
X159648444Y-84107263D01*
X159582753Y-84309438D01*
X159549500Y-84519391D01*
X159549500Y-84731964D01*
X159582516Y-84940423D01*
X159582754Y-84941921D01*
X159648063Y-85142922D01*
X159648444Y-85144092D01*
X159744951Y-85333498D01*
X159869890Y-85505464D01*
X160020213Y-85655787D01*
X160192182Y-85780728D01*
X160200946Y-85785194D01*
X160251742Y-85833169D01*
X160268536Y-85900990D01*
X160245998Y-85967125D01*
X160200946Y-86006162D01*
X160192182Y-86010627D01*
X160020213Y-86135568D01*
X159869890Y-86285891D01*
X159744951Y-86457857D01*
X159648444Y-86647263D01*
X159582753Y-86849438D01*
X159549500Y-87059391D01*
X159549500Y-87271964D01*
X159579585Y-87461917D01*
X159582754Y-87481921D01*
X159644081Y-87670666D01*
X159648444Y-87684092D01*
X159744951Y-87873498D01*
X159869890Y-88045464D01*
X160020213Y-88195787D01*
X160192182Y-88320728D01*
X160200946Y-88325194D01*
X160251742Y-88373169D01*
X160268536Y-88440990D01*
X160245998Y-88507125D01*
X160200946Y-88546162D01*
X160192182Y-88550627D01*
X160020213Y-88675568D01*
X159869890Y-88825891D01*
X159744951Y-88997857D01*
X159648444Y-89187263D01*
X159582753Y-89389438D01*
X159549500Y-89599391D01*
X159549500Y-89811964D01*
X159579585Y-90001917D01*
X159582754Y-90021921D01*
X159645452Y-90214886D01*
X159648444Y-90224092D01*
X159744951Y-90413498D01*
X159869890Y-90585464D01*
X160020213Y-90735787D01*
X160192182Y-90860728D01*
X160200946Y-90865194D01*
X160251742Y-90913169D01*
X160268536Y-90980990D01*
X160245998Y-91047125D01*
X160200946Y-91086162D01*
X160192182Y-91090627D01*
X160020213Y-91215568D01*
X159869890Y-91365891D01*
X159744951Y-91537857D01*
X159648444Y-91727263D01*
X159582753Y-91929438D01*
X159549500Y-92139391D01*
X159549500Y-92351964D01*
X159579585Y-92541918D01*
X159582754Y-92561921D01*
X159643486Y-92748835D01*
X159648444Y-92764092D01*
X159744951Y-92953498D01*
X159869890Y-93125464D01*
X160020213Y-93275787D01*
X160192182Y-93400728D01*
X160200946Y-93405194D01*
X160251742Y-93453169D01*
X160268536Y-93520990D01*
X160245998Y-93587125D01*
X160200946Y-93626162D01*
X160192182Y-93630627D01*
X160020213Y-93755568D01*
X159869890Y-93905891D01*
X159744951Y-94077857D01*
X159648444Y-94267263D01*
X159582753Y-94469438D01*
X159549500Y-94679391D01*
X159549500Y-94891964D01*
X159579585Y-95081917D01*
X159582754Y-95101921D01*
X159641945Y-95284092D01*
X159648444Y-95304092D01*
X159744951Y-95493498D01*
X159869890Y-95665464D01*
X160020213Y-95815787D01*
X160192182Y-95940728D01*
X160200946Y-95945194D01*
X160251742Y-95993169D01*
X160268536Y-96060990D01*
X160245998Y-96127125D01*
X160200946Y-96166162D01*
X160192182Y-96170627D01*
X160020213Y-96295568D01*
X159869890Y-96445891D01*
X159744951Y-96617857D01*
X159648444Y-96807263D01*
X159582753Y-97009438D01*
X159549500Y-97219391D01*
X159549500Y-97431964D01*
X159579585Y-97621917D01*
X159582754Y-97641921D01*
X159648185Y-97843297D01*
X159648444Y-97844092D01*
X159744951Y-98033498D01*
X159869890Y-98205464D01*
X160020213Y-98355787D01*
X160192182Y-98480728D01*
X160200946Y-98485194D01*
X160251742Y-98533169D01*
X160268536Y-98600990D01*
X160245998Y-98667125D01*
X160200946Y-98706162D01*
X160192182Y-98710627D01*
X160020213Y-98835568D01*
X159869890Y-98985891D01*
X159744951Y-99157857D01*
X159648444Y-99347263D01*
X159582753Y-99549438D01*
X159549500Y-99759391D01*
X159549500Y-99971964D01*
X159579585Y-100161917D01*
X159582754Y-100181921D01*
X159645917Y-100376317D01*
X159648444Y-100384092D01*
X159744951Y-100573498D01*
X159869890Y-100745464D01*
X160020213Y-100895787D01*
X160192182Y-101020728D01*
X160200946Y-101025194D01*
X160251742Y-101073169D01*
X160268536Y-101140990D01*
X160245998Y-101207125D01*
X160200946Y-101246162D01*
X160192182Y-101250627D01*
X160020213Y-101375568D01*
X159869890Y-101525891D01*
X159744951Y-101697857D01*
X159648444Y-101887263D01*
X159582753Y-102089438D01*
X159563402Y-102211619D01*
X159549500Y-102299391D01*
X159549500Y-102511965D01*
X159582754Y-102721921D01*
X159641944Y-102904089D01*
X159648444Y-102924092D01*
X159744951Y-103113498D01*
X159869890Y-103285464D01*
X160020213Y-103435787D01*
X160192182Y-103560728D01*
X160200946Y-103565194D01*
X160251742Y-103613169D01*
X160268536Y-103680990D01*
X160245998Y-103747125D01*
X160200946Y-103786162D01*
X160192182Y-103790627D01*
X160020213Y-103915568D01*
X159869890Y-104065891D01*
X159744951Y-104237857D01*
X159648444Y-104427263D01*
X159582753Y-104629438D01*
X159582753Y-104629440D01*
X159549500Y-104839391D01*
X159549500Y-105051965D01*
X159553031Y-105074260D01*
X159579585Y-105241917D01*
X159582754Y-105261921D01*
X159645917Y-105456317D01*
X159648444Y-105464092D01*
X159744951Y-105653498D01*
X159869890Y-105825464D01*
X160020213Y-105975787D01*
X160192182Y-106100728D01*
X160200946Y-106105194D01*
X160251742Y-106153169D01*
X160268536Y-106220990D01*
X160245998Y-106287125D01*
X160200946Y-106326162D01*
X160192182Y-106330627D01*
X160020213Y-106455568D01*
X159869890Y-106605891D01*
X159744951Y-106777857D01*
X159648444Y-106967263D01*
X159582753Y-107169438D01*
X159549500Y-107379391D01*
X159549500Y-107591964D01*
X159579585Y-107781917D01*
X159582754Y-107801921D01*
X159641945Y-107984092D01*
X159648444Y-108004092D01*
X159744951Y-108193498D01*
X159869890Y-108365464D01*
X160020213Y-108515787D01*
X160192182Y-108640728D01*
X160200946Y-108645194D01*
X160251742Y-108693169D01*
X160268536Y-108760990D01*
X160245998Y-108827125D01*
X160200946Y-108866162D01*
X160192182Y-108870627D01*
X160020213Y-108995568D01*
X159869890Y-109145891D01*
X159744951Y-109317857D01*
X159648444Y-109507263D01*
X159582753Y-109709438D01*
X159549500Y-109919391D01*
X159549500Y-110131964D01*
X159579585Y-110321917D01*
X159582754Y-110341921D01*
X159645917Y-110536317D01*
X159648444Y-110544092D01*
X159744951Y-110733498D01*
X159869890Y-110905464D01*
X160020213Y-111055787D01*
X160192182Y-111180728D01*
X160200946Y-111185194D01*
X160251742Y-111233169D01*
X160268536Y-111300990D01*
X160245998Y-111367125D01*
X160200946Y-111406162D01*
X160192182Y-111410627D01*
X160020213Y-111535568D01*
X159869890Y-111685891D01*
X159744951Y-111857857D01*
X159648444Y-112047263D01*
X159582753Y-112249438D01*
X159582753Y-112249440D01*
X159549500Y-112459391D01*
X159549500Y-112671965D01*
X159551099Y-112682058D01*
X159579585Y-112861917D01*
X159582754Y-112881921D01*
X159645917Y-113076317D01*
X159648444Y-113084092D01*
X159744951Y-113273498D01*
X159869890Y-113445464D01*
X160020213Y-113595787D01*
X160192182Y-113720728D01*
X160200946Y-113725194D01*
X160251742Y-113773169D01*
X160268536Y-113840990D01*
X160245998Y-113907125D01*
X160200946Y-113946162D01*
X160192182Y-113950627D01*
X160020213Y-114075568D01*
X159869890Y-114225891D01*
X159744951Y-114397857D01*
X159648444Y-114587263D01*
X159582753Y-114789438D01*
X159549500Y-114999391D01*
X159549500Y-115211964D01*
X159579585Y-115401918D01*
X159582754Y-115421921D01*
X159645918Y-115616320D01*
X159648444Y-115624092D01*
X159744951Y-115813498D01*
X159869890Y-115985464D01*
X160020213Y-116135787D01*
X160192179Y-116260726D01*
X160192181Y-116260727D01*
X160192184Y-116260729D01*
X160201493Y-116265472D01*
X160252290Y-116313444D01*
X160269087Y-116381265D01*
X160246552Y-116447400D01*
X160201505Y-116486438D01*
X160192446Y-116491054D01*
X160192440Y-116491058D01*
X160138282Y-116530405D01*
X160138282Y-116530406D01*
X160770591Y-117162715D01*
X160707007Y-117179753D01*
X160592993Y-117245579D01*
X160499901Y-117338671D01*
X160434075Y-117452685D01*
X160417037Y-117516269D01*
X159784728Y-116883960D01*
X159784727Y-116883960D01*
X159745380Y-116938117D01*
X159648904Y-117127460D01*
X159583242Y-117329547D01*
X159583242Y-117329550D01*
X159550000Y-117539431D01*
X159550000Y-117751924D01*
X159583242Y-117961805D01*
X159583242Y-117961808D01*
X159648904Y-118163895D01*
X159745375Y-118353228D01*
X159784728Y-118407394D01*
X160417037Y-117775086D01*
X160434075Y-117838671D01*
X160499901Y-117952685D01*
X160592993Y-118045777D01*
X160707007Y-118111603D01*
X160770590Y-118128640D01*
X160138282Y-118760947D01*
X160138282Y-118760948D01*
X160192452Y-118800304D01*
X160192451Y-118800304D01*
X160201495Y-118804912D01*
X160252292Y-118852886D01*
X160269087Y-118920707D01*
X160246550Y-118986842D01*
X160201499Y-119025880D01*
X160192182Y-119030627D01*
X160020213Y-119155568D01*
X159869890Y-119305891D01*
X159744951Y-119477857D01*
X159648444Y-119667263D01*
X159582753Y-119869438D01*
X159582753Y-119869440D01*
X159549500Y-120079391D01*
X159549500Y-120291965D01*
X159582754Y-120501921D01*
X159645917Y-120696317D01*
X159648444Y-120704092D01*
X159744951Y-120893498D01*
X159869890Y-121065464D01*
X160020213Y-121215787D01*
X160192179Y-121340726D01*
X160192181Y-121340727D01*
X160192184Y-121340729D01*
X160381588Y-121437235D01*
X160583757Y-121502924D01*
X160793713Y-121536178D01*
X160793714Y-121536178D01*
X161006286Y-121536178D01*
X161006287Y-121536178D01*
X161216243Y-121502924D01*
X161418412Y-121437235D01*
X161607816Y-121340729D01*
X161721666Y-121258013D01*
X161779786Y-121215787D01*
X161779788Y-121215784D01*
X161779792Y-121215782D01*
X161930104Y-121065470D01*
X161930106Y-121065466D01*
X161930109Y-121065464D01*
X162055048Y-120893498D01*
X162055047Y-120893498D01*
X162055051Y-120893494D01*
X162151557Y-120704090D01*
X162217246Y-120501921D01*
X162250500Y-120291965D01*
X162250500Y-120079391D01*
X162217246Y-119869435D01*
X162203506Y-119827151D01*
X162201512Y-119757313D01*
X162233755Y-119701156D01*
X169980520Y-111954394D01*
X170059577Y-111817462D01*
X170100501Y-111664735D01*
X170100501Y-111506620D01*
X170100501Y-111499025D01*
X170100500Y-111499007D01*
X170100500Y-96516402D01*
X170100501Y-96516389D01*
X170100501Y-96348287D01*
X170100501Y-96348285D01*
X170074570Y-96251511D01*
X170076233Y-96181665D01*
X170115395Y-96123802D01*
X170179623Y-96096297D01*
X170248525Y-96107883D01*
X170282026Y-96131739D01*
X170958939Y-96808652D01*
X170958946Y-96808658D01*
X171048978Y-96877742D01*
X171048981Y-96877744D01*
X171111141Y-96903491D01*
X171151370Y-96930371D01*
X171363181Y-97142182D01*
X171396666Y-97203505D01*
X171399500Y-97229863D01*
X171399500Y-114913330D01*
X171399499Y-114913348D01*
X171399499Y-115079054D01*
X171399498Y-115079054D01*
X171440423Y-115231785D01*
X171469358Y-115281900D01*
X171469359Y-115281904D01*
X171469360Y-115281904D01*
X171519479Y-115368714D01*
X171519481Y-115368717D01*
X171638349Y-115487585D01*
X171638355Y-115487590D01*
X176680817Y-120530052D01*
X176680827Y-120530063D01*
X176685157Y-120534393D01*
X176685158Y-120534394D01*
X176796962Y-120646198D01*
X176883773Y-120696317D01*
X176883775Y-120696319D01*
X176921829Y-120718289D01*
X176933893Y-120725255D01*
X177086621Y-120766179D01*
X177086624Y-120766179D01*
X177252331Y-120766179D01*
X177252347Y-120766178D01*
X177525501Y-120766178D01*
X177592540Y-120785863D01*
X177638295Y-120838667D01*
X177649501Y-120890178D01*
X177649501Y-121063554D01*
X177655908Y-121123161D01*
X177706202Y-121258006D01*
X177706206Y-121258013D01*
X177792452Y-121373222D01*
X177792455Y-121373225D01*
X177907664Y-121459471D01*
X177907671Y-121459475D01*
X178042517Y-121509769D01*
X178042516Y-121509769D01*
X178049444Y-121510513D01*
X178102127Y-121516178D01*
X179897872Y-121516177D01*
X179957483Y-121509769D01*
X180092331Y-121459474D01*
X180207546Y-121373224D01*
X180293796Y-121258009D01*
X180344091Y-121123161D01*
X180350500Y-121063551D01*
X180350499Y-119267806D01*
X180344091Y-119208195D01*
X180324462Y-119155568D01*
X180293797Y-119073349D01*
X180293793Y-119073342D01*
X180207547Y-118958133D01*
X180207544Y-118958130D01*
X180092335Y-118871884D01*
X180092328Y-118871880D01*
X179960917Y-118822867D01*
X179904983Y-118780996D01*
X179880566Y-118715531D01*
X179895418Y-118647258D01*
X179916563Y-118619010D01*
X180030104Y-118505470D01*
X180155051Y-118333494D01*
X180251557Y-118144090D01*
X180317246Y-117941921D01*
X180350500Y-117731965D01*
X180350500Y-117519391D01*
X180317246Y-117309435D01*
X180251557Y-117107266D01*
X180155051Y-116917862D01*
X180155049Y-116917859D01*
X180155048Y-116917857D01*
X180030109Y-116745891D01*
X179879786Y-116595568D01*
X179707817Y-116470627D01*
X179699054Y-116466162D01*
X179648258Y-116418187D01*
X179631464Y-116350366D01*
X179654002Y-116284231D01*
X179699058Y-116245192D01*
X179707816Y-116240730D01*
X179852266Y-116135782D01*
X179879786Y-116115788D01*
X179879788Y-116115785D01*
X179879792Y-116115783D01*
X180030104Y-115965471D01*
X180030106Y-115965467D01*
X180030109Y-115965465D01*
X180155048Y-115793499D01*
X180155047Y-115793499D01*
X180155051Y-115793495D01*
X180251557Y-115604091D01*
X180317246Y-115401922D01*
X180350500Y-115191966D01*
X180350500Y-114979392D01*
X180317246Y-114769436D01*
X180251557Y-114567267D01*
X180155051Y-114377863D01*
X180155049Y-114377860D01*
X180155048Y-114377858D01*
X180030109Y-114205892D01*
X179879786Y-114055569D01*
X179707817Y-113930628D01*
X179699052Y-113926162D01*
X179648257Y-113878187D01*
X179631462Y-113810366D01*
X179654000Y-113744231D01*
X179699056Y-113705192D01*
X179707816Y-113700729D01*
X179707818Y-113700727D01*
X179707821Y-113700726D01*
X179879786Y-113575787D01*
X179879788Y-113575784D01*
X179879792Y-113575782D01*
X180030104Y-113425470D01*
X180030106Y-113425466D01*
X180030109Y-113425464D01*
X180155048Y-113253498D01*
X180155047Y-113253498D01*
X180155051Y-113253494D01*
X180251557Y-113064090D01*
X180317246Y-112861921D01*
X180350500Y-112651965D01*
X180350500Y-112439391D01*
X180317246Y-112229435D01*
X180251557Y-112027266D01*
X180155051Y-111837862D01*
X180155049Y-111837859D01*
X180155048Y-111837857D01*
X180030109Y-111665891D01*
X179879786Y-111515568D01*
X179707820Y-111390629D01*
X179707115Y-111390269D01*
X179699054Y-111386163D01*
X179648259Y-111338190D01*
X179631463Y-111270370D01*
X179653999Y-111204234D01*
X179699054Y-111165193D01*
X179707816Y-111160729D01*
X179729789Y-111144764D01*
X179879786Y-111035787D01*
X179879788Y-111035784D01*
X179879792Y-111035782D01*
X180030104Y-110885470D01*
X180030106Y-110885466D01*
X180030109Y-110885464D01*
X180155048Y-110713498D01*
X180155047Y-110713498D01*
X180155051Y-110713494D01*
X180251557Y-110524090D01*
X180317246Y-110321921D01*
X180350500Y-110111965D01*
X180350500Y-109899391D01*
X180317246Y-109689435D01*
X180251557Y-109487266D01*
X180155051Y-109297862D01*
X180155049Y-109297859D01*
X180155048Y-109297857D01*
X180030109Y-109125891D01*
X179879786Y-108975568D01*
X179707820Y-108850629D01*
X179707115Y-108850269D01*
X179699054Y-108846163D01*
X179648259Y-108798190D01*
X179631463Y-108730370D01*
X179653999Y-108664234D01*
X179699054Y-108625193D01*
X179707816Y-108620729D01*
X179729789Y-108604764D01*
X179879786Y-108495787D01*
X179879788Y-108495784D01*
X179879792Y-108495782D01*
X180030104Y-108345470D01*
X180030106Y-108345466D01*
X180030109Y-108345464D01*
X180155048Y-108173498D01*
X180155047Y-108173498D01*
X180155051Y-108173494D01*
X180251557Y-107984090D01*
X180317246Y-107781921D01*
X180350500Y-107571965D01*
X180350500Y-107359391D01*
X180317246Y-107149435D01*
X180251557Y-106947266D01*
X180155051Y-106757862D01*
X180155049Y-106757859D01*
X180155048Y-106757857D01*
X180030109Y-106585891D01*
X179879786Y-106435568D01*
X179707820Y-106310629D01*
X179707115Y-106310269D01*
X179699054Y-106306163D01*
X179648259Y-106258190D01*
X179631463Y-106190370D01*
X179653999Y-106124234D01*
X179699054Y-106085193D01*
X179707816Y-106080729D01*
X179729789Y-106064764D01*
X179879786Y-105955787D01*
X179879788Y-105955784D01*
X179879792Y-105955782D01*
X180030104Y-105805470D01*
X180030106Y-105805466D01*
X180030109Y-105805464D01*
X180155048Y-105633498D01*
X180155047Y-105633498D01*
X180155051Y-105633494D01*
X180251557Y-105444090D01*
X180317246Y-105241921D01*
X180350500Y-105031965D01*
X180350500Y-104819391D01*
X180317246Y-104609435D01*
X180251557Y-104407266D01*
X180155051Y-104217862D01*
X180155049Y-104217859D01*
X180155048Y-104217857D01*
X180030109Y-104045891D01*
X179879786Y-103895568D01*
X179707817Y-103770627D01*
X179699052Y-103766161D01*
X179648257Y-103718186D01*
X179631462Y-103650365D01*
X179654000Y-103584230D01*
X179699056Y-103545191D01*
X179707816Y-103540728D01*
X179707818Y-103540726D01*
X179707821Y-103540725D01*
X179879786Y-103415786D01*
X179879788Y-103415783D01*
X179879792Y-103415781D01*
X180030104Y-103265469D01*
X180030106Y-103265465D01*
X180030109Y-103265463D01*
X180155048Y-103093497D01*
X180155047Y-103093497D01*
X180155051Y-103093493D01*
X180251557Y-102904089D01*
X180317246Y-102701920D01*
X180350500Y-102491964D01*
X180350500Y-102279390D01*
X180317246Y-102069434D01*
X180251557Y-101867265D01*
X180155051Y-101677861D01*
X180155049Y-101677858D01*
X180155048Y-101677856D01*
X180030109Y-101505890D01*
X179879786Y-101355567D01*
X179707817Y-101230626D01*
X179699054Y-101226161D01*
X179648258Y-101178186D01*
X179631464Y-101110365D01*
X179654002Y-101044230D01*
X179699058Y-101005191D01*
X179707816Y-101000729D01*
X179729789Y-100984764D01*
X179879786Y-100875787D01*
X179879788Y-100875784D01*
X179879792Y-100875782D01*
X180030104Y-100725470D01*
X180030106Y-100725466D01*
X180030109Y-100725464D01*
X180155048Y-100553498D01*
X180155047Y-100553498D01*
X180155051Y-100553494D01*
X180251557Y-100364090D01*
X180317246Y-100161921D01*
X180350500Y-99951965D01*
X180350500Y-99739391D01*
X180317246Y-99529435D01*
X180251557Y-99327266D01*
X180155051Y-99137862D01*
X180155049Y-99137859D01*
X180155048Y-99137857D01*
X180030109Y-98965891D01*
X179879786Y-98815568D01*
X179707820Y-98690629D01*
X179707115Y-98690269D01*
X179699054Y-98686163D01*
X179648259Y-98638190D01*
X179631463Y-98570370D01*
X179653999Y-98504234D01*
X179699054Y-98465193D01*
X179707816Y-98460729D01*
X179729789Y-98444764D01*
X179879786Y-98335787D01*
X179879788Y-98335784D01*
X179879792Y-98335782D01*
X180030104Y-98185470D01*
X180030106Y-98185466D01*
X180030109Y-98185464D01*
X180155048Y-98013498D01*
X180155047Y-98013498D01*
X180155051Y-98013494D01*
X180251557Y-97824090D01*
X180317246Y-97621921D01*
X180350500Y-97411965D01*
X180350500Y-97199391D01*
X180317246Y-96989435D01*
X180251557Y-96787266D01*
X180155051Y-96597862D01*
X180155049Y-96597859D01*
X180155048Y-96597857D01*
X180030109Y-96425891D01*
X179879786Y-96275568D01*
X179707820Y-96150629D01*
X179707115Y-96150269D01*
X179699054Y-96146163D01*
X179648259Y-96098190D01*
X179631463Y-96030370D01*
X179653999Y-95964234D01*
X179699054Y-95925193D01*
X179707816Y-95920729D01*
X179729789Y-95904764D01*
X179879786Y-95795787D01*
X179879788Y-95795784D01*
X179879792Y-95795782D01*
X180030104Y-95645470D01*
X180030106Y-95645466D01*
X180030109Y-95645464D01*
X180155048Y-95473498D01*
X180155047Y-95473498D01*
X180155051Y-95473494D01*
X180251557Y-95284090D01*
X180317246Y-95081921D01*
X180350500Y-94871965D01*
X180350500Y-94659391D01*
X180317246Y-94449435D01*
X180251557Y-94247266D01*
X180155051Y-94057862D01*
X180155049Y-94057859D01*
X180155048Y-94057857D01*
X180030109Y-93885891D01*
X179879786Y-93735568D01*
X179707817Y-93610627D01*
X179699054Y-93606162D01*
X179648258Y-93558187D01*
X179631464Y-93490366D01*
X179654002Y-93424231D01*
X179699058Y-93385192D01*
X179707816Y-93380730D01*
X179832567Y-93290094D01*
X179879786Y-93255788D01*
X179879788Y-93255785D01*
X179879792Y-93255783D01*
X180030104Y-93105471D01*
X180030106Y-93105467D01*
X180030109Y-93105465D01*
X180155048Y-92933499D01*
X180155047Y-92933499D01*
X180155051Y-92933495D01*
X180251557Y-92744091D01*
X180317246Y-92541922D01*
X180350500Y-92331966D01*
X180350500Y-92119392D01*
X180317246Y-91909436D01*
X180251557Y-91707267D01*
X180155051Y-91517863D01*
X180155049Y-91517860D01*
X180155048Y-91517858D01*
X180030109Y-91345892D01*
X179879786Y-91195569D01*
X179707817Y-91070628D01*
X179699052Y-91066162D01*
X179648257Y-91018187D01*
X179631462Y-90950366D01*
X179654000Y-90884231D01*
X179699056Y-90845192D01*
X179707816Y-90840729D01*
X179707818Y-90840727D01*
X179707821Y-90840726D01*
X179879786Y-90715787D01*
X179879788Y-90715784D01*
X179879792Y-90715782D01*
X180030104Y-90565470D01*
X180030106Y-90565466D01*
X180030109Y-90565464D01*
X180155048Y-90393498D01*
X180155047Y-90393498D01*
X180155051Y-90393494D01*
X180251557Y-90204090D01*
X180317246Y-90001921D01*
X180350500Y-89791965D01*
X180350500Y-89579391D01*
X180317246Y-89369435D01*
X180251557Y-89167266D01*
X180155051Y-88977862D01*
X180155049Y-88977859D01*
X180155048Y-88977857D01*
X180030109Y-88805891D01*
X179879786Y-88655568D01*
X179707820Y-88530629D01*
X179707115Y-88530269D01*
X179699054Y-88526163D01*
X179648259Y-88478190D01*
X179631463Y-88410370D01*
X179653999Y-88344234D01*
X179699054Y-88305193D01*
X179707816Y-88300729D01*
X179810315Y-88226260D01*
X179879786Y-88175787D01*
X179879788Y-88175784D01*
X179879792Y-88175782D01*
X180030104Y-88025470D01*
X180030106Y-88025466D01*
X180030109Y-88025464D01*
X180155048Y-87853498D01*
X180155047Y-87853498D01*
X180155051Y-87853494D01*
X180251557Y-87664090D01*
X180317246Y-87461921D01*
X180350500Y-87251965D01*
X180350500Y-87039391D01*
X180317246Y-86829435D01*
X180251557Y-86627266D01*
X180155051Y-86437862D01*
X180155049Y-86437859D01*
X180155048Y-86437857D01*
X180030109Y-86265891D01*
X179879786Y-86115568D01*
X179707820Y-85990629D01*
X179707115Y-85990269D01*
X179699054Y-85986163D01*
X179648259Y-85938190D01*
X179631463Y-85870370D01*
X179653999Y-85804234D01*
X179699054Y-85765193D01*
X179707816Y-85760729D01*
X179729789Y-85744764D01*
X179879786Y-85635787D01*
X179879788Y-85635784D01*
X179879792Y-85635782D01*
X180030104Y-85485470D01*
X180030106Y-85485466D01*
X180030109Y-85485464D01*
X180155048Y-85313498D01*
X180155047Y-85313498D01*
X180155051Y-85313494D01*
X180251557Y-85124090D01*
X180317246Y-84921921D01*
X180350500Y-84711965D01*
X180350500Y-84499391D01*
X180317246Y-84289435D01*
X180251557Y-84087266D01*
X180155051Y-83897862D01*
X180155049Y-83897859D01*
X180155048Y-83897857D01*
X180030109Y-83725891D01*
X179879786Y-83575568D01*
X179707817Y-83450627D01*
X179699054Y-83446162D01*
X179648258Y-83398187D01*
X179631464Y-83330366D01*
X179654002Y-83264231D01*
X179699058Y-83225192D01*
X179707816Y-83220730D01*
X179852266Y-83115782D01*
X179879786Y-83095788D01*
X179879788Y-83095785D01*
X179879792Y-83095783D01*
X180030104Y-82945471D01*
X180030106Y-82945467D01*
X180030109Y-82945465D01*
X180155048Y-82773499D01*
X180155047Y-82773499D01*
X180155051Y-82773495D01*
X180251557Y-82584091D01*
X180317246Y-82381922D01*
X180350500Y-82171966D01*
X180350500Y-81959392D01*
X180317246Y-81749436D01*
X180251557Y-81547267D01*
X180155051Y-81357863D01*
X180155049Y-81357860D01*
X180155048Y-81357858D01*
X180030109Y-81185892D01*
X179879786Y-81035569D01*
X179707820Y-80910630D01*
X179707142Y-80910284D01*
X179699052Y-80906163D01*
X179648257Y-80858191D01*
X179631461Y-80790370D01*
X179653997Y-80724235D01*
X179699052Y-80685193D01*
X179707816Y-80680728D01*
X179735042Y-80660947D01*
X179879786Y-80555786D01*
X179879788Y-80555783D01*
X179879792Y-80555781D01*
X180030104Y-80405469D01*
X180030106Y-80405465D01*
X180030109Y-80405463D01*
X180155048Y-80233497D01*
X180155047Y-80233497D01*
X180155051Y-80233493D01*
X180251557Y-80044089D01*
X180317246Y-79841920D01*
X180350500Y-79631964D01*
X180350500Y-79419390D01*
X180317246Y-79209434D01*
X180251557Y-79007265D01*
X180155051Y-78817861D01*
X180155049Y-78817858D01*
X180155048Y-78817856D01*
X180030109Y-78645890D01*
X179879786Y-78495567D01*
X179707817Y-78370626D01*
X179699054Y-78366161D01*
X179648258Y-78318186D01*
X179631464Y-78250365D01*
X179654002Y-78184230D01*
X179699058Y-78145191D01*
X179707816Y-78140729D01*
X179729789Y-78124764D01*
X179879786Y-78015787D01*
X179879788Y-78015784D01*
X179879792Y-78015782D01*
X180030104Y-77865470D01*
X180030106Y-77865466D01*
X180030109Y-77865464D01*
X180155048Y-77693498D01*
X180155047Y-77693498D01*
X180155051Y-77693494D01*
X180251557Y-77504090D01*
X180317246Y-77301921D01*
X180350500Y-77091965D01*
X180350500Y-76879391D01*
X180317246Y-76669435D01*
X180251557Y-76467266D01*
X180155051Y-76277862D01*
X180155049Y-76277859D01*
X180155048Y-76277857D01*
X180030109Y-76105891D01*
X179879786Y-75955568D01*
X179707820Y-75830629D01*
X179707115Y-75830269D01*
X179699054Y-75826163D01*
X179648259Y-75778190D01*
X179631463Y-75710370D01*
X179653999Y-75644234D01*
X179699054Y-75605193D01*
X179707816Y-75600729D01*
X179729789Y-75584764D01*
X179879786Y-75475787D01*
X179879788Y-75475784D01*
X179879792Y-75475782D01*
X180030104Y-75325470D01*
X180030106Y-75325466D01*
X180030109Y-75325464D01*
X180155048Y-75153498D01*
X180155047Y-75153498D01*
X180155051Y-75153494D01*
X180251557Y-74964090D01*
X180317246Y-74761921D01*
X180350500Y-74551965D01*
X180350500Y-74339391D01*
X180317246Y-74129435D01*
X180251557Y-73927266D01*
X180155051Y-73737862D01*
X180155049Y-73737859D01*
X180155048Y-73737857D01*
X180030109Y-73565891D01*
X179879786Y-73415568D01*
X179707820Y-73290629D01*
X179707115Y-73290269D01*
X179699054Y-73286163D01*
X179648259Y-73238190D01*
X179631463Y-73170370D01*
X179653999Y-73104234D01*
X179699054Y-73065193D01*
X179707816Y-73060729D01*
X179729789Y-73044764D01*
X179879786Y-72935787D01*
X179879788Y-72935784D01*
X179879792Y-72935782D01*
X180030104Y-72785470D01*
X180030106Y-72785466D01*
X180030109Y-72785464D01*
X180155048Y-72613498D01*
X180155047Y-72613498D01*
X180155051Y-72613494D01*
X180251557Y-72424090D01*
X180317246Y-72221921D01*
X180350500Y-72011965D01*
X180350500Y-71799391D01*
X180317246Y-71589435D01*
X180251557Y-71387266D01*
X180155051Y-71197862D01*
X180155049Y-71197859D01*
X180155048Y-71197857D01*
X180030109Y-71025891D01*
X179879786Y-70875568D01*
X179707817Y-70750627D01*
X179699054Y-70746162D01*
X179648258Y-70698187D01*
X179631464Y-70630366D01*
X179654002Y-70564231D01*
X179699058Y-70525192D01*
X179707816Y-70520730D01*
X179852266Y-70415782D01*
X179879786Y-70395788D01*
X179879788Y-70395785D01*
X179879792Y-70395783D01*
X180030104Y-70245471D01*
X180030106Y-70245467D01*
X180030109Y-70245465D01*
X180155048Y-70073499D01*
X180155047Y-70073499D01*
X180155051Y-70073495D01*
X180251557Y-69884091D01*
X180317246Y-69681922D01*
X180350500Y-69471966D01*
X180350500Y-69259392D01*
X180317246Y-69049436D01*
X180251557Y-68847267D01*
X180155051Y-68657863D01*
X180155049Y-68657860D01*
X180155048Y-68657858D01*
X180030109Y-68485892D01*
X179879786Y-68335569D01*
X179707817Y-68210628D01*
X179699052Y-68206162D01*
X179648257Y-68158187D01*
X179631462Y-68090366D01*
X179654000Y-68024231D01*
X179699056Y-67985192D01*
X179707816Y-67980729D01*
X179707818Y-67980727D01*
X179707821Y-67980726D01*
X179879786Y-67855787D01*
X179879788Y-67855784D01*
X179879792Y-67855782D01*
X180030104Y-67705470D01*
X180030106Y-67705466D01*
X180030109Y-67705464D01*
X180155048Y-67533498D01*
X180155047Y-67533498D01*
X180155051Y-67533494D01*
X180251557Y-67344090D01*
X180317246Y-67141921D01*
X180350500Y-66931965D01*
X180350500Y-66719391D01*
X180317246Y-66509435D01*
X180251557Y-66307266D01*
X180155051Y-66117862D01*
X180155049Y-66117859D01*
X180155048Y-66117857D01*
X180030109Y-65945891D01*
X179879786Y-65795568D01*
X179707820Y-65670629D01*
X179707115Y-65670269D01*
X179699054Y-65666163D01*
X179648259Y-65618190D01*
X179631463Y-65550370D01*
X179653999Y-65484234D01*
X179699054Y-65445193D01*
X179707816Y-65440729D01*
X179729789Y-65424764D01*
X179879786Y-65315787D01*
X179879788Y-65315784D01*
X179879792Y-65315782D01*
X180030104Y-65165470D01*
X180030106Y-65165466D01*
X180030109Y-65165464D01*
X180155048Y-64993498D01*
X180155047Y-64993498D01*
X180155051Y-64993494D01*
X180251557Y-64804090D01*
X180317246Y-64601921D01*
X180350500Y-64391965D01*
X180350500Y-64179391D01*
X180317246Y-63969435D01*
X180251557Y-63767266D01*
X180155051Y-63577862D01*
X180155049Y-63577859D01*
X180155048Y-63577857D01*
X180030109Y-63405891D01*
X179879786Y-63255568D01*
X179707820Y-63130629D01*
X179707115Y-63130269D01*
X179699054Y-63126163D01*
X179648259Y-63078190D01*
X179631463Y-63010370D01*
X179653999Y-62944234D01*
X179699054Y-62905193D01*
X179707816Y-62900729D01*
X179766610Y-62858013D01*
X179879786Y-62775787D01*
X179879788Y-62775784D01*
X179879792Y-62775782D01*
X180030104Y-62625470D01*
X180030106Y-62625466D01*
X180030109Y-62625464D01*
X180155048Y-62453498D01*
X180155050Y-62453495D01*
X180155051Y-62453494D01*
X180251557Y-62264090D01*
X180317246Y-62061921D01*
X180350500Y-61851965D01*
X180350500Y-61639391D01*
X180317246Y-61429435D01*
X180251557Y-61227266D01*
X180155051Y-61037862D01*
X180155049Y-61037859D01*
X180155048Y-61037857D01*
X180030109Y-60865891D01*
X179879786Y-60715568D01*
X179707820Y-60590629D01*
X179518414Y-60494122D01*
X179518413Y-60494121D01*
X179518412Y-60494121D01*
X179316243Y-60428432D01*
X179316241Y-60428431D01*
X179316240Y-60428431D01*
X179154957Y-60402886D01*
X179106287Y-60395178D01*
X178893713Y-60395178D01*
X178845042Y-60402886D01*
X178683760Y-60428431D01*
X178481585Y-60494122D01*
X178292179Y-60590629D01*
X178120213Y-60715568D01*
X177969890Y-60865891D01*
X177844951Y-61037857D01*
X177843259Y-61041178D01*
X177817014Y-61092689D01*
X177814576Y-61097473D01*
X177766602Y-61148269D01*
X177704091Y-61165178D01*
X162374499Y-61165178D01*
X162307460Y-61145493D01*
X162261705Y-61092689D01*
X162250499Y-61041178D01*
X162250499Y-60867807D01*
X162250498Y-60867801D01*
X162250497Y-60867794D01*
X162244091Y-60808195D01*
X162209543Y-60715568D01*
X162193797Y-60673349D01*
X162193793Y-60673342D01*
X162107547Y-60558133D01*
X162107544Y-60558130D01*
X161992335Y-60471884D01*
X161992328Y-60471880D01*
X161857482Y-60421586D01*
X161857483Y-60421586D01*
X161797883Y-60415179D01*
X161797881Y-60415178D01*
X161797873Y-60415178D01*
X161797864Y-60415178D01*
X160002129Y-60415178D01*
X160002123Y-60415179D01*
X159942516Y-60421586D01*
X159807671Y-60471880D01*
X159807664Y-60471884D01*
X159692455Y-60558130D01*
X159692452Y-60558133D01*
X159606206Y-60673342D01*
X159606202Y-60673349D01*
X159555908Y-60808195D01*
X159549706Y-60865886D01*
X159549501Y-60867801D01*
X159549500Y-60867813D01*
X159549500Y-61041178D01*
X159546949Y-61049863D01*
X159548238Y-61058825D01*
X159537259Y-61082865D01*
X159529815Y-61108217D01*
X159522974Y-61114144D01*
X159519213Y-61122381D01*
X159496978Y-61136670D01*
X159477011Y-61153972D01*
X159466496Y-61156259D01*
X159460435Y-61160155D01*
X159425500Y-61165178D01*
X159320991Y-61165178D01*
X159320975Y-61165177D01*
X159313379Y-61165177D01*
X159155265Y-61165177D01*
X159075332Y-61186595D01*
X159002538Y-61206100D01*
X158965877Y-61227267D01*
X158965876Y-61227266D01*
X158865609Y-61285155D01*
X158865604Y-61285159D01*
X157519481Y-62631282D01*
X157519477Y-62631287D01*
X157500856Y-62663542D01*
X157500851Y-62663551D01*
X157440423Y-62768215D01*
X157399499Y-62920943D01*
X157399499Y-62920945D01*
X157399499Y-63089046D01*
X157399500Y-63089059D01*
X157399500Y-80413330D01*
X157399499Y-80413348D01*
X157399499Y-80579054D01*
X157399498Y-80579054D01*
X157000500Y-80579054D01*
X157000500Y-59258676D01*
X157020185Y-59191637D01*
X157036819Y-59170995D01*
X158670995Y-57536819D01*
X158732318Y-57503334D01*
X158758676Y-57500500D01*
X181241324Y-57500500D01*
X181308363Y-57520185D01*
G37*
%TD.AperFunction*%
%TD*%
M02*
